<svg xmlns="http://www.w3.org/2000/svg" xmlns:xlink="http://www.w3.org/1999/xlink" viewBox="0 0 112.26 140.78"><defs><style>.cls-1{isolation:isolate;}.cls-2{opacity:0.2;}.cls-3{fill:#8fedff;}.cls-4{fill:#c5f9ff;}.cls-5{fill:#41c0fd;}.cls-6{fill:#2afbfe;}.cls-25,.cls-7,.cls-8{mix-blend-mode:overlay;}.cls-8{fill:#0edbfc;}.cls-31,.cls-37,.cls-49,.cls-9{opacity:0.83;}.cls-10{fill:#36e1fc;}.cls-11,.cls-30,.cls-36,.cls-39,.cls-48{opacity:0.67;}.cls-12{fill:#5de6fc;}.cls-13,.cls-29,.cls-35,.cls-47{opacity:0.5;}.cls-14{fill:#85ecfd;}.cls-15,.cls-28,.cls-34,.cls-46{opacity:0.33;}.cls-16{fill:#adf2fd;}.cls-17,.cls-27,.cls-33,.cls-45{opacity:0.17;}.cls-18{fill:#d4f7fd;}.cls-19,.cls-26{opacity:0;}.cls-20{fill:#fcfdfd;}.cls-21{fill:url(#linear-gradient);}.cls-22{fill:#d8cdff;}.cls-23{opacity:0.1;}.cls-24{fill:url(#linear-gradient-2);}.cls-25,.cls-38{opacity:0.6;}.cls-26,.cls-27,.cls-28,.cls-29,.cls-30,.cls-31,.cls-32{fill:#fff;}.cls-33{fill:#dcfeff;}.cls-34{fill:#b8feff;}.cls-35{fill:#95fdff;}.cls-36{fill:#71fcfe;}.cls-37{fill:#4efcfe;}.cls-38,.cls-39,.cls-40,.cls-41,.cls-42,.cls-43,.cls-44{fill:#dcdcdc;}.cls-40{opacity:0.73;}.cls-41{opacity:0.8;}.cls-42{opacity:0.87;}.cls-43{opacity:0.93;}.cls-45{fill:#fcfefd;}.cls-46{fill:#f9fdfc;}.cls-47{fill:#f6fcfa;}.cls-48{fill:#f3fbf8;}.cls-49{fill:#f0faf7;}.cls-50{fill:#edf9f5;}.cls-51{fill:#ffd5bf;}.cls-52{fill:#ffbf99;}.cls-53{fill:#5d0ca6;}.cls-54{fill:#ffd6bf;}.cls-55{fill:#7724ce;}.cls-56{fill:#8c2ddf;}.cls-57{fill:#43008d;}.cls-58{fill:#d38f62;}.cls-59{fill:#1e292e;}.cls-60{fill:#12191c;}.cls-61{fill:#efb185;}.cls-62{fill:#37007f;}</style><linearGradient id="linear-gradient" x1="30.77" y1="37.6" x2="69.06" y2="37.6" gradientUnits="userSpaceOnUse"><stop offset="0" stop-color="#9aceff"/><stop offset="1" stop-color="#c185fe"/></linearGradient><linearGradient id="linear-gradient-2" x1="27.14" y1="42.72" x2="63.58" y2="42.72" gradientUnits="userSpaceOnUse"><stop offset="0" stop-color="#aab1ff"/><stop offset="1" stop-color="#c986ff"/></linearGradient></defs><g class="cls-1"><g id="Layer_2" data-name="Layer 2"><g id="Layer_1-2" data-name="Layer 1"><g class="cls-2"><path d="M80.24,105.78c3.06,1.77,3.08,4.63,0,6.4L54.19,127.34a12.18,12.18,0,0,1-11.06,0L16,111.65c-3.06-1.77-3.08-4.64,0-6.41L42,90.09a12.16,12.16,0,0,1,11.05,0Z"/></g><path class="cls-3" d="M76.92,99a1.23,1.23,0,0,1,0,.19c0,.06,0,.12,0,.18s0,.12-.06.19l-.06.15a2,2,0,0,1-.1.21l-.09.15-.15.22a1.34,1.34,0,0,1-.11.14,3.84,3.84,0,0,1-.28.3.94.94,0,0,1-.1.1l-.2.17a2.31,2.31,0,0,1-.19.14,1.43,1.43,0,0,1-.24.16l-.24.16L53.15,114.18c-.19.11-.4.21-.61.31l-.19.08-.52.2-.18.06-.34.1-.26.07-.36.07-.25.05c-.25,0-.49.08-.75.11l-.23,0-.44,0h-1l-.33,0-.3,0-.33,0-.3,0-.34-.06L46.2,115l-.41-.1-.22-.06c-.24-.07-.48-.15-.71-.24l-.09,0a6.6,6.6,0,0,1-.89-.42L21.08,101a3.27,3.27,0,0,1-1.93-2.71l0,8A3.27,3.27,0,0,0,21.06,109l22.8,13.16a6,6,0,0,0,.88.42l.06,0h0c.23.09.46.17.7.24l.06,0,.17,0,.4.1.11,0,.17,0,.35.06.13,0,.15,0,.34,0,.15,0h.15l.33,0h.66a1.08,1.08,0,0,0,.18,0H49l.45,0,.18,0h.05c.25,0,.5-.06.75-.11h0l.22,0L51,123l.25-.07.34-.1.08,0,.11,0,.52-.2.18-.08c.22-.1.43-.2.62-.31L75,109.48l.08,0,.17-.11.24-.15.18-.15.2-.17,0,0s0,0,.07-.07l.28-.3.06-.07h0l0-.07a1.64,1.64,0,0,0,.14-.22.36.36,0,0,0,.07-.1l0,0,.09-.2.06-.12s0,0,0,0l.06-.2s0-.09,0-.13v0a1.49,1.49,0,0,0,0-.21.69.69,0,0,0,0-.13v-.06l0-8A1.5,1.5,0,0,1,76.92,99Z"/><path class="cls-4" d="M75,96.09c2.57,1.48,2.58,3.89,0,5.37L53.15,114.18a10.23,10.23,0,0,1-9.27,0L21.08,101c-2.57-1.49-2.58-3.89,0-5.38L42.93,82.93a10.25,10.25,0,0,1,9.28,0Z"/><path class="cls-5" d="M67.46,97.59c1.85,1.07,1.86,2.8,0,3.87l-15.76,9.16a7.37,7.37,0,0,1-6.69,0l-16.42-9.48c-1.85-1.07-1.86-2.8,0-3.87l15.76-9.16a7.35,7.35,0,0,1,6.68,0Z"/><path class="cls-6" d="M63.41,100.83c1.46.82,1.47,2.16,0,3L51,110.87a6,6,0,0,1-5.27,0l-12.94-7.3c-1.46-.83-1.47-2.16,0-3l12.43-7a5.87,5.87,0,0,1,5.26,0Z"/><path class="cls-3" d="M76.92,84.05a1.36,1.36,0,0,1,0,.2c0,.06,0,.11,0,.17a1.06,1.06,0,0,1-.06.19l-.06.16a2,2,0,0,1-.1.21l-.09.14-.15.23a1.34,1.34,0,0,1-.11.14,2.54,2.54,0,0,1-.28.29.52.52,0,0,1-.1.11l-.2.17-.19.14a1.43,1.43,0,0,1-.24.16l-.24.16L53.15,99.23a5.86,5.86,0,0,1-.61.32l-.19.08-.52.19-.18.07-.34.09-.26.07-.36.08-.25.05-.75.11h-.23l-.44,0H47.74l-.3,0-.33,0-.3-.05-.34,0-.27-.06-.41-.1-.22-.06c-.24-.07-.48-.15-.71-.24l-.09,0a6.65,6.65,0,0,1-.89-.43L21.08,86.07a3.25,3.25,0,0,1-1.93-2.7l0,8a3.25,3.25,0,0,0,1.93,2.7l22.8,13.16a7.19,7.19,0,0,0,.88.43l.06,0h0c.23.09.46.17.7.24l.06,0,.17,0,.4.1.11,0,.17,0c.12,0,.23,0,.35.06l.13,0h.15l.34,0,.15,0h.15l.33,0H49a3.4,3.4,0,0,0,.45,0h.23c.25,0,.5-.06.75-.1h0l.22,0,.36-.08.25-.07.34-.09.08,0,.11,0,.52-.19.18-.08a5.15,5.15,0,0,0,.62-.32L75,94.54l.08-.05.17-.11.24-.16.18-.14.2-.17,0,0a.46.46,0,0,1,.07-.07l.28-.3.06-.07h0l0-.07.14-.22.07-.1,0-.06.09-.2.06-.12a0,0,0,0,1,0,0l.06-.21s0-.08,0-.12v0a1.5,1.5,0,0,0,0-.22.5.5,0,0,0,0-.12v-.06l0-8A1.23,1.23,0,0,1,76.92,84.05Z"/><path class="cls-4" d="M75,81.15c2.57,1.48,2.58,3.89,0,5.37L53.15,99.23a10.17,10.17,0,0,1-9.27,0L21.08,86.07c-2.57-1.48-2.58-3.89,0-5.37L42.93,68a10.22,10.22,0,0,1,9.28,0Z"/><path class="cls-5" d="M67.46,82.65c1.85,1.06,1.86,2.8,0,3.87L51.72,95.68a7.37,7.37,0,0,1-6.69,0L28.61,86.2c-1.85-1.07-1.86-2.81,0-3.88l15.76-9.16a7.35,7.35,0,0,1,6.68,0Z"/><path class="cls-6" d="M63.41,85.89c1.46.82,1.47,2.16,0,3L51,95.93a6,6,0,0,1-5.27,0L32.79,88.62c-1.46-.82-1.47-2.16,0-3L45.2,78.58a5.93,5.93,0,0,1,5.26,0Z"/><path class="cls-3" d="M76.92,68.18a1.23,1.23,0,0,1,0,.19c0,.06,0,.12,0,.18s0,.12-.06.19l-.06.16c0,.06-.06.13-.1.2l-.09.15-.15.23-.11.13a3.84,3.84,0,0,1-.28.3.94.94,0,0,1-.1.1l-.2.17a2.31,2.31,0,0,1-.19.14,1.43,1.43,0,0,1-.24.16l-.24.16L53.15,83.36c-.19.11-.4.21-.61.31l-.19.08-.52.2-.18.06-.34.1-.26.07-.36.07-.25,0c-.25,0-.49.08-.75.11l-.23,0-.44,0h-1l-.33,0-.3,0-.33,0-.3,0-.34-.06-.27-.06-.41-.1-.22-.06-.71-.23-.09,0a6.6,6.6,0,0,1-.89-.42L21.08,70.2a3.27,3.27,0,0,1-1.93-2.71l0,8a3.27,3.27,0,0,0,1.93,2.71l22.8,13.16a6,6,0,0,0,.88.42l.06,0h0c.23.09.46.17.7.24l.06,0,.17,0,.4.1.11,0,.17,0,.35.06.13,0,.15,0,.34,0,.15,0h.15l.33,0H49l.45,0,.18,0h.05c.25,0,.5-.06.75-.11h0l.22,0L51,92.2l.25-.07.34-.1.08,0,.11,0,.52-.2.18-.08c.22-.1.43-.2.62-.31L75,78.66l.08,0,.17-.11.24-.15.18-.15.2-.17,0,0s0,0,.07-.07l.28-.3.06-.07h0l0-.07a1.64,1.64,0,0,0,.14-.22.36.36,0,0,0,.07-.1l0,0,.09-.2.06-.12s0,0,0,0l.06-.2s0-.09,0-.13v0a1.49,1.49,0,0,0,0-.21.69.69,0,0,0,0-.13V76l0-8A1.5,1.5,0,0,1,76.92,68.18Z"/><path class="cls-4" d="M75,65.27c2.57,1.49,2.58,3.89,0,5.37L53.15,83.36a10.23,10.23,0,0,1-9.27,0L21.08,70.2c-2.57-1.49-2.58-3.89,0-5.38L42.93,52.11a10.25,10.25,0,0,1,9.28,0Z"/><path class="cls-5" d="M67.46,66.77c1.85,1.07,1.86,2.8,0,3.87L51.72,79.8a7.37,7.37,0,0,1-6.69,0L28.61,70.32c-1.85-1.07-1.86-2.8,0-3.87l15.76-9.16a7.35,7.35,0,0,1,6.68,0Z"/><path class="cls-6" d="M63.41,70c1.46.82,1.47,2.16,0,3L51,80.05a6,6,0,0,1-5.27,0l-12.94-7.3c-1.46-.83-1.47-2.16,0-3L45.2,62.71a5.87,5.87,0,0,1,5.26,0Z"/><g class="cls-7"><path class="cls-8" d="M58.8,64.43c6,3,6,7.92.07,10.94s-15.52,3-21.47,0-6-7.92-.07-10.94S52.85,61.41,58.8,64.43Z"/><g class="cls-9"><path class="cls-10" d="M61.61,54.49c7.51,3.58,7.55,9.37.09,12.95s-19.6,3.58-27.11,0S27,58.07,34.5,54.49,54.1,50.91,61.61,54.49Z"/></g><g class="cls-11"><path class="cls-12" d="M64.42,44.54c9.08,4.14,9.12,10.83.11,15s-23.68,4.13-32.75,0-9.12-10.83-.11-15S55.35,40.41,64.42,44.54Z"/></g><g class="cls-13"><path class="cls-14" d="M67.23,34.6c10.64,4.69,10.7,12.28.13,17S39.6,56.26,29,51.57s-10.7-12.28-.13-17S56.6,29.91,67.23,34.6Z"/></g><g class="cls-15"><path class="cls-16" d="M70,24.65c12.2,5.25,12.27,13.75.15,19s-31.84,5.24-44,0S13.89,29.9,26,24.65,57.85,19.41,70,24.65Z"/></g><g class="cls-17"><path class="cls-18" d="M72.86,14.71c13.76,5.8,13.83,15.2.16,21s-35.91,5.8-49.68,0-13.83-15.19-.16-21S59.09,8.91,72.86,14.71Z"/></g><g class="cls-19"><path class="cls-20" d="M75.67,4.76c15.32,6.36,15.4,16.66.18,23s-40,6.35-55.32,0-15.4-16.65-.18-23S60.34-1.59,75.67,4.76Z"/></g></g><path class="cls-21" d="M69,44.76c.53-8.69-10.36-25.8-29-19.27-10.68,3.74-13.17,9.76-1.83,18.05,0,0-.12,4.64,8.78,3.9,0,0,5.73-.24,9.6,2.69C60.67,53.23,68.8,48.69,69,44.76Z"/><path class="cls-22" d="M34.76,30a11.58,11.58,0,0,1,7-3.18,36.28,36.28,0,0,1,4.31.17c3.31.25,7.33.38,10.62-1l-.88-.4c-3.12,1.32-6.46.91-9.69.67a37.44,37.44,0,0,0-4.39-.17,12.11,12.11,0,0,0-7.47,3.4Z"/><path class="cls-22" d="M46.91,26.6l.63-.1c0,.27,0-.31,0-.4.15-.25,1.38-1.14,4.59-1.65L51,24.22c-2.74.43-3.72.81-4.09,1.62A.81.81,0,0,0,46.91,26.6Z"/><path class="cls-22" d="M56.55,32.09l.73-.52a18.38,18.38,0,0,0-6.07-4.84l-.52-.23-.93.39,1.16.51A17.3,17.3,0,0,1,56.55,32.09Z"/><path class="cls-22" d="M67.05,36.51l-.4-.78a15.79,15.79,0,0,1-3-.85,4.08,4.08,0,0,1-1.76-1.48,4.89,4.89,0,0,0-2.56-1.91,3.31,3.31,0,0,0-3.7,1.35l.63.38a2.6,2.6,0,0,1,2.88-1,4.2,4.2,0,0,1,2.19,1.67,4.71,4.71,0,0,0,2.07,1.71A20.25,20.25,0,0,0,67.05,36.51Z"/><path class="cls-22" d="M63.12,35c1.86-3.59-3.44-6.47-3.66-6.6l-.35.65s4.89,2.67,3.35,5.62Z"/><path class="cls-22" d="M65.87,49.22c.16-.14,3.36-2.82,1.93-5.72a10.25,10.25,0,0,0-2.25-2.86c-.78-.76-1.34-1.3-1.32-2.07A3.57,3.57,0,0,0,62,35.67a2.52,2.52,0,0,0-2.85.21l.49.54a1.91,1.91,0,0,1,2-.09,2.91,2.91,0,0,1,1.82,2.22c0,1.09.69,1.79,1.54,2.61a9.62,9.62,0,0,1,2.11,2.67c1.18,2.4-2.48,6-2.52,6.06Z"/><path class="cls-22" d="M68.53,40.42l-.3-1c-1.82-1.5-4.24-.51-4.37-.46l.26.68S67.25,38.58,68.53,40.42Z"/><path class="cls-22" d="M63.58,47.87c3.09-2.88,3-5.85,3-5.87l-.76-.15h0l.08.41A11.06,11.06,0,0,1,63.22,47Z"/><path class="cls-23" d="M56.57,50.13C52.7,47.2,47,47.44,47,47.44c-8.9.74-8.78-3.9-8.78-3.9-7.26-5.3-8.84-9.68-6.25-13.12A25.93,25.93,0,0,1,37.15,28c18.66-6.53,29.56,10.57,29,19.27a4.41,4.41,0,0,1-.92,2.26C62.51,51.18,58.9,51.88,56.57,50.13Z"/><path class="cls-24" d="M63.56,48.6c.53-8.7-8.17-25-29-19.27-4.37,1.2-13.17,9.75-1.83,18.05,0,0-.12,4.63,8.78,3.9a32.7,32.7,0,0,1,9.44,4.61C57.23,60.54,63.32,52.52,63.56,48.6Z"/><path class="cls-22" d="M32.06,46.89l.64.49s-.76-2.18-.05-3.31c.37-.59,1.2-.86,2.46-.82l.53,0c3,.11,4.93.19,5.9-1,.63-.76.74-1.93.34-3.8-.71-3.4-.54-5.74.51-6.94a4,4,0,0,1,3.45-1c3.2.25,4.38,2.37,4.85,8.75a5,5,0,0,0,3,3.59c1.35.68,4.28,2.37,8.92-.57l-.25-.71c-4.32,2.75-7.1,1.25-8.34.63a4.28,4.28,0,0,1-2.6-3C51,33.35,50,30.11,45.89,29.8a4.66,4.66,0,0,0-4,1.29c-1.23,1.4-1.45,3.88-.67,7.57.34,1.61.28,2.62-.19,3.18-.74.87-2.66.8-5.31.7l-.53,0c-1.54-.05-2.59.33-3.11,1.17A3.31,3.31,0,0,0,32.06,46.89Z"/><path class="cls-22" d="M43.83,47.4l.73-.07c-.49-5.07-7.1-4.74-7.17-4.73l0,.73C37.68,43.31,43.41,43,43.83,47.4Z"/><path class="cls-22" d="M40.9,37.13l.71-.14c0-.07-1.3-6.16-7.13-5.88l0,.73C39.74,31.58,40.85,36.9,40.9,37.13Z"/><path class="cls-22" d="M34,35.7c.83-2.82,4.21-2.88,4.24-2.88v-.73s-3.95.07-4.93,3.4Z"/><path class="cls-22" d="M55.86,48.92l.27-.68c-7.09-2.77-4.87-9.09-4.77-9.36l-.69-.25A8,8,0,0,0,55.86,48.92Z"/><path class="cls-22" d="M51.91,51l.49-.54c-2.06-1.89-.48-5-.46-5.08L51.29,45C51.21,45.14,49.44,48.69,51.91,51Z"/><path class="cls-22" d="M50.33,35.8l.59-.42s-2.47-3.42-5.7-2.14l.27.68C48.19,32.85,50.3,35.77,50.33,35.8Z"/><path class="cls-22" d="M54.7,55c3.33-.31,3.45-2.88,4.18-5.21a8,8,0,0,1,.82-2.24,4.1,4.1,0,0,1,3.71-1.95l-.13-.73a4.42,4.42,0,0,0-4.22,2.33,13.82,13.82,0,0,0-.89,2.37c-.72,2.35-2.08,5.07-4.93,5.33Z"/><path class="cls-22" d="M53.52,42.59l.73-.06c-.24-2.8,4.4-3.41,4.44-3.41l-.09-.73C58.38,38.42,53.22,39.1,53.52,42.59Z"/><path class="cls-22" d="M55.12,40.05l.62-.38c-1.33-2.17.79-5,.81-5L56,34.23C55.87,34.36,53.52,37.46,55.12,40.05Z"/><path class="cls-22" d="M33.59,43.11l.66-.31a5.17,5.17,0,0,0-2.37-2.6l-.9-.64c-1.8-1.29-.56-3.78-.54-3.8l-.66-.34c-.54,1.06-1.08,3.41.77,4.74l.92.64A4.54,4.54,0,0,1,33.59,43.11Z"/><path class="cls-22" d="M29,40.8a3.92,3.92,0,0,0,2-.64l-.42-.6a2.86,2.86,0,0,1-1.93.47c-.47-.1-1.2-1-1.49-1.52l.07,1.15c.4.7.59.93,1.26,1.09A2.44,2.44,0,0,0,29,40.8Z"/><path class="cls-22" d="M43.73,51.19c.09,0,.14-.06.21-.13.25-.27,0-.53-.13-.64v0l-1.73-1.58a2,2,0,0,1-.8-1.67c.1-1.31,1.68-2.37,1.7-2.38l-.4-.61c-.08,0-1.9,1.27-2,2.93a2.74,2.74,0,0,0,1,2.27c.91.84,1.43,1.31,1.74,1.56l.08.08h0A.71.71,0,0,0,43.73,51.19Z"/><path class="cls-22" d="M37.72,48.77a2.31,2.31,0,0,1,1.41-1.11,2.41,2.41,0,0,1,1.6.3l.4-.61a2.81,2.81,0,0,0-4,1Z"/><path class="cls-22" d="M42,40.11s1.74-1.84,3.4-1.84h0a2,2,0,0,1,1.53.73l.55-.49a2.77,2.77,0,0,0-2.08-1c-1.95,0-3.87,2-3.95,2.07Z"/><path class="cls-22" d="M35.66,38.51c2-1.91.14-5.24.07-5.38l-.64.37s1.66,3,.07,4.48Z"/><path class="cls-22" d="M57,53.07l.51-.52a3.33,3.33,0,0,0-3.82-.46l.33.66A2.59,2.59,0,0,1,57,53.07Z"/><path class="cls-22" d="M48.31,48.75c.65-1.22,2.63-1,2.65-1L51,47c-.1,0-2.49-.25-3.37,1.41Z"/><g class="cls-25"><path class="cls-26" d="M56.22,49.92a2.47,2.47,0,1,0,2.47-2.47A2.48,2.48,0,0,0,56.22,49.92Z"/><path class="cls-27" d="M56.53,50a2.18,2.18,0,1,0,2.17-2.18A2.17,2.17,0,0,0,56.53,50Z"/><path class="cls-28" d="M56.83,50a1.88,1.88,0,1,0,1.88-1.88A1.88,1.88,0,0,0,56.83,50Z"/><path class="cls-29" d="M57.13,50a1.59,1.59,0,1,0,1.58-1.59A1.59,1.59,0,0,0,57.13,50Z"/><path class="cls-30" d="M57.43,50a1.3,1.3,0,1,0,1.29-1.3A1.29,1.29,0,0,0,57.43,50Z"/><path class="cls-31" d="M57.73,50a1,1,0,0,0,2,0,1,1,0,0,0-2,0Z"/><path class="cls-32" d="M58,50.07a.7.7,0,0,0,.7.71.71.71,0,1,0,0-1.42A.7.7,0,0,0,58,50.07Z"/></g><g class="cls-25"><path class="cls-26" d="M29.37,40.05a2.47,2.47,0,1,0,2.47-2.47A2.48,2.48,0,0,0,29.37,40.05Z"/><path class="cls-27" d="M29.67,40.08a2.18,2.18,0,1,0,2.17-2.18A2.17,2.17,0,0,0,29.67,40.08Z"/><path class="cls-28" d="M30,40.1a1.89,1.89,0,1,0,1.88-1.88A1.88,1.88,0,0,0,30,40.1Z"/><path class="cls-29" d="M30.27,40.13a1.59,1.59,0,1,0,1.59-1.59A1.59,1.59,0,0,0,30.27,40.13Z"/><path class="cls-30" d="M30.57,40.15a1.3,1.3,0,1,0,1.3-1.3A1.3,1.3,0,0,0,30.57,40.15Z"/><path class="cls-31" d="M30.87,40.17a1,1,0,1,0,1-1A1,1,0,0,0,30.87,40.17Z"/><path class="cls-32" d="M31.17,40.2a.71.71,0,1,0,.71-.71A.71.71,0,0,0,31.17,40.2Z"/></g><g class="cls-25"><path class="cls-26" d="M39.14,38.51A2.47,2.47,0,1,0,41.61,36,2.48,2.48,0,0,0,39.14,38.51Z"/><circle class="cls-27" cx="41.62" cy="38.53" r="2.18"/><path class="cls-28" d="M39.75,38.56a1.88,1.88,0,1,0,1.88-1.88A1.88,1.88,0,0,0,39.75,38.56Z"/><path class="cls-29" d="M40.05,38.58A1.59,1.59,0,1,0,41.63,37,1.59,1.59,0,0,0,40.05,38.58Z"/><path class="cls-30" d="M40.35,38.61a1.3,1.3,0,1,0,1.29-1.3A1.29,1.29,0,0,0,40.35,38.61Z"/><path class="cls-31" d="M40.65,38.63a1,1,0,1,0,1-1A1,1,0,0,0,40.65,38.63Z"/><path class="cls-32" d="M41,38.66a.71.71,0,1,0,.71-.71A.7.7,0,0,0,41,38.66Z"/></g><g class="cls-25"><path class="cls-26" d="M51.67,26.5A2.47,2.47,0,1,0,54.14,24,2.46,2.46,0,0,0,51.67,26.5Z"/><path class="cls-27" d="M52,26.53a2.18,2.18,0,1,0,2.17-2.18A2.17,2.17,0,0,0,52,26.53Z"/><path class="cls-28" d="M52.27,26.55a1.89,1.89,0,1,0,1.88-1.88A1.89,1.89,0,0,0,52.27,26.55Z"/><path class="cls-29" d="M52.57,26.58A1.59,1.59,0,1,0,54.16,25,1.59,1.59,0,0,0,52.57,26.58Z"/><path class="cls-30" d="M52.87,26.6a1.3,1.3,0,1,0,1.3-1.29A1.3,1.3,0,0,0,52.87,26.6Z"/><path class="cls-31" d="M53.17,26.63a1,1,0,0,0,2,0,1,1,0,1,0-2,0Z"/><path class="cls-32" d="M53.47,26.65a.71.71,0,1,0,.71-.71A.71.71,0,0,0,53.47,26.65Z"/></g><g class="cls-25"><path class="cls-26" d="M61.11,33.46A2.47,2.47,0,1,0,63.58,31,2.47,2.47,0,0,0,61.11,33.46Z"/><path class="cls-27" d="M61.41,33.49a2.18,2.18,0,1,0,2.18-2.18A2.18,2.18,0,0,0,61.41,33.49Z"/><path class="cls-28" d="M61.71,33.51a1.89,1.89,0,1,0,1.88-1.88A1.88,1.88,0,0,0,61.71,33.51Z"/><path class="cls-29" d="M62,33.54A1.59,1.59,0,1,0,63.6,32,1.59,1.59,0,0,0,62,33.54Z"/><path class="cls-30" d="M62.31,33.56a1.3,1.3,0,1,0,1.3-1.3A1.3,1.3,0,0,0,62.31,33.56Z"/><path class="cls-31" d="M62.61,33.59a1,1,0,1,0,1-1A1,1,0,0,0,62.61,33.59Z"/><path class="cls-32" d="M62.92,33.61a.7.7,0,0,0,.7.71.71.71,0,0,0,0-1.42A.7.7,0,0,0,62.92,33.61Z"/></g><polygon class="cls-6" points="58.14 115.91 79.86 128.59 70 134.32 75.57 137.54 75.13 137.8 69.11 134.32 78.98 128.59 57.69 116.17 58.14 115.91"/><polygon class="cls-6" points="65.18 125.76 53.77 132.39 53.33 132.13 64.29 125.76 52.7 119.07 53.15 118.81 65.18 125.76"/><polygon class="cls-6" points="103.46 123.92 91.67 130.77 62.02 113.65 62.47 113.4 91.67 130.26 102.57 123.92 96.56 120.44 97 120.19 103.46 123.92"/><polygon class="cls-6" points="97.89 113.03 83.67 121.29 66.22 111.22 66.66 110.96 83.67 120.78 97.44 112.77 97.89 113.03"/><path class="cls-6" d="M77,136.78c.68.4.68,1,0,1.42a2.71,2.71,0,0,1-2.45,0c-.6-.35-.67-.88-.22-1.27l.21-.15.25-.12A2.8,2.8,0,0,1,77,136.78Z"/><g class="cls-7"><path class="cls-26" d="M72.32,137.36a3.42,3.42,0,1,0,3.42-3.42A3.42,3.42,0,0,0,72.32,137.36Z"/><path class="cls-33" d="M72.74,137.39a3,3,0,1,0,3-3A3,3,0,0,0,72.74,137.39Z"/><path class="cls-34" d="M73.15,137.43a2.61,2.61,0,1,0,2.61-2.61A2.61,2.61,0,0,0,73.15,137.43Z"/><path class="cls-35" d="M73.57,137.46a2.2,2.2,0,1,0,2.2-2.2A2.21,2.21,0,0,0,73.57,137.46Z"/><path class="cls-36" d="M74,137.49a1.8,1.8,0,1,0,1.79-1.79A1.8,1.8,0,0,0,74,137.49Z"/><path class="cls-37" d="M74.4,137.53a1.39,1.39,0,1,0,1.39-1.39A1.39,1.39,0,0,0,74.4,137.53Z"/><path class="cls-6" d="M74.82,137.56a1,1,0,1,0,1-1A1,1,0,0,0,74.82,137.56Z"/></g><path class="cls-6" d="M54.41,131.82a.75.75,0,0,1,0,1.42,2.71,2.71,0,0,1-2.45,0c-.6-.35-.68-.89-.22-1.28a1.1,1.1,0,0,1,.21-.14,1.15,1.15,0,0,1,.25-.12A2.71,2.71,0,0,1,54.41,131.82Z"/><g class="cls-7"><path class="cls-26" d="M49.77,132.39A3.42,3.42,0,1,0,53.19,129,3.42,3.42,0,0,0,49.77,132.39Z"/><path class="cls-33" d="M50.18,132.43a3,3,0,1,0,3-3A3,3,0,0,0,50.18,132.43Z"/><path class="cls-34" d="M50.6,132.46a2.61,2.61,0,1,0,2.61-2.61A2.61,2.61,0,0,0,50.6,132.46Z"/><path class="cls-35" d="M51,132.49a2.2,2.2,0,1,0,2.2-2.2A2.19,2.19,0,0,0,51,132.49Z"/><path class="cls-36" d="M51.43,132.53a1.8,1.8,0,1,0,1.8-1.8A1.8,1.8,0,0,0,51.43,132.53Z"/><path class="cls-37" d="M51.85,132.56a1.39,1.39,0,1,0,1.39-1.39A1.39,1.39,0,0,0,51.85,132.56Z"/><path class="cls-6" d="M52.27,132.6a1,1,0,1,0,1-1A1,1,0,0,0,52.27,132.6Z"/></g><path class="cls-6" d="M98.25,119.83a.75.75,0,0,1,0,1.42,2.68,2.68,0,0,1-2.45,0c-.6-.34-.67-.88-.21-1.27a1,1,0,0,1,.2-.14,1.15,1.15,0,0,1,.25-.12A2.71,2.71,0,0,1,98.25,119.83Z"/><g class="cls-7"><path class="cls-26" d="M93.61,120.4A3.42,3.42,0,1,0,97,117,3.42,3.42,0,0,0,93.61,120.4Z"/><path class="cls-33" d="M94,120.43a3,3,0,1,0,3-3A3,3,0,0,0,94,120.43Z"/><path class="cls-34" d="M94.45,120.47a2.61,2.61,0,1,0,2.6-2.61A2.59,2.59,0,0,0,94.45,120.47Z"/><path class="cls-35" d="M94.86,120.5a2.21,2.21,0,1,0,2.2-2.2A2.2,2.2,0,0,0,94.86,120.5Z"/><path class="cls-36" d="M95.28,120.53a1.8,1.8,0,1,0,1.79-1.79A1.79,1.79,0,0,0,95.28,120.53Z"/><path class="cls-37" d="M95.7,120.57a1.39,1.39,0,1,0,1.38-1.39A1.39,1.39,0,0,0,95.7,120.57Z"/><path class="cls-6" d="M96.11,120.6a1,1,0,1,0,1-1A1,1,0,0,0,96.11,120.6Z"/></g><path class="cls-6" d="M99.11,112.28c.68.4.68,1,0,1.42a2.71,2.71,0,0,1-2.45,0c-.59-.35-.67-.88-.21-1.27l.21-.15.25-.12A2.8,2.8,0,0,1,99.11,112.28Z"/><g class="cls-7"><path class="cls-26" d="M94.47,112.86a3.42,3.42,0,1,0,3.41-3.42A3.42,3.42,0,0,0,94.47,112.86Z"/><path class="cls-33" d="M94.88,112.89a3,3,0,1,0,3-3A3,3,0,0,0,94.88,112.89Z"/><path class="cls-34" d="M95.3,112.93a2.61,2.61,0,1,0,2.6-2.61A2.61,2.61,0,0,0,95.3,112.93Z"/><path class="cls-35" d="M95.71,113a2.21,2.21,0,1,0,2.2-2.2A2.21,2.21,0,0,0,95.71,113Z"/><path class="cls-36" d="M96.13,113a1.8,1.8,0,1,0,1.79-1.79A1.8,1.8,0,0,0,96.13,113Z"/><path class="cls-37" d="M96.55,113a1.39,1.39,0,1,0,1.38-1.39A1.38,1.38,0,0,0,96.55,113Z"/><path class="cls-6" d="M97,113.06a1,1,0,1,0,1-1A1,1,0,0,0,97,113.06Z"/></g><path class="cls-38" d="M.63,70a1.23,1.23,0,0,0,0,2c.67.55,1.18.87,1.87.31S4,70,3.37,69.43,1.32,69.44.63,70Z"/><g class="cls-9"><path class="cls-39" d="M.63,67.14a1.22,1.22,0,0,0,0,2c.67.55,1.28.82,2,.26s1.4-2.16.72-2.71S1.32,66.59.63,67.14Z"/></g><g class="cls-11"><path class="cls-40" d="M.63,64.29a1.22,1.22,0,0,0,0,2,1.51,1.51,0,0,0,2.07.21c.68-.55,1.25-2,.58-2.57S1.32,63.74.63,64.29Z"/></g><g class="cls-13"><path class="cls-41" d="M.63,61.44a1.22,1.22,0,0,0,0,2,1.63,1.63,0,0,0,2.16.16c.68-.55,1.12-1.87.44-2.42A2.29,2.29,0,0,0,.63,61.44Z"/></g><g class="cls-15"><path class="cls-42" d="M.63,58.59a1.22,1.22,0,0,0,0,2,1.76,1.76,0,0,0,2.26.11c.68-.55,1-1.73.3-2.28A2.21,2.21,0,0,0,.63,58.59Z"/></g><g class="cls-17"><path class="cls-43" d="M.63,55.74a1.23,1.23,0,0,0,0,2A1.91,1.91,0,0,0,3,57.78a1.37,1.37,0,0,0,.15-2.13A2.12,2.12,0,0,0,.63,55.74Z"/></g><g class="cls-19"><path class="cls-44" d="M.63,52.89a1.23,1.23,0,0,0,0,2,2,2,0,0,0,2.46,0,1.23,1.23,0,0,0,0-2A2.05,2.05,0,0,0,.63,52.89Z"/></g><path class="cls-6" d="M1.86,41.71c1-.59,1.86-.12,1.86,1.07A4.08,4.08,0,0,1,1.87,46c-1,.6-1.87.12-1.87-1.06A4.11,4.11,0,0,1,1.86,41.71Z"/><path class="cls-6" d="M1.86,68.9c1-.59,1.86-.11,1.86,1.07a4.08,4.08,0,0,1-1.85,3.21c-1,.6-1.87.12-1.87-1.06A4.12,4.12,0,0,1,1.86,68.9Z"/><path class="cls-4" d="M2,69.86V45H2a2.28,2.28,0,0,0,1-1.78c0-.66-.47-.92-1-.59a2.25,2.25,0,0,0-1,1.78c0,.59.38.86.88.65V70A2.28,2.28,0,0,0,1,71.64c0,.65.46.92,1,.59a2.28,2.28,0,0,0,1-1.78C3,69.8,2.57,69.53,2,69.86Z"/><path class="cls-38" d="M10.57,96.86a1.22,1.22,0,0,0,0,2c.67.55,1.19.87,1.87.31s1.54-2.31.87-2.86S11.25,96.32,10.57,96.86Z"/><g class="cls-9"><path class="cls-39" d="M10.57,94a1.22,1.22,0,0,0,0,2c.67.55,1.28.82,2,.26s1.4-2.16.72-2.71S11.25,93.47,10.57,94Z"/></g><g class="cls-11"><path class="cls-40" d="M10.57,91.17a1.21,1.21,0,0,0,0,2,1.52,1.52,0,0,0,2.07.21c.68-.55,1.25-2,.58-2.57S11.25,90.62,10.57,91.17Z"/></g><g class="cls-13"><path class="cls-41" d="M10.57,88.32a1.21,1.21,0,0,0,0,2,1.63,1.63,0,0,0,2.16.16c.69-.55,1.12-1.87.44-2.42A2.27,2.27,0,0,0,10.57,88.32Z"/></g><g class="cls-15"><path class="cls-42" d="M10.57,85.47a1.21,1.21,0,0,0,0,2,1.76,1.76,0,0,0,2.26.11c.68-.55,1-1.73.3-2.28A2.19,2.19,0,0,0,10.57,85.47Z"/></g><g class="cls-17"><path class="cls-43" d="M10.57,82.62a1.22,1.22,0,0,0,0,2,1.91,1.91,0,0,0,2.36,0,1.37,1.37,0,0,0,.15-2.13A2.1,2.1,0,0,0,10.57,82.62Z"/></g><g class="cls-19"><path class="cls-44" d="M10.57,79.77a1.22,1.22,0,0,0,0,2,2,2,0,0,0,2.46,0,1.23,1.23,0,0,0,0-2A2,2,0,0,0,10.57,79.77Z"/></g><path class="cls-6" d="M11.79,68.59c1-.59,1.86-.12,1.86,1.07a4.05,4.05,0,0,1-1.85,3.21c-1,.59-1.87.12-1.87-1.06A4.11,4.11,0,0,1,11.79,68.59Z"/><path class="cls-6" d="M11.79,95.78c1-.59,1.86-.11,1.86,1.07a4.05,4.05,0,0,1-1.85,3.21c-1,.6-1.87.12-1.87-1.06A4.12,4.12,0,0,1,11.79,95.78Z"/><path class="cls-4" d="M11.94,96.74V71.92h0a2.25,2.25,0,0,0,1-1.77c0-.66-.47-.92-1-.59a2.25,2.25,0,0,0-1,1.78c0,.59.38.86.88.65V96.84a2.28,2.28,0,0,0-.88,1.68c0,.65.46.92,1,.59a2.28,2.28,0,0,0,1-1.78C13,96.68,12.5,96.41,11.94,96.74Z"/><path class="cls-26" d="M87.92,99.92c-4.64,2.7-4.62,7,0,9.66s12,2.7,16.67,0,4.63-7,.06-9.66S92.53,97.26,87.92,99.92Z"/><g class="cls-9"><path class="cls-45" d="M87.42,92.47c-4.92,2.85-4.9,7.42,0,10.24s12.75,2.85,17.67,0,4.91-7.41.06-10.24S92.3,89.65,87.42,92.47Z"/></g><g class="cls-11"><path class="cls-46" d="M86.92,85c-5.2,3-5.18,7.84-.06,10.82s13.47,3,18.68,0S110.73,88,105.6,85,92.08,82,86.92,85Z"/></g><g class="cls-13"><path class="cls-47" d="M86.42,77.57C80.94,80.74,81,85.82,86.36,89s14.2,3.17,19.68,0,5.47-8.26.07-11.4S91.86,74.42,86.42,77.57Z"/></g><g class="cls-15"><path class="cls-48" d="M85.92,70.12c-5.75,3.33-5.73,8.67-.06,12s14.92,3.34,20.68,0,5.75-8.67.07-12S91.64,66.81,85.92,70.12Z"/></g><g class="cls-17"><path class="cls-49" d="M85.42,62.67c-6,3.49-6,9.09-.06,12.55s15.64,3.5,21.68,0,6-9.09.07-12.55S91.42,59.2,85.42,62.67Z"/></g><g class="cls-19"><path class="cls-50" d="M84.93,55.21c-6.32,3.65-6.3,9.52-.08,13.14s16.37,3.66,22.69,0,6.3-9.51.08-13.14S91.19,51.59,84.93,55.21Z"/></g><polygon class="cls-3" points="76.56 85.89 76.08 85.01 84.69 80.31 84.81 67.95 85.81 67.96 85.68 80.9 76.56 85.89"/><g class="cls-13"><path class="cls-4" d="M85.29,62a6.23,6.23,0,0,0-2.82,4.88c0,1.8,1.28,2.52,2.84,1.62a6.23,6.23,0,0,0,2.82-4.88C88.12,61.8,86.85,61.08,85.29,62Z"/></g><g class="cls-13"><path class="cls-4" d="M85.3,63a4.77,4.77,0,0,0-2.17,3.75c0,1.38,1,1.93,2.18,1.24a4.77,4.77,0,0,0,2.16-3.74C87.47,62.84,86.49,62.28,85.3,63Z"/></g><g class="cls-13"><path class="cls-4" d="M85.3,63.77a3.23,3.23,0,0,0-1.47,2.55c0,.93.66,1.31,1.48.84a3.22,3.22,0,0,0,1.46-2.54C86.77,63.68,86.11,63.3,85.3,63.77Z"/></g><g class="cls-7"><path class="cls-26" d="M79.65,65.4a5.78,5.78,0,1,0,5.78-5.78A5.78,5.78,0,0,0,79.65,65.4Z"/><path class="cls-33" d="M80.35,65.46a5.1,5.1,0,1,0,5.1-5.1A5.09,5.09,0,0,0,80.35,65.46Z"/><path class="cls-34" d="M81.05,65.52a4.42,4.42,0,1,0,4.41-4.41A4.41,4.41,0,0,0,81.05,65.52Z"/><path class="cls-35" d="M81.76,65.57a3.73,3.73,0,1,0,3.72-3.72A3.71,3.71,0,0,0,81.76,65.57Z"/><path class="cls-36" d="M82.46,65.63a3,3,0,1,0,3-3A3,3,0,0,0,82.46,65.63Z"/><path class="cls-37" d="M83.17,65.69a2.35,2.35,0,1,0,2.34-2.35A2.34,2.34,0,0,0,83.17,65.69Z"/><path class="cls-6" d="M83.87,65.74a1.67,1.67,0,0,0,3.33,0,1.67,1.67,0,0,0-3.33,0Z"/></g><path class="cls-51" d="M89.31,66.91A9.3,9.3,0,0,0,88,65.76a3,3,0,0,0-2.41-.15c-.51.27.11.54.93.75a1.22,1.22,0,0,1,1,.63,4.12,4.12,0,0,0,1.07,1.09C88.92,68.27,89.31,66.91,89.31,66.91Z"/><path class="cls-52" d="M88.57,68.05a5.23,5.23,0,0,0-1.22-.84c-.54-.16-.43-.76-.8-.85-.64-.16-1.16-.38-1.12-.58.48.16.93-.37,2,.41a8.1,8.1,0,0,1,1.45,1.61C88.7,68,88.68,68.13,88.57,68.05Z"/><path class="cls-51" d="M88.87,67.74s-1.56-.4-2-.59-.69-.51-.58-.56,1.49.45,1.53-.07C87.81,66.24,88.66,67.63,88.87,67.74Z"/><path class="cls-53" d="M100.27,66.46s1,1.48-1.15,2.39-6.39,2.09-7.47,1.56a24.28,24.28,0,0,1-3.3-2.52s1.1-.4.86-1.35l3.65,1.76S99.6,65.41,100.27,66.46Z"/><path class="cls-53" d="M94.13,67.79s5.85-3.43,7.11-1.69c0,0,1.15,1.45-.39,5.07s-2.11,7.11-1,9.83c0,0-7.06.93-7.84-1.21-.58-1.59,1.37-5.93.36-6.78s-.65-2.81.65-3.73S94.13,67.79,94.13,67.79Z"/><path class="cls-54" d="M94.43,61.84c-.35,4.19,1.3,3.48,1.51,4.35,0,.12,0,.11-.14,1,0,.61,2.8.51,2.74-.37,0-.29-.11-1.31-.11-1.31a15,15,0,0,1,0-2.21c.34-1.65-.71-1.78-1.59-2.56A1.41,1.41,0,0,0,94.43,61.84Z"/><path class="cls-55" d="M100.47,61.73a.43.43,0,0,0,0-.11,3.27,3.27,0,0,0-1.53-1.95,3.39,3.39,0,0,0-3.92.21,1.53,1.53,0,0,0-.55.55,3.41,3.41,0,0,0-.19,1,2.88,2.88,0,0,0,.27,1.29,1.66,1.66,0,0,0,.71.71.43.43,0,0,1,.12-.17c.19-.15.53,0,.74.4s0,1.33.25,1.53a1.8,1.8,0,0,0,2.35.19C98.79,65.33,100.88,63.44,100.47,61.73Z"/><path class="cls-56" d="M99.38,60.08c0-.13-.54,0-.68.14a2.77,2.77,0,0,1-3.08,1.48,2.48,2.48,0,0,1-1.29-.82,4.73,4.73,0,0,0-.07.56,2.88,2.88,0,0,0,.27,1.29,1.66,1.66,0,0,0,.71.71.43.43,0,0,1,.12-.17c.19-.15.53,0,.74.4s0,1.33.25,1.53a1.8,1.8,0,0,0,2.35.19A6.78,6.78,0,0,0,99.87,64,8.4,8.4,0,0,0,99.38,60.08Z"/><path class="cls-55" d="M99.24,66.93c0-2.28.81-4.56-.27-6.71-.06-.06-.13-.22-.23-.33a.38.38,0,0,0-.38.28c-.21.67.52,1.23.53,1.82,0,.2.06.39.07.59a6.45,6.45,0,0,1-.06,1,5.17,5.17,0,0,1-.53,2,3.38,3.38,0,0,0-.21,2,3.7,3.7,0,0,0,.89,2.32,3.39,3.39,0,0,0,1.57,1.1,1.35,1.35,0,0,0,.53,0A5.29,5.29,0,0,1,99.24,66.93Z"/><path class="cls-56" d="M101.81,66.14a9.49,9.49,0,0,0-.38-2.86A6.08,6.08,0,0,0,100,60.55a2.09,2.09,0,0,0-1.3-.66c.1.11.17.27.23.33,1.08,2.15.27,4.43.27,6.71a5.29,5.29,0,0,0,1.91,4c.23,0,.45-.11.68-.16C102.22,70.72,101.79,66.83,101.81,66.14Z"/><path class="cls-51" d="M85.19,73.45s-1.15-.14-1.52-.67a5.77,5.77,0,0,1-1-1.57c-.08-.46,0-.62.38-.49a6.39,6.39,0,0,1,1.74,1.33,1.42,1.42,0,0,0,.74.53C85.74,72.66,85.82,73.26,85.19,73.45Z"/><path class="cls-52" d="M85.57,72.58a1.42,1.42,0,0,1-.74-.53,6.39,6.39,0,0,0-1.74-1.33.24.24,0,0,0-.13,0c.26.33.71.89,1.11,1.37a3.49,3.49,0,0,0,1.6,1C85.72,72.81,85.66,72.62,85.57,72.58Z"/><path class="cls-57" d="M94.65,68.17c-.43-.36-1.36-.59-2.15.67l-2.6,4.23-4.64-.66a.81.81,0,0,1-.08,1.16s4.21,2.41,5.47,2S96.41,69.64,94.65,68.17Z"/><g class="cls-2"><path d="M89.71,100.91c-3.41,2-3.43,5.16,0,7.12a13.54,13.54,0,0,0,12.3,0c3.41-2,3.43-5.15,0-7.12A13.54,13.54,0,0,0,89.71,100.91Z"/></g><path class="cls-58" d="M98.39,79s2.08,1.68.93,5.58-1.45,3.75-1.1,5c.26.92,1.21,2.81,1.12,4.45-.08,1.3-.29,2-.57,4.14-.37,2.66-.29,2.1.06,3.21s-1.86,2.37-2.58,2.26.87-.68.76-2.88a52.68,52.68,0,0,0-1.94-10A45.31,45.31,0,0,1,93.59,79.9,5.4,5.4,0,0,0,98.39,79Z"/><path class="cls-59" d="M96.24,104.44h0Z"/><polygon class="cls-60" points="98.32 102.38 98.64 104.64 98.78 104.96 98.59 102.38 98.32 102.38"/><path class="cls-59" d="M98.67,100.9c-.3,0-.57.41-1.06,1.4-.21.41-.83,1.46-1.41,1.09-.07,0,.12-.31.12-.31s-.91-.19-1,.08.6,1.51,1.53,1.39S98,103.4,98.15,103c.4-.78.3.83.87-.73A1.3,1.3,0,0,0,98.67,100.9Z"/><path class="cls-60" d="M96.84,104.55a1.07,1.07,0,0,1-.59-.1c.21.12.78-.28,1.15-1a2.85,2.85,0,0,1,1.19-1.08l.16.17c-.12.38-.13-.29-.6.46C97.92,103.38,97.77,104.42,96.84,104.55Z"/><polygon class="cls-59" points="99 101.91 98.76 105.21 98.24 104.95 98.16 101.56 99 101.91"/><path class="cls-60" d="M98.76,105.21l.36-.26a14.53,14.53,0,0,0-.1-3.53c-.26-.56-.35-.52-.35-.52Z"/><path class="cls-61" d="M96.32,80.34s1.79,2.3.44,6.14-1.64,3.68-1.35,4.92c.22.93,1.07,2.87.89,4.5-.14,1.29-.39,2-.78,4.11-.5,2.63-.39,2.07-.1,3.2.33,1.28-2,2.27-2.7,2.13s.91-.64.91-2.84a54.25,54.25,0,0,0-1.42-10.07c-.54-1.43-.69-10.13-.41-12.34A3.62,3.62,0,0,0,96.32,80.34Z"/><path class="cls-59" d="M92.68,106.15h0Z"/><polygon class="cls-60" points="94.86 104.19 95.06 106.47 95.19 106.8 95.13 104.21 94.86 104.19"/><path class="cls-59" d="M95.28,102.74c-.3,0-.59.38-1.13,1.34-.23.4-.9,1.41-1.47,1-.07,0,.14-.29.14-.29s-.9-.24-1,0,.52,1.54,1.46,1.46,1.17-1.09,1.38-1.46c.44-.76.26.84.91-.69A1.29,1.29,0,0,0,95.28,102.74Z"/><path class="cls-60" d="M93.27,106.28a1,1,0,0,1-.58-.12c.2.12.78-.24,1.19-.93a2.75,2.75,0,0,1,1.25-1l.15.18c-.15.37-.12-.3-.63.43C94.4,105.17,94.2,106.2,93.27,106.28Z"/><polygon class="cls-59" points="95.56 103.76 95.16 107.04 94.64 106.76 94.73 103.37 95.56 103.76"/><path class="cls-60" d="M95.16,107l.36-.24a14.36,14.36,0,0,0,.08-3.53c-.23-.57-.32-.53-.32-.53Z"/><path class="cls-57" d="M99.2,78s-4.74,3.61-7.54.64A51.8,51.8,0,0,0,91,88.78c.18,4.59.64,5.4.64,5.4s5.84,1.07,8.08-2a6.86,6.86,0,0,1-.46-4.43C100,85.75,101.71,82,99.2,78Z"/><path class="cls-62" d="M91.66,94.18s-.46-.81-.64-5.4a51.8,51.8,0,0,1,.64-10.18c2.8,3,7.61-1.12,7.61-1.12.23.18.36,1.39.53,1.61-.41.81-2.12,1-3.18,1.36-1.76.59-3.6,3.2-3.4,6,.14,2,.64,5.89.91,7.9A14.35,14.35,0,0,1,91.66,94.18Z"/></g></g></g></svg>