<svg xmlns="http://www.w3.org/2000/svg" xmlns:xlink="http://www.w3.org/1999/xlink" viewBox="0 0 108.75 102.25"><defs><style>.cls-1{isolation:isolate;}.cls-2{opacity:0.2;}.cls-3,.cls-30,.cls-31{fill:#2afbfe;}.cls-4{mix-blend-mode:overlay;}.cls-18,.cls-20,.cls-22,.cls-23,.cls-25,.cls-27,.cls-29,.cls-5{fill:#fff;}.cls-28,.cls-5{opacity:0;}.cls-6{fill:#dcfeff;}.cls-26,.cls-6{opacity:0.17;}.cls-7{fill:#b8feff;}.cls-24,.cls-7{opacity:0.33;}.cls-8{fill:#95fdff;}.cls-17,.cls-32,.cls-36,.cls-8{opacity:0.5;}.cls-9{fill:#71fcfe;}.cls-20,.cls-21,.cls-9{opacity:0.67;}.cls-10{fill:#4efcfe;}.cls-10,.cls-19{opacity:0.83;}.cls-11{fill:#8fedff;}.cls-12{fill:#c5f9ff;}.cls-13{fill:url(#linear-gradient);}.cls-14{fill:#65d2e0;}.cls-15{fill:url(#linear-gradient-2);}.cls-16{fill:#f7f7f7;}.cls-18{opacity:0.6;}.cls-22{opacity:0.73;}.cls-23{opacity:0.8;}.cls-25{opacity:0.87;}.cls-27{opacity:0.93;}.cls-30{opacity:0.7;}.cls-31{opacity:0.4;}.cls-32,.cls-37{fill:#24d8db;}.cls-33{fill:#53d5ea;}.cls-34{fill:#6afce5;}.cls-35{opacity:0.1;}.cls-36{fill:#d4fcf4;}.cls-37,.cls-41{opacity:0.3;}.cls-38{fill:#efb185;}.cls-39{fill:#460689;}.cls-40{fill:#171716;}.cls-41{fill:#123f5d;mix-blend-mode:multiply;}.cls-42{fill:#37007f;}.cls-43{fill:#43008d;}.cls-44{fill:#b4b9bc;}.cls-45{fill:#7d8183;}.cls-46{fill:#e3e5e5;}.cls-47{fill:#bdbbbb;}.cls-48{fill:#d2d0d0;}.cls-49{fill:#d5dfe6;}.cls-50{fill:#e9f0f4;}.cls-51{fill:#5d0ca6;}.cls-52{fill:#8c2ddf;}.cls-53{fill:#e8a476;}.cls-54{fill:#db9669;}.cls-55{fill:#f1b287;}</style><linearGradient id="linear-gradient" x1="238.75" y1="60.56" x2="314.88" y2="60.56" gradientTransform="matrix(-1, 0, 0, 1, 338.07, 0)" gradientUnits="userSpaceOnUse"><stop offset="0" stop-color="#2f95e4"/><stop offset="1" stop-color="#7133de"/></linearGradient><linearGradient id="linear-gradient-2" x1="269.58" y1="71.51" x2="314.88" y2="71.51" xlink:href="#linear-gradient"/></defs><g class="cls-1"><g id="Layer_2" data-name="Layer 2"><g id="Layer_1-2" data-name="Layer 1"><g class="cls-2"><path d="M15.67,55.87c-1.37.78-1.38,2.06,0,2.86l2.7,1.58L68.46,89.63l4.18,2.44a5.42,5.42,0,0,0,4.93,0L106.85,75.3c1.36-.78,1.38-2.06,0-2.85l-57-33.35a5.41,5.41,0,0,0-4.94,0Z"/></g><g class="cls-1"><path class="cls-3" d="M97.46,84.3c1.89,1.09,1.9,2.86,0,4L78.73,99.15a7.54,7.54,0,0,1-6.83,0L53,88.26c-1.89-1.09-1.9-2.87,0-4L71.75,73.4a7.53,7.53,0,0,1,6.84,0ZM78.41,99,97.15,88.07c1.7-1,1.69-2.6,0-3.58L78.27,73.59a6.82,6.82,0,0,0-6.19,0L53.34,84.49c-1.7,1-1.7,2.59,0,3.58L72.22,99a6.82,6.82,0,0,0,6.19,0Z"/><path class="cls-3" d="M88.05,85.25a1.27,1.27,0,0,1,0,2.4L77.07,94a4.54,4.54,0,0,1-4.15,0L61.86,87.65a1.27,1.27,0,0,1,0-2.4l11-6.39a4.6,4.6,0,0,1,4.15,0Zm-11.31,8.6,11-6.39a1.07,1.07,0,0,0,0-2L76.66,79.05a3.84,3.84,0,0,0-3.49,0l-11,6.39a1.07,1.07,0,0,0,0,2l11.07,6.39a3.9,3.9,0,0,0,3.49,0Z"/><path class="cls-3" d="M93.26,84.66c1.55.89,1.55,2.35,0,3.24L78.1,96.72a6.19,6.19,0,0,1-5.59,0L57.23,87.9c-1.54-.89-1.55-2.35,0-3.24l15.18-8.82a6.21,6.21,0,0,1,5.6,0ZM77.78,96.53,93,87.71c1.36-.79,1.35-2.08,0-2.87L77.66,76a5.47,5.47,0,0,0-5,0L57.54,84.84c-1.36.79-1.35,2.08,0,2.87l15.27,8.82a5.47,5.47,0,0,0,5,0Z"/></g><path class="cls-3" d="M52.79,85.84c.53.3.53.78,0,1.08a2.06,2.06,0,0,1-1.87,0c-.47-.26-.52-.67-.17-1a.91.91,0,0,1,.16-.11.66.66,0,0,1,.19-.09A2,2,0,0,1,52.79,85.84Z"/><g class="cls-4"><path class="cls-5" d="M49.24,86.28a2.62,2.62,0,1,0,2.62-2.62A2.62,2.62,0,0,0,49.24,86.28Z"/><path class="cls-6" d="M49.56,86.3A2.31,2.31,0,1,0,51.87,84,2.3,2.3,0,0,0,49.56,86.3Z"/><path class="cls-7" d="M49.88,86.33a2,2,0,1,0,2-2A2,2,0,0,0,49.88,86.33Z"/><path class="cls-8" d="M50.2,86.35a1.69,1.69,0,1,0,1.68-1.68A1.68,1.68,0,0,0,50.2,86.35Z"/><path class="cls-9" d="M50.52,86.38A1.38,1.38,0,1,0,51.89,85,1.37,1.37,0,0,0,50.52,86.38Z"/><path class="cls-10" d="M50.84,86.41a1.06,1.06,0,1,0,1.06-1.07A1.06,1.06,0,0,0,50.84,86.41Z"/><path class="cls-3" d="M51.15,86.43a.76.76,0,1,0,.76-.75A.75.75,0,0,0,51.15,86.43Z"/></g><path class="cls-3" d="M76.18,99.19a.58.58,0,0,1,0,1.09,2.08,2.08,0,0,1-1.88,0c-.46-.27-.52-.68-.17-1l.16-.11.19-.09A2.15,2.15,0,0,1,76.18,99.19Z"/><g class="cls-4"><path class="cls-5" d="M72.62,99.63A2.63,2.63,0,1,0,75.24,97,2.62,2.62,0,0,0,72.62,99.63Z"/><path class="cls-6" d="M72.94,99.66a2.31,2.31,0,1,0,2.31-2.31A2.32,2.32,0,0,0,72.94,99.66Z"/><path class="cls-7" d="M73.26,99.68a2,2,0,1,0,2-2A2,2,0,0,0,73.26,99.68Z"/><path class="cls-8" d="M73.58,99.71A1.69,1.69,0,1,0,75.27,98,1.69,1.69,0,0,0,73.58,99.71Z"/><path class="cls-9" d="M73.9,99.74a1.38,1.38,0,1,0,1.37-1.38A1.37,1.37,0,0,0,73.9,99.74Z"/><path class="cls-10" d="M74.22,99.76a1.07,1.07,0,1,0,1.06-1.06A1.05,1.05,0,0,0,74.22,99.76Z"/><path class="cls-3" d="M74.54,99.79a.75.75,0,0,0,.75.75.76.76,0,1,0,0-1.51A.75.75,0,0,0,74.54,99.79Z"/></g><path class="cls-3" d="M99.46,85.61a.58.58,0,0,1,0,1.09,2.11,2.11,0,0,1-1.88,0c-.46-.26-.51-.67-.16-1a.58.58,0,0,1,.15-.11l.2-.1A2.09,2.09,0,0,1,99.46,85.61Z"/><g class="cls-4"><path class="cls-5" d="M95.91,86.05a2.62,2.62,0,1,0,2.62-2.62A2.62,2.62,0,0,0,95.91,86.05Z"/><path class="cls-6" d="M96.23,86.07a2.31,2.31,0,1,0,2.31-2.31A2.3,2.3,0,0,0,96.23,86.07Z"/><path class="cls-7" d="M96.54,86.1a2,2,0,1,0,2-2A2,2,0,0,0,96.54,86.1Z"/><path class="cls-8" d="M96.86,86.12a1.69,1.69,0,1,0,1.69-1.68A1.69,1.69,0,0,0,96.86,86.12Z"/><path class="cls-9" d="M97.18,86.15a1.38,1.38,0,1,0,1.38-1.38A1.38,1.38,0,0,0,97.18,86.15Z"/><path class="cls-10" d="M97.5,86.18a1.07,1.07,0,1,0,1.07-1.07A1.07,1.07,0,0,0,97.5,86.18Z"/><path class="cls-3" d="M97.82,86.2a.76.76,0,0,0,1.51,0,.76.76,0,0,0-1.51,0Z"/></g><g class="cls-1"><path class="cls-3" d="M48.22,55.31c1.89,1.09,1.9,2.86,0,3.95L29.49,70.16a7.54,7.54,0,0,1-6.83,0L3.79,59.27c-1.89-1.09-1.9-2.87,0-4L22.51,44.41a7.56,7.56,0,0,1,6.84,0ZM29.17,70,47.91,59.08c1.7-1,1.69-2.6,0-3.59L29,44.6a6.82,6.82,0,0,0-6.19,0L4.1,55.49c-1.7,1-1.7,2.6,0,3.59L23,70a6.82,6.82,0,0,0,6.19,0Z"/><path class="cls-3" d="M38.81,56.25a1.27,1.27,0,0,1,0,2.41L27.83,65a4.6,4.6,0,0,1-4.15,0L12.62,58.66a1.27,1.27,0,0,1,0-2.4l11-6.39a4.57,4.57,0,0,1,4.15,0ZM27.5,64.85l11-6.38a1.07,1.07,0,0,0,0-2L27.42,50.05a3.92,3.92,0,0,0-3.5,0l-11,6.39a1.08,1.08,0,0,0,0,2L24,64.85a3.84,3.84,0,0,0,3.49,0Z"/><path class="cls-3" d="M44,55.66c1.55.9,1.55,2.35,0,3.25L28.86,67.72a6.12,6.12,0,0,1-5.59,0L8,58.91c-1.55-.9-1.55-2.35,0-3.25l15.18-8.81a6.12,6.12,0,0,1,5.59,0ZM28.54,67.54l15.17-8.82c1.36-.79,1.35-2.08,0-2.87L28.42,47a5.47,5.47,0,0,0-5,0L8.3,55.85c-1.36.79-1.35,2.08,0,2.87l15.27,8.82a5.53,5.53,0,0,0,4.95,0Z"/></g><path class="cls-3" d="M3.55,56.85c.53.3.53.78,0,1.08a2.08,2.08,0,0,1-1.88,0c-.46-.26-.51-.67-.16-1a.91.91,0,0,1,.16-.11l.19-.1A2.09,2.09,0,0,1,3.55,56.85Z"/><g class="cls-4"><path class="cls-5" d="M0,57.29a2.62,2.62,0,1,0,2.62-2.62A2.61,2.61,0,0,0,0,57.29Z"/><path class="cls-6" d="M.32,57.31A2.31,2.31,0,1,0,2.63,55,2.3,2.3,0,0,0,.32,57.31Z"/><path class="cls-7" d="M.64,57.34a2,2,0,1,0,2-2A2,2,0,0,0,.64,57.34Z"/><path class="cls-8" d="M1,57.36a1.69,1.69,0,1,0,1.68-1.68A1.69,1.69,0,0,0,1,57.36Z"/><path class="cls-9" d="M1.28,57.39a1.38,1.38,0,0,0,2.75,0,1.38,1.38,0,1,0-2.75,0Z"/><path class="cls-10" d="M1.59,57.41a1.07,1.07,0,1,0,1.07-1.06A1.07,1.07,0,0,0,1.59,57.41Z"/><path class="cls-3" d="M1.91,57.44a.76.76,0,0,0,1.51,0,.76.76,0,0,0-1.51,0Z"/></g><path class="cls-3" d="M26.94,70.2a.58.58,0,0,1,0,1.09,2.06,2.06,0,0,1-1.87,0c-.46-.27-.52-.68-.17-1a.91.91,0,0,1,.16-.11.82.82,0,0,1,.19-.09A2.07,2.07,0,0,1,26.94,70.2Z"/><g class="cls-4"><path class="cls-5" d="M23.38,70.64A2.62,2.62,0,1,0,26,68,2.62,2.62,0,0,0,23.38,70.64Z"/><path class="cls-6" d="M23.7,70.67A2.31,2.31,0,1,0,26,68.36,2.31,2.31,0,0,0,23.7,70.67Z"/><path class="cls-7" d="M24,70.69a2,2,0,1,0,2-2A2,2,0,0,0,24,70.69Z"/><path class="cls-8" d="M24.34,70.72A1.69,1.69,0,1,0,26,69,1.68,1.68,0,0,0,24.34,70.72Z"/><path class="cls-9" d="M24.66,70.74A1.38,1.38,0,1,0,26,69.37,1.37,1.37,0,0,0,24.66,70.74Z"/><path class="cls-10" d="M25,70.77a1.07,1.07,0,0,0,2.13,0,1.07,1.07,0,1,0-2.13,0Z"/><path class="cls-3" d="M25.3,70.79a.75.75,0,1,0,.75-.75A.75.75,0,0,0,25.3,70.79Z"/></g><path class="cls-3" d="M50.22,56.62c.52.3.53.78,0,1.08a2.08,2.08,0,0,1-1.88,0c-.46-.26-.51-.67-.16-1a.64.64,0,0,1,.16-.11l.19-.1A2.09,2.09,0,0,1,50.22,56.62Z"/><g class="cls-4"><path class="cls-5" d="M46.67,57.06a2.62,2.62,0,1,0,2.62-2.63A2.62,2.62,0,0,0,46.67,57.06Z"/><path class="cls-6" d="M47,57.08a2.31,2.31,0,1,0,2.3-2.31A2.31,2.31,0,0,0,47,57.08Z"/><path class="cls-7" d="M47.31,57.11a2,2,0,1,0,2-2A2,2,0,0,0,47.31,57.11Z"/><path class="cls-8" d="M47.62,57.13a1.69,1.69,0,1,0,1.69-1.68A1.69,1.69,0,0,0,47.62,57.13Z"/><path class="cls-9" d="M47.94,57.16a1.38,1.38,0,1,0,1.38-1.38A1.37,1.37,0,0,0,47.94,57.16Z"/><path class="cls-10" d="M48.26,57.18a1.07,1.07,0,1,0,1.06-1.06A1.07,1.07,0,0,0,48.26,57.18Z"/><path class="cls-3" d="M48.58,57.21a.76.76,0,1,0,.75-.75A.75.75,0,0,0,48.58,57.21Z"/></g><path class="cls-11" d="M19.84,53.6a1.25,1.25,0,0,0,.05.32s0,0,0,0a1.34,1.34,0,0,0,.15.29l0,0a2.21,2.21,0,0,0,.26.28l.22.16a1.33,1.33,0,0,0,.19.14L23.2,56.3v4.11L20.76,59l0,0-.15-.12-.22-.16,0,0a1.94,1.94,0,0,1-.2-.21.1.1,0,0,0,0-.05l0,0L20,58.27a1.42,1.42,0,0,1-.08-.18,0,0,0,0,1,0,0s0,0,0,0a.53.53,0,0,1,0-.12l0-.18v0h0V53.6Z"/><path class="cls-11" d="M72.26,84.81a3.89,3.89,0,0,0,.62.28l.24.07.31.08c.13,0,.26.05.39.06l.09,0c.17,0,.35,0,.53,0h.08l.52,0h.08a4.54,4.54,0,0,0,.51-.09l.08,0a3,3,0,0,0,.45-.14l.07,0a2.65,2.65,0,0,0,.48-.23l26.37-15.22a1.58,1.58,0,0,0,.93-1.3V72.4a1.54,1.54,0,0,1-.93,1.3L76.72,88.92a3.13,3.13,0,0,1-.45.22h0l-.07,0-.29.1-.16,0-.08,0-.09,0-.31.06h-.93l-.35,0h-.13l-.27,0-.11,0-.32-.08-.17,0a.15.15,0,0,0-.07,0,3.89,3.89,0,0,1-.62-.28L68.5,86.73l0-4.11Z"/><path class="cls-12" d="M20.76,52.3a1.37,1.37,0,0,0,0,2.58L23.2,56.3,68.48,82.62l3.78,2.19a4.91,4.91,0,0,0,4.45,0l26.37-15.22c1.24-.72,1.24-1.87,0-2.58L51.59,37.08a4.9,4.9,0,0,0-4.46,0Z"/><polygon class="cls-13" points="54.03 38.5 99.32 64.81 68.48 82.62 23.2 56.3 54.03 38.5"/><path class="cls-14" d="M31,48.62c-.33.19-.34.58.15.83a1.16,1.16,0,0,0,1.09.12l9.59-5.44c.33-.19-.1-.64-.43-.83a1.31,1.31,0,0,0-1.19,0Z"/><path class="cls-11" d="M31.3,48.87a.37.37,0,0,0,0,.69,1.33,1.33,0,0,0,1.2,0l9.21-5.32a.36.36,0,0,0,0-.69,1.26,1.26,0,0,0-1.18,0Z"/><polygon class="cls-15" points="23.2 56.3 23.2 60.41 68.5 86.73 68.48 82.62 23.2 56.3"/><path class="cls-11" d="M84.93,74.22a1.23,1.23,0,0,0,0,2.33,4.45,4.45,0,0,0,4,0,1.23,1.23,0,0,0,0-2.33A4.47,4.47,0,0,0,84.93,74.22Z"/><path class="cls-16" d="M71.44,53.87c6.35,3.66,6.38,9.6.07,13.26s-16.55,3.66-22.89,0-6.38-9.6-.08-13.26S65.1,50.2,71.44,53.87Z"/><g class="cls-17"><path class="cls-16" d="M74,52.17c7.77,4.49,7.81,11.77.08,16.25s-20.28,4.49-28,0S38.23,56.66,46,52.17,66.24,47.68,74,52.17Z"/></g><path class="cls-12" d="M69.2,54.5c5.09,2.94,5.12,7.71,0,10.65s-13.29,2.94-18.38,0-5.13-7.71-.07-10.65S64.1,51.56,69.2,54.5Z"/><path class="cls-18" d="M52.28,55.2c-4.33,2.51-4.31,6.53-.05,9a17.11,17.11,0,0,0,15.56,0c4.3-2.48,4.32-6.52,0-9S56.58,52.72,52.28,55.2Z"/><g class="cls-19"><path class="cls-20" d="M52.28,48.9c-4.33,2.51-4.31,6.53-.05,9a17.11,17.11,0,0,0,15.56,0c4.3-2.48,4.32-6.52,0-9S56.58,46.42,52.28,48.9Z"/></g><g class="cls-21"><path class="cls-22" d="M52.28,42.6c-4.33,2.51-4.31,6.53-.05,9a17.08,17.08,0,0,0,15.56,0c4.3-2.48,4.32-6.52,0-9S56.58,40.12,52.28,42.6Z"/></g><g class="cls-17"><path class="cls-23" d="M52.28,36.31c-4.33,2.5-4.31,6.52-.05,9a17,17,0,0,0,15.56,0c4.3-2.48,4.32-6.52,0-9S56.58,33.82,52.28,36.31Z"/></g><g class="cls-24"><path class="cls-25" d="M52.28,30C48,32.52,48,36.53,52.23,39a17.11,17.11,0,0,0,15.56,0c4.3-2.49,4.32-6.53,0-9S56.58,27.52,52.28,30Z"/></g><g class="cls-26"><path class="cls-27" d="M52.28,23.71c-4.33,2.51-4.31,6.53-.05,9a17.08,17.08,0,0,0,15.56,0c4.3-2.48,4.32-6.52,0-9S56.58,21.23,52.28,23.71Z"/></g><g class="cls-28"><path class="cls-29" d="M52.28,17.41c-4.33,2.51-4.31,6.53-.05,9a17.08,17.08,0,0,0,15.56,0c4.3-2.48,4.32-6.52,0-9S56.58,14.93,52.28,17.41Z"/></g><path class="cls-30" d="M91.24,10.76a15.44,15.44,0,0,1-8.12,10.48V27.4s7.83-4.39,8.23-9Z"/><path class="cls-31" d="M36.9,24.05S28,19.84,26.71,10.24L26.07,17s0,7.78,11,12Z"/><path class="cls-31" d="M47.59,2.49V4.81s5.94-2,16.71-1.12v-2A41,41,0,0,0,47.59,2.49Z"/><path class="cls-32" d="M26.31,28.9a25.26,25.26,0,0,1,9.24-9.26,43.44,43.44,0,0,1,14.63-5.12l-.07-9A40.62,40.62,0,0,0,35.85,9.85C27.43,14.4,25.3,20.89,26.31,28.9Z"/><path class="cls-32" d="M91.42,29.87c2.09-7.77-.14-14.32-8.37-19.42A38.82,38.82,0,0,0,72.8,6.14l-.3,9.79a38.82,38.82,0,0,1,10.25,4.31A24.46,24.46,0,0,1,91.42,29.87Z"/><path class="cls-32" d="M69.81,15.48l.3-9.79A54,54,0,0,0,53,5.33l-.3,9.79A54,54,0,0,1,69.81,15.48Z"/><path class="cls-33" d="M81.4,29.9C82,20.85,70.6,3,51.16,9.83,40,13.72,37.44,20,49.26,28.63c0,0-.13,4.83,9.14,4.06,0,0,6-.25,10,2.8C72.68,38.72,81.15,34,81.4,29.9Z"/><path class="cls-34" d="M45.69,14.52A12.05,12.05,0,0,1,53,11.2a39.41,39.41,0,0,1,4.49.18c3.45.26,7.64.4,11.06-1l-.91-.42c-3.26,1.37-6.73.95-10.09.7a38.63,38.63,0,0,0-4.58-.18A12.64,12.64,0,0,0,45.14,14Z"/><path class="cls-34" d="M58.34,11l.65-.11a2.27,2.27,0,0,1,0-.42c.16-.26,1.44-1.19,4.78-1.72L62.57,8.5c-2.86.45-3.88.84-4.26,1.7A.84.84,0,0,0,58.34,11Z"/><path class="cls-34" d="M68.38,16.7l.76-.54a18.94,18.94,0,0,0-6.32-5c-.39-.17-.14,0-.54-.24l-1,.4,1.2.54A18,18,0,0,1,68.38,16.7Z"/><path class="cls-34" d="M79.32,21.3l-.42-.8a18.5,18.5,0,0,1-3.07-.89A4.29,4.29,0,0,1,74,18.07a5.09,5.09,0,0,0-2.67-2,3.46,3.46,0,0,0-3.85,1.41l.65.4a2.7,2.7,0,0,1,3-1.07,4.35,4.35,0,0,1,2.28,1.74,5,5,0,0,0,2.16,1.78A21.05,21.05,0,0,0,79.32,21.3Z"/><path class="cls-34" d="M75.22,19.69C77.16,16,71.65,13,71.41,12.82l-.36.67s5.09,2.78,3.49,5.85Z"/><path class="cls-34" d="M78.09,34.55c.16-.15,3.51-2.94,2-6a10.55,10.55,0,0,0-2.35-3c-.81-.78-1.39-1.35-1.37-2.14a3.73,3.73,0,0,0-2.33-3,2.63,2.63,0,0,0-3,.22l.51.56a2,2,0,0,1,2.14-.09,3,3,0,0,1,1.89,2.32c0,1.12.72,1.86,1.6,2.71a9.93,9.93,0,0,1,2.2,2.78c1.24,2.5-2.59,6.28-2.62,6.31Z"/><path class="cls-34" d="M80.86,25.38l-.32-1.07c-1.89-1.57-4.41-.54-4.55-.48l.28.71S79.53,23.46,80.86,25.38Z"/><path class="cls-34" d="M75.7,33.14c3.23-3,3.13-6.09,3.12-6.12L78,26.86h0l.08.44a11.5,11.5,0,0,1-2.78,4.92Z"/><path class="cls-35" d="M68.41,35.49c-4-3.05-10-2.8-10-2.8-9.27.77-9.14-4.06-9.14-4.06C41.7,23.1,40.05,18.55,42.74,15a27.19,27.19,0,0,1,5.44-2.51c19.43-6.8,30.78,11,30.23,20.07a4.62,4.62,0,0,1-1,2.36C74.59,36.59,70.83,37.32,68.41,35.49Z"/><path class="cls-34" d="M75.68,33.9c.55-9.06-8.51-26-30.23-20.08C40.89,15.08,31.72,24,43.54,32.62c0,0-.13,4.83,9.15,4.07a34,34,0,0,1,9.83,4.81C69.09,46.34,75.43,38,75.68,33.9Z"/><path class="cls-33" d="M42.87,32.11l.67.51s-.79-2.26,0-3.44c.38-.61,1.25-.9,2.56-.85l.55,0c3.09.12,5.13.19,6.14-1,.66-.79.78-2,.37-4-.75-3.54-.58-6,.52-7.23a4.15,4.15,0,0,1,3.59-1.08c3.34.25,4.57,2.47,5.06,9.11.1,1.37,1.33,2.84,3.13,3.74,1.4.71,4.45,2.47,9.29-.6l-.26-.73c-4.51,2.86-7.4,1.3-8.69.65A4.45,4.45,0,0,1,63,24.13c-.45-6.11-1.5-9.49-5.76-9.81a4.81,4.81,0,0,0-4.22,1.34c-1.28,1.46-1.51,4-.7,7.89.35,1.67.29,2.72-.2,3.31-.77.91-2.77.83-5.53.73l-.55,0c-1.6,0-2.7.35-3.24,1.22A3.41,3.41,0,0,0,42.87,32.11Z"/><path class="cls-33" d="M55.13,32.65l.76-.07c-.5-5.29-7.4-4.94-7.46-4.94l0,.77C48.72,28.39,54.7,28.1,55.13,32.65Z"/><path class="cls-33" d="M52.08,22l.74-.15c0-.06-1.36-6.41-7.43-6.12l0,.76C50.87,16.17,52,21.71,52.08,22Z"/><path class="cls-33" d="M44.92,20.46c.86-2.94,4.39-3,4.42-3V16.7s-4.12.07-5.14,3.54Z"/><path class="cls-33" d="M67.67,34.23l.27-.71c-7.38-2.88-5.07-9.47-5-9.75l-.71-.26C62.23,23.59,59.6,31.08,67.67,34.23Z"/><path class="cls-33" d="M63.54,36.35l.52-.56c-2.14-2-.5-5.27-.48-5.3l-.68-.35C62.82,30.3,61,34,63.54,36.35Z"/><path class="cls-33" d="M61.9,20.57l.62-.44s-2.58-3.57-5.94-2.23l.28.71C59.67,17.49,61.88,20.54,61.9,20.57Z"/><path class="cls-33" d="M66.46,40.55c3.46-.31,3.59-3,4.34-5.43a8.33,8.33,0,0,1,.87-2.33,4.26,4.26,0,0,1,3.85-2L75.4,30A4.63,4.63,0,0,0,71,32.43a14.69,14.69,0,0,0-.92,2.47c-.75,2.45-2.17,5.28-5.13,5.55Z"/><path class="cls-33" d="M65.23,27.64l.76-.06C65.73,24.66,70.56,24,70.61,24l-.09-.75C70.29,23.29,64.91,24,65.23,27.64Z"/><path class="cls-33" d="M66.89,25l.65-.4c-1.39-2.26.82-5.18.84-5.2l-.6-.47C67.67,19.07,65.23,22.29,66.89,25Z"/><path class="cls-33" d="M44.46,28.18l.69-.33a5.43,5.43,0,0,0-2.46-2.7l-.94-.66c-1.88-1.35-.58-3.94-.57-4l-.68-.35c-.57,1.11-1.13,3.55.8,4.94l1,.66A4.71,4.71,0,0,1,44.46,28.18Z"/><path class="cls-33" d="M39.69,25.78a4,4,0,0,0,2.05-.67l-.43-.63a2.93,2.93,0,0,1-2,.49c-.48-.11-1.24-1-1.55-1.58l.07,1.19c.42.74.62,1,1.32,1.14A2.67,2.67,0,0,0,39.69,25.78Z"/><path class="cls-33" d="M55,36.6c.09,0,.14-.06.21-.14.27-.28,0-.55-.13-.66h0c-.17-.14-.61-.54-1.81-1.64a2.14,2.14,0,0,1-.83-1.74c.11-1.36,1.76-2.47,1.78-2.48l-.42-.63c-.08.05-2,1.32-2.12,3a2.86,2.86,0,0,0,1.08,2.37c.95.87,1.49,1.37,1.81,1.63l.08.08h0A.7.7,0,0,0,55,36.6Z"/><path class="cls-33" d="M48.77,34.08a2.35,2.35,0,0,1,1.47-1.16,2.46,2.46,0,0,1,1.66.31l.42-.63a3.18,3.18,0,0,0-2.24-.42,3.13,3.13,0,0,0-2,1.49Z"/><path class="cls-33" d="M53.22,25.06s1.81-1.92,3.54-1.92h0a2.16,2.16,0,0,1,1.6.76l.56-.51a2.85,2.85,0,0,0-2.16-1c-2,0-4,2.07-4.12,2.16Z"/><path class="cls-33" d="M46.62,23.39c2.09-2,.15-5.46.07-5.6l-.66.38s1.72,3.08.07,4.67Z"/><path class="cls-33" d="M68.86,38.55,69.4,38a3.46,3.46,0,0,0-4-.47l.35.68A2.67,2.67,0,0,1,68.86,38.55Z"/><path class="cls-33" d="M59.8,34.06c.68-1.28,2.74-1.07,2.76-1.07l.09-.75c-.11,0-2.6-.27-3.52,1.46Z"/><path class="cls-36" d="M75.68,33.9C75.43,38,69.4,45.74,63.81,42.28a68.26,68.26,0,0,0-11.12-5.59c-9.28.76-9.15-4.07-9.15-4.07C36.1,27.19,37,21.64,39.79,18c-1.88,5.9,4.31,11,6.24,13.1,2.11,2.32,4.68,1.81,7.93,1.44s2.85,1.4,10.6,3.84c6.43,2,10-2.62,11.11-4.27A15.84,15.84,0,0,1,75.68,33.9Z"/><path class="cls-32" d="M26.46,20.89C25.19,31,27.35,39,37.87,44.78a47.94,47.94,0,0,0,10.22,4.09V37.09A47.94,47.94,0,0,1,37.87,33C32.82,30.21,28.23,24.45,26.46,20.89Z"/><path class="cls-32" d="M91.77,20.89c-1.72,3.52-6.53,8.71-11.46,11.5a44.54,44.54,0,0,1-7.54,3.36l.09,11.77a45,45,0,0,0,7.55-3.35C90.75,38.31,92.56,29.87,91.77,20.89Z"/><path class="cls-37" d="M69.89,48.57V36.78a70.05,70.05,0,0,1-19.71,1.27V49.82A70.07,70.07,0,0,0,69.89,48.57Z"/><path class="cls-30" d="M41.56,6s-8.05,2.19-11.74,6.9V8.4S32.9,5.26,41.56,2Z"/><path class="cls-30" d="M68.65,0V4.34S77,4.65,87.23,11.6V6.14S80.86,1.75,68.65,0Z"/><path class="cls-3" d="M31.48,12.85a22,22,0,0,1,2-1.42A41.33,41.33,0,0,1,39,8.33c1.21-.55,2.53-1.1,4-1.61a42.57,42.57,0,0,1,4.58-1.37,49.21,49.21,0,0,1,5-.93,45.11,45.11,0,0,1,10.56-.14c.87.07,1.72.22,2.57.32s1.67.3,2.48.45a44.58,44.58,0,0,1,4.63,1.21c.73.21,1.43.45,2.1.7s1.32.46,1.93.72c1.22.52,2.35,1,3.3,1.47S82,10,82.66,10.41l2.11,1.19-2.18-1.06c-.67-.36-1.54-.71-2.52-1.14S78,8.56,76.73,8.07c-.61-.24-1.27-.43-1.94-.66S73.43,7,72.7,6.77c-1.45-.42-3-.76-4.6-1.09-.81-.14-1.62-.31-2.46-.42S64,5,63.1,5a47.3,47.3,0,0,0-5.2-.18,44.81,44.81,0,0,0-5.2.33,47.62,47.62,0,0,0-5,.87A51.06,51.06,0,0,0,39.2,8.7c-1.21.53-2.31,1-3.26,1.52s-1.77.93-2.42,1.33C32.19,12.33,31.48,12.85,31.48,12.85Z"/><path class="cls-3" d="M36.37,32.07s.7.45,2,1.1A44.4,44.4,0,0,0,44,35.49c1.18.38,2.47.8,3.86,1.12s2.87.62,4.41.84a42.91,42.91,0,0,0,4.77.43,42.83,42.83,0,0,0,4.93-.17l1.24-.11,1.22-.18c.82-.09,1.63-.27,2.43-.42a41.13,41.13,0,0,0,4.62-1.25c1.47-.5,2.88-1,4.18-1.61l1-.42.92-.46c.6-.31,1.19-.57,1.73-.89,1.08-.63,2.1-1.15,2.94-1.72s1.62-1,2.2-1.44l1.88-1.32-1.79,1.44c-.57.47-1.31,1-2.14,1.55s-1.81,1.2-2.88,1.86c-.54.33-1.13.61-1.72.94l-.92.5-1,.45a39.52,39.52,0,0,1-4.2,1.73A42.44,42.44,0,0,1,67,37.67c-.81.17-1.62.35-2.46.46l-1.24.19L62,38.44a40.32,40.32,0,0,1-5,.12,44.33,44.33,0,0,1-4.84-.47,37.7,37.7,0,0,1-4.44-1c-1.4-.37-2.69-.83-3.87-1.25a41,41,0,0,1-5.5-2.58A21.39,21.39,0,0,1,36.37,32.07Z"/><path class="cls-3" d="M89.72,34.88A9.48,9.48,0,0,1,89,36.37,18,18,0,0,1,88,38a10.77,10.77,0,0,1-.7.93c-.27.31-.52.67-.84,1l-1,1c-.34.34-.73.66-1.12,1a25.73,25.73,0,0,1-2.58,2l-1.47.88a14.37,14.37,0,0,1-1.54.85,31.14,31.14,0,0,1-3.28,1.46l-1.69.62c-.56.2-1.14.33-1.71.49l-1.69.47c-.56.17-1.13.24-1.68.35-1.1.21-2.16.45-3.18.55l-2.89.29a19.61,19.61,0,0,1-2.44.13l-1.88,0H56.72l1.63-.16,1.88-.16c.72-.06,1.53-.12,2.41-.27L65.48,49c.51-.06,1-.19,1.54-.3l1.6-.34c.54-.13,1.1-.2,1.65-.37l1.66-.49c.55-.17,1.12-.31,1.68-.51l1.65-.63A30.8,30.8,0,0,0,78.49,45a13.72,13.72,0,0,0,1.52-.8l1.46-.85,1.33-.92c.22-.15.45-.29.65-.45l.6-.48c.39-.32.79-.61,1.14-.94l1-.95c.33-.3.59-.64.87-.93a9.68,9.68,0,0,0,.75-.87,15.46,15.46,0,0,0,1.1-1.5,11.9,11.9,0,0,0,.62-1C89.66,35,89.72,34.88,89.72,34.88Z"/><path class="cls-38" d="M100.81,61.38a3.54,3.54,0,0,1,2.16,0c.75.41,1.28.51,1.68,1s.14.8-.35.84a5.47,5.47,0,0,1-2.19-.45,2,2,0,0,0-1.18-.22A.66.66,0,0,1,100.81,61.38Z"/><path class="cls-39" d="M91.82,51.46c.69-.17,1.93.07,2.32,1.88s1.44,6.86,1.44,6.86,5.23.75,5.83.93a1.13,1.13,0,0,0-.41,1.5s-5.64.84-7-.32S89,52.16,91.82,51.46Z"/><path class="cls-40" d="M103.41,82.53c.2,0,.26-.23.58-.37.07.37.48.84.56,1.2a.45.45,0,0,0,.09.1c1.25,1.42,4.43,2.59,4.09,3.65-.24.76-2.14,1.35-3.17.83a2.18,2.18,0,0,1-.68-.6,1.76,1.76,0,0,0-1.29-.76,1.55,1.55,0,0,1-.83-.42c-1.07-1.27-.17-2-.59-3.29Z"/><path class="cls-41" d="M99.76,74.17v-.09C99.79,75.23,99.77,74.46,99.76,74.17Z"/><path class="cls-41" d="M99.76,74.17v0Z"/><path class="cls-40" d="M96.6,84.54c.16-.89.38-1.81.62-2.73l-2.71-.47c.08.61.16,1.22.22,1.79-.11,1.4-1.19,1.63-.74,3.16a1.45,1.45,0,0,0,.57.67,1.66,1.66,0,0,1,.83,1.15,2,2,0,0,0,.36.77c.7.84,2.57,1,3.06.48.7-.79-1.62-3-2.17-4.7A.56.56,0,0,1,96.6,84.54Z"/><path class="cls-42" d="M98.37,73.88a9.1,9.1,0,0,0-.23-5.18c-.76-2.15-4.88-4.6-4.93-4.6s-4,1.15-3.85,1.83c.11.38,5,6.91,5.09,7.19a1.83,1.83,0,0,1,0,1.28c-.71,2-1.11,8-.6,9.85a2,2,0,0,0,3,.78c.07-.11,1.43-9.77,1.58-11.15Z"/><path class="cls-42" d="M92.78,63.89s4.6,2.66,5.36,4.81a6.13,6.13,0,0,1,.09,4.51h0a10.81,10.81,0,0,1-.18,3.25c-1.22-1.29-.77-4.68-2.89-3.78-.37.06-1.16,7.31-1,10.21a10.19,10.19,0,0,0,.44,2.21c-.31-.07-.61-.22-.84-.85-.2-1.51-.47-6.54.6-9.85a1.94,1.94,0,0,0,0-1.28c-.07-.28-5-6.81-5.09-7.19C89.17,65.25,92.74,63.88,92.78,63.89Z"/><path class="cls-43" d="M89.66,72.36c3.7.79,7.06,1.16,7.06,1.16,0,4.45,4.82,9.77,5.37,10.5a5.65,5.65,0,0,0,2.3-1.15c-.58-2.15-3.68-10.83-5-12.46-.85-1-10-4-9.84-4.4a9.89,9.89,0,0,0-2.23-1.12C85.47,64.35,83.1,71,89.66,72.36Z"/><path class="cls-43" d="M87.29,64.89A9.89,9.89,0,0,1,89.52,66c-.06.18,1.48.7,3.38,1.33a3.21,3.21,0,0,1-.56.44c-1.69,1-4.4-1.14-5.94.13-1,.82.17,2.07.77,2.51,2.84,1.91,7.12,3.17,10.15,1.81-.14,4.44,2.6,8.35,5.43,11.68a2,2,0,0,1-.66.11c-.55-.73-5.35-6-5.37-10.5,0,0-3.36-.37-7.06-1.16C83.1,71,85.47,64.35,87.29,64.89Z"/><g class="cls-1"><polygon class="cls-44" points="91.45 67.59 91.42 67.88 95.73 70.95 95.75 70.65 91.45 67.59"/><polygon class="cls-45" points="95.75 70.65 95.73 70.95 103.77 67.26 103.79 66.96 95.75 70.65"/><polygon class="cls-46" points="91.45 67.59 95.75 70.65 103.79 66.96 99.49 63.89 91.45 67.59"/></g><g class="cls-1"><polygon class="cls-47" points="97.04 65.56 96.72 65.26 95.38 70.64 95.7 70.94 97.04 65.56"/><polygon class="cls-48" points="105.45 61.7 105.13 61.4 96.72 65.26 97.04 65.56 105.45 61.7"/><polygon class="cls-49" points="97.04 65.56 95.7 70.94 104.1 67.07 105.45 61.7 97.04 65.56"/><polygon class="cls-50" points="97.04 65.56 97.04 65.56 104.1 67.07 105.45 61.7 97.04 65.56"/></g><path class="cls-51" d="M84.68,54.86s1.69-2.74,8.1-3.46c0,0,1-.4.84,2.91a3.75,3.75,0,0,0,.77,1.74c.32.45,1.16,2.13-.84,4.05,0,0-.84,2.92,0,4.85.75,1.73-3.5,3.27-7.06,2.82-.44-.06-1.41-.38-1-1.9s1.42-4.18.78-7S84.16,56.28,84.68,54.86Z"/><path class="cls-52" d="M91.79,46.24s-.51,3.29-.8,6.43a1,1,0,0,0,1.26,1.07s2.5-3.66.7-7.42a3.55,3.55,0,0,0-5.25-1.25Z"/><path class="cls-53" d="M92.34,50.59a3.08,3.08,0,0,0-.7,2.75c.13.4.45,2-2,1.29,0,0-2.51-1.37-1.72-2.12.53-.5,1-1.22.38-3.88Z"/><path class="cls-54" d="M87.93,52.51a.46.46,0,0,0-.14.25,4.61,4.61,0,0,0,4-1l-3-2.79h0l-.39.26C88.9,51.39,88.42,52.05,87.93,52.51Z"/><path class="cls-55" d="M92.09,45.89s.65.26.61,2.22c0,.21.33.51.41,1s.12,2.74-1.15,2.93a3.93,3.93,0,0,1-3.86-2.74C87.42,47.12,89.38,44.35,92.09,45.89Z"/><path class="cls-52" d="M91.94,46.68s-5.69,1.88-1.69,9.25a4.48,4.48,0,0,1-4.17-2.37c-.58-1.23-.26-3.67,0-6,0,0,.77-3.57,3.75-2.94C89.82,44.62,91.79,45.44,91.94,46.68Z"/><path class="cls-52" d="M91.94,46.68s1-.16,1.41,1.67c0,0,0-5.12-4.89-3.72C88.46,44.63,91.34,44.86,91.94,46.68Z"/><path class="cls-55" d="M89.21,49.76s-.31-1.1-.95-.79c-.2.1-.42.32-.14.89s.89,1.09,1.38,1Z"/><path class="cls-38" d="M92.83,64.25s1.41.08,1.88.7A6.89,6.89,0,0,1,96,66.77c.14.56,0,.76-.42.63a7.7,7.7,0,0,1-2.18-1.49,1.72,1.72,0,0,0-.94-.59C92.22,65.23,92.09,64.52,92.83,64.25Z"/><path class="cls-54" d="M92.43,65.32a1.72,1.72,0,0,1,.94.59,7.7,7.7,0,0,0,2.18,1.49l.17,0c-.34-.38-.92-1-1.44-1.58a4.25,4.25,0,0,0-2-1A.48.48,0,0,0,92.43,65.32Z"/><path class="cls-43" d="M85.42,54.27c.67-.13,1.78.15,1.91,1.94s.43,6.79.43,6.79,4.75.94,5.28,1.14a1,1,0,0,0-.58,1.28s-5.33.78-6.41-.41S82.7,54.85,85.42,54.27Z"/></g></g></g></svg>