<svg xmlns="http://www.w3.org/2000/svg" xmlns:xlink="http://www.w3.org/1999/xlink" viewBox="0 0 105.57 103.34"><defs><style>.cls-1{isolation:isolate;}.cls-2{fill:#2afbfe;}.cls-3{opacity:0.2;}.cls-4{fill:#41c0fd;}.cls-5{fill:#c5f9ff;}.cls-6{fill:#5c697c;}.cls-7{fill:#cbcfda;}.cls-8{fill:#f3e7e0;}.cls-9{fill:url(#linear-gradient);}.cls-10,.cls-33{opacity:0.6;}.cls-10,.cls-18{mix-blend-mode:overlay;}.cls-11,.cls-12,.cls-13,.cls-14,.cls-15,.cls-16,.cls-17,.cls-30,.cls-33,.cls-35,.cls-37,.cls-39{fill:#fff;}.cls-11,.cls-40{opacity:0;}.cls-12,.cls-19,.cls-38,.cls-51{opacity:0.17;}.cls-13,.cls-20,.cls-36,.cls-52{opacity:0.33;}.cls-14,.cls-21,.cls-34,.cls-53{opacity:0.5;}.cls-15,.cls-22,.cls-32,.cls-54{opacity:0.67;}.cls-16,.cls-23,.cls-31,.cls-55{opacity:0.83;}.cls-19{fill:#dcfeff;}.cls-20{fill:#b8feff;}.cls-21{fill:#95fdff;}.cls-22{fill:#71fcfe;}.cls-23{fill:#4efcfe;}.cls-24{fill:#cb83ff;}.cls-25,.cls-30{opacity:0.4;}.cls-26{fill:url(#linear-gradient-2);}.cls-27{fill:#d8cdff;}.cls-28{opacity:0.1;}.cls-29{fill:url(#linear-gradient-3);}.cls-35{opacity:0.7;}.cls-37{opacity:0.8;}.cls-39{opacity:0.9;}.cls-41{fill:#e6a376;}.cls-42{fill:#460689;}.cls-43{fill:#111114;}.cls-44{fill:#37007f;}.cls-45{fill:#43008d;}.cls-46{fill:#5d0ca6;}.cls-47{fill:#efb185;}.cls-48{fill:#dd9569;}.cls-49{fill:#8c2ddf;}.cls-50{fill:#def0f9;}.cls-51{fill:#fcfefd;}.cls-52{fill:#f9fdfc;}.cls-53{fill:#f6fcfa;}.cls-54{fill:#f3fbf8;}.cls-55{fill:#f0faf7;}.cls-56{fill:#edf9f5;}</style><linearGradient id="linear-gradient" x1="17.59" y1="39.01" x2="71.63" y2="39.01" gradientUnits="userSpaceOnUse"><stop offset="0" stop-color="#2f95e4"/><stop offset="1" stop-color="#7133de"/></linearGradient><linearGradient id="linear-gradient-2" x1="43.25" y1="42.09" x2="80.16" y2="42.09" gradientUnits="userSpaceOnUse"><stop offset="0" stop-color="#9aceff"/><stop offset="1" stop-color="#c185fe"/></linearGradient><linearGradient id="linear-gradient-3" x1="39.75" y1="47.03" x2="74.87" y2="47.03" gradientUnits="userSpaceOnUse"><stop offset="0" stop-color="#aab1ff"/><stop offset="1" stop-color="#c986ff"/></linearGradient></defs><g class="cls-1"><g id="Layer_2" data-name="Layer 2"><g id="Layer_1-2" data-name="Layer 1"><path class="cls-2" d="M87.09,54.63c19.28,11.12,19.37,29.23.22,40.36s-50.4,11.13-69.67,0-19.39-29.23-.23-40.36S67.82,43.5,87.09,54.63ZM18.17,94.68c19,10.95,49.75,10.95,68.6,0s18.76-28.79-.21-39.74-49.76-11-68.62,0-18.75,28.78.23,39.74Z"/><path class="cls-2" d="M58.89,71c3.61,2.09,3.64,5.49,0,7.58a14.45,14.45,0,0,1-13.09,0c-3.62-2.09-3.63-5.49,0-7.58A14.45,14.45,0,0,1,58.89,71ZM46.38,78.29a13.24,13.24,0,0,0,12,0c3.3-1.92,3.28-5,0-7a13.24,13.24,0,0,0-12,0c-3.3,1.92-3.28,5,0,7Z"/><path class="cls-2" d="M64.66,67.66C71.48,71.6,71.52,78,64.74,82s-17.85,3.93-24.67,0S33.21,71.6,40,67.66,57.83,63.72,64.66,67.66Zm-24,14c6.53,3.77,17.1,3.77,23.59,0s6.45-9.9-.08-13.66S47,64.21,40.53,68s-6.45,9.89.08,13.66Z"/><path class="cls-2" d="M70,64.56c9.79,5.65,9.84,14.84.12,20.5s-25.59,5.64-35.38,0-9.83-14.85-.11-20.5S60.21,58.91,70,64.56ZM35.27,84.74c9.49,5.48,24.88,5.48,34.3,0S79,70.35,69.46,64.88s-24.88-5.48-34.3,0-9.38,14.39.11,19.86Z"/><path class="cls-2" d="M76.14,61c13.19,7.62,13.26,20,.15,27.63s-34.5,7.62-47.7,0-13.26-20-.15-27.63S62.94,53.38,76.14,61Zm-47,27.32c12.89,7.45,33.81,7.45,46.62,0s12.75-19.56-.15-27-33.81-7.45-46.62,0-12.75,19.56.15,27Z"/><path class="cls-2" d="M81.78,57.71c16.33,9.43,16.42,24.76.19,34.2s-42.7,9.42-59,0-16.42-24.77-.2-34.2S65.45,48.28,81.78,57.71ZM23.48,91.59c16,9.26,42,9.26,58,0S97.28,67.28,81.25,58s-42-9.26-58,0-15.83,24.32.2,33.57Z"/><g class="cls-3"><path d="M17.49,76.84l21.77,12.1a7,7,0,0,0,5.53-.12c9.62-5.32,38-21.14,38-21.14,1.39-.78,1.4-2,0-2.78l-22-12.23Z"/></g><path class="cls-4" d="M93.25,71.23a1.14,1.14,0,0,1-.66.94l-1.18.67V71.35L89.06,70l-2.3,1.33,1.32.77,1-.58,1,.6-1,.57-2.35-1.36v.08l-1.12-.65a3.6,3.6,0,0,0-.4-.94l.74-.43V67.85l-2.34-1.36-.53.31v-.61l-2.35-1.37-.52.3v-.6l-2.35-1.36-2.3,1.32v.37l-.33-.18L73,66v.37l-.32-.19-2.3,1.33v.37L70,67.69,67.73,69v.37l-.32-.18-2.3,1.33v.36l-.32-.18-2.3,1.33v.37l-.32-.19-2.3,1.33v.37l-.32-.18-2.3,1.32v.38l-.32-.19-2.3,1.33V77l-.32-.19L52,78.1v.37l-.31-.19-2.31,1.33V80l-.31-.18-2.31,1.33v.37l-.32-.19-2.29,1.33h0V83l-.32-.19-2.31,1.33v1.37l-1.19-.69L38,86.16v1.4L37,86.92a1.11,1.11,0,0,1-.66-.92v1.52a1.14,1.14,0,0,0,.65.93l13.39,7.78a3.56,3.56,0,0,0,3.21,0l39-22.54a1.16,1.16,0,0,0,.67-.94C93.26,72.25,93.25,71.74,93.25,71.23Z"/><path class="cls-5" d="M92.6,70.36,79.21,62.58a3.56,3.56,0,0,0-3.21,0L37,85.12A1,1,0,0,0,37,87l13.39,7.78a3.56,3.56,0,0,0,3.21,0l39-22.54A1,1,0,0,0,92.6,70.36Z"/><path class="cls-6" d="M77.2,66.82a.48.48,0,0,1-.26-.07L75.61,66a.51.51,0,0,1-.26-.44.52.52,0,0,1,.26-.45l1.29-.74a.52.52,0,0,1,.52,0l1.33.77a.54.54,0,0,1,.26.45.52.52,0,0,1-.26.45l-1.29.74A.48.48,0,0,1,77.2,66.82Z"/><path class="cls-7" d="M77.38,64.4l1.34.78a.44.44,0,0,1,0,.76l-1.3.75a.43.43,0,0,1-.44,0l-1.33-.78a.43.43,0,0,1,0-.76l1.29-.75A.43.43,0,0,1,77.38,64.4Z"/><path class="cls-6" d="M74.73,68.25a.59.59,0,0,1-.26-.07l-1.33-.77a.52.52,0,0,1,0-.9l1.29-.74a.45.45,0,0,1,.25-.07.46.46,0,0,1,.26.07l1.34.77a.52.52,0,0,1,.26.45.55.55,0,0,1-.26.45l-1.3.74A.52.52,0,0,1,74.73,68.25Z"/><path class="cls-7" d="M74.91,65.83l1.33.77a.44.44,0,0,1,0,.77L75,68.12a.43.43,0,0,1-.44,0l-1.34-.77a.44.44,0,0,1,0-.76l1.29-.75A.45.45,0,0,1,74.91,65.83Z"/><path class="cls-6" d="M72.26,69.68a.53.53,0,0,1-.26-.07l-1.34-.78a.51.51,0,0,1,0-.89L72,67.19a.58.58,0,0,1,.26-.06.48.48,0,0,1,.26.07L73.8,68a.51.51,0,0,1,0,.89l-1.29.75A.59.59,0,0,1,72.26,69.68Z"/><path class="cls-7" d="M72.43,67.26l1.34.77a.45.45,0,0,1,0,.77l-1.29.75a.48.48,0,0,1-.45,0l-1.33-.77a.43.43,0,0,1,0-.76L72,67.26A.43.43,0,0,1,72.43,67.26Z"/><path class="cls-6" d="M77.44,69.82a.48.48,0,0,1-.26-.07L75.85,69a.51.51,0,0,1,0-.89l1.29-.75a.52.52,0,0,1,.52,0l1.33.78a.51.51,0,0,1,.26.45A.52.52,0,0,1,79,69l-1.28.74A.51.51,0,0,1,77.44,69.82Z"/><path class="cls-7" d="M77.61,67.41l1.34.77A.45.45,0,0,1,79,69l-1.29.74a.43.43,0,0,1-.44,0l-1.34-.77a.45.45,0,0,1,0-.77l1.29-.74A.43.43,0,0,1,77.61,67.41Z"/><path class="cls-6" d="M82.63,70a.53.53,0,0,1-.26-.07L81,69.13a.53.53,0,0,1-.25-.45.52.52,0,0,1,.25-.45l1.3-.74a.43.43,0,0,1,.25-.07.48.48,0,0,1,.26.07l1.33.77a.52.52,0,0,1,.26.45.51.51,0,0,1-.26.44l-1.29.75A.59.59,0,0,1,82.63,70Z"/><path class="cls-7" d="M82.81,67.55l1.33.78a.44.44,0,0,1,0,.76l-1.3.75a.49.49,0,0,1-.44,0l-1.33-.78a.44.44,0,0,1,0-.76l1.29-.75A.45.45,0,0,1,82.81,67.55Z"/><path class="cls-6" d="M69.78,71.13a.41.41,0,0,1-.19,0L68,70.14a.37.37,0,0,1-.19-.32.37.37,0,0,1,.19-.33l1.57-.9a.31.31,0,0,1,.19-.06.3.3,0,0,1,.18.06l1.62.93a.39.39,0,0,1,.18.33.38.38,0,0,1-.18.32L70,71.08A.45.45,0,0,1,69.78,71.13Z"/><path class="cls-7" d="M69.89,68.65l1.61.93a.31.31,0,0,1,0,.53l-1.57.9a.27.27,0,0,1-.3,0L68,70.08a.31.31,0,0,1,0-.53l1.57-.9A.27.27,0,0,1,69.89,68.65Z"/><path class="cls-6" d="M80.15,71.4a.59.59,0,0,1-.26-.07l-1.34-.78a.52.52,0,0,1-.25-.44.51.51,0,0,1,.26-.45l1.29-.74a.45.45,0,0,1,.25-.07.53.53,0,0,1,.26.07l1.34.77a.53.53,0,0,1,0,.9l-1.29.74A.59.59,0,0,1,80.15,71.4Z"/><path class="cls-7" d="M80.33,69l1.33.78a.44.44,0,0,1,0,.76l-1.29.74a.43.43,0,0,1-.44,0l-1.34-.77a.45.45,0,0,1,0-.77L79.88,69A.45.45,0,0,1,80.33,69Z"/><path class="cls-6" d="M67.31,72.55a.3.3,0,0,1-.19,0l-1.62-.93a.39.39,0,0,1-.18-.33.38.38,0,0,1,.18-.32L67.08,70a.37.37,0,0,1,.18-.05.41.41,0,0,1,.19.05l1.62.94a.37.37,0,0,1,.19.32.37.37,0,0,1-.19.33l-1.58.9A.29.29,0,0,1,67.31,72.55Z"/><path class="cls-7" d="M67.42,70.07,69,71a.3.3,0,0,1,0,.52l-1.57.91a.29.29,0,0,1-.31,0l-1.61-.94a.3.3,0,0,1,0-.52l1.57-.91A.34.34,0,0,1,67.42,70.07Z"/><path class="cls-6" d="M77.67,72.83a.59.59,0,0,1-.26-.07L76.08,72a.52.52,0,0,1,0-.9l1.29-.74a.43.43,0,0,1,.25-.07.48.48,0,0,1,.26.07l1.33.77a.49.49,0,0,1,.26.45.51.51,0,0,1-.26.44l-1.29.75A.59.59,0,0,1,77.67,72.83Z"/><path class="cls-7" d="M77.85,70.41l1.33.77a.44.44,0,0,1,0,.77l-1.29.74a.43.43,0,0,1-.44,0l-1.33-.77a.44.44,0,0,1,0-.76l1.29-.75A.43.43,0,0,1,77.85,70.41Z"/><path class="cls-6" d="M64.83,74a.55.55,0,0,1-.22-.06l-1.49-.87a.43.43,0,0,1-.22-.38.46.46,0,0,1,.22-.38l1.45-.83a.43.43,0,0,1,.44,0l1.49.86a.44.44,0,0,1,0,.76l-1.45.84A.55.55,0,0,1,64.83,74Z"/><path class="cls-7" d="M65,71.52l1.49.87a.35.35,0,0,1,0,.62L65,73.85a.33.33,0,0,1-.36,0L63.16,73a.36.36,0,0,1,0-.63l1.45-.84A.38.38,0,0,1,65,71.52Z"/><path class="cls-6" d="M67.54,75.55a.4.4,0,0,1-.22-.06l-1.49-.86a.44.44,0,0,1,0-.76l5.35-3.09a.5.5,0,0,1,.21,0,.51.51,0,0,1,.22,0l1.49.87a.44.44,0,0,1,0,.76l-5.35,3.08A.39.39,0,0,1,67.54,75.55Z"/><path class="cls-7" d="M71.58,70.85l1.49.86a.37.37,0,0,1,0,.63l-5.35,3.09a.4.4,0,0,1-.37,0l-1.48-.87a.36.36,0,0,1,0-.63l5.34-3.08A.35.35,0,0,1,71.58,70.85Z"/><path class="cls-6" d="M59.88,76.83a.39.39,0,0,1-.21-.06l-1.5-.86a.44.44,0,0,1-.21-.38.43.43,0,0,1,.22-.38l1.44-.84a.59.59,0,0,1,.22,0,.54.54,0,0,1,.22,0l1.49.87a.44.44,0,0,1,0,.76l-1.45.83A.4.4,0,0,1,59.88,76.83Z"/><path class="cls-7" d="M60,74.38l1.49.86a.36.36,0,0,1,0,.63l-1.44.84a.4.4,0,0,1-.37,0l-1.49-.87a.37.37,0,0,1,0-.63l1.45-.83A.33.33,0,0,1,60,74.38Z"/><path class="cls-6" d="M65.06,77a.39.39,0,0,1-.21-.06l-1.49-.87a.43.43,0,0,1,0-.75l1.45-.84A.43.43,0,0,1,65,74.4a.39.39,0,0,1,.21.06l1.49.87a.43.43,0,0,1,0,.75l-1.45.84A.4.4,0,0,1,65.06,77Z"/><path class="cls-7" d="M65.21,74.53l1.49.86a.37.37,0,0,1,0,.63l-1.45.84a.38.38,0,0,1-.37,0L63.39,76a.36.36,0,0,1,0-.63l1.45-.83A.33.33,0,0,1,65.21,74.53Z"/><path class="cls-6" d="M75.41,77.33a.45.45,0,0,1-.25-.07L73.05,76l1.13-.65-1.82-1.06a.48.48,0,0,1-.25-.43.53.53,0,0,1,.25-.44l1.69-1a.51.51,0,0,1,.25-.06.54.54,0,0,1,.25.06l4.67,2.72-3.56,2.05A.45.45,0,0,1,75.41,77.33Z"/><path class="cls-7" d="M74.09,72.56a.4.4,0,0,1,.42,0l2.35,1.36,1.47.86.75.43-3.46,2a.4.4,0,0,1-.42,0L73.2,76l1.12-.65L72.4,74.27a.43.43,0,0,1,0-.74Z"/><path class="cls-6" d="M57.41,78.26a.43.43,0,0,1-.22-.06l-1.49-.87a.41.41,0,0,1-.22-.37.43.43,0,0,1,.22-.38l1.45-.84a.54.54,0,0,1,.22,0,.59.59,0,0,1,.22,0l1.49.87a.44.44,0,0,1,0,.76l-1.45.83A.43.43,0,0,1,57.41,78.26Z"/><path class="cls-7" d="M57.55,75.81l1.49.87a.36.36,0,0,1,0,.62l-1.45.84a.38.38,0,0,1-.36,0l-1.49-.87a.36.36,0,0,1,0-.63l1.44-.83A.35.35,0,0,1,57.55,75.81Z"/><path class="cls-6" d="M62.59,78.41a.43.43,0,0,1-.22-.06l-1.49-.87a.44.44,0,0,1,0-.76l1.45-.83a.39.39,0,0,1,.21-.06.4.4,0,0,1,.22.06l1.49.87a.41.41,0,0,1,.22.37.43.43,0,0,1-.22.38l-1.45.84A.4.4,0,0,1,62.59,78.41Z"/><path class="cls-7" d="M62.73,76l1.5.87a.37.37,0,0,1,0,.63l-1.46.84a.36.36,0,0,1-.36,0l-1.49-.86a.37.37,0,0,1,0-.63L62.37,76A.38.38,0,0,1,62.73,76Z"/><polygon class="cls-6" points="63.75 78.21 66.07 76.87 68.43 78.24 66.11 79.58 63.75 78.21"/><polygon class="cls-7" points="66.07 76.96 68.28 78.24 66.11 79.5 63.9 78.21 66.07 76.96"/><path class="cls-6" d="M54.93,79.69a.39.39,0,0,1-.21-.06l-1.5-.87a.44.44,0,0,1,0-.75l1.45-.84a.43.43,0,0,1,.22-.06.4.4,0,0,1,.22.06L56.6,78a.44.44,0,0,1,0,.76l-1.45.83A.4.4,0,0,1,54.93,79.69Z"/><path class="cls-7" d="M55.08,77.24l1.49.86a.36.36,0,0,1,0,.63l-1.44.84a.4.4,0,0,1-.37,0l-1.49-.87a.37.37,0,0,1,0-.63l1.45-.83A.35.35,0,0,1,55.08,77.24Z"/><path class="cls-6" d="M60.12,79.84a.51.51,0,0,1-.22-.06l-1.49-.87a.43.43,0,0,1-.22-.38.4.4,0,0,1,.22-.37l1.45-.84a.43.43,0,0,1,.22-.06.46.46,0,0,1,.22.06l1.49.86a.44.44,0,0,1,.21.38.43.43,0,0,1-.22.38l-1.44.84A.6.6,0,0,1,60.12,79.84Z"/><path class="cls-7" d="M60.26,77.38l1.49.87a.37.37,0,0,1,0,.63l-1.45.83a.33.33,0,0,1-.36,0l-1.49-.86a.37.37,0,0,1,0-.63l1.45-.84A.38.38,0,0,1,60.26,77.38Z"/><polygon class="cls-6" points="61.3 79.62 63.63 78.28 65.98 79.65 63.66 81 61.3 79.62"/><polygon class="cls-7" points="63.63 78.37 65.84 79.65 63.66 80.91 61.45 79.62 63.63 78.37"/><path class="cls-6" d="M52.46,81.12a.43.43,0,0,1-.22-.06l-1.49-.87a.43.43,0,0,1-.22-.38.41.41,0,0,1,.22-.37l1.45-.84a.43.43,0,0,1,.44,0l1.49.86a.44.44,0,0,1,.22.38.43.43,0,0,1-.22.38l-1.45.84A.4.4,0,0,1,52.46,81.12Z"/><path class="cls-7" d="M52.6,78.66l1.49.87a.36.36,0,0,1,0,.63L52.64,81a.38.38,0,0,1-.36,0l-1.49-.87a.37.37,0,0,1,0-.63l1.45-.84A.38.38,0,0,1,52.6,78.66Z"/><path class="cls-6" d="M57.64,81.26a.43.43,0,0,1-.22-.06l-1.49-.86a.45.45,0,0,1,0-.76l1.46-.83a.39.39,0,0,1,.21-.06.4.4,0,0,1,.22.06l1.49.86a.45.45,0,0,1,0,.76l-1.45.83A.4.4,0,0,1,57.64,81.26Z"/><path class="cls-7" d="M57.79,78.81l1.48.87a.36.36,0,0,1,0,.62l-1.45.84a.33.33,0,0,1-.36,0L56,80.27a.36.36,0,0,1,0-.62l1.45-.84A.35.35,0,0,1,57.79,78.81Z"/><path class="cls-6" d="M72.27,82.24a.55.55,0,0,1-.25-.07l-1.36-.79a.5.5,0,0,1-.25-.43.5.5,0,0,1,.26-.44l3.46-2a.55.55,0,0,1,.25-.07.52.52,0,0,1,.25.07L76,79.3a.5.5,0,0,1,.25.44.48.48,0,0,1-.25.43l-3.47,2A.52.52,0,0,1,72.27,82.24Z"/><path class="cls-7" d="M74.6,78.58l1.36.79a.43.43,0,0,1,0,.74l-3.46,2a.47.47,0,0,1-.43,0l-1.36-.79a.43.43,0,0,1,0-.74l3.47-2A.44.44,0,0,1,74.6,78.58Z"/><path class="cls-6" d="M61.22,82.33a.51.51,0,0,1-.25-.06l-1.37-.8a.5.5,0,0,1-.25-.43.48.48,0,0,1,.25-.43l1.33-.77a.55.55,0,0,1,.5,0l1.37.8a.49.49,0,0,1,0,.85l-1.34.78A.5.5,0,0,1,61.22,82.33Z"/><path class="cls-7" d="M61.39,79.91l1.37.79a.42.42,0,0,1,0,.73l-1.33.77a.4.4,0,0,1-.42,0l-1.37-.8a.42.42,0,0,1,0-.73L61,79.91A.4.4,0,0,1,61.39,79.91Z"/><path class="cls-6" d="M50,82.53a.64.64,0,0,1-.28-.07l-1.26-.74a.55.55,0,0,1,0-1l1.22-.7a.64.64,0,0,1,.27-.07.64.64,0,0,1,.28.07l1.26.73a.57.57,0,0,1,.28.48.56.56,0,0,1-.28.48l-1.21.71A.72.72,0,0,1,50,82.53Z"/><path class="cls-7" d="M50.19,80.13l1.25.73a.47.47,0,0,1,0,.83l-1.21.7a.46.46,0,0,1-.48,0l-1.26-.73a.48.48,0,0,1,0-.83l1.21-.7A.48.48,0,0,1,50.19,80.13Z"/><path class="cls-6" d="M55.17,82.67a.55.55,0,0,1-.28-.07l-1.25-.73a.55.55,0,0,1,0-1l1.21-.7a.55.55,0,0,1,.28-.07.53.53,0,0,1,.28.07l1.25.73a.55.55,0,0,1,0,1l-1.21.7A.55.55,0,0,1,55.17,82.67Z"/><path class="cls-7" d="M55.37,80.27l1.25.73a.48.48,0,0,1,0,.83l-1.21.71a.48.48,0,0,1-.48,0l-1.26-.72a.49.49,0,0,1,0-.84l1.22-.7A.51.51,0,0,1,55.37,80.27Z"/><path class="cls-6" d="M58.77,83.74a.45.45,0,0,1-.25-.07l-1.37-.8a.46.46,0,0,1-.24-.42.5.5,0,0,1,.24-.43l1.33-.77a.55.55,0,0,1,.5,0l1.37.8a.49.49,0,0,1,0,.86L59,83.67A.45.45,0,0,1,58.77,83.74Z"/><path class="cls-7" d="M58.94,81.32l1.38.79a.43.43,0,0,1,0,.73L59,83.61a.4.4,0,0,1-.42,0l-1.37-.8a.42.42,0,0,1,0-.73l1.33-.76A.4.4,0,0,1,58.94,81.32Z"/><path class="cls-6" d="M47.51,84a.6.6,0,0,1-.28-.08L46,83.15a.55.55,0,0,1,0-1l1.21-.7a.53.53,0,0,1,.56,0l1.26.73a.56.56,0,0,1,0,1l-1.22.7A.54.54,0,0,1,47.51,84Z"/><path class="cls-7" d="M47.71,81.55l1.26.74a.48.48,0,0,1,0,.83l-1.22.7a.51.51,0,0,1-.48,0L46,83.09a.48.48,0,0,1,0-.83l1.21-.71A.51.51,0,0,1,47.71,81.55Z"/><path class="cls-6" d="M52.69,84.1a.55.55,0,0,1-.28-.07l-1.25-.73a.55.55,0,0,1,0-1l1.22-.7a.53.53,0,0,1,.27-.08.54.54,0,0,1,.28.08l1.26.73a.56.56,0,0,1,0,1L53,84A.55.55,0,0,1,52.69,84.1Z"/><path class="cls-7" d="M52.89,81.7l1.26.73a.48.48,0,0,1,0,.83l-1.22.7a.46.46,0,0,1-.48,0l-1.25-.73a.48.48,0,0,1,0-.83l1.21-.7A.51.51,0,0,1,52.89,81.7Z"/><path class="cls-6" d="M56.33,85.14a.59.59,0,0,1-.29-.07l-1.25-.73a.55.55,0,0,1-.27-.48.54.54,0,0,1,.28-.48l1.21-.7a.59.59,0,0,1,.56,0l1.25.73a.53.53,0,0,1,.27.48.55.55,0,0,1-.27.48l-1.22.7A.52.52,0,0,1,56.33,85.14Z"/><path class="cls-7" d="M56.53,82.74l1.25.73a.48.48,0,0,1,0,.83L56.57,85a.53.53,0,0,1-.49,0l-1.25-.73a.48.48,0,0,1,0-.83l1.22-.71A.51.51,0,0,1,56.53,82.74Z"/><path class="cls-6" d="M45,85.38a.53.53,0,0,1-.28-.07l-1.26-.73a.55.55,0,0,1-.27-.48.54.54,0,0,1,.28-.48l1.21-.7a.55.55,0,0,1,.28-.07.58.58,0,0,1,.28.07l1.25.73a.54.54,0,0,1,.28.48.56.56,0,0,1-.28.48l-1.22.7A.5.5,0,0,1,45,85.38Z"/><path class="cls-7" d="M45.24,83l1.26.74a.48.48,0,0,1,0,.83l-1.21.7a.51.51,0,0,1-.48,0l-1.26-.74a.48.48,0,0,1,0-.83l1.22-.7A.51.51,0,0,1,45.24,83Z"/><path class="cls-6" d="M50.22,85.53a.68.68,0,0,1-.28-.07l-1.25-.74a.54.54,0,0,1,0-1l1.21-.7a.57.57,0,0,1,.28-.08.54.54,0,0,1,.28.08l1.25.73a.54.54,0,0,1,.28.48.53.53,0,0,1-.28.47l-1.21.71A.68.68,0,0,1,50.22,85.53Z"/><path class="cls-7" d="M50.42,83.13l1.26.73a.48.48,0,0,1,0,.83l-1.22.7a.46.46,0,0,1-.48,0l-1.25-.73a.48.48,0,0,1,0-.83l1.21-.7A.46.46,0,0,1,50.42,83.13Z"/><path class="cls-6" d="M53.88,86.56a.6.6,0,0,1-.28-.08l-1.25-.73a.54.54,0,0,1,0-1l1.22-.71a.64.64,0,0,1,.27-.07.68.68,0,0,1,.28.07l1.25.73a.55.55,0,0,1,.28.48.56.56,0,0,1-.28.48l-1.21.7A.54.54,0,0,1,53.88,86.56Z"/><path class="cls-7" d="M54.08,84.16l1.26.73a.48.48,0,0,1,0,.83l-1.21.7a.46.46,0,0,1-.48,0l-1.26-.73a.48.48,0,0,1,0-.83l1.21-.7A.46.46,0,0,1,54.08,84.16Z"/><path class="cls-6" d="M41.75,87.28a.55.55,0,0,1-.28-.07l-1.25-.73a.55.55,0,0,1,0-1l1.21-.7a.53.53,0,0,1,.56,0l1.25.73a.55.55,0,0,1,0,1l-1.21.7A.55.55,0,0,1,41.75,87.28Z"/><path class="cls-7" d="M42,84.88l1.26.73a.48.48,0,0,1,0,.83L42,87.15a.48.48,0,0,1-.48,0l-1.26-.73a.48.48,0,0,1,0-.83l1.22-.7A.46.46,0,0,1,42,84.88Z"/><path class="cls-6" d="M51.43,88a.53.53,0,0,1-.27-.08l-1.26-.73a.55.55,0,0,1,0-1l1.22-.7a.53.53,0,0,1,.27-.08.6.6,0,0,1,.29.08l1.25.72a.58.58,0,0,1,.27.49.55.55,0,0,1-.27.47l-1.22.7A.54.54,0,0,1,51.43,88Z"/><path class="cls-7" d="M51.64,85.57l1.25.73a.48.48,0,0,1,0,.83l-1.21.7a.5.5,0,0,1-.49,0l-1.25-.73a.48.48,0,0,1,0-.83l1.21-.7A.48.48,0,0,1,51.64,85.57Z"/><path class="cls-6" d="M61.38,88.53a.51.51,0,0,1-.25-.06l-1.37-.8a.49.49,0,0,1,0-.86l9.78-5.65a.52.52,0,0,1,.25-.07.55.55,0,0,1,.25.07l1.37.8a.51.51,0,0,1,0,.86l-9.79,5.65A.5.5,0,0,1,61.38,88.53Z"/><path class="cls-7" d="M70,81.23l1.37.79a.42.42,0,0,1,0,.73L61.58,88.4a.38.38,0,0,1-.41,0l-1.38-.8a.42.42,0,0,1,0-.73l9.79-5.65A.42.42,0,0,1,70,81.23Z"/><path class="cls-6" d="M44.46,88.86a.57.57,0,0,1-.28-.08l-1.26-.73a.55.55,0,0,1-.27-.48.51.51,0,0,1,.28-.47l4.39-2.55a.68.68,0,0,1,.28-.07.57.57,0,0,1,.28.08l1.25.73a.54.54,0,0,1,0,.95l-4.4,2.54A.5.5,0,0,1,44.46,88.86Z"/><path class="cls-7" d="M47.84,84.62l1.26.73a.48.48,0,0,1,0,.83L44.7,88.72a.51.51,0,0,1-.48,0L43,88a.48.48,0,0,1,0-.83l4.4-2.54A.46.46,0,0,1,47.84,84.62Z"/><path class="cls-6" d="M47.17,90.43a.55.55,0,0,1-.28-.07l-1.26-.73a.55.55,0,0,1-.27-.48.54.54,0,0,1,.28-.48l3-1.75a.5.5,0,0,1,.27-.07.55.55,0,0,1,.28.07l1.25.73a.55.55,0,0,1,0,1l-3,1.75A.58.58,0,0,1,47.17,90.43Z"/><path class="cls-7" d="M49.18,87l1.26.73a.48.48,0,0,1,0,.83l-3,1.74a.46.46,0,0,1-.48,0l-1.26-.72a.49.49,0,0,1,0-.84l3-1.74A.46.46,0,0,1,49.18,87Z"/><path class="cls-6" d="M57.37,90.84a.54.54,0,0,1-.25-.06L55.75,90a.48.48,0,0,1-.25-.43.52.52,0,0,1,.25-.43l2.83-1.63a.52.52,0,0,1,.25-.07.55.55,0,0,1,.25.07l1.37.8a.5.5,0,0,1,.24.43.47.47,0,0,1-.24.42l-2.83,1.64A.54.54,0,0,1,57.37,90.84Z"/><path class="cls-7" d="M59,87.55l1.37.8a.42.42,0,0,1,0,.73l-2.83,1.64a.42.42,0,0,1-.42,0l-1.38-.79a.43.43,0,0,1,0-.73l2.84-1.64A.45.45,0,0,1,59,87.55Z"/><path class="cls-6" d="M52.6,93.59a.5.5,0,0,1-.27-.08l-1.26-.72a.57.57,0,0,1-.28-.48.56.56,0,0,1,.28-.48l3.36-2a.68.68,0,0,1,.28-.07.57.57,0,0,1,.28.08l1.25.73a.54.54,0,0,1,.28.47.56.56,0,0,1-.28.48l-3.36,1.94A.57.57,0,0,1,52.6,93.59Z"/><path class="cls-7" d="M55,90l1.25.73a.48.48,0,0,1,0,.83l-3.36,1.94a.51.51,0,0,1-.48,0l-1.25-.73a.48.48,0,0,1,0-.83L54.47,90A.46.46,0,0,1,55,90Z"/><path class="cls-6" d="M79.91,68.39a.48.48,0,0,1-.26-.07l-1.33-.77a.52.52,0,0,1,0-.89l1.29-.75a.58.58,0,0,1,.26-.06.48.48,0,0,1,.26.07l1.33.77a.51.51,0,0,1,0,.89l-1.29.75A.58.58,0,0,1,79.91,68.39Z"/><path class="cls-7" d="M80.1,66l1.32.77a.44.44,0,0,1,0,.77l-1.29.74a.43.43,0,0,1-.44,0l-1.33-.77a.45.45,0,0,1,0-.77L79.65,66A.45.45,0,0,1,80.1,66Z"/><path class="cls-6" d="M75,71.25a.48.48,0,0,1-.26-.07l-1.33-.77a.51.51,0,0,1-.26-.45.5.5,0,0,1,.27-.44l1.29-.75a.55.55,0,0,1,.25-.07.59.59,0,0,1,.26.07l1.33.78a.51.51,0,0,1,0,.89l-1.29.74A.48.48,0,0,1,75,71.25Z"/><path class="cls-7" d="M75.14,68.84l1.33.77a.43.43,0,0,1,0,.76l-1.29.75a.43.43,0,0,1-.44,0l-1.33-.77a.44.44,0,0,1,0-.77l1.29-.74A.43.43,0,0,1,75.14,68.84Z"/><path class="cls-6" d="M87.75,73.28a.59.59,0,0,1-.26-.07l-1.35-.79a.5.5,0,0,1,0-.87l1.31-.76a.55.55,0,0,1,.25-.07.59.59,0,0,1,.26.07l1.35.79a.5.5,0,0,1,0,.87L88,73.21A.52.52,0,0,1,87.75,73.28Z"/><path class="cls-7" d="M87.92,70.85l1.35.79a.43.43,0,0,1,0,.75L88,73.14a.42.42,0,0,1-.43,0l-1.35-.78a.43.43,0,0,1,0-.75l1.31-.76A.47.47,0,0,1,87.92,70.85Z"/><path class="cls-6" d="M85.28,74.7a.5.5,0,0,1-.26-.08l-1.33-.77a.52.52,0,0,1,0-.89L85,72.21a.52.52,0,0,1,.52,0l1.33.78a.51.51,0,0,1,0,.89l-1.29.75A.59.59,0,0,1,85.28,74.7Z"/><path class="cls-7" d="M85.46,72.28l1.34.77a.45.45,0,0,1,0,.77l-1.28.74a.45.45,0,0,1-.45,0l-1.33-.77a.45.45,0,0,1,0-.77L85,72.28A.43.43,0,0,1,85.46,72.28Z"/><path class="cls-6" d="M82.89,73.28a.52.52,0,0,1-.25-.07l-1.36-.79A.5.5,0,0,1,81,72a.5.5,0,0,1,.26-.44l1.31-.76a.52.52,0,0,1,.25-.07.55.55,0,0,1,.25.07l1.36.79a.5.5,0,0,1,0,.87l-1.32.76A.52.52,0,0,1,82.89,73.28Z"/><path class="cls-7" d="M83.07,70.85l1.35.79a.43.43,0,0,1,0,.75l-1.31.75a.42.42,0,0,1-.43,0l-1.36-.78a.43.43,0,0,1,0-.75l1.31-.76A.49.49,0,0,1,83.07,70.85Z"/><path class="cls-6" d="M62.36,75.4a.43.43,0,0,1-.22-.06l-1.49-.86a.44.44,0,0,1,0-.76l1.45-.83a.43.43,0,0,1,.22-.06.46.46,0,0,1,.22.06l1.48.86a.42.42,0,0,1,.22.38.43.43,0,0,1-.22.38l-1.44.83A.46.46,0,0,1,62.36,75.4Z"/><path class="cls-7" d="M62.5,73l1.49.87a.36.36,0,0,1,0,.62l-1.45.84a.36.36,0,0,1-.36,0l-1.49-.87a.36.36,0,0,1,0-.62L62.13,73A.35.35,0,0,1,62.5,73Z"/><path class="cls-6" d="M82.89,76.08a.59.59,0,0,1-.26-.07l-1.33-.78a.52.52,0,0,1,0-.89l1.29-.75a.58.58,0,0,1,.26-.06.48.48,0,0,1,.26.07l1.33.77a.51.51,0,0,1,0,.89L83.15,76A.59.59,0,0,1,82.89,76.08Z"/><path class="cls-7" d="M83.07,73.66l1.33.77a.44.44,0,0,1,0,.77l-1.29.74a.43.43,0,0,1-.44,0l-1.33-.77a.45.45,0,0,1,0-.77l1.29-.74A.43.43,0,0,1,83.07,73.66Z"/><polygon class="cls-6" points="68.64 75.39 70.97 74.05 73.32 75.42 71 76.76 68.64 75.39"/><polygon class="cls-7" points="70.97 74.13 73.17 75.42 71 76.67 68.79 75.39 70.97 74.13"/><polygon class="cls-6" points="66.19 76.8 68.51 75.46 70.88 76.83 68.55 78.17 66.19 76.8"/><polygon class="cls-7" points="68.51 75.55 70.73 76.83 68.55 78.09 66.34 76.8 68.51 75.55"/><path class="cls-6" d="M77,79.49a.59.59,0,0,1-.25-.07l-1.36-.79a.52.52,0,0,1-.25-.43.51.51,0,0,1,.25-.44l3.63-2.1a.57.57,0,0,1,.25-.06.51.51,0,0,1,.25.06l1.36.8a.49.49,0,0,1,0,.86l-3.63,2.1A.52.52,0,0,1,77,79.49Z"/><path class="cls-7" d="M79.53,75.73l1.36.79a.43.43,0,0,1,0,.74l-3.64,2.1a.45.45,0,0,1-.42,0l-1.36-.8a.43.43,0,0,1,0-.74l3.63-2.09A.42.42,0,0,1,79.53,75.73Z"/><path class="cls-6" d="M55.53,88.74a.52.52,0,0,1-.27-.07L54,87.93a.51.51,0,0,1-.28-.47A.56.56,0,0,1,54,87l1.49-.86L57,87a.55.55,0,0,1,0,1l-1.21.7A.53.53,0,0,1,55.53,88.74Z"/><path class="cls-7" d="M55.49,86.2l1.5.87a.48.48,0,0,1,0,.83l-1.21.71a.53.53,0,0,1-.49,0L54,87.87A.48.48,0,0,1,54,87l1.46-.84Z"/><path class="cls-6" d="M58,87.36a.51.51,0,0,1-.24-.07l-1.38-.8a.49.49,0,0,1,0-.86l1.33-.77a.55.55,0,0,1,.5,0l1.37.8a.5.5,0,0,1,.25.43.48.48,0,0,1-.25.43l-1.33.77A.55.55,0,0,1,58,87.36Z"/><path class="cls-7" d="M58.12,84.93l1.37.8a.42.42,0,0,1,0,.73l-1.33.76a.4.4,0,0,1-.42,0l-1.38-.79a.42.42,0,0,1,0-.73l1.33-.77A.4.4,0,0,1,58.12,84.93Z"/><path class="cls-6" d="M60.4,85.94a.51.51,0,0,1-.25-.06l-1.38-.8a.51.51,0,0,1,0-.86l1.34-.77a.51.51,0,0,1,.25-.06.5.5,0,0,1,.24.06l1.38.8a.51.51,0,0,1,0,.86l-1.34.77A.53.53,0,0,1,60.4,85.94Z"/><path class="cls-7" d="M60.56,83.52l1.38.8a.41.41,0,0,1,0,.72l-1.33.78a.47.47,0,0,1-.43,0L58.81,85a.42.42,0,0,1,0-.73l1.33-.77A.4.4,0,0,1,60.56,83.52Z"/><path class="cls-6" d="M62.81,84.55a.59.59,0,0,1-.25-.07l-1.37-.8a.48.48,0,0,1-.25-.43.48.48,0,0,1,.25-.42l1.33-.78a.57.57,0,0,1,.25-.06.54.54,0,0,1,.25.06l1.38.81a.48.48,0,0,1,.24.42.5.5,0,0,1-.24.43l-1.34.77A.55.55,0,0,1,62.81,84.55Z"/><path class="cls-7" d="M63,82.12l1.38.8a.42.42,0,0,1,0,.73L63,84.42a.4.4,0,0,1-.42,0l-1.38-.8a.42.42,0,0,1,0-.73l1.34-.77A.4.4,0,0,1,63,82.12Z"/><path class="cls-6" d="M65.34,83.09a.45.45,0,0,1-.25-.07l-1.37-.8a.49.49,0,0,1,0-.85l1.33-.77a.48.48,0,0,1,.5,0l1.37.8a.5.5,0,0,1,.25.42.49.49,0,0,1-.25.43L65.59,83A.45.45,0,0,1,65.34,83.09Z"/><path class="cls-7" d="M65.51,80.66l1.37.8a.42.42,0,0,1,0,.73L65.55,83a.45.45,0,0,1-.42,0l-1.38-.8a.42.42,0,0,1,0-.73l1.34-.77A.45.45,0,0,1,65.51,80.66Z"/><path class="cls-6" d="M67.76,81.69a.54.54,0,0,1-.25-.06l-1.37-.8a.49.49,0,0,1,0-.86l1.33-.77a.51.51,0,0,1,.25-.06.47.47,0,0,1,.25.07l1.37.79a.48.48,0,0,1,.25.43.53.53,0,0,1-.25.43L68,81.63A.54.54,0,0,1,67.76,81.69Z"/><path class="cls-7" d="M67.93,79.27l1.37.79a.42.42,0,0,1,0,.73L68,81.56a.4.4,0,0,1-.42,0l-1.38-.8a.41.41,0,0,1,0-.72l1.34-.77A.4.4,0,0,1,67.93,79.27Z"/><path class="cls-6" d="M70.2,80.28a.42.42,0,0,1-.24-.07l-1.36-.79a.49.49,0,0,1,0-.87l1.31-.76a.54.54,0,0,1,.25-.06.51.51,0,0,1,.25.06l1.37.79A.51.51,0,0,1,72,79a.48.48,0,0,1-.25.43l-1.31.76A.48.48,0,0,1,70.2,80.28Z"/><path class="cls-7" d="M70.38,77.86l1.36.79a.43.43,0,0,1,0,.74l-1.32.76a.42.42,0,0,1-.43,0l-1.36-.79a.43.43,0,0,1,0-.74L70,77.86A.42.42,0,0,1,70.38,77.86Z"/><path class="cls-6" d="M72.62,78.88a.54.54,0,0,1-.25-.06L71,78a.48.48,0,0,1-.25-.43.51.51,0,0,1,.25-.44l1.32-.75a.47.47,0,0,1,.25-.07.43.43,0,0,1,.25.07l1.37.79a.5.5,0,0,1,.24.43.52.52,0,0,1-.24.44l-1.33.76A.51.51,0,0,1,72.62,78.88Z"/><path class="cls-7" d="M72.8,76.46l1.36.79a.43.43,0,0,1,0,.74l-1.32.76a.42.42,0,0,1-.43,0L71.05,78a.42.42,0,0,1,0-.74l1.32-.76A.42.42,0,0,1,72.8,76.46Z"/><path class="cls-6" d="M49.88,92a.53.53,0,0,1-.28-.07L48,91a.27.27,0,0,1-.14-.25.29.29,0,0,1,.14-.25l4.79-2.77a.64.64,0,0,1,.28-.07.68.68,0,0,1,.28.07l1.26.74a.57.57,0,0,1,.27.48.56.56,0,0,1-.28.47l-4.4,2.54A.52.52,0,0,1,49.88,92Z"/><path class="cls-7" d="M52.78,87.77a.46.46,0,0,1,.48,0l1.26.73a.48.48,0,0,1,0,.83l-4.4,2.54a.51.51,0,0,1-.48,0l-1.65-1a.22.22,0,0,1,0-.38Z"/><path class="cls-4" d="M77.38,64.21l1.34.77a.45.45,0,0,1,0,.77l-1.3.75a.49.49,0,0,1-.44,0l-1.33-.78a.44.44,0,0,1,0-.77l1.29-.74A.43.43,0,0,1,77.38,64.21Z"/><path class="cls-4" d="M74.91,65.64l1.33.77a.44.44,0,0,1,0,.77L75,67.92a.43.43,0,0,1-.44,0l-1.34-.77a.45.45,0,0,1,0-.77l1.29-.74A.45.45,0,0,1,74.91,65.64Z"/><path class="cls-4" d="M72.43,67.07l1.34.77a.45.45,0,0,1,0,.77l-1.29.74a.45.45,0,0,1-.45,0l-1.33-.77a.44.44,0,0,1,0-.77L72,67.07A.39.39,0,0,1,72.43,67.07Z"/><path class="cls-4" d="M77.61,67.21,79,68a.44.44,0,0,1,0,.76l-1.29.74a.39.39,0,0,1-.44,0l-1.34-.77a.45.45,0,0,1,0-.77l1.29-.74A.43.43,0,0,1,77.61,67.21Z"/><path class="cls-4" d="M82.81,67.36l1.33.77a.44.44,0,0,1,0,.76l-1.3.75a.43.43,0,0,1-.44,0l-1.33-.77a.45.45,0,0,1,0-.77l1.29-.74A.45.45,0,0,1,82.81,67.36Z"/><path class="cls-4" d="M69.89,68.45l1.61.94a.3.3,0,0,1,0,.52l-1.57.91a.32.32,0,0,1-.3,0L68,69.88a.3.3,0,0,1,0-.52l1.57-.91A.32.32,0,0,1,69.89,68.45Z"/><path class="cls-4" d="M80.33,68.79l1.33.77a.45.45,0,0,1,0,.77l-1.29.74a.43.43,0,0,1-.44,0l-1.34-.77a.45.45,0,0,1,0-.77l1.29-.74A.45.45,0,0,1,80.33,68.79Z"/><path class="cls-4" d="M67.42,69.88l1.61.94a.3.3,0,0,1,0,.52l-1.57.91a.34.34,0,0,1-.31,0l-1.61-.94a.3.3,0,0,1,0-.52l1.57-.91A.34.34,0,0,1,67.42,69.88Z"/><path class="cls-4" d="M77.85,70.22l1.33.77a.43.43,0,0,1,0,.76l-1.29.75a.43.43,0,0,1-.44,0l-1.33-.77a.45.45,0,0,1,0-.77l1.29-.74A.43.43,0,0,1,77.85,70.22Z"/><path class="cls-4" d="M65,71.33l1.49.86a.36.36,0,0,1,0,.63L65,73.66a.38.38,0,0,1-.36,0l-1.49-.87a.36.36,0,0,1,0-.63l1.45-.83A.33.33,0,0,1,65,71.33Z"/><path class="cls-4" d="M71.58,70.65l1.49.87a.37.37,0,0,1,0,.63l-5.35,3.08a.35.35,0,0,1-.37,0l-1.48-.86a.36.36,0,0,1,0-.63l5.34-3.09A.4.4,0,0,1,71.58,70.65Z"/><path class="cls-4" d="M60,74.18l1.49.87a.36.36,0,0,1,0,.63l-1.44.84a.38.38,0,0,1-.37,0l-1.49-.86a.37.37,0,0,1,0-.63l1.45-.84A.38.38,0,0,1,60,74.18Z"/><path class="cls-4" d="M65.21,74.33l1.49.87a.36.36,0,0,1,0,.62l-1.45.84a.35.35,0,0,1-.37,0l-1.49-.86a.36.36,0,0,1,0-.63l1.45-.84A.38.38,0,0,1,65.21,74.33Z"/><path class="cls-4" d="M74.09,72.36a.42.42,0,0,1,.42,0l2.35,1.37,1.47.85.75.43-3.46,2a.4.4,0,0,1-.42,0l-2-1.15,1.12-.66L72.4,74.08a.43.43,0,0,1,0-.74Z"/><path class="cls-4" d="M57.55,75.61l1.49.87a.37.37,0,0,1,0,.63l-1.45.83a.33.33,0,0,1-.36,0l-1.49-.86a.36.36,0,0,1,0-.63l1.44-.84A.4.4,0,0,1,57.55,75.61Z"/><path class="cls-4" d="M62.73,75.76l1.5.86a.37.37,0,0,1,0,.63l-1.46.84a.33.33,0,0,1-.36,0l-1.49-.87a.36.36,0,0,1,0-.62l1.45-.84A.33.33,0,0,1,62.73,75.76Z"/><polygon class="cls-4" points="66.07 76.76 68.28 78.05 66.11 79.3 63.9 78.02 66.07 76.76"/><path class="cls-4" d="M55.08,77l1.49.87a.36.36,0,0,1,0,.63l-1.44.83a.35.35,0,0,1-.37,0l-1.49-.87a.36.36,0,0,1,0-.62L54.71,77A.4.4,0,0,1,55.08,77Z"/><path class="cls-4" d="M60.26,77.19l1.49.86a.37.37,0,0,1,0,.63l-1.45.84a.38.38,0,0,1-.36,0l-1.49-.87a.37.37,0,0,1,0-.63l1.45-.83A.33.33,0,0,1,60.26,77.19Z"/><polygon class="cls-4" points="63.63 78.17 65.84 79.46 63.66 80.72 61.45 79.43 63.63 78.17"/><path class="cls-4" d="M52.6,78.47l1.49.86a.36.36,0,0,1,0,.63l-1.45.84a.33.33,0,0,1-.36,0l-1.49-.87a.36.36,0,0,1,0-.62l1.45-.84A.33.33,0,0,1,52.6,78.47Z"/><path class="cls-4" d="M57.79,78.61l1.48.87a.37.37,0,0,1,0,.63L57.82,81a.38.38,0,0,1-.36,0L56,80.08a.37.37,0,0,1,0-.63l1.45-.84A.4.4,0,0,1,57.79,78.61Z"/><path class="cls-4" d="M74.6,78.38l1.36.79a.43.43,0,0,1,0,.74l-3.46,2a.42.42,0,0,1-.43,0l-1.36-.79a.43.43,0,0,1,0-.74l3.47-2A.42.42,0,0,1,74.6,78.38Z"/><path class="cls-4" d="M61.39,79.71l1.37.8a.42.42,0,0,1,0,.73L61.43,82A.45.45,0,0,1,61,82l-1.37-.8a.42.42,0,0,1,0-.73L61,79.71A.4.4,0,0,1,61.39,79.71Z"/><path class="cls-4" d="M50.19,79.93l1.25.73a.47.47,0,0,1,0,.83l-1.21.71a.51.51,0,0,1-.48,0l-1.26-.73a.49.49,0,0,1,0-.84l1.21-.7A.53.53,0,0,1,50.19,79.93Z"/><path class="cls-4" d="M55.37,80.08l1.25.73a.48.48,0,0,1,0,.83l-1.21.7a.46.46,0,0,1-.48,0l-1.26-.73a.48.48,0,0,1,0-.83l1.22-.7A.46.46,0,0,1,55.37,80.08Z"/><path class="cls-4" d="M58.94,81.12l1.38.8a.43.43,0,0,1,0,.73L59,83.42a.45.45,0,0,1-.42,0l-1.37-.8a.42.42,0,0,1,0-.73l1.33-.77A.45.45,0,0,1,58.94,81.12Z"/><path class="cls-4" d="M47.71,81.36l1.26.73a.48.48,0,0,1,0,.83l-1.22.7a.46.46,0,0,1-.48,0L46,82.89a.48.48,0,0,1,0-.83l1.21-.7A.46.46,0,0,1,47.71,81.36Z"/><path class="cls-4" d="M52.89,81.51l1.26.73a.48.48,0,0,1,0,.83l-1.22.7a.48.48,0,0,1-.48,0L51.2,83a.48.48,0,0,1,0-.83l1.21-.7A.46.46,0,0,1,52.89,81.51Z"/><path class="cls-4" d="M56.53,82.55l1.25.73a.48.48,0,0,1,0,.83l-1.21.7a.48.48,0,0,1-.49,0l-1.25-.73a.48.48,0,0,1,0-.83l1.22-.7A.46.46,0,0,1,56.53,82.55Z"/><path class="cls-4" d="M45.24,82.79l1.26.73a.48.48,0,0,1,0,.83l-1.21.7a.46.46,0,0,1-.48,0l-1.26-.73a.48.48,0,0,1,0-.83l1.22-.7A.48.48,0,0,1,45.24,82.79Z"/><path class="cls-4" d="M50.42,82.94l1.26.73a.48.48,0,0,1,0,.83l-1.22.7a.51.51,0,0,1-.48,0l-1.25-.73a.48.48,0,0,1,0-.83l1.21-.71A.48.48,0,0,1,50.42,82.94Z"/><path class="cls-4" d="M54.08,84l1.26.73a.48.48,0,0,1,0,.83l-1.21.71a.48.48,0,0,1-.48,0l-1.26-.72a.49.49,0,0,1,0-.84L53.6,84A.51.51,0,0,1,54.08,84Z"/><path class="cls-4" d="M42,84.69l1.26.73a.48.48,0,0,1,0,.83L42,87a.46.46,0,0,1-.48,0l-1.26-.73a.48.48,0,0,1,0-.83l1.22-.71A.48.48,0,0,1,42,84.69Z"/><path class="cls-4" d="M51.64,85.38l1.25.72a.49.49,0,0,1,0,.84l-1.21.7a.53.53,0,0,1-.49,0l-1.25-.73a.48.48,0,0,1,0-.83l1.21-.7A.48.48,0,0,1,51.64,85.38Z"/><path class="cls-4" d="M70,81l1.37.8a.42.42,0,0,1,0,.73l-9.79,5.65a.43.43,0,0,1-.41,0l-1.38-.8a.42.42,0,0,1,0-.73L69.58,81A.45.45,0,0,1,70,81Z"/><path class="cls-4" d="M47.84,84.43l1.26.73a.48.48,0,0,1,0,.83L44.7,88.52a.46.46,0,0,1-.48,0L43,87.79A.48.48,0,0,1,43,87l4.4-2.53A.46.46,0,0,1,47.84,84.43Z"/><path class="cls-4" d="M49.18,86.79l1.26.73a.48.48,0,0,1,0,.83l-3,1.75a.46.46,0,0,1-.48,0l-1.26-.73a.48.48,0,0,1,0-.83l3-1.75A.46.46,0,0,1,49.18,86.79Z"/><path class="cls-4" d="M59,87.36l1.37.8a.42.42,0,0,1,0,.73l-2.83,1.63a.4.4,0,0,1-.42,0l-1.38-.8a.43.43,0,0,1,0-.73l2.84-1.63A.4.4,0,0,1,59,87.36Z"/><path class="cls-4" d="M55,89.75l1.25.73a.49.49,0,0,1,0,.84l-3.36,1.94a.51.51,0,0,1-.48,0l-1.25-.73a.48.48,0,0,1,0-.83l3.36-2A.51.51,0,0,1,55,89.75Z"/><path class="cls-4" d="M80.1,65.79l1.32.77a.43.43,0,0,1,0,.76l-1.29.75a.43.43,0,0,1-.44,0l-1.33-.78a.44.44,0,0,1,0-.76l1.29-.75A.43.43,0,0,1,80.1,65.79Z"/><path class="cls-4" d="M75.14,68.64l1.33.78a.43.43,0,0,1,0,.76l-1.29.75a.46.46,0,0,1-.44,0l-1.33-.77a.43.43,0,0,1,0-.76l1.29-.75A.43.43,0,0,1,75.14,68.64Z"/><path class="cls-4" d="M87.92,70.66l1.35.79a.42.42,0,0,1,0,.74L88,73a.42.42,0,0,1-.43,0l-1.35-.79a.42.42,0,0,1,0-.74l1.31-.76A.42.42,0,0,1,87.92,70.66Z"/><path class="cls-4" d="M85.46,72.08l1.34.78a.44.44,0,0,1,0,.76l-1.28.75a.45.45,0,0,1-.45,0l-1.33-.78a.44.44,0,0,1,0-.76L85,72.08A.43.43,0,0,1,85.46,72.08Z"/><path class="cls-4" d="M83.07,70.66l1.35.79a.42.42,0,0,1,0,.74L83.11,73a.42.42,0,0,1-.43,0l-1.36-.79a.42.42,0,0,1,0-.74l1.31-.76A.43.43,0,0,1,83.07,70.66Z"/><path class="cls-4" d="M62.5,72.76l1.49.86a.37.37,0,0,1,0,.63l-1.45.84a.38.38,0,0,1-.36,0l-1.49-.87a.37.37,0,0,1,0-.63l1.44-.84A.38.38,0,0,1,62.5,72.76Z"/><path class="cls-4" d="M83.07,73.46l1.33.78a.43.43,0,0,1,0,.76l-1.29.75a.43.43,0,0,1-.44,0L81.34,75a.45.45,0,0,1,0-.77l1.29-.75A.43.43,0,0,1,83.07,73.46Z"/><polygon class="cls-4" points="70.97 73.94 73.17 75.22 71 76.48 68.79 75.2 70.97 73.94"/><polygon class="cls-4" points="68.51 75.35 70.73 76.64 68.55 77.89 66.34 76.6 68.51 75.35"/><path class="cls-4" d="M79.53,75.53l1.36.79a.44.44,0,0,1,0,.75l-3.64,2.09a.4.4,0,0,1-.42,0l-1.36-.79a.43.43,0,0,1,0-.74l3.63-2.1A.47.47,0,0,1,79.53,75.53Z"/><path class="cls-4" d="M55.49,86l1.5.87a.48.48,0,0,1,0,.83l-1.21.7a.48.48,0,0,1-.49,0L54,87.68a.48.48,0,0,1,0-.83L55.49,86Z"/><path class="cls-4" d="M58.12,84.73l1.37.8a.41.41,0,0,1,0,.73L58.16,87a.4.4,0,0,1-.42,0l-1.38-.8a.42.42,0,0,1,0-.73l1.33-.77A.45.45,0,0,1,58.12,84.73Z"/><path class="cls-4" d="M60.56,83.32l1.38.8a.42.42,0,0,1,0,.73l-1.33.77a.42.42,0,0,1-.43,0l-1.37-.8a.42.42,0,0,1,0-.73l1.33-.77A.45.45,0,0,1,60.56,83.32Z"/><path class="cls-4" d="M63,81.93l1.38.8a.41.41,0,0,1,0,.72L63,84.23a.42.42,0,0,1-.42,0l-1.38-.79a.42.42,0,0,1,0-.73l1.34-.78A.42.42,0,0,1,63,81.93Z"/><path class="cls-4" d="M65.51,80.47l1.37.8a.42.42,0,0,1,0,.73l-1.33.76a.4.4,0,0,1-.42,0L63.75,82a.42.42,0,0,1,0-.73l1.34-.77A.4.4,0,0,1,65.51,80.47Z"/><path class="cls-4" d="M67.93,79.07l1.37.8a.42.42,0,0,1,0,.73L68,81.37a.45.45,0,0,1-.42,0l-1.38-.8a.42.42,0,0,1,0-.73l1.34-.77A.45.45,0,0,1,67.93,79.07Z"/><path class="cls-4" d="M70.38,77.66l1.36.79a.43.43,0,0,1,0,.74L70.42,80A.42.42,0,0,1,70,80l-1.36-.79a.43.43,0,0,1,0-.74L70,77.66A.42.42,0,0,1,70.38,77.66Z"/><path class="cls-4" d="M72.8,76.27l1.36.79a.43.43,0,0,1,0,.74l-1.32.76a.42.42,0,0,1-.43,0l-1.36-.79a.42.42,0,0,1,0-.74l1.32-.77A.44.44,0,0,1,72.8,76.27Z"/><path class="cls-4" d="M52.78,87.57a.48.48,0,0,1,.48,0l1.26.73a.48.48,0,0,1,0,.83l-4.4,2.53a.46.46,0,0,1-.48,0l-1.65-1a.22.22,0,0,1,0-.38Z"/><path class="cls-5" d="M40.76,74.29l-2.21-1.85a5.5,5.5,0,0,1-2-4.25V53.4h.7V68.19A4.85,4.85,0,0,0,39,71.9L41.48,74Z"/><polygon class="cls-8" points="44.34 76.62 44.33 76.62 44.33 77.11 40.76 74.29 40.74 74.27 41.1 74.06 41.17 74.12 44.34 76.62"/><polygon class="cls-5" points="44.34 76.62 44.33 76.62 44.33 77.11 40.76 74.29 40.74 74.27 40.74 73.76 40.98 73.96 41.1 74.06 41.17 74.12 44.34 76.62"/><path class="cls-4" d="M62.11,66.44,44.34,76.62l-3.17-2.5-.07-.06L41,74h0l-.21-.18-2-1.68L38.68,72a4.77,4.77,0,0,1-1.74-3.64V54.07l.33-.17,11-6.12,3.94-3.58H53V59a2.17,2.17,0,0,0,0,.26,4.82,4.82,0,0,0,1.72,3.45c.06,0,.14.11.24.17C55.93,63.51,58.94,65,62.11,66.44Z"/><path class="cls-4" d="M53,59.24l-16,9.16V55.14c1.13-1.11,2-1.86,2.08-1.74.26.32,10.49-2.53,13.94-3V59A2.17,2.17,0,0,0,53,59.24Z"/><polygon class="cls-5" points="44.34 76.62 62.11 66.44 62.11 66.94 44.33 77.11 44.34 76.62"/><path class="cls-4" d="M54.93,62.86,38.75,72.1,38.68,72a4.77,4.77,0,0,1-1.74-3.64l16-9.16a4.82,4.82,0,0,0,1.72,3.45C54.75,62.73,54.83,62.8,54.93,62.86Z"/><path class="cls-4" d="M72.61,1.16l-.38.08h0l-.8.16c0,.08,0,.17,0,.26a4.26,4.26,0,0,1,.05.73l-.08,8.43-.19,28.75a7.33,7.33,0,0,1-3.1,5.81L16.46,75.12l-.09,0,.39,1.43-1.76-1a2.48,2.48,0,0,1-1-2.1c0-.12,0-.25,0-.39L14.23,36v-.06a7.69,7.69,0,0,1,1.63-4.5,5.11,5.11,0,0,1,1.46-1.31L69,.35A2,2,0,0,1,70.93.18h0L72.39,1Z"/><path class="cls-4" d="M72.39,1l-.16.2h0l-.76.42L17.63,32.25l-1.77-.84a5.11,5.11,0,0,1,1.46-1.31L69,.35A2,2,0,0,1,70.93.18h0Z"/><path class="cls-4" d="M19.89,33.37,18,38.1,14.23,36v-.06a7.69,7.69,0,0,1,1.63-4.5Z"/><path class="cls-5" d="M73.69,3.66l0,3.71h0l0,4.72-.2,28.75a7.27,7.27,0,0,1-3.1,5.8L51.38,57.38,31,68.91l-.47.28-11.94,7.2a1.81,1.81,0,0,1-2.91-1.22,3.76,3.76,0,0,1-.11-.72c0-.13,0-.26,0-.39l0-4.23.08-10.9.16-22A7.33,7.33,0,0,1,19,31.07L40.3,19l0,0,7.29-4.33,9.24-5.49h0L67.56,3.08l3.09-1.75a1.78,1.78,0,0,1,2.64.52A3.65,3.65,0,0,1,73.69,3.66Z"/><path class="cls-9" d="M71.63,4.29V42.15L38.25,61.65c-5.93,3.47.76-.43-20.66,12.08V35.86C47.69,18.26,62.4,9.68,71.25,4.51Z"/><polygon class="cls-4" points="70.86 4.73 70.86 41.73 17.59 72.86 17.59 73.73 71.63 42.15 71.63 4.28 70.86 4.73"/><polygon class="cls-4" points="17.59 73.73 71.63 42.15 70.86 41.73 17.59 72.86 17.59 73.73"/><g class="cls-10"><path class="cls-11" d="M77.85,51.63a2.72,2.72,0,1,0,2.72-2.72A2.72,2.72,0,0,0,77.85,51.63Z"/><path class="cls-12" d="M78.18,51.66a2.4,2.4,0,1,0,2.4-2.4A2.41,2.41,0,0,0,78.18,51.66Z"/><path class="cls-13" d="M78.51,51.69a2.08,2.08,0,1,0,2.08-2.08A2.08,2.08,0,0,0,78.51,51.69Z"/><path class="cls-14" d="M78.84,51.71A1.76,1.76,0,1,0,80.59,50,1.76,1.76,0,0,0,78.84,51.71Z"/><path class="cls-15" d="M79.18,51.74a1.43,1.43,0,1,0,1.42-1.43A1.42,1.42,0,0,0,79.18,51.74Z"/><path class="cls-16" d="M79.51,51.77a1.11,1.11,0,0,0,2.21,0,1.11,1.11,0,1,0-2.21,0Z"/><path class="cls-17" d="M79.84,51.8a.78.78,0,1,0,.78-.79A.78.78,0,0,0,79.84,51.8Z"/></g><path class="cls-2" d="M5.37,74.77a.87.87,0,0,1,0,1.65,3.13,3.13,0,0,1-2.84,0c-.69-.4-.77-1-.24-1.47a1.53,1.53,0,0,1,.23-.17l.29-.14A3.22,3.22,0,0,1,5.37,74.77Z"/><g class="cls-18"><path class="cls-11" d="M0,75.44a4,4,0,1,0,4-4A4,4,0,0,0,0,75.44Z"/><path class="cls-19" d="M.48,75.48A3.49,3.49,0,1,0,4,72,3.48,3.48,0,0,0,.48,75.48Z"/><path class="cls-20" d="M1,75.52a3,3,0,1,0,3-3A3,3,0,0,0,1,75.52Z"/><path class="cls-21" d="M1.45,75.55A2.55,2.55,0,1,0,4,73,2.55,2.55,0,0,0,1.45,75.55Z"/><path class="cls-22" d="M1.93,75.59A2.08,2.08,0,1,0,4,73.52,2.08,2.08,0,0,0,1.93,75.59Z"/><path class="cls-23" d="M2.41,75.63A1.61,1.61,0,1,0,4,74,1.61,1.61,0,0,0,2.41,75.63Z"/><path class="cls-2" d="M2.89,75.67A1.14,1.14,0,1,0,4,74.53,1.14,1.14,0,0,0,2.89,75.67Z"/></g><path class="cls-2" d="M20.06,87.6c.79.45.8,1.19,0,1.64a3.13,3.13,0,0,1-2.83,0c-.7-.4-.78-1-.25-1.47a1.46,1.46,0,0,1,.24-.17l.29-.14A3.15,3.15,0,0,1,20.06,87.6Z"/><g class="cls-18"><path class="cls-11" d="M14.69,88.26a4,4,0,1,0,4-4A4,4,0,0,0,14.69,88.26Z"/><path class="cls-19" d="M15.18,88.3a3.49,3.49,0,1,0,3.48-3.48A3.48,3.48,0,0,0,15.18,88.3Z"/><path class="cls-20" d="M15.66,88.34a3,3,0,1,0,3-3A3,3,0,0,0,15.66,88.34Z"/><path class="cls-21" d="M16.14,88.38a2.55,2.55,0,1,0,2.55-2.55A2.55,2.55,0,0,0,16.14,88.38Z"/><path class="cls-22" d="M16.62,88.42a2.08,2.08,0,1,0,2.08-2.08A2.08,2.08,0,0,0,16.62,88.42Z"/><path class="cls-23" d="M17.1,88.46a1.61,1.61,0,1,0,1.61-1.61A1.61,1.61,0,0,0,17.1,88.46Z"/><path class="cls-2" d="M17.59,88.5a1.14,1.14,0,0,0,2.27,0,1.14,1.14,0,1,0-2.27,0Z"/></g><path class="cls-24" d="M32.67,94.25a.87.87,0,0,1,0,1.64,3.16,3.16,0,0,1-2.84,0c-.69-.4-.77-1-.24-1.48a1,1,0,0,1,.23-.16,1.55,1.55,0,0,1,.29-.14A3.14,3.14,0,0,1,32.67,94.25Z"/><path class="cls-2" d="M70.05,96c.79.45.8,1.19,0,1.64a3.13,3.13,0,0,1-2.83,0c-.7-.4-.78-1-.25-1.48a1.43,1.43,0,0,1,.24-.16,1.55,1.55,0,0,1,.29-.14A3.12,3.12,0,0,1,70.05,96Z"/><g class="cls-18"><path class="cls-11" d="M64.68,96.61a4,4,0,1,0,4-4A4,4,0,0,0,64.68,96.61Z"/><path class="cls-19" d="M65.17,96.65a3.49,3.49,0,1,0,3.48-3.49A3.49,3.49,0,0,0,65.17,96.65Z"/><path class="cls-20" d="M65.65,96.69a3,3,0,1,0,3-3A3,3,0,0,0,65.65,96.69Z"/><path class="cls-21" d="M66.13,96.73a2.55,2.55,0,1,0,2.55-2.55A2.55,2.55,0,0,0,66.13,96.73Z"/><path class="cls-22" d="M66.61,96.77a2.08,2.08,0,1,0,2.08-2.08A2.08,2.08,0,0,0,66.61,96.77Z"/><path class="cls-23" d="M67.09,96.81A1.61,1.61,0,1,0,68.7,95.2,1.61,1.61,0,0,0,67.09,96.81Z"/><path class="cls-2" d="M67.58,96.84A1.13,1.13,0,0,0,68.71,98a1.14,1.14,0,1,0,0-2.27A1.13,1.13,0,0,0,67.58,96.84Z"/></g><path class="cls-2" d="M95.5,88.79a.87.87,0,0,1,0,1.65,3.13,3.13,0,0,1-2.84,0c-.69-.4-.77-1-.24-1.47a1.53,1.53,0,0,1,.23-.17l.29-.14A3.22,3.22,0,0,1,95.5,88.79Z"/><g class="cls-18"><path class="cls-11" d="M90.13,89.46a4,4,0,1,0,4-4A4,4,0,0,0,90.13,89.46Z"/><path class="cls-19" d="M90.61,89.5A3.49,3.49,0,1,0,94.1,86,3.48,3.48,0,0,0,90.61,89.5Z"/><path class="cls-20" d="M91.09,89.54a3,3,0,1,0,3-3A3,3,0,0,0,91.09,89.54Z"/><path class="cls-21" d="M91.58,89.58A2.55,2.55,0,1,0,94.12,87,2.54,2.54,0,0,0,91.58,89.58Z"/><path class="cls-22" d="M92.06,89.61a2.08,2.08,0,1,0,2.07-2.07A2.08,2.08,0,0,0,92.06,89.61Z"/><path class="cls-23" d="M92.54,89.65a1.61,1.61,0,1,0,1.6-1.6A1.61,1.61,0,0,0,92.54,89.65Z"/><path class="cls-2" d="M93,89.69a1.14,1.14,0,0,0,2.28,0,1.14,1.14,0,0,0-2.28,0Z"/></g><path class="cls-24" d="M88.5,60.31a.87.87,0,0,1,0,1.65,3.1,3.1,0,0,1-2.83,0c-.7-.4-.78-1-.25-1.47l.23-.17a2.75,2.75,0,0,1,.3-.14A3.16,3.16,0,0,1,88.5,60.31Z"/><path class="cls-2" d="M103,71.36c.79.46.8,1.19,0,1.64a3.13,3.13,0,0,1-2.83,0c-.7-.4-.78-1-.25-1.47a1.46,1.46,0,0,1,.24-.17l.29-.14A3.15,3.15,0,0,1,103,71.36Z"/><g class="cls-18"><path class="cls-11" d="M97.65,72a4,4,0,1,0,4-4A4,4,0,0,0,97.65,72Z"/><path class="cls-19" d="M98.14,72.06a3.49,3.49,0,1,0,3.48-3.48A3.48,3.48,0,0,0,98.14,72.06Z"/><path class="cls-20" d="M98.62,72.1a3,3,0,1,0,3-3A3,3,0,0,0,98.62,72.1Z"/><path class="cls-21" d="M99.1,72.14a2.55,2.55,0,1,0,2.55-2.55A2.55,2.55,0,0,0,99.1,72.14Z"/><path class="cls-22" d="M99.58,72.18a2.08,2.08,0,1,0,2.08-2.08A2.08,2.08,0,0,0,99.58,72.18Z"/><path class="cls-23" d="M100.06,72.22a1.61,1.61,0,1,0,1.61-1.61A1.61,1.61,0,0,0,100.06,72.22Z"/><path class="cls-2" d="M100.55,72.26a1.14,1.14,0,1,0,1.13-1.14A1.14,1.14,0,0,0,100.55,72.26Z"/></g><path class="cls-24" d="M31.57,95.58l-.48-.88c.14-.07,14.35-7.79,19.77-11.8,8.36-6.2,2.38-29.08,2.32-29.31l1-.25c.26,1,6.21,23.77-2.68,30.36C46,87.76,31.71,95.51,31.57,95.58Z"/><path class="cls-24" d="M65.69,74.61a1.41,1.41,0,0,1-.74-.22c-2.63-1.67-2.39-13.89-2.31-16.32l1,0c-.17,5.41.18,14.39,1.84,15.44a.45.45,0,0,0,.49,0C69.51,71.73,86.58,61.07,86.75,61l.53.84c-.7.44-17.28,10.79-20.86,12.61A1.56,1.56,0,0,1,65.69,74.61Z"/><g class="cls-18"><path class="cls-11" d="M27.3,95.07a4,4,0,1,0,4-4A4,4,0,0,0,27.3,95.07Z"/><path class="cls-19" d="M27.78,95.11a3.49,3.49,0,1,0,3.49-3.49A3.48,3.48,0,0,0,27.78,95.11Z"/><path class="cls-20" d="M28.26,95.15a3,3,0,1,0,3-3A3,3,0,0,0,28.26,95.15Z"/><path class="cls-21" d="M28.75,95.18a2.55,2.55,0,1,0,2.54-2.54A2.55,2.55,0,0,0,28.75,95.18Z"/><path class="cls-22" d="M29.23,95.22a2.08,2.08,0,1,0,2.07-2.07A2.08,2.08,0,0,0,29.23,95.22Z"/><path class="cls-23" d="M29.71,95.26a1.61,1.61,0,1,0,1.6-1.61A1.61,1.61,0,0,0,29.71,95.26Z"/><path class="cls-2" d="M30.19,95.3a1.14,1.14,0,1,0,1.14-1.14A1.14,1.14,0,0,0,30.19,95.3Z"/></g><g class="cls-18"><path class="cls-11" d="M83.06,61.13a4,4,0,1,0,4-4A4,4,0,0,0,83.06,61.13Z"/><path class="cls-19" d="M83.54,61.17A3.49,3.49,0,1,0,87,57.68,3.49,3.49,0,0,0,83.54,61.17Z"/><path class="cls-20" d="M84,61.21a3,3,0,1,0,3-3A3,3,0,0,0,84,61.21Z"/><path class="cls-21" d="M84.51,61.25a2.55,2.55,0,1,0,2.54-2.55A2.54,2.54,0,0,0,84.51,61.25Z"/><path class="cls-22" d="M85,61.29a2.08,2.08,0,1,0,2.07-2.08A2.08,2.08,0,0,0,85,61.29Z"/><path class="cls-23" d="M85.47,61.33a1.61,1.61,0,1,0,1.6-1.61A1.6,1.6,0,0,0,85.47,61.33Z"/><path class="cls-2" d="M86,61.37a1.14,1.14,0,1,0,1.14-1.14A1.14,1.14,0,0,0,86,61.37Z"/></g><polygon class="cls-4" points="38.08 39.34 38.09 40.42 26.37 47.18 26.37 46.1 38.08 39.34"/><polygon class="cls-4" points="62.66 28.13 62.67 35.85 46.02 45.46 46 37.75 62.66 28.13"/><path class="cls-2" d="M44.3,36.83,63.92,25.5l0,17.15L44.35,54Zm18.37-1,0-7.72L46,37.75l0,7.71,16.65-9.61Z"/><polygon class="cls-2" points="63.91 22.42 63.91 23.72 44.29 35.05 44.29 33.75 63.91 22.42"/><polygon class="cls-4" points="38.11 49.07 38.13 56.73 26.41 63.49 26.4 55.84 38.11 49.07"/><path class="cls-2" d="M25.08,39.48l15-8.64.07,26.35-15,8.64ZM38.13,56.72l0-7.65L26.4,55.84v7.65l11.72-6.77Zm-.06-21.65V34L26.35,40.75v1.08l11.72-6.76Zm0,5.35V39.34L26.37,46.1v1.08l11.72-6.76Zm0,2.43V41.77L26.37,48.54v1.08l11.71-6.77Zm0-5.35V36.42L26.36,43.18v1.08L38.08,37.5Z"/><path class="cls-4" d="M23.51,35,65.72,10.65l.09,33.11L23.6,68.13Zm16.6,22.17L40,30.84l-15,8.64.07,26.35,15-8.64ZM64,42.65l0-17.15L44.3,36.83,44.35,54,64,42.65Zm-.08-27V12.69L24.5,35.43v2.92L63.89,15.61Zm0,2.76v-1.3L44.27,28.4v1.3L63.9,18.37Zm0,2.43V19.5L44.28,30.83v1.3L63.91,20.8Zm0,2.92v-1.3L44.29,33.75v1.3L63.91,23.72Z"/><polygon class="cls-2" points="63.9 19.5 63.91 20.8 44.29 32.13 44.28 30.83 63.9 19.5"/><polygon class="cls-4" points="25.07 37.21 46.46 24.86 46.45 23.49 25.07 35.83 25.07 37.21"/><path class="cls-2" d="M63.89,15.61V12.69L24.5,35.43v2.92Zm-.78-1.74v1.38l-8.47,4.89V18.76l8.47-4.89ZM46.45,23.49v1.37L25.07,37.21V35.83L46.45,23.49Z"/><polygon class="cls-4" points="63.11 13.87 63.11 15.25 54.65 20.14 54.64 18.76 63.11 13.87"/><polygon class="cls-2" points="63.9 17.07 63.9 18.37 44.28 29.7 44.27 28.4 63.9 17.07"/><g class="cls-25"><polygon class="cls-4" points="38.09 41.77 38.09 42.85 26.38 49.62 26.37 48.54 38.09 41.77"/></g><polygon class="cls-4" points="38.08 36.42 38.08 37.5 26.36 44.26 26.36 43.18 38.08 36.42"/><g class="cls-25"><polygon class="cls-4" points="38.07 33.98 38.07 35.07 26.35 41.83 26.35 40.75 38.07 33.98"/></g><path class="cls-26" d="M80.14,49c.51-8.38-10-24.87-28-18.57-10.29,3.6-12.7,9.4-1.77,17.39,0,0-.11,4.47,8.47,3.76,0,0,5.52-.23,9.25,2.59C72.07,57.15,79.91,52.78,80.14,49Z"/><path class="cls-27" d="M47.1,34.76a11.13,11.13,0,0,1,6.72-3.06,35.51,35.51,0,0,1,4.15.16c3.2.24,7.07.37,10.24-1l-.84-.39c-3,1.27-6.23.88-9.34.65A37.07,37.07,0,0,0,53.79,31a11.75,11.75,0,0,0-7.2,3.28Z"/><path class="cls-27" d="M58.8,31.5l.61-.1c0,.26,0-.3,0-.39.14-.24,1.33-1.1,4.41-1.59l-1.14-.22c-2.64.42-3.59.78-3.94,1.57A.82.82,0,0,0,58.8,31.5Z"/><path class="cls-27" d="M68.1,36.79l.7-.51A17.63,17.63,0,0,0,63,31.62l-.5-.22-.89.37c.37.18.74.34,1.11.5A16.64,16.64,0,0,1,68.1,36.79Z"/><path class="cls-27" d="M78.21,41l-.38-.74A17,17,0,0,1,75,39.48a4.08,4.08,0,0,1-1.7-1.43,4.6,4.6,0,0,0-2.46-1.84,3.2,3.2,0,0,0-3.57,1.3l.6.37a2.49,2.49,0,0,1,2.78-1,4,4,0,0,1,2.11,1.6,4.58,4.58,0,0,0,2,1.65A19.9,19.9,0,0,0,78.21,41Z"/><path class="cls-27" d="M74.42,39.55c1.8-3.45-3.3-6.24-3.52-6.36l-.33.62s4.7,2.58,3.23,5.42Z"/><path class="cls-27" d="M77.08,53.3c.15-.14,3.24-2.72,1.86-5.51A9.89,9.89,0,0,0,76.77,45c-.75-.73-1.29-1.25-1.27-2a3.47,3.47,0,0,0-2.16-2.8,2.45,2.45,0,0,0-2.75.2l.47.53a1.85,1.85,0,0,1,2-.09A2.78,2.78,0,0,1,74.79,43c0,1.05.67,1.73,1.49,2.52a9,9,0,0,1,2,2.57c1.15,2.31-2.39,5.81-2.42,5.84Z"/><path class="cls-27" d="M79.65,44.81l-.3-1a4.37,4.37,0,0,0-4.21-.44l.25.66S78.41,43,79.65,44.81Z"/><path class="cls-27" d="M74.87,52c3-2.77,2.9-5.63,2.89-5.65L77,46.19h0l.08.4a10.62,10.62,0,0,1-2.58,4.55Z"/><path class="cls-28" d="M68.12,54.17c-3.73-2.82-9.25-2.59-9.25-2.59-8.58.71-8.47-3.76-8.47-3.76-7-5.11-8.52-9.33-6-12.64a24.31,24.31,0,0,1,5-2.33c18-6.29,28.49,10.19,28,18.57a4.28,4.28,0,0,1-.89,2.18C73.84,55.19,70.36,55.86,68.12,54.17Z"/><path class="cls-29" d="M74.85,52.69c.51-8.37-7.87-24.09-28-18.57-4.22,1.16-12.7,9.41-1.77,17.4,0,0-.11,4.46,8.47,3.76a31.43,31.43,0,0,1,9.09,4.45C68.75,64.21,74.62,56.48,74.85,52.69Z"/><path class="cls-27" d="M44.49,51.05l.62.47s-.73-2.1,0-3.19c.36-.57,1.16-.83,2.38-.79l.51,0c2.86.11,4.74.18,5.68-.93.61-.73.72-1.85.33-3.66-.69-3.28-.52-5.53.49-6.69a3.82,3.82,0,0,1,3.32-1c3.09.24,4.23,2.29,4.68,8.43a4.82,4.82,0,0,0,2.89,3.47c1.3.65,4.12,2.28,8.6-.56l-.24-.68c-4.17,2.65-6.85,1.21-8,.61a4.15,4.15,0,0,1-2.51-2.89c-.41-5.66-1.38-8.78-5.32-9.08a4.47,4.47,0,0,0-3.91,1.24c-1.19,1.35-1.4,3.74-.65,7.3.33,1.55.27,2.52-.18,3.06-.71.84-2.56.77-5.11.67h-.52c-1.48-.06-2.49.32-3,1.12A3.21,3.21,0,0,0,44.49,51.05Z"/><path class="cls-27" d="M55.84,51.54l.7-.07c-.47-4.88-6.84-4.57-6.91-4.56l0,.7C49.91,47.6,55.44,47.33,55.84,51.54Z"/><path class="cls-27" d="M53,41.64l.69-.14c0-.06-1.26-5.93-6.87-5.66l0,.71C51.9,36.29,53,41.42,53,41.64Z"/><path class="cls-27" d="M46.39,40.26c.8-2.71,4.06-2.77,4.09-2.77v-.7s-3.81.06-4.75,3.27Z"/><path class="cls-27" d="M67.43,53l.26-.66c-6.83-2.67-4.69-8.76-4.59-9l-.67-.24A7.74,7.74,0,0,0,67.43,53Z"/><path class="cls-27" d="M63.62,55l.48-.51c-2-1.83-.46-4.88-.45-4.91L63,49.22C63,49.37,61.25,52.78,63.62,55Z"/><path class="cls-27" d="M62.1,40.36l.57-.4s-2.38-3.3-5.49-2.07l.26.66C60,37.52,62.08,40.34,62.1,40.36Z"/><path class="cls-27" d="M66.32,58.85c3.21-.29,3.32-2.77,4-5a7.87,7.87,0,0,1,.8-2.16,3.94,3.94,0,0,1,3.57-1.88l-.12-.7a4.28,4.28,0,0,0-4.08,2.25,14,14,0,0,0-.85,2.28c-.7,2.27-2,4.88-4.75,5.13Z"/><path class="cls-27" d="M65.18,46.91l.7-.06c-.23-2.7,4.24-3.29,4.28-3.29l-.08-.7C69.86,42.88,64.88,43.54,65.18,46.91Z"/><path class="cls-27" d="M66.72,44.46l.6-.37c-1.29-2.09.76-4.79.78-4.81l-.56-.43C67.44,39,65.18,42,66.72,44.46Z"/><path class="cls-27" d="M46,47.41l.64-.31a5,5,0,0,0-2.29-2.5L43.46,44c-1.75-1.25-.54-3.64-.53-3.67L42.3,40c-.52,1-1,3.28.74,4.56l.88.62A4.4,4.4,0,0,1,46,47.41Z"/><path class="cls-27" d="M41.55,45.18a3.69,3.69,0,0,0,1.9-.62l-.4-.58a2.76,2.76,0,0,1-1.87.46c-.44-.1-1.14-1-1.43-1.47l.07,1.11c.38.68.57.9,1.21,1.05A2.35,2.35,0,0,0,41.55,45.18Z"/><path class="cls-27" d="M55.75,55.19c.08,0,.12,0,.19-.12.25-.26,0-.51-.12-.62v0L54.14,53a2,2,0,0,1-.77-1.62C53.47,50.07,55,49.05,55,49l-.39-.58a4.47,4.47,0,0,0-1.95,2.82,2.65,2.65,0,0,0,1,2.19c.88.8,1.38,1.26,1.68,1.5l.07.07h0A.54.54,0,0,0,55.75,55.19Z"/><path class="cls-27" d="M50,52.87a2.25,2.25,0,0,1,1.36-1.08,2.34,2.34,0,0,1,1.54.29l.38-.59a3,3,0,0,0-2.07-.39,2.87,2.87,0,0,0-1.8,1.39Z"/><path class="cls-27" d="M54.07,44.52s1.68-1.78,3.27-1.78h0a2,2,0,0,1,1.48.7l.52-.47a2.68,2.68,0,0,0-2-.93c-1.88,0-3.73,1.91-3.81,2Z"/><path class="cls-27" d="M48,43c1.94-1.84.14-5,.07-5.18l-.62.35s1.6,2.86.07,4.32Z"/><path class="cls-27" d="M68.55,57l.49-.5a3.23,3.23,0,0,0-3.68-.44l.32.63A2.52,2.52,0,0,1,68.55,57Z"/><path class="cls-27" d="M60.16,52.84c.63-1.18,2.53-1,2.55-1l.08-.7c-.1,0-2.4-.25-3.25,1.35Z"/><path class="cls-30" d="M46.7,23.74C54,19.51,60,22.9,60,31.32S54.11,50,46.78,54.24s-13.29.84-13.31-7.59S39.36,28,46.7,23.74Z"/><g class="cls-31"><path class="cls-14" d="M50.83,24.5c8-4.6,14.46-.91,14.49,8.26S58.9,53.09,50.93,57.69s-14.46.91-14.49-8.26S42.85,29.11,50.83,24.5Z"/></g><g class="cls-32"><path class="cls-33" d="M55,25.27c8.62-5,15.63-1,15.66,8.92s-6.94,22-15.56,27-15.63,1-15.66-8.93S46.34,30.24,55,25.27Z"/></g><g class="cls-34"><path class="cls-35" d="M59.11,26c9.26-5.35,16.8-1.06,16.83,9.59s-7.46,23.62-16.72,29S42.41,65.65,42.38,55,49.84,31.38,59.11,26Z"/></g><g class="cls-36"><path class="cls-37" d="M63.24,26.79c9.91-5.72,18-1.13,18,10.27s-8,25.26-17.89,31-18,1.14-18-10.26S53.33,32.52,63.24,26.79Z"/></g><g class="cls-38"><path class="cls-39" d="M67.38,27.56c10.55-6.09,19.14-1.21,19.18,10.93s-8.5,26.91-19.06,33S48.36,72.7,48.32,60.56,56.82,33.66,67.38,27.56Z"/></g><g class="cls-40"><path class="cls-17" d="M71.52,28.32C82.71,21.86,91.83,27,91.87,39.92s-9,28.56-20.22,35S51.33,76.23,51.3,63.35,60.31,34.79,71.52,28.32Z"/></g><g class="cls-10"><path class="cls-11" d="M67.78,54a2.38,2.38,0,1,0,2.38-2.38A2.39,2.39,0,0,0,67.78,54Z"/><path class="cls-12" d="M68.07,54a2.1,2.1,0,1,0,2.1-2.09A2.1,2.1,0,0,0,68.07,54Z"/><path class="cls-13" d="M68.36,54a1.82,1.82,0,1,0,1.82-1.82A1.81,1.81,0,0,0,68.36,54Z"/><path class="cls-14" d="M68.65,54a1.54,1.54,0,1,0,1.53-1.53A1.53,1.53,0,0,0,68.65,54Z"/><path class="cls-15" d="M68.94,54.06a1.25,1.25,0,1,0,1.25-1.25A1.25,1.25,0,0,0,68.94,54.06Z"/><path class="cls-16" d="M69.23,54.09a1,1,0,1,0,1-1A1,1,0,0,0,69.23,54.09Z"/><path class="cls-17" d="M69.52,54.11a.69.69,0,1,0,.68-.68A.68.68,0,0,0,69.52,54.11Z"/></g><g class="cls-10"><path class="cls-11" d="M41.9,44.46a2.38,2.38,0,1,0,2.38-2.38A2.39,2.39,0,0,0,41.9,44.46Z"/><path class="cls-12" d="M42.19,44.48a2.1,2.1,0,1,0,2.1-2.1A2.1,2.1,0,0,0,42.19,44.48Z"/><path class="cls-13" d="M42.48,44.51a1.82,1.82,0,1,0,1.81-1.82A1.81,1.81,0,0,0,42.48,44.51Z"/><path class="cls-14" d="M42.77,44.53A1.53,1.53,0,1,0,44.3,43,1.54,1.54,0,0,0,42.77,44.53Z"/><path class="cls-15" d="M43.06,44.55a1.25,1.25,0,1,0,1.25-1.25A1.25,1.25,0,0,0,43.06,44.55Z"/><path class="cls-16" d="M43.35,44.58a1,1,0,1,0,1-1A1,1,0,0,0,43.35,44.58Z"/><path class="cls-17" d="M43.64,44.6a.67.67,0,0,0,.68.68.68.68,0,1,0,0-1.36A.67.67,0,0,0,43.64,44.6Z"/></g><g class="cls-10"><path class="cls-11" d="M51.32,43a2.38,2.38,0,1,0,2.38-2.38A2.39,2.39,0,0,0,51.32,43Z"/><path class="cls-12" d="M51.61,43a2.1,2.1,0,1,0,2.1-2.09A2.1,2.1,0,0,0,51.61,43Z"/><path class="cls-13" d="M51.9,43a1.82,1.82,0,1,0,1.82-1.82A1.81,1.81,0,0,0,51.9,43Z"/><path class="cls-14" d="M52.19,43a1.54,1.54,0,1,0,1.53-1.53A1.53,1.53,0,0,0,52.19,43Z"/><path class="cls-15" d="M52.48,43.07a1.25,1.25,0,1,0,1.25-1.25A1.25,1.25,0,0,0,52.48,43.07Z"/><path class="cls-16" d="M52.77,43.09a1,1,0,1,0,1-1A1,1,0,0,0,52.77,43.09Z"/><path class="cls-17" d="M53.06,43.11a.69.69,0,1,0,.68-.68A.69.69,0,0,0,53.06,43.11Z"/></g><g class="cls-10"><path class="cls-11" d="M63.39,31.4A2.38,2.38,0,1,0,65.77,29,2.39,2.39,0,0,0,63.39,31.4Z"/><path class="cls-12" d="M63.68,31.43a2.1,2.1,0,1,0,2.1-2.1A2.1,2.1,0,0,0,63.68,31.43Z"/><path class="cls-13" d="M64,31.45a1.82,1.82,0,1,0,1.82-1.82A1.81,1.81,0,0,0,64,31.45Z"/><path class="cls-14" d="M64.26,31.47a1.54,1.54,0,1,0,1.53-1.53A1.53,1.53,0,0,0,64.26,31.47Z"/><path class="cls-15" d="M64.55,31.5a1.25,1.25,0,1,0,1.25-1.25A1.25,1.25,0,0,0,64.55,31.5Z"/><path class="cls-16" d="M64.84,31.52a1,1,0,1,0,1-1A1,1,0,0,0,64.84,31.52Z"/><path class="cls-17" d="M65.13,31.54a.69.69,0,1,0,.68-.68A.69.69,0,0,0,65.13,31.54Z"/></g><g class="cls-10"><path class="cls-11" d="M72.49,38.11a2.38,2.38,0,1,0,2.38-2.38A2.39,2.39,0,0,0,72.49,38.11Z"/><path class="cls-12" d="M72.78,38.13a2.1,2.1,0,1,0,2.1-2.1A2.1,2.1,0,0,0,72.78,38.13Z"/><path class="cls-13" d="M73.07,38.16a1.82,1.82,0,1,0,1.82-1.82A1.81,1.81,0,0,0,73.07,38.16Z"/><path class="cls-14" d="M73.36,38.18a1.54,1.54,0,1,0,1.53-1.53A1.54,1.54,0,0,0,73.36,38.18Z"/><path class="cls-15" d="M73.65,38.2A1.25,1.25,0,1,0,74.9,37,1.25,1.25,0,0,0,73.65,38.2Z"/><path class="cls-16" d="M73.94,38.23a1,1,0,1,0,1-1A1,1,0,0,0,73.94,38.23Z"/><path class="cls-17" d="M74.23,38.25a.69.69,0,1,0,.68-.68A.68.68,0,0,0,74.23,38.25Z"/></g><path class="cls-41" d="M81.23,45.92S79,44.07,78,44.32s-1.32-.06-1.49.28C76,45.74,78.28,47.13,81,46.94,81,46.94,81.79,46.35,81.23,45.92Z"/><path class="cls-42" d="M85.94,48.76a3.37,3.37,0,0,1-.67-1.23.87.87,0,0,1,.48-1.2l5.85-1.75a3.93,3.93,0,0,1,3.19-.19h0a1.51,1.51,0,0,1-.37,2.77S86.94,49.51,85.94,48.76Z"/><path class="cls-42" d="M87.19,48.52a1.6,1.6,0,0,0-.83-2.22l-5.68-.9a3,3,0,0,1,0,1c-.28.74-.55.77-.55.77S86,50.23,87.19,48.52Z"/><path class="cls-43" d="M91,83.57s-1.16.39-.74,1,2,1.32,2.28,1.7,1.69,1.62,2,1.42,1.32-.17.86-1.81S92.61,83.22,91,83.57Z"/><path class="cls-44" d="M95.15,59.86A10.16,10.16,0,0,1,96,67a46.48,46.48,0,0,0-.56,10.27s.84,7.65.21,9A3.45,3.45,0,0,1,91.89,86L90.45,71.79l-.61-10.42S94.06,60.82,95.15,59.86Z"/><path class="cls-45" d="M90.45,71.79,90,63.61l1.64-.36s1,7.34.48,9.08c-.4,1.36,1,9.94.93,14.22A3.48,3.48,0,0,1,91.89,86Z"/><path class="cls-43" d="M81.6,82.8S81,84,80,83.52s-.33-.79-2.61-1.93S75.77,79.42,76,79.21c.45-.47,1.82.53,2.32.78a14.18,14.18,0,0,0,1.68.55l2,2Z"/><path class="cls-44" d="M92.56,61.06s1.33,3.61-.87,5.11a19.37,19.37,0,0,0-5.23,5.46c-.59,1.22-3.82,11-3.82,11a4,4,0,0,1-4.12-.74s2.56-11.49,3.49-13,5.06-8.83,5.06-8.83A14.06,14.06,0,0,0,92.56,61.06Z"/><path class="cls-45" d="M78.52,81.92s2.56-11.49,3.49-13,4.52-7.87,5-8.73l1.61,2.92a55,55,0,0,0-3.42,4.4c-.52,1-4.17,10-4.92,15.37A3.44,3.44,0,0,1,78.52,81.92Z"/><path class="cls-46" d="M94.86,44.14s1.78.15.93,3.4a30.58,30.58,0,0,0-1.12,8,38.15,38.15,0,0,0,1.1,5.09s.29,2.47-5.5,4.41c0,0-4.82.38-4.23-2.92a44.39,44.39,0,0,0,.39-9.81c-.2-1.24-1.09-3.7,1.87-5.58S92.89,44.14,94.86,44.14Z"/><path class="cls-42" d="M86.43,52.29A44.39,44.39,0,0,1,86,62.1C85.63,64.39,87.81,65,89.19,65c.35-1.48,0-4.42.84-7.65a12.5,12.5,0,0,0-.68-8.54,2.11,2.11,0,0,0-1.9-1.47C85.53,49.12,86.25,51.18,86.43,52.29Z"/><path class="cls-47" d="M93.23,42.63a5.47,5.47,0,0,0,.2,2.66c.44.94-3.34,1.55-3.38.7a3.7,3.7,0,0,0,0-3.15C89.62,42,93.23,42.63,93.23,42.63Z"/><path class="cls-48" d="M93.41,45.34A5,5,0,0,1,93.17,43l-2.81,1.21h0c.11,0,1.92.62,2.23,2C93.17,46,93.57,45.69,93.41,45.34Z"/><path class="cls-47" d="M89.56,38.09a7.11,7.11,0,0,0-.63,2.71c0,1.37-.17,1.63-.12,2.24a1.49,1.49,0,0,0,.24.91,2.32,2.32,0,0,0,2.41.28c1.42-.44,3-2.3,2.51-4.09S91.73,36.79,89.56,38.09Z"/><path class="cls-41" d="M93.8,42a25.9,25.9,0,0,0-1.72-3.7,4.55,4.55,0,0,0-.94-.73,3.12,3.12,0,0,0-1.58.48,8.67,8.67,0,0,0-.35.93c.31.4,1,.87,1,1.2a4.14,4.14,0,0,1-.26,2.4c-.25.5.6,1.29.39,1.73a.07.07,0,0,0,0,.06,4.33,4.33,0,0,0,1.09-.18A4.09,4.09,0,0,0,93.8,42Z"/><path class="cls-49" d="M89.18,37.47a1.83,1.83,0,0,0,.9,1.93c.71.41.58,1.6.53,1.82a5.66,5.66,0,0,0-.24,1.36c.15.26.77-.48,1-.41.68.18.37.82-.3,1.47s1,1.1,1.88.54c.46-.29.62-.48,1.26-1.59.93-1.63,1.09-3.65-.79-4.84S90.36,38,89.18,37.47Z"/><path class="cls-49" d="M93,44.18c.46-.29.62-.48,1.26-1.59.93-1.63,1.09-3.65-.79-4.84s-3.1.28-4.28-.28a2.16,2.16,0,0,0,0,.5c.61.14,2.28.59,2.67,1.35.48,1,1.09.69,1,1.82s.08,2.53-1.75,3A1.78,1.78,0,0,0,93,44.18Z"/><path class="cls-50" d="M90.19,45.39l-1.45,1s3.89,1.34,5.11-.49a1.11,1.11,0,0,0-.61-1.38S93,46,90.19,45.39Z"/><path class="cls-41" d="M76.67,49s-1.5-2.51-2.52-2.61-1.23-.5-1.5-.23c-.88.89.83,3,3.41,3.71C76.06,49.87,77.05,49.59,76.67,49Z"/><path class="cls-42" d="M80.92,53.59A3.47,3.47,0,0,1,80,52.5a.87.87,0,0,1,.25-1.26l5.43-2.8a3.92,3.92,0,0,1,3.1-.78h0A1.51,1.51,0,0,1,89,50.45S82,54.14,80.92,53.59Z"/><path class="cls-42" d="M81.41,53.45a1.59,1.59,0,0,0,0-2.37l-5.06-2.76a3,3,0,0,1-.37.94c-.51.6-.78.53-.78.53S79.71,54.66,81.41,53.45Z"/><path class="cls-11" d="M78.71,83.73c-4.64,2.69-4.62,7,0,9.65s12,2.7,16.67,0,4.63-7,.06-9.65S83.32,81.07,78.71,83.73Z"/><g class="cls-31"><path class="cls-51" d="M78.21,76.28c-4.92,2.85-4.9,7.41,0,10.23s12.75,2.86,17.67,0,4.91-7.41.06-10.23S83.1,73.45,78.21,76.28Z"/></g><g class="cls-32"><path class="cls-52" d="M77.71,68.82c-5.2,3-5.18,7.84-.06,10.82s13.48,3,18.68,0,5.19-7.83.06-10.82S82.87,65.84,77.71,68.82Z"/></g><g class="cls-34"><path class="cls-53" d="M77.21,61.37c-5.48,3.17-5.45,8.26-.06,11.4s14.2,3.17,19.68,0,5.47-8.25.07-11.4S82.65,58.23,77.21,61.37Z"/></g><g class="cls-36"><path class="cls-54" d="M76.71,53.92C71,57.25,71,62.6,76.65,65.9s14.92,3.33,20.68,0,5.75-8.68.07-12S82.43,50.62,76.71,53.92Z"/></g><g class="cls-38"><path class="cls-55" d="M76.21,46.47c-6,3.49-6,9.09-.06,12.56s15.64,3.49,21.68,0,6-9.1.07-12.56S82.21,43,76.21,46.47Z"/></g><g class="cls-40"><path class="cls-56" d="M75.72,39c-6.32,3.65-6.3,9.51-.08,13.14s16.37,3.65,22.69,0,6.3-9.52.08-13.14S82,35.39,75.72,39Z"/></g></g></g></g></svg>