<svg xmlns="http://www.w3.org/2000/svg" viewBox="0 0 111.83 126.98"><defs><style>.cls-1{isolation:isolate;}.cls-2{opacity:0.2;}.cls-3{fill:#8fedff;}.cls-4{fill:#c5f9ff;}.cls-5{fill:#41c0fd;}.cls-6{fill:#2afbfe;}.cls-7{fill:#66d4e2;}.cls-8{fill:#4bbcc4;}.cls-9{fill:#53d5ea;}.cls-10{fill:#6afce5;}.cls-11{opacity:0.1;}.cls-12{fill:#d4fcf4;}.cls-12,.cls-19,.cls-30,.cls-52{opacity:0.5;}.cls-13,.cls-14{mix-blend-mode:overlay;}.cls-14{fill:#0edbfc;}.cls-15,.cls-32,.cls-54{opacity:0.83;}.cls-16{fill:#36e1fc;}.cls-17,.cls-31,.cls-34,.cls-53{opacity:0.67;}.cls-18{fill:#5de6fc;}.cls-20{fill:#85ecfd;}.cls-21,.cls-29,.cls-51{opacity:0.33;}.cls-22{fill:#adf2fd;}.cls-23,.cls-28,.cls-50{opacity:0.17;}.cls-24{fill:#d4f7fd;}.cls-25,.cls-27{opacity:0;}.cls-26{fill:#fcfdfd;}.cls-27{fill:#fff;}.cls-28{fill:#dcfeff;}.cls-29{fill:#b8feff;}.cls-30{fill:#95fdff;}.cls-31{fill:#71fcfe;}.cls-32{fill:#4efcfe;}.cls-33,.cls-34,.cls-35,.cls-36,.cls-37,.cls-38,.cls-39{fill:#dcdcdc;}.cls-33{opacity:0.6;}.cls-35{opacity:0.73;}.cls-36{opacity:0.8;}.cls-37{opacity:0.87;}.cls-38{opacity:0.93;}.cls-40{fill:#e6a376;}.cls-41{fill:#460689;}.cls-42{fill:#d38f62;}.cls-43{fill:#1e292e;}.cls-44{fill:#12191c;}.cls-45{fill:#efb185;}.cls-46{fill:#37007f;}.cls-47{fill:#43008d;}.cls-48{fill:#5d0ca6;}.cls-49{fill:#8c2ddf;}.cls-50{fill:#fcfefd;}.cls-51{fill:#f9fdfc;}.cls-52{fill:#f6fcfa;}.cls-53{fill:#f3fbf8;}.cls-54{fill:#f0faf7;}.cls-55{fill:#edf9f5;}</style></defs><g class="cls-1"><g id="Layer_2" data-name="Layer 2"><g id="Layer_1-2" data-name="Layer 1"><g class="cls-2"><path d="M96.48,98.23c2.79,1.61,2.81,4.23,0,5.84L72.75,117.88a11.12,11.12,0,0,1-10.08,0L37.91,103.59c-2.79-1.62-2.81-4.23,0-5.84L61.64,83.93a11.12,11.12,0,0,1,10.08,0Z"/></g><path class="cls-3" d="M93.46,92.05a1.1,1.1,0,0,1,0,.18.94.94,0,0,1,0,.16,1.09,1.09,0,0,1-.05.17.94.94,0,0,1-.06.15,1.42,1.42,0,0,1-.08.18l-.09.14a2.39,2.39,0,0,1-.13.21l-.1.12a3.25,3.25,0,0,1-.26.27l-.09.1-.19.15-.17.13-.21.14-.23.15L71.8,105.89c-.18.1-.37.19-.56.28l-.17.07a3.8,3.8,0,0,1-.47.18l-.17.06-.31.09-.23.06-.33.07-.23,0c-.22,0-.45.07-.68.09l-.21,0-.41,0h-.86l-.3,0-.28,0-.29,0-.28,0-.3-.06-.26,0-.37-.09-.2,0c-.22-.07-.44-.14-.64-.22l-.09,0a6.69,6.69,0,0,1-.81-.38l-20.77-12a3,3,0,0,1-1.77-2.46l0,7.3a3,3,0,0,0,1.77,2.47l20.77,12a5.5,5.5,0,0,0,.81.39l0,0h0c.2.08.42.15.64.22h0l.15,0,.37.09.1,0,.15,0,.32.06.12,0h.14l.31,0h.27l.3,0H68l.41,0h.21c.23,0,.45-.06.68-.09h0l.2,0,.33-.07.23-.06.31-.09.06,0,.11,0c.16-.06.32-.11.47-.18l.17-.07a5.93,5.93,0,0,0,.56-.29l19.94-11.58.07,0,.16-.1c.07,0,.15-.09.21-.14l.17-.14.19-.15,0,0a.34.34,0,0,0,.06-.06l.26-.27s0,0,0-.07h0l0-.06.13-.2.06-.09,0,0c0-.06,0-.12.08-.19a.47.47,0,0,0,0-.1.06.06,0,0,0,0,0,1.21,1.21,0,0,0,0-.18.56.56,0,0,0,0-.12v0a1.36,1.36,0,0,0,0-.2.43.43,0,0,0,0-.11v0l0-7.31A1.1,1.1,0,0,1,93.46,92.05Z"/><path class="cls-4" d="M91.72,89.4c2.34,1.36,2.35,3.55,0,4.9L71.8,105.89a9.32,9.32,0,0,1-8.45,0l-20.77-12c-2.34-1.35-2.36-3.54,0-4.89L62.49,77.41a9.32,9.32,0,0,1,8.45,0Z"/><path class="cls-5" d="M84.84,90.77c1.68,1,1.69,2.55,0,3.53l-14.37,8.34a6.67,6.67,0,0,1-6.09,0L49.44,94c-1.69-1-1.7-2.55,0-3.53l14.36-8.34a6.67,6.67,0,0,1,6.09,0Z"/><path class="cls-6" d="M81.15,93.72c1.32.75,1.33,2,0,2.72l-11.32,6.43a5.4,5.4,0,0,1-4.8,0L53.25,96.22c-1.33-.75-1.34-2,0-2.72l11.32-6.43a5.37,5.37,0,0,1,4.8,0Z"/><path class="cls-3" d="M93.5,58.13c0,.06,0,.12,0,.18s0,.1,0,.16l0,.17-.06.15-.09.18a1,1,0,0,1-.08.14c0,.07-.09.14-.14.2a1.13,1.13,0,0,1-.1.13l-.25.27-.1.1-.18.14-.17.14-.21.14-.23.15L71.84,72a5.93,5.93,0,0,1-.56.29l-.17.07-.47.18-.17.06-.31.09-.24.06-.32.07-.24,0c-.22,0-.45.07-.67.09l-.22,0-.4,0H67.8a1.71,1.71,0,0,1-.32,0h-.27l-.31,0-.27,0-.3,0-.27,0-.32-.06-.24,0-.38-.09-.2,0-.64-.22-.09,0a6.55,6.55,0,0,1-.8-.38L42.61,60a3,3,0,0,1-1.76-2.46q0,12.17-.07,24.35a3,3,0,0,0,1.76,2.47l20.78,12a5.05,5.05,0,0,0,.81.39l.05,0h0c.21.08.42.15.64.21l.05,0,.16,0,.37.09.1,0,.15,0,.31.06.13,0h.14l.3,0h.27l.31,0H68l.4,0h.22l.68-.09h0l.19,0,.33-.07.24-.07.3-.08.07,0,.11,0c.16-.06.31-.11.46-.18l.18-.07a5.93,5.93,0,0,0,.56-.29L91.71,84.74l.07,0,.15-.1.22-.14.17-.14.18-.14,0,0,.06-.07.26-.27,0-.06,0,0,.14-.22.06-.08,0,0,.09-.19a.47.47,0,0,1,0-.1.06.06,0,0,1,0,0,1.05,1.05,0,0,0,.05-.19.35.35,0,0,0,0-.11,0,0,0,0,0,0,0c0-.06,0-.12,0-.19s0-.08,0-.12v0q0-12.18.07-24.36C93.51,58,93.5,58.07,93.5,58.13Z"/><path class="cls-4" d="M91.75,55.48c2.34,1.35,2.36,3.55,0,4.9L71.84,72a9.29,9.29,0,0,1-8.45,0L42.61,60c-2.34-1.35-2.35-3.54,0-4.9L62.52,43.49a9.31,9.31,0,0,1,8.46,0Z"/><path class="cls-5" d="M84.84,56.11c1.68,1,1.69,2.55,0,3.53L70.49,68a6.71,6.71,0,0,1-6.09,0l-15-8.65c-1.69-1-1.7-2.55,0-3.53l14.36-8.34a6.67,6.67,0,0,1,6.09,0Z"/><path class="cls-6" d="M81.15,59.06c1.32.75,1.33,2,0,2.72L69.84,68.21a5.4,5.4,0,0,1-4.8,0L53.25,61.56c-1.33-.76-1.34-2,0-2.72l11.32-6.43a5.37,5.37,0,0,1,4.8,0Z"/><path class="cls-7" d="M75.77,73.14c.66-.38,1.2-.07,1.2.69l0,13.9a2.62,2.62,0,0,1-1.2,2.07c-.66.38-1.2.08-1.2-.69l0-13.89A2.64,2.64,0,0,1,75.77,73.14Z"/><path class="cls-7" d="M82.45,70c.66-.38,1.2-.08,1.21.69l0,13.89a2.63,2.63,0,0,1-1.19,2.08c-.67.38-1.21.07-1.21-.69l0-13.89A2.65,2.65,0,0,1,82.45,70Z"/><path class="cls-7" d="M88.45,67c.66-.39,1.2-.08,1.21.68l0,13.9a2.61,2.61,0,0,1-1.19,2.07c-.67.39-1.21.08-1.21-.68l0-13.9A2.65,2.65,0,0,1,88.45,67Z"/><path class="cls-7" d="M75.77,73.14c.66-.38,1.2-.07,1.2.69l0,13.9a2.62,2.62,0,0,1-1.2,2.07c-.66.38-1.2.08-1.2-.69l0-13.89A2.64,2.64,0,0,1,75.77,73.14Z"/><path class="cls-7" d="M82.45,70c.66-.38,1.2-.08,1.21.69l0,13.89a2.63,2.63,0,0,1-1.19,2.08c-.67.38-1.21.07-1.21-.69l0-13.89A2.65,2.65,0,0,1,82.45,70Z"/><path class="cls-7" d="M88.45,67c.66-.39,1.2-.08,1.21.68l0,13.9a2.61,2.61,0,0,1-1.19,2.07c-.67.39-1.21.08-1.21-.68l0-13.9A2.65,2.65,0,0,1,88.45,67Z"/><path class="cls-7" d="M75.77,73.14c.66-.38,1.2-.07,1.2.69l0,13.9a2.62,2.62,0,0,1-1.2,2.07c-.66.38-1.2.08-1.2-.69l0-13.89A2.64,2.64,0,0,1,75.77,73.14Z"/><path class="cls-8" d="M74.57,75.22l0,13.89c0,.56.29.88.71.85a2.67,2.67,0,0,0,.81-1.77l0-13.9c0-.56-.29-.87-.71-.84A2.67,2.67,0,0,0,74.57,75.22Z"/><path class="cls-8" d="M81.25,72.06l0,13.89c0,.56.29.87.71.85A2.6,2.6,0,0,0,82.81,85l0-13.9c0-.56-.3-.87-.72-.85A2.69,2.69,0,0,0,81.25,72.06Z"/><path class="cls-8" d="M87.25,69l0,13.9c0,.56.3.87.71.84A2.62,2.62,0,0,0,88.82,82l0-13.89c0-.56-.3-.87-.72-.85A2.69,2.69,0,0,0,87.25,69Z"/><path class="cls-7" d="M60,73.07c-.66-.38-1.2-.08-1.21.69l0,13.89a2.68,2.68,0,0,0,1.2,2.08c.66.38,1.21.07,1.21-.69l0-13.9A2.65,2.65,0,0,0,60,73.07Z"/><path class="cls-7" d="M53.28,69.91c-.67-.39-1.21-.08-1.21.68l0,13.9a2.62,2.62,0,0,0,1.2,2.07c.66.39,1.2.08,1.21-.68l0-13.9A2.61,2.61,0,0,0,53.28,69.91Z"/><path class="cls-7" d="M47.27,66.89c-.66-.38-1.2-.07-1.2.69l0,13.89a2.62,2.62,0,0,0,1.2,2.08c.66.38,1.2.08,1.2-.69l0-13.89A2.64,2.64,0,0,0,47.27,66.89Z"/><path class="cls-8" d="M61.12,89l0-13.9a2.65,2.65,0,0,0-.66-1.61c-.5-.11-.86.2-.87.82l0,13.9a2.65,2.65,0,0,0,.66,1.61C60.75,90,61.12,89.66,61.12,89Z"/><path class="cls-8" d="M54.44,85.88l0-13.9a2.52,2.52,0,0,0-.66-1.61c-.49-.12-.86.19-.86.82l0,13.9a2.67,2.67,0,0,0,.66,1.61C54.07,86.81,54.43,86.5,54.44,85.88Z"/><path class="cls-8" d="M48.43,82.86l0-13.89a2.63,2.63,0,0,0-.66-1.61c-.49-.12-.86.19-.86.82l0,13.89a2.63,2.63,0,0,0,.66,1.61C48.07,83.8,48.43,83.49,48.43,82.86Z"/><path class="cls-9" d="M42.71,42.8C42.09,32.66,54.8,12.71,76.56,20.33c12.45,4.35,15.36,11.37,2.13,21,0,0,.14,5.41-10.24,4.55,0,0-6.68-.28-11.19,3.13C52.48,52.67,43,47.37,42.71,42.8Z"/><path class="cls-10" d="M82.69,25.57a13.61,13.61,0,0,0-8.14-3.71,46.93,46.93,0,0,0-5,.2c-3.86.29-8.55.45-12.38-1.16l1-.47c3.65,1.54,7.54,1.06,11.3.78a46.18,46.18,0,0,1,5.13-.2,14.17,14.17,0,0,1,8.71,4Z"/><path class="cls-10" d="M68.53,21.62l-.73-.12a2.65,2.65,0,0,0,0-.46c-.17-.3-1.61-1.33-5.34-1.93l1.37-.27c3.21.51,4.35.94,4.77,1.9A.94.94,0,0,1,68.53,21.62Z"/><path class="cls-10" d="M57.28,28l-.84-.61a21.25,21.25,0,0,1,7.07-5.64l.61-.26L65.2,22l-1.35.59A20.3,20.3,0,0,0,57.28,28Z"/><path class="cls-10" d="M45,33.17l.47-.9a19.46,19.46,0,0,0,3.43-1A4.89,4.89,0,0,0,51,29.55a5.54,5.54,0,0,1,3-2.23,3.86,3.86,0,0,1,4.31,1.57l-.72.45a3,3,0,0,0-3.37-1.2,4.82,4.82,0,0,0-2.54,1.95,5.7,5.7,0,0,1-2.43,2A23.23,23.23,0,0,1,45,33.17Z"/><path class="cls-10" d="M49.63,31.37c-2.17-4.18,4-7.55,4.26-7.69l.4.75S48.6,27.54,50.39,31Z"/><path class="cls-10" d="M46.41,48c-.18-.16-3.92-3.3-2.25-6.67A12.09,12.09,0,0,1,46.79,38c.91-.87,1.56-1.51,1.54-2.4,0-1.42,1.28-2.78,2.61-3.39a3,3,0,0,1,3.33.25l-.58.63A2.23,2.23,0,0,0,51.3,33a3.37,3.37,0,0,0-2.12,2.59c0,1.26-.81,2.08-1.79,3a10.91,10.91,0,0,0-2.46,3.11c-1.39,2.8,2.89,7,2.93,7.06Z"/><path class="cls-10" d="M43.31,37.74l.36-1.21c2.11-1.75,4.94-.59,5.09-.53l-.31.79S44.81,35.59,43.31,37.74Z"/><path class="cls-10" d="M49.09,46.42c-3.61-3.35-3.51-6.82-3.5-6.84l.9-.18h0l-.1.48a13,13,0,0,0,3.11,5.51Z"/><path class="cls-11" d="M57.26,49.05c4.51-3.41,11.19-3.13,11.19-3.13,10.38.86,10.24-4.55,10.24-4.55C87.15,35.19,89,30.09,86,26.08a29.83,29.83,0,0,0-6.08-2.82C58.14,15.65,45.44,35.59,46.06,45.73a5.05,5.05,0,0,0,1.07,2.63C50.33,50.29,54.55,51.1,57.26,49.05Z"/><path class="cls-10" d="M49.11,47.27C48.49,37.13,58.64,18.12,83,24.8c5.1,1.4,15.36,11.38,2.13,21.05,0,0,.14,5.4-10.24,4.55,0,0-6.68-.29-11.19,3.13C58.88,57.14,49.39,51.84,49.11,47.27Z"/><path class="cls-9" d="M85.84,45.27l-.75.58s.89-2.54.06-3.86c-.43-.69-1.4-1-2.87-1l-.62,0c-3.46.13-5.74.22-6.87-1.12-.74-.89-.87-2.25-.41-4.43.84-4,.64-6.69-.59-8.1-.82-.94-2.18-1.34-4-1.21C66,26.49,64.66,29,64.11,36.4c-.11,1.54-1.48,3.18-3.5,4.19-1.57.8-5,2.76-10.4-.67l.29-.82c5,3.2,8.29,1.46,9.73.73,2-1,3-2.47,3-3.49.51-6.85,1.68-10.62,6.45-11,2.12-.16,3.71.35,4.72,1.5,1.44,1.64,1.7,4.53.79,8.83-.4,1.88-.33,3,.22,3.71.86,1,3.1.93,6.19.81l.62,0c1.79-.06,3,.39,3.62,1.36A3.84,3.84,0,0,1,85.84,45.27Z"/><path class="cls-9" d="M72.11,45.87l-.85-.08c.57-5.91,8.28-5.53,8.36-5.52l-.05.85C79.29,41.11,72.6,40.78,72.11,45.87Z"/><path class="cls-9" d="M75.54,33.9l-.84-.17c0-.07,1.52-7.17,8.31-6.85l0,.85C76.88,27.42,75.59,33.63,75.54,33.9Z"/><path class="cls-9" d="M83.54,32.22c-1-3.28-4.9-3.34-4.94-3.35V28c.05,0,4.62.08,5.76,4Z"/><path class="cls-9" d="M58.08,47.65l-.31-.8c8.27-3.22,5.68-10.6,5.56-10.91l.81-.3C64.17,35.73,67.11,44.12,58.08,47.65Z"/><path class="cls-9" d="M62.7,50l-.58-.63c2.4-2.21.56-5.9.54-5.94l.76-.38C63.51,43.24,65.57,47.37,62.7,50Z"/><path class="cls-9" d="M64.54,32.35l-.69-.49s2.88-4,6.64-2.5l-.31.79C67,28.91,64.56,32.32,64.54,32.35Z"/><path class="cls-9" d="M59.44,54.72c-3.88-.35-4-3.35-4.87-6.08a9.68,9.68,0,0,0-1-2.61,4.77,4.77,0,0,0-4.32-2.27l.14-.85a5.17,5.17,0,0,1,4.93,2.72,16.28,16.28,0,0,1,1,2.76c.85,2.74,2.43,5.91,5.75,6.21Z"/><path class="cls-9" d="M60.81,40.27,60,40.19c.29-3.26-5.12-4-5.18-4l.11-.84C55.15,35.4,61.17,36.19,60.81,40.27Z"/><path class="cls-9" d="M59,37.31l-.72-.45c1.55-2.53-.92-5.79-.95-5.82l.68-.52C58.07,30.67,60.81,34.28,59,37.31Z"/><path class="cls-9" d="M84.05,40.87l-.77-.37a6.2,6.2,0,0,1,2.76-3c.31-.2.65-.45,1.06-.73,2.1-1.51.65-4.41.63-4.44l.76-.39c.64,1.23,1.26,4-.9,5.52l-1.06.75A5.27,5.27,0,0,0,84.05,40.87Z"/><path class="cls-9" d="M89.4,38.18a4.44,4.44,0,0,1-2.3-.75l.49-.7a3.29,3.29,0,0,0,2.25.55c.54-.12,1.39-1.17,1.74-1.77l-.08,1.33c-.47.83-.69,1.1-1.47,1.27A2.7,2.7,0,0,1,89.4,38.18Z"/><path class="cls-9" d="M72.23,50.29c-.1,0-.16-.06-.24-.15-.3-.31,0-.61.15-.74h0c.19-.16.69-.61,2-1.84a2.37,2.37,0,0,0,.93-2c-.12-1.52-2-2.76-2-2.77l.47-.71c.09.06,2.21,1.48,2.36,3.41a3.16,3.16,0,0,1-1.2,2.65c-1.06,1-1.67,1.53-2,1.82l-.09.09h0A.71.71,0,0,1,72.23,50.29Z"/><path class="cls-9" d="M79.24,47.48a2.41,2.41,0,0,0-3.51-.95l-.46-.72A3.25,3.25,0,0,1,80,47Z"/><path class="cls-9" d="M74.26,37.37s-2-2.14-4-2.14h0a2.37,2.37,0,0,0-1.79.85l-.63-.58a3.2,3.2,0,0,1,2.42-1.12c2.28,0,4.52,2.31,4.61,2.41Z"/><path class="cls-9" d="M81.64,35.51c-2.34-2.24-.17-6.11-.07-6.27l.74.42s-1.94,3.46-.08,5.23Z"/><path class="cls-9" d="M56.74,52.48l-.6-.6a3.87,3.87,0,0,1,4.45-.53l-.38.76A3,3,0,0,0,56.74,52.48Z"/><path class="cls-9" d="M66.89,47.45c-.76-1.43-3.07-1.2-3.09-1.19l-.1-.85c.12,0,2.91-.3,3.94,1.64Z"/><path class="cls-12" d="M49.11,47.27c.28,4.57,9.77,9.87,14.55,6.26,4.51-3.42,11.19-3.13,11.19-3.13,10.38.85,10.24-4.55,10.24-4.55,8.33-6.09,7.34-12.3,4.2-16.41,2.11,6.6-4.82,12.3-7,14.67-2.37,2.59-5.25,2-8.88,1.61s-3.2,1.56-11.87,4.3c-7.19,2.26-11.25-2.94-12.43-4.79A15.53,15.53,0,0,0,49.11,47.27Z"/><g class="cls-13"><path class="cls-14" d="M75.72,54.39c5,2.55,5,6.69.06,9.24s-13.1,2.55-18.13,0-5-6.69,0-9.24S70.7,51.84,75.72,54.39Z"/><g class="cls-15"><path class="cls-16" d="M78.09,46c6.34,3,6.38,7.91.08,10.93s-16.55,3-22.89,0S48.91,49,55.21,46,71.75,43,78.09,46Z"/></g><g class="cls-17"><path class="cls-18" d="M80.47,37.6c7.65,3.49,7.7,9.14.09,12.63s-20,3.49-27.65,0-7.7-9.14-.09-12.63S72.81,34.11,80.47,37.6Z"/></g><g class="cls-19"><path class="cls-20" d="M82.84,29.21c9,3.95,9,10.37.1,14.32s-23.43,4-32.4,0-9-10.37-.11-14.32S73.86,25.25,82.84,29.21Z"/></g><g class="cls-21"><path class="cls-22" d="M85.21,20.81c10.3,4.43,10.35,11.6.12,16s-26.87,4.42-37.17,0-10.35-11.6-.12-16S74.91,16.39,85.21,20.81Z"/></g><g class="cls-23"><path class="cls-24" d="M87.59,12.42c11.61,4.89,11.67,12.83.13,17.72s-30.31,4.89-41.93,0-11.68-12.83-.14-17.72S76,7.52,87.59,12.42Z"/></g><g class="cls-25"><path class="cls-26" d="M90,4c12.93,5.36,13,14.06.15,19.42s-33.76,5.36-46.69,0S30.41,9.38,43.26,4,77-1.34,90,4Z"/></g></g><path class="cls-6" d="M26.35,109.1a.51.51,0,0,0,0,1,1.84,1.84,0,0,0,1.57,0l.09,0a1,1,0,0,0,.24-.2c.2-.25.13-.56-.23-.77A1.82,1.82,0,0,0,26.35,109.1Z"/><path class="cls-6" d="M28,110.07l-.09,0,5.47,3.18,0-.3h.2l-5.37-3.12A1,1,0,0,1,28,110.07Z"/><path class="cls-6" d="M24.36,105.12a.51.51,0,0,0,0,1,1.82,1.82,0,0,0,1.45.09,1,1,0,0,0,.21-.09l.17-.12c.28-.27.23-.62-.16-.85A1.89,1.89,0,0,0,24.36,105.12Z"/><polygon class="cls-6" points="33.4 113.29 33.4 113.29 33.39 113.29 33.4 113.29"/><g class="cls-1"><polygon class="cls-6" points="34.81 110.98 35.13 111.16 34.94 111.27 47.74 103.88 47.44 103.7 34.81 110.98"/><path class="cls-6" d="M25.81,106.18l8.94,5.2.19-.11.18-.11-.31-.18-8.62-5-.17.12A1,1,0,0,1,25.81,106.18Z"/><polygon class="cls-6" points="33.42 112.99 33.39 113.29 33.4 113.29 38.71 113.46 38.73 113.46 38.76 113.16 38.65 113.16 33.62 112.99 33.42 112.99"/><polygon class="cls-6" points="38.65 113.16 38.76 113.16 38.73 113.46 51.53 106.08 51.22 105.9 38.65 113.16"/><polygon class="cls-6" points="45.07 117.15 45.06 117.15 45.08 117.16 45.07 117.15"/><polygon class="cls-6" points="45.07 117.15 45.08 117.16 45.36 120.24 45.36 120.24 45.88 120.23 45.87 120.11 45.61 117.2 45.6 117.13 45.07 117.15"/><polygon class="cls-6" points="58.18 109.94 57.87 109.76 45.07 117.15 45.6 117.13 45.61 117.2 58.18 109.94"/><path class="cls-6" d="M34.75,119l.17.09a.5.5,0,0,1,.14.1L54.6,107.86l-.32-.18Z"/><polygon class="cls-6" points="49.04 119.25 49.34 119.43 61.97 112.14 61.66 111.96 49.04 119.25"/><path class="cls-6" d="M33.26,119a.51.51,0,0,0,0,1,1.82,1.82,0,0,0,1.67,0c.41-.24.45-.6.14-.86a.5.5,0,0,0-.14-.1l-.17-.09A1.84,1.84,0,0,0,33.26,119Z"/><polygon class="cls-6" points="45.36 120.24 45.35 120.24 45.36 120.24 45.36 120.24"/><path class="cls-6" d="M45.87,120.11v.12h-.52l5.46,3.18.17-.12.2-.1Z"/><path class="cls-6" d="M51,123.3l-.17.12c-.29.26-.24.61.16.84a1.8,1.8,0,0,0,1.66,0c.47-.26.47-.69,0-1a1.89,1.89,0,0,0-1.46-.1Z"/><path class="cls-6" d="M48.67,119.46l8.93,5.2a.52.52,0,0,1,.17-.12,1.24,1.24,0,0,1,.2-.1l-8.62-5-.31-.18Z"/></g><path class="cls-6" d="M57.77,124.54a.52.52,0,0,0-.17.12c-.29.26-.23.61.16.84a1.82,1.82,0,0,0,1.67,0c.46-.27.46-.7,0-1a1.84,1.84,0,0,0-1.46-.1A1.24,1.24,0,0,0,57.77,124.54Z"/><g class="cls-13"><path class="cls-27" d="M60.92,124.66a2.33,2.33,0,1,1-2.32-2.33A2.32,2.32,0,0,1,60.92,124.66Z"/><path class="cls-28" d="M60.64,124.68a2,2,0,1,1-2-2.05A2.05,2.05,0,0,1,60.64,124.68Z"/><path class="cls-29" d="M60.36,124.7a1.78,1.78,0,1,1-1.77-1.77A1.77,1.77,0,0,1,60.36,124.7Z"/><path class="cls-30" d="M60.07,124.72a1.5,1.5,0,1,1-1.49-1.49A1.5,1.5,0,0,1,60.07,124.72Z"/><path class="cls-31" d="M59.79,124.75a1.22,1.22,0,1,1-1.22-1.22A1.22,1.22,0,0,1,59.79,124.75Z"/><path class="cls-32" d="M59.51,124.77a.95.95,0,1,1-.94-.94A.94.94,0,0,1,59.51,124.77Z"/><path class="cls-6" d="M59.22,124.79a.66.66,0,0,1-.66.67.67.67,0,1,1,0-1.33A.66.66,0,0,1,59.22,124.79Z"/></g><g class="cls-13"><path class="cls-27" d="M54.14,123.42a2.33,2.33,0,1,1-2.32-2.32A2.32,2.32,0,0,1,54.14,123.42Z"/><path class="cls-28" d="M53.86,123.44a2,2,0,1,1-2-2A2.05,2.05,0,0,1,53.86,123.44Z"/><path class="cls-29" d="M53.57,123.47a1.77,1.77,0,1,1-1.77-1.78A1.77,1.77,0,0,1,53.57,123.47Z"/><path class="cls-30" d="M53.29,123.49A1.5,1.5,0,1,1,51.8,122,1.49,1.49,0,0,1,53.29,123.49Z"/><path class="cls-31" d="M53,123.51a1.22,1.22,0,1,1-1.22-1.22A1.22,1.22,0,0,1,53,123.51Z"/><path class="cls-32" d="M52.72,123.53a.94.94,0,1,1-.94-.94A.95.95,0,0,1,52.72,123.53Z"/><path class="cls-6" d="M52.44,123.56a.66.66,0,0,1-.66.66.67.67,0,0,1-.68-.66.68.68,0,0,1,.68-.67A.67.67,0,0,1,52.44,123.56Z"/></g><g class="cls-13"><path class="cls-27" d="M36.41,119.43a2.33,2.33,0,1,1-2.32-2.33A2.32,2.32,0,0,1,36.41,119.43Z"/><path class="cls-28" d="M36.13,119.45a2.05,2.05,0,1,1-2.05-2A2.05,2.05,0,0,1,36.13,119.45Z"/><path class="cls-29" d="M35.85,119.47a1.78,1.78,0,1,1-1.78-1.77A1.78,1.78,0,0,1,35.85,119.47Z"/><path class="cls-30" d="M35.56,119.5a1.5,1.5,0,1,1-1.49-1.5A1.49,1.49,0,0,1,35.56,119.5Z"/><path class="cls-31" d="M35.28,119.52a1.22,1.22,0,1,1-1.22-1.22A1.22,1.22,0,0,1,35.28,119.52Z"/><path class="cls-32" d="M35,119.54a.95.95,0,1,1-.94-.94A.94.94,0,0,1,35,119.54Z"/><path class="cls-6" d="M34.71,119.56a.66.66,0,0,1-.66.67.67.67,0,1,1,0-1.33A.66.66,0,0,1,34.71,119.56Z"/></g><g class="cls-13"><path class="cls-27" d="M29.51,109.58a2.33,2.33,0,1,1-2.33-2.32A2.33,2.33,0,0,1,29.51,109.58Z"/><path class="cls-28" d="M29.22,109.61a2,2,0,1,1-2-2A2,2,0,0,1,29.22,109.61Z"/><path class="cls-29" d="M28.94,109.63a1.78,1.78,0,1,1-1.77-1.77A1.77,1.77,0,0,1,28.94,109.63Z"/><path class="cls-30" d="M28.66,109.65a1.5,1.5,0,1,1-1.5-1.49A1.5,1.5,0,0,1,28.66,109.65Z"/><path class="cls-31" d="M28.37,109.67a1.22,1.22,0,1,1-2.44,0,1.22,1.22,0,1,1,2.44,0Z"/><path class="cls-32" d="M28.09,109.7a.95.95,0,0,1-1.89,0,.95.95,0,1,1,1.89,0Z"/><path class="cls-6" d="M27.81,109.72a.67.67,0,1,1-.67-.67A.67.67,0,0,1,27.81,109.72Z"/></g><g class="cls-13"><path class="cls-27" d="M27.52,105.61a2.33,2.33,0,1,1-2.33-2.33A2.32,2.32,0,0,1,27.52,105.61Z"/><path class="cls-28" d="M27.23,105.63a2,2,0,1,1-2.05-2A2,2,0,0,1,27.23,105.63Z"/><path class="cls-29" d="M27,105.65a1.77,1.77,0,1,1-1.77-1.77A1.77,1.77,0,0,1,27,105.65Z"/><path class="cls-30" d="M26.67,105.67a1.5,1.5,0,1,1-1.5-1.49A1.5,1.5,0,0,1,26.67,105.67Z"/><path class="cls-31" d="M26.38,105.7a1.22,1.22,0,1,1-1.21-1.22A1.22,1.22,0,0,1,26.38,105.7Z"/><path class="cls-32" d="M26.1,105.72a.95.95,0,1,1-.94-.94A.94.94,0,0,1,26.1,105.72Z"/><path class="cls-6" d="M25.82,105.74a.67.67,0,1,1-.67-.67A.67.67,0,0,1,25.82,105.74Z"/></g><path class="cls-6" d="M108.35,108.17a.51.51,0,0,1,0,1,1.87,1.87,0,0,1-1.57,0l-.09,0a1.26,1.26,0,0,1-.24-.19c-.2-.26-.13-.57.23-.78A1.89,1.89,0,0,1,108.35,108.17Z"/><path class="cls-6" d="M106.69,109.14l.09,0-5.47,3.17,0-.3h-.2l5.37-3.12A1.26,1.26,0,0,0,106.69,109.14Z"/><path class="cls-6" d="M110.34,104.2a.51.51,0,0,1,0,1,1.89,1.89,0,0,1-1.46.1,1.24,1.24,0,0,1-.2-.1l-.17-.12c-.29-.26-.23-.61.16-.84A1.82,1.82,0,0,1,110.34,104.2Z"/><polygon class="cls-6" points="101.3 112.37 101.29 112.36 101.31 112.36 101.3 112.37"/><polygon class="cls-6" points="99.88 110.06 99.57 110.24 99.76 110.34 86.95 102.95 87.26 102.77 99.88 110.06"/><path class="cls-6" d="M108.88,105.26l-8.94,5.19-.18-.11-.19-.1.31-.18,8.63-5,.17.12A1.24,1.24,0,0,0,108.88,105.26Z"/><polygon class="cls-6" points="101.28 112.06 101.31 112.36 101.29 112.36 95.98 112.54 95.97 112.54 95.93 112.23 96.05 112.23 101.08 112.07 101.28 112.06"/><polygon class="cls-6" points="96.05 112.23 95.93 112.23 95.97 112.54 83.17 105.15 83.48 104.97 96.05 112.23"/><polygon class="cls-6" points="89.62 116.22 89.63 116.23 89.62 116.23 89.62 116.22"/><polygon class="cls-6" points="89.62 116.22 89.62 116.23 89.34 119.31 89.34 119.32 88.81 119.3 88.82 119.19 89.09 116.28 89.1 116.21 89.62 116.22"/><polygon class="cls-6" points="76.52 109.02 76.83 108.84 89.62 116.22 89.1 116.21 89.09 116.28 76.52 109.02"/><path class="cls-6" d="M99.94,118l-.17.08a.71.71,0,0,0-.14.1L80.1,106.93l.31-.18Z"/><polygon class="cls-6" points="85.66 118.32 85.35 118.5 72.73 111.22 73.04 111.04 85.66 118.32"/><path class="cls-6" d="M101.44,118.11a.51.51,0,0,1,0,1,1.83,1.83,0,0,1-1.66,0c-.41-.23-.46-.6-.15-.86a.71.71,0,0,1,.14-.1l.17-.08A1.9,1.9,0,0,1,101.44,118.11Z"/><polygon class="cls-6" points="89.34 119.31 89.35 119.31 89.34 119.32 89.34 119.31"/><path class="cls-6" d="M88.82,119.19v.11l.53,0-5.46,3.17-.17-.12-.2-.09Z"/><path class="cls-6" d="M83.71,122.37l.17.12c.29.27.23.62-.16.85a1.89,1.89,0,0,1-1.67,0,.51.51,0,0,1,0-1,1.84,1.84,0,0,1,1.46-.09Z"/><path class="cls-6" d="M86,118.54l-8.94,5.19a1.11,1.11,0,0,0-.16-.12.67.67,0,0,0-.21-.09l8.63-5,.31-.18Z"/><path class="cls-6" d="M76.93,123.61a1.11,1.11,0,0,1,.16.12c.29.26.24.62-.16.85a1.86,1.86,0,0,1-1.66,0,.52.52,0,0,1,0-1,1.85,1.85,0,0,1,1.46-.09A.67.67,0,0,1,76.93,123.61Z"/><g class="cls-13"><path class="cls-27" d="M73.78,123.73a2.32,2.32,0,1,0,2.32-2.32A2.32,2.32,0,0,0,73.78,123.73Z"/><path class="cls-28" d="M74.06,123.75a2,2,0,1,0,2-2A2,2,0,0,0,74.06,123.75Z"/><path class="cls-29" d="M74.34,123.78A1.78,1.78,0,1,0,76.11,122,1.77,1.77,0,0,0,74.34,123.78Z"/><path class="cls-30" d="M74.62,123.8a1.5,1.5,0,1,0,1.5-1.5A1.5,1.5,0,0,0,74.62,123.8Z"/><path class="cls-31" d="M74.91,123.82a1.22,1.22,0,1,0,1.22-1.22A1.22,1.22,0,0,0,74.91,123.82Z"/><path class="cls-32" d="M75.19,123.84a.95.95,0,1,0,.94-.94A.94.94,0,0,0,75.19,123.84Z"/><path class="cls-6" d="M75.47,123.87a.67.67,0,0,0,1.34,0,.67.67,0,1,0-1.34,0Z"/></g><g class="cls-13"><path class="cls-27" d="M80.56,122.49a2.33,2.33,0,1,0,2.32-2.32A2.32,2.32,0,0,0,80.56,122.49Z"/><path class="cls-28" d="M80.84,122.52a2,2,0,1,0,2-2A2,2,0,0,0,80.84,122.52Z"/><path class="cls-29" d="M81.12,122.54a1.78,1.78,0,1,0,1.78-1.77A1.78,1.78,0,0,0,81.12,122.54Z"/><path class="cls-30" d="M81.41,122.56a1.5,1.5,0,1,0,1.49-1.49A1.5,1.5,0,0,0,81.41,122.56Z"/><path class="cls-31" d="M81.69,122.59a1.22,1.22,0,1,0,1.22-1.22A1.22,1.22,0,0,0,81.69,122.59Z"/><path class="cls-32" d="M82,122.61a.95.95,0,1,0,.94-1A.95.95,0,0,0,82,122.61Z"/><path class="cls-6" d="M82.26,122.63a.66.66,0,0,0,.66.67.67.67,0,0,0,0-1.34A.66.66,0,0,0,82.26,122.63Z"/></g><g class="cls-13"><path class="cls-27" d="M98.29,118.5a2.32,2.32,0,1,0,2.32-2.32A2.32,2.32,0,0,0,98.29,118.5Z"/><path class="cls-28" d="M98.57,118.52a2.05,2.05,0,1,0,2.05-2A2.05,2.05,0,0,0,98.57,118.52Z"/><path class="cls-29" d="M98.85,118.55a1.78,1.78,0,1,0,1.77-1.77A1.77,1.77,0,0,0,98.85,118.55Z"/><path class="cls-30" d="M99.13,118.57a1.5,1.5,0,1,0,1.5-1.5A1.5,1.5,0,0,0,99.13,118.57Z"/><path class="cls-31" d="M99.42,118.59a1.22,1.22,0,0,0,2.44,0,1.22,1.22,0,0,0-2.44,0Z"/><path class="cls-32" d="M99.7,118.62a.95.95,0,0,0,1.89,0,.95.95,0,1,0-1.89,0Z"/><path class="cls-6" d="M100,118.64a.67.67,0,1,0,.67-.67A.67.67,0,0,0,100,118.64Z"/></g><g class="cls-13"><path class="cls-27" d="M105.19,108.66a2.33,2.33,0,1,0,2.33-2.33A2.32,2.32,0,0,0,105.19,108.66Z"/><path class="cls-28" d="M105.48,108.68a2,2,0,1,0,2-2.05A2,2,0,0,0,105.48,108.68Z"/><path class="cls-29" d="M105.76,108.7a1.77,1.77,0,1,0,1.77-1.77A1.77,1.77,0,0,0,105.76,108.7Z"/><path class="cls-30" d="M106,108.73a1.5,1.5,0,1,0,1.5-1.5A1.5,1.5,0,0,0,106,108.73Z"/><path class="cls-31" d="M106.32,108.75a1.22,1.22,0,1,0,1.22-1.22A1.22,1.22,0,0,0,106.32,108.75Z"/><path class="cls-32" d="M106.61,108.77a.95.95,0,1,0,.94-.94A.95.95,0,0,0,106.61,108.77Z"/><path class="cls-6" d="M106.89,108.8a.67.67,0,0,0,1.34,0,.67.67,0,0,0-1.34,0Z"/></g><g class="cls-13"><path class="cls-27" d="M107.18,104.68a2.33,2.33,0,1,0,2.33-2.33A2.32,2.32,0,0,0,107.18,104.68Z"/><path class="cls-28" d="M107.47,104.7a2,2,0,1,0,2-2A2,2,0,0,0,107.47,104.7Z"/><path class="cls-29" d="M107.75,104.73a1.77,1.77,0,1,0,1.77-1.78A1.77,1.77,0,0,0,107.75,104.73Z"/><path class="cls-30" d="M108,104.75a1.5,1.5,0,1,0,1.5-1.5A1.5,1.5,0,0,0,108,104.75Z"/><path class="cls-31" d="M108.31,104.77a1.22,1.22,0,1,0,1.22-1.22A1.22,1.22,0,0,0,108.31,104.77Z"/><path class="cls-32" d="M108.6,104.79a.95.95,0,1,0,.94-.94A.95.95,0,0,0,108.6,104.79Z"/><path class="cls-6" d="M108.88,104.82a.67.67,0,0,0,1.34,0,.67.67,0,1,0-1.34,0Z"/></g><g class="cls-13"><path class="cls-14" d="M78.56,86.24c6,3.43,6,9,.07,12.44s-15.52,3.43-21.47,0-6-9-.07-12.44S72.62,82.81,78.56,86.24Z"/><g class="cls-15"><path class="cls-16" d="M80.31,82.26c6.82,3.94,6.85,10.32.08,14.26s-17.8,3.94-24.62,0-6.85-10.32-.08-14.26S73.49,78.32,80.31,82.26Z"/></g><g class="cls-17"><path class="cls-18" d="M82.05,78.28c7.69,4.44,7.73,11.64.09,16.08s-20.07,4.44-27.76,0-7.73-11.64-.09-16.08S74.36,73.84,82.05,78.28Z"/></g><g class="cls-19"><path class="cls-20" d="M83.79,74.3c8.56,4.94,8.61,13,.1,17.9s-22.34,5-30.9,0-8.61-13-.11-17.9S75.23,69.36,83.79,74.3Z"/></g><g class="cls-21"><path class="cls-22" d="M85.53,70.32C95,75.77,95,84.6,85.64,90s-24.61,5.45-34,0-9.48-14.27-.11-19.72S76.1,64.87,85.53,70.32Z"/></g><g class="cls-23"><path class="cls-24" d="M87.27,66.34c10.3,6,10.36,15.6.12,21.55s-26.89,5.94-37.19,0-10.36-15.6-.12-21.55S77,60.39,87.27,66.34Z"/></g><g class="cls-25"><path class="cls-26" d="M89,62.36c11.18,6.45,11.24,16.91.13,23.37s-29.16,6.45-40.33,0-11.24-16.92-.14-23.37S77.84,55.91,89,62.36Z"/></g></g><path class="cls-33" d="M35,92.61a.92.92,0,0,1,0,1.49c-.51.41-.89.65-1.4.23s-1.16-1.73-.65-2.14S34.45,92.2,35,92.61Z"/><g class="cls-15"><path class="cls-34" d="M35,90.48A.92.92,0,0,1,35,92c-.51.41-1,.61-1.48.19s-1-1.62-.54-2S34.45,90.07,35,90.48Z"/></g><g class="cls-17"><path class="cls-35" d="M35,88.35a.91.91,0,0,1,0,1.48c-.51.41-1,.58-1.55.16s-.94-1.51-.43-1.92S34.45,87.94,35,88.35Z"/></g><g class="cls-19"><path class="cls-36" d="M35,86.22a.91.91,0,0,1,0,1.48,1.23,1.23,0,0,1-1.62.12c-.51-.41-.84-1.4-.33-1.81A1.71,1.71,0,0,1,35,86.22Z"/></g><g class="cls-21"><path class="cls-37" d="M35,84.08a.92.92,0,0,1,0,1.49,1.33,1.33,0,0,1-1.7.08c-.5-.41-.72-1.29-.22-1.7A1.65,1.65,0,0,1,35,84.08Z"/></g><g class="cls-23"><path class="cls-38" d="M35,82a.92.92,0,0,1,0,1.49,1.43,1.43,0,0,1-1.77,0,1,1,0,0,1-.11-1.6A1.58,1.58,0,0,1,35,82Z"/></g><g class="cls-25"><path class="cls-39" d="M35,79.82a.92.92,0,0,1,0,1.49,1.53,1.53,0,0,1-1.84,0,.92.92,0,0,1,0-1.49A1.53,1.53,0,0,1,35,79.82Z"/></g><path class="cls-6" d="M34.05,71.46c-.77-.45-1.39-.09-1.4.79A3.08,3.08,0,0,0,34,74.66c.77.44,1.4.09,1.4-.8A3.06,3.06,0,0,0,34.05,71.46Z"/><path class="cls-6" d="M34.05,91.8c-.77-.44-1.39-.08-1.4.8A3.09,3.09,0,0,0,34,95c.77.44,1.4.08,1.4-.8A3.08,3.08,0,0,0,34.05,91.8Z"/><path class="cls-4" d="M33.94,92.52V73.94h0a1.67,1.67,0,0,1-.76-1.33c0-.49.34-.68.77-.44a1.69,1.69,0,0,1,.77,1.33c0,.45-.29.65-.66.5V92.59a1.73,1.73,0,0,1,.66,1.26c0,.49-.35.69-.78.44A1.68,1.68,0,0,1,33.17,93C33.17,92.47,33.51,92.27,33.94,92.52Z"/><path class="cls-33" d="M21.63,49.66a.9.9,0,0,1,0,1.48c-.5.41-.89.65-1.4.24s-1.15-1.73-.65-2.14S21.13,49.25,21.63,49.66Z"/><g class="cls-15"><path class="cls-34" d="M21.63,47.53a.9.9,0,0,1,0,1.48c-.5.41-1,.61-1.47.2s-1.05-1.62-.54-2S21.13,47.12,21.63,47.53Z"/></g><g class="cls-17"><path class="cls-35" d="M21.63,45.39a.91.91,0,0,1,0,1.49,1.14,1.14,0,0,1-1.55.16c-.51-.41-.94-1.51-.43-1.92A1.77,1.77,0,0,1,21.63,45.39Z"/></g><g class="cls-19"><path class="cls-36" d="M21.63,43.26a.91.91,0,0,1,0,1.49,1.23,1.23,0,0,1-1.62.12c-.51-.41-.83-1.41-.33-1.82A1.71,1.71,0,0,1,21.63,43.26Z"/></g><g class="cls-21"><path class="cls-37" d="M21.63,41.13a.91.91,0,0,1,0,1.49A1.32,1.32,0,0,1,20,42.7c-.51-.41-.73-1.3-.22-1.71A1.63,1.63,0,0,1,21.63,41.13Z"/></g><g class="cls-23"><path class="cls-38" d="M21.63,39a.91.91,0,0,1,0,1.49,1.41,1.41,0,0,1-1.77,0,1,1,0,0,1-.11-1.59A1.58,1.58,0,0,1,21.63,39Z"/></g><g class="cls-25"><path class="cls-39" d="M21.63,36.87a.9.9,0,0,1,0,1.48,1.52,1.52,0,0,1-1.84,0,.91.91,0,0,1,0-1.48A1.53,1.53,0,0,1,21.63,36.87Z"/></g><path class="cls-6" d="M20.72,28.5c-.77-.44-1.39-.09-1.4.8a3.06,3.06,0,0,0,1.39,2.4c.77.45,1.4.09,1.4-.79A3.08,3.08,0,0,0,20.72,28.5Z"/><path class="cls-6" d="M20.72,48.85c-.77-.44-1.39-.09-1.4.8a3.06,3.06,0,0,0,1.39,2.4c.77.45,1.4.09,1.4-.8A3.06,3.06,0,0,0,20.72,48.85Z"/><path class="cls-4" d="M20.61,49.56V31h0a1.69,1.69,0,0,1-.77-1.33c0-.49.35-.69.77-.44a1.68,1.68,0,0,1,.77,1.33c0,.44-.29.64-.66.49v18.6a1.72,1.72,0,0,1,.66,1.26c0,.48-.35.68-.77.44A1.71,1.71,0,0,1,19.84,50C19.84,49.52,20.18,49.32,20.61,49.56Z"/><g class="cls-19"><path class="cls-4" d="M33.74,58.16a7.52,7.52,0,0,1,3.4,5.89c0,2.16-1.54,3-3.42,1.94a7.46,7.46,0,0,1-3.4-5.88C30.33,58,31.86,57.08,33.74,58.16Z"/></g><g class="cls-19"><path class="cls-4" d="M33.74,59.36a5.74,5.74,0,0,1,2.6,4.52c0,1.65-1.17,2.32-2.62,1.49a5.74,5.74,0,0,1-2.6-4.51C31.12,59.2,32.29,58.53,33.74,59.36Z"/></g><g class="cls-19"><path class="cls-4" d="M33.73,60.32a3.87,3.87,0,0,1,1.77,3.07c0,1.13-.79,1.58-1.78,1A3.89,3.89,0,0,1,32,61.34C32,60.21,32.75,59.76,33.73,60.32Z"/></g><g class="cls-19"><path class="cls-4" d="M27.6,49.52a6.25,6.25,0,0,1,2.82,4.89c0,1.79-1.28,2.52-2.84,1.61a6.22,6.22,0,0,1-2.82-4.88C24.77,49.34,26,48.62,27.6,49.52Z"/></g><g class="cls-19"><path class="cls-4" d="M27.59,50.52a4.75,4.75,0,0,1,2.17,3.75c0,1.37-1,1.93-2.18,1.23a4.75,4.75,0,0,1-2.16-3.74C25.43,50.38,26.4,49.83,27.59,50.52Z"/></g><g class="cls-19"><path class="cls-4" d="M27.59,51.32a3.2,3.2,0,0,1,1.47,2.54c0,.94-.66,1.32-1.48.84a3.2,3.2,0,0,1-1.46-2.54C26.12,51.22,26.78,50.85,27.59,51.32Z"/></g><g class="cls-13"><path class="cls-27" d="M39,62.08a5.79,5.79,0,1,1-5.79-5.79A5.78,5.78,0,0,1,39,62.08Z"/><path class="cls-28" d="M38.32,62.14A5.1,5.1,0,1,1,33.23,57,5.09,5.09,0,0,1,38.32,62.14Z"/><path class="cls-29" d="M37.62,62.19a4.41,4.41,0,1,1-4.41-4.41A4.4,4.4,0,0,1,37.62,62.19Z"/><path class="cls-30" d="M36.91,62.25a3.72,3.72,0,1,1-3.71-3.72A3.72,3.72,0,0,1,36.91,62.25Z"/><path class="cls-31" d="M36.21,62.31a3,3,0,1,1-3-3A3,3,0,0,1,36.21,62.31Z"/><path class="cls-32" d="M35.51,62.36A2.35,2.35,0,1,1,33.16,60,2.35,2.35,0,0,1,35.51,62.36Z"/><path class="cls-6" d="M34.8,62.42a1.66,1.66,0,1,1-3.32,0,1.66,1.66,0,1,1,3.32,0Z"/></g><g class="cls-13"><path class="cls-27" d="M33.24,53a5.78,5.78,0,1,1-5.78-5.79A5.78,5.78,0,0,1,33.24,53Z"/><path class="cls-28" d="M32.54,53a5.1,5.1,0,1,1-5.09-5.09A5.09,5.09,0,0,1,32.54,53Z"/><path class="cls-29" d="M31.84,53.06a4.41,4.41,0,1,1-4.41-4.41A4.42,4.42,0,0,1,31.84,53.06Z"/><path class="cls-30" d="M31.13,53.12a3.73,3.73,0,1,1-3.72-3.73A3.72,3.72,0,0,1,31.13,53.12Z"/><path class="cls-31" d="M30.43,53.17a3,3,0,1,1-3-3A3,3,0,0,1,30.43,53.17Z"/><path class="cls-32" d="M29.72,53.23a2.35,2.35,0,1,1-2.34-2.35A2.35,2.35,0,0,1,29.72,53.23Z"/><path class="cls-6" d="M29,53.29a1.67,1.67,0,1,1-1.66-1.66A1.66,1.66,0,0,1,29,53.29Z"/></g><path class="cls-40" d="M25,56.34s.55-2.54,1.38-2.91.9-.77,1.2-.62c1,.49.15,2.75-1.82,4.09C25.73,56.9,24.82,57,25,56.34Z"/><path class="cls-41" d="M22.61,61.77c.28-.29-.25-.53-.25-.53.13-.67.29-1.62,0-1.7l-6.63.13a3.92,3.92,0,0,0-3,.35h0c-.83.66-.6,2.11,1,2.38C13.67,62.4,21.84,62.6,22.61,61.77Z"/><path class="cls-41" d="M21.92,61.77c-.92-.3-1.05-.44-.57-1.49l3.78-5.1a3.23,3.23,0,0,0,.66.94c.7.49.95.29.95.29S24,62.46,21.92,61.77Z"/><path class="cls-40" d="M30.43,63.72s1.33-2.24,2.23-2.32,1.1-.45,1.34-.21c.79.8-.74,2.66-3,3.3C31,64.49,30.09,64.25,30.43,63.72Z"/><g class="cls-2"><path d="M23,95.8c3.45,2,3.47,5.22,0,7.21a13.71,13.71,0,0,1-12.44,0c-3.45-2-3.47-5.22,0-7.21A13.71,13.71,0,0,1,23,95.8Z"/></g><path class="cls-42" d="M14.24,73.65s-2.1,1.69-.93,5.65,1.47,3.79,1.11,5c-.27.93-1.23,2.85-1.13,4.51.07,1.31.29,2.07.58,4.18.37,2.69.29,2.12-.07,3.25-.4,1.28,1.89,2.39,2.62,2.28s-.89-.68-.77-2.91a54.54,54.54,0,0,1,2-10.1,45.4,45.4,0,0,0,1.5-11A5.48,5.48,0,0,1,14.24,73.65Z"/><path class="cls-43" d="M16.42,99.38h0Z"/><polygon class="cls-44" points="14.32 97.29 13.99 99.58 13.85 99.91 14.05 97.3 14.32 97.29"/><path class="cls-43" d="M14,95.79c.3,0,.57.42,1.07,1.43.21.41.84,1.47,1.43,1.09.07,0-.13-.31-.13-.31s.93-.19,1,.09-.6,1.52-1.54,1.39-1.13-1.16-1.33-1.55c-.4-.79-.3.84-.88-.74A1.32,1.32,0,0,1,14,95.79Z"/><path class="cls-44" d="M15.82,99.48a1,1,0,0,0,.59-.1c-.21.12-.78-.28-1.16-1a2.77,2.77,0,0,0-1.2-1.08l-.17.17c.13.38.14-.3.61.46C14.73,98.3,14.88,99.36,15.82,99.48Z"/><polygon class="cls-43" points="13.63 96.81 13.87 100.15 14.4 99.89 14.48 96.47 13.63 96.81"/><path class="cls-44" d="M13.87,100.15l-.36-.26a14.35,14.35,0,0,1,.1-3.57c.27-.57.36-.53.36-.53Z"/><path class="cls-45" d="M16.34,75s-1.81,2.33-.44,6.22,1.66,3.71,1.37,5c-.22.94-1.08,2.9-.9,4.56.14,1.3.39,2.05.79,4.15.5,2.66.39,2.1.1,3.25s2,2.29,2.72,2.14-.91-.64-.91-2.87a53.87,53.87,0,0,1,1.44-10.19c.54-1.44.69-10.25.4-12.48A3.67,3.67,0,0,1,16.34,75Z"/><path class="cls-43" d="M20,101.11h0Z"/><polygon class="cls-44" points="17.82 99.13 17.62 101.43 17.49 101.76 17.55 99.14 17.82 99.13"/><path class="cls-43" d="M17.4,97.65c.3,0,.59.39,1.15,1.36.22.41.9,1.43,1.48,1,.06-.05-.15-.3-.15-.3s.92-.25,1,0-.52,1.56-1.46,1.48-1.19-1.1-1.41-1.48c-.44-.77-.26.85-.92-.7A1.31,1.31,0,0,1,17.4,97.65Z"/><path class="cls-44" d="M19.44,101.24a1,1,0,0,0,.58-.13c-.2.13-.79-.24-1.21-.94a2.81,2.81,0,0,0-1.26-1l-.15.19c.15.37.11-.31.63.43C18.28,100.12,18.49,101.16,19.44,101.24Z"/><polygon class="cls-43" points="17.11 98.68 17.52 102 18.04 101.72 17.95 98.3 17.11 98.68"/><path class="cls-44" d="M17.52,102l-.37-.25a14.68,14.68,0,0,1-.08-3.57c.24-.57.33-.54.33-.54Z"/><path class="cls-46" d="M13.43,72.58s4.79,3.65,7.63.65a52.48,52.48,0,0,1,.65,10.3c-.18,4.64-.65,5.47-.65,5.47s-5.9,1.08-8.17-2a6.94,6.94,0,0,0,.46-4.48C12.67,80.47,10.89,76.65,13.43,72.58Z"/><path class="cls-47" d="M21.06,89s.47-.83.65-5.47a52.48,52.48,0,0,0-.65-10.3c-2.84,3-7.63-.65-7.63-.65-.24.18-.44.92-.61,1.14.42.83,2.15,1,3.22,1.38,1.79.6,3.64,3.24,3.44,6.09-.14,2-.64,6-.91,8A14.07,14.07,0,0,0,21.06,89Z"/><path class="cls-48" d="M19,61.47s2.91,1.33,2.69,2.89c-.29,2-1.84,5.85-.66,8.87a3.55,3.55,0,0,1-2.9,1.51c-2.17-.11-4.73-2.16-4.73-2.16s1-2.16-.74-6.14c-.75-1.68-1.65-6.59.74-6.87C13.43,59.57,14.09,58.84,19,61.47Z"/><path class="cls-45" d="M19.09,59.6l-.22,2.25a2.68,2.68,0,0,1-3.3-.61L15.8,59A7.9,7.9,0,0,0,19.09,59.6Z"/><path class="cls-49" d="M17.9,53a2.78,2.78,0,0,1,2.36,1.25c.65,1.28,1.2,3.17.39,4.23s-.4,1.83,0,2.2-4.46,2-6.56-1.09C14.09,59.6,12.72,51.86,17.9,53Z"/><path class="cls-41" d="M26.64,67.8c.36-.17.79-1,.79-1a.78.78,0,0,0-.22-1.13l-4.84-2.49a3.48,3.48,0,0,0-2.75-.69h0A1.34,1.34,0,0,0,19.48,65S25.64,68.3,26.64,67.8Z"/><path class="cls-41" d="M26.21,67.68a1.41,1.41,0,0,1,0-2.11l4.5-2.45a2.66,2.66,0,0,0,.33.83c.46.54.7.48.7.48S27.71,68.76,26.21,67.68Z"/><path class="cls-27" d="M7.73,94.48c-4.64,2.69-4.62,7-.05,9.65s12,2.7,16.67,0,4.64-7,.06-9.65S12.34,91.82,7.73,94.48Z"/><g class="cls-15"><path class="cls-50" d="M7.23,87c-4.92,2.85-4.9,7.41-.05,10.23s12.75,2.86,17.67,0,4.91-7.41.06-10.23S12.12,84.2,7.23,87Z"/></g><g class="cls-17"><path class="cls-51" d="M6.73,79.58c-5.2,3-5.18,7.83-.06,10.81s13.48,3,18.68,0,5.19-7.83.06-10.81S11.89,76.59,6.73,79.58Z"/></g><g class="cls-19"><path class="cls-52" d="M6.23,72.12C.76,75.3.78,80.38,6.17,83.52s14.2,3.18,19.68,0,5.47-8.25.07-11.4S11.67,69,6.23,72.12Z"/></g><g class="cls-21"><path class="cls-53" d="M5.74,64.67C0,68,0,73.35,5.67,76.65s14.92,3.33,20.68,0,5.75-8.68.07-12S11.45,61.37,5.74,64.67Z"/></g><g class="cls-23"><path class="cls-54" d="M5.24,57.22c-6,3.49-6,9.1-.07,12.56s15.64,3.49,21.68,0,6-9.1.07-12.56S11.23,53.75,5.24,57.22Z"/></g><g class="cls-25"><path class="cls-55" d="M4.74,49.77c-6.32,3.65-6.29,9.51-.08,13.14s16.37,3.65,22.69,0,6.3-9.52.08-13.14S11,46.14,4.74,49.77Z"/></g></g></g></g></svg>