<svg xmlns="http://www.w3.org/2000/svg" xmlns:xlink="http://www.w3.org/1999/xlink" viewBox="0 0 145.58 92.44"><defs><style>.cls-1{fill:none;}.cls-2{isolation:isolate;}.cls-3{opacity:0.2;}.cls-11,.cls-4,.cls-83,.cls-88{opacity:0.5;}.cls-5{fill:#c5f9ff;}.cls-6,.cls-87,.cls-89{fill:#2afbfe;}.cls-7,.cls-80{mix-blend-mode:overlay;}.cls-8,.cls-81,.cls-82,.cls-83,.cls-84,.cls-85,.cls-86{fill:#fff;}.cls-55,.cls-8{opacity:0;}.cls-9{fill:#dcfeff;}.cls-54,.cls-81,.cls-9{opacity:0.17;}.cls-10{fill:#b8feff;}.cls-10,.cls-53,.cls-82{opacity:0.33;}.cls-11{fill:#95fdff;}.cls-12{fill:#71fcfe;}.cls-12,.cls-52,.cls-84{opacity:0.67;}.cls-13{fill:#4efcfe;}.cls-13,.cls-51,.cls-85{opacity:0.83;}.cls-14{fill:#778489;}.cls-15{fill:#abbec5;}.cls-16{clip-path:url(#clip-path);}.cls-17{fill:#738085;}.cls-18{fill:#78858a;}.cls-19{fill:#7c8a8f;}.cls-20{fill:#818f94;}.cls-21{fill:#859499;}.cls-22{fill:#8a999e;}.cls-23{fill:#8e9da3;}.cls-24{fill:#93a2a8;}.cls-25{fill:#97a7ad;}.cls-26{fill:#9bacb3;}.cls-27{fill:#a0b1b8;}.cls-28{clip-path:url(#clip-path-2);}.cls-29{fill:#376a80;}.cls-30{fill:#396e85;}.cls-31{fill:#3b7189;}.cls-32{fill:#3d758d;}.cls-33{fill:#3f7992;}.cls-34{fill:#417c96;}.cls-35{fill:#43809b;}.cls-36{fill:#44849f;}.cls-37{fill:#35667c;}.cls-38{fill:#336377;}.cls-39{fill:#315f73;}.cls-40{fill:#336277;}.cls-41{fill:#8979cc;}.cls-42{fill:#498dab;}.cls-43{fill:url(#linear-gradient);}.cls-44{fill:#1b67cb;}.cls-45{fill:#4acbf1;}.cls-46{fill:#61f2f9;}.cls-47{fill:#41c0fd;}.cls-48{fill:#8fedff;}.cls-49{fill:#a895df;}.cls-50{fill:#d9ffff;}.cls-56{fill:#fdcde7;}.cls-57{fill:#dad5eb;}.cls-58{fill:#b7dcef;}.cls-59{fill:#94e4f3;}.cls-60{fill:#70ecf6;}.cls-61{fill:#4df3fa;}.cls-62{opacity:0.85;}.cls-63{fill:#4afcfe;opacity:0.85;}.cls-64,.cls-89{opacity:0.7;}.cls-65{fill:#6afcfe;opacity:0.7;}.cls-66{opacity:0.55;}.cls-67{fill:#8bfdff;opacity:0.55;}.cls-68,.cls-87{opacity:0.4;}.cls-69{fill:#abfeff;opacity:0.4;}.cls-70{opacity:0.25;}.cls-71{fill:#cbfeff;opacity:0.25;}.cls-72,.cls-78{opacity:0.1;}.cls-73{fill:#ebffff;opacity:0.1;}.cls-74{fill:#1f4ab2;}.cls-75{fill:#2b75d0;}.cls-76{fill:url(#linear-gradient-2);}.cls-77{fill:#d8cdff;}.cls-79{fill:url(#linear-gradient-3);}.cls-80{opacity:0.6;}.cls-100,.cls-88{fill:#24d8db;}.cls-90{fill:#111114;}.cls-91{fill:#efb185;}.cls-92{fill:#e6a376;}.cls-93{fill:#5d0ca6;}.cls-94{fill:#43008d;}.cls-95{fill:#dd9569;}.cls-96{fill:#8c2ddf;}.cls-97{fill:#9a45f4;}.cls-98{fill:#9dbcc9;}.cls-99{fill:#f1b287;}.cls-100{opacity:0.3;}</style><clipPath id="clip-path"><path class="cls-1" d="M89.27,69.12a1.34,1.34,0,0,1,.78,1.11V67.54a1.35,1.35,0,0,0-.79-1.11v0a4.25,4.25,0,0,0-3.85,0v0a1.37,1.37,0,0,0-.81,1.11v2.7a1.35,1.35,0,0,1,.81-1.12A4.25,4.25,0,0,1,89.27,69.12Z"/></clipPath><clipPath id="clip-path-2"><path class="cls-1" d="M84.61,67.53v2.69a1.36,1.36,0,0,0,.78,1.12,4.22,4.22,0,0,0,3.85,0,1.35,1.35,0,0,0,.81-1.12c0-.89,0-1.79,0-2.69a1.38,1.38,0,0,1-.81,1.13,4.25,4.25,0,0,1-3.85,0A1.4,1.4,0,0,1,84.61,67.53Z"/></clipPath><linearGradient id="linear-gradient" x1="19.12" y1="52.68" x2="101" y2="52.68" gradientUnits="userSpaceOnUse"><stop offset="0" stop-color="#2f95e4"/><stop offset="1" stop-color="#7133de"/></linearGradient><linearGradient id="linear-gradient-2" x1="48.75" y1="19.17" x2="75.96" y2="19.17" gradientUnits="userSpaceOnUse"><stop offset="0" stop-color="#9aceff"/><stop offset="1" stop-color="#c185fe"/></linearGradient><linearGradient id="linear-gradient-3" x1="46.17" y1="22.81" x2="72.07" y2="22.81" gradientUnits="userSpaceOnUse"><stop offset="0" stop-color="#aab1ff"/><stop offset="1" stop-color="#c986ff"/></linearGradient></defs><g class="cls-2"><g id="Layer_2" data-name="Layer 2"><g id="Layer_1-2" data-name="Layer 1"><path class="cls-3" d="M14.38,56.71l39.21-22.4a4.12,4.12,0,0,1,3.73,0l52.44,30.79a1.15,1.15,0,0,1,0,2.17L70.53,89.69a4.14,4.14,0,0,1-3.74,0L14.36,58.88A1.15,1.15,0,0,1,14.38,56.71Z"/><g class="cls-4"><path class="cls-5" d="M37.7,25.78c1.49-.86,2.7.2,3.8,3.13L17.19,42.85c4.82-2.92,4.38-10,5.52-14.22a7.32,7.32,0,0,1,3.07-4.39c1.43-.83,2.86-.51,3.25,1.71.76,4.17.65,9.7,3,8.35s3.25-6.37,4.93-7.95A4.38,4.38,0,0,1,37.7,25.78Z"/><path class="cls-5" d="M12.13,23.09C15.81,26.14,13.27,44.84,17,43L.05,52.67c1.7-1,3.52-3.73,4-9.69.67-8.21,3.18-18.42,6.11-20.11A1.59,1.59,0,0,1,12.13,23.09Z"/><path class="cls-5" d="M51.42.46c3.67,3.05,1.14,21.75,4.82,19.9L39.34,30c1.69-1,3.52-3.73,4-9.69C44,12.14,46.53,1.93,49.45.24A1.61,1.61,0,0,1,51.42.46Z"/></g><polygon class="cls-6" points="48.06 68.31 26.97 80.61 36.54 86.18 31.13 89.3 31.56 89.55 37.41 86.18 27.82 80.61 48.48 68.55 48.06 68.31"/><polygon class="cls-6" points="41.22 77.87 52.29 84.3 52.72 84.05 42.08 77.87 53.33 71.37 52.9 71.12 41.22 77.87"/><polygon class="cls-6" points="4.06 76.08 15.51 82.73 44.28 66.11 43.85 65.86 15.51 82.23 4.92 76.08 10.77 72.7 10.34 72.45 4.06 76.08"/><polygon class="cls-6" points="9.47 65.5 23.27 73.53 40.21 63.75 39.78 63.49 23.27 73.02 9.91 65.25 9.47 65.5"/><path class="cls-6" d="M29.78,88.56a.73.73,0,0,0,0,1.38,2.61,2.61,0,0,0,2.37,0c.59-.34.66-.86.21-1.24a1.15,1.15,0,0,0-.2-.14,1.33,1.33,0,0,0-.24-.11A2.69,2.69,0,0,0,29.78,88.56Z"/><g class="cls-7"><path class="cls-8" d="M34.29,89.12A3.32,3.32,0,1,1,31,85.8,3.32,3.32,0,0,1,34.29,89.12Z"/><path class="cls-9" d="M33.88,89.15A2.93,2.93,0,1,1,31,86.23,2.92,2.92,0,0,1,33.88,89.15Z"/><path class="cls-10" d="M33.48,89.19A2.53,2.53,0,1,1,31,86.66,2.53,2.53,0,0,1,33.48,89.19Z"/><path class="cls-11" d="M33.08,89.22a2.14,2.14,0,1,1-2.14-2.14A2.13,2.13,0,0,1,33.08,89.22Z"/><path class="cls-12" d="M32.67,89.25a1.74,1.74,0,1,1-1.74-1.74A1.74,1.74,0,0,1,32.67,89.25Z"/><path class="cls-13" d="M32.27,89.28a1.35,1.35,0,1,1-1.35-1.34A1.35,1.35,0,0,1,32.27,89.28Z"/><path class="cls-6" d="M31.86,89.32a1,1,0,0,1-.95,1,1,1,0,1,1,0-1.91A1,1,0,0,1,31.86,89.32Z"/></g><path class="cls-6" d="M51.67,83.74c-.66.39-.66,1,0,1.38a2.63,2.63,0,0,0,2.38,0c.58-.34.65-.86.2-1.23a.8.8,0,0,0-.2-.15,1.33,1.33,0,0,0-.24-.11A2.69,2.69,0,0,0,51.67,83.74Z"/><g class="cls-7"><path class="cls-8" d="M56.18,84.3A3.32,3.32,0,1,1,52.86,81,3.32,3.32,0,0,1,56.18,84.3Z"/><path class="cls-9" d="M55.77,84.33a2.93,2.93,0,1,1-2.92-2.92A2.92,2.92,0,0,1,55.77,84.33Z"/><path class="cls-10" d="M55.37,84.37a2.53,2.53,0,1,1-2.53-2.53A2.53,2.53,0,0,1,55.37,84.37Z"/><path class="cls-11" d="M55,84.4a2.14,2.14,0,1,1-2.14-2.14A2.14,2.14,0,0,1,55,84.4Z"/><path class="cls-12" d="M54.56,84.43a1.74,1.74,0,1,1-1.74-1.74A1.74,1.74,0,0,1,54.56,84.43Z"/><path class="cls-13" d="M54.16,84.47a1.35,1.35,0,1,1-1.35-1.35A1.35,1.35,0,0,1,54.16,84.47Z"/><path class="cls-6" d="M53.75,84.5a1,1,0,1,1-1-1A.95.95,0,0,1,53.75,84.5Z"/></g><path class="cls-6" d="M9.12,72.1c-.66.38-.67,1,0,1.38a2.63,2.63,0,0,0,2.38,0c.58-.34.65-.86.21-1.24l-.2-.14L11.25,72A2.67,2.67,0,0,0,9.12,72.1Z"/><g class="cls-7"><path class="cls-8" d="M13.62,72.66a3.32,3.32,0,1,1-3.32-3.32A3.32,3.32,0,0,1,13.62,72.66Z"/><path class="cls-9" d="M13.22,72.69a2.93,2.93,0,1,1-2.93-2.92A2.93,2.93,0,0,1,13.22,72.69Z"/><path class="cls-10" d="M12.81,72.73a2.53,2.53,0,1,1-2.53-2.54A2.53,2.53,0,0,1,12.81,72.73Z"/><path class="cls-11" d="M12.41,72.76a2.14,2.14,0,1,1-2.14-2.14A2.13,2.13,0,0,1,12.41,72.76Z"/><path class="cls-12" d="M12,72.79a1.74,1.74,0,1,1-1.74-1.74A1.74,1.74,0,0,1,12,72.79Z"/><path class="cls-13" d="M11.6,72.82a1.35,1.35,0,1,1-1.35-1.34A1.34,1.34,0,0,1,11.6,72.82Z"/><path class="cls-6" d="M11.2,72.86a1,1,0,1,1-1-1A1,1,0,0,1,11.2,72.86Z"/></g><path class="cls-6" d="M8.29,64.78a.73.73,0,0,0,0,1.38,2.63,2.63,0,0,0,2.38,0c.58-.34.65-.86.21-1.24l-.2-.14-.25-.12A2.67,2.67,0,0,0,8.29,64.78Z"/><g class="cls-7"><path class="cls-8" d="M12.79,65.34A3.32,3.32,0,1,1,9.47,62,3.32,3.32,0,0,1,12.79,65.34Z"/><path class="cls-9" d="M12.39,65.37a2.93,2.93,0,1,1-2.92-2.92A2.93,2.93,0,0,1,12.39,65.37Z"/><path class="cls-10" d="M12,65.4a2.53,2.53,0,1,1-2.52-2.53A2.52,2.52,0,0,1,12,65.4Z"/><path class="cls-11" d="M11.58,65.44A2.14,2.14,0,1,1,9.45,63.3,2.13,2.13,0,0,1,11.58,65.44Z"/><path class="cls-12" d="M11.18,65.47a1.75,1.75,0,1,1-1.74-1.74A1.74,1.74,0,0,1,11.18,65.47Z"/><path class="cls-13" d="M10.77,65.5a1.35,1.35,0,1,1-1.34-1.35A1.34,1.34,0,0,1,10.77,65.5Z"/><path class="cls-6" d="M10.37,65.54a1,1,0,1,1-.95-1A1,1,0,0,1,10.37,65.54Z"/></g><polygon class="cls-14" points="19.12 50.26 19.12 52.95 56.45 31.62 56.45 28.93 19.12 50.26"/><polygon class="cls-15" points="56.45 28.93 56.45 31.62 101 57.79 101 55.1 56.45 28.93"/><g class="cls-2"><g class="cls-16"><g class="cls-2"><path class="cls-17" d="M84.61,67.53v2.69a1.35,1.35,0,0,1,.81-1.11,3.54,3.54,0,0,1,.39-.19V66.23a3.49,3.49,0,0,0-.39.19,1.37,1.37,0,0,0-.81,1.11Z"/><path class="cls-18" d="M85.81,66.23v2.69l.33-.11V66.12l-.34.11Z"/><path class="cls-19" d="M86.15,66.12v2.69l.29-.07V66.05l-.28.07Z"/><path class="cls-20" d="M86.43,66.05v2.69l.27,0V66l-.28,0Z"/><path class="cls-21" d="M86.71,66v2.7a1.24,1.24,0,0,1,.27,0V66l-.26,0Z"/><path class="cls-22" d="M87,66v2.69l.26,0V66L87,66Z"/><path class="cls-23" d="M87.24,66v2.69h.28V66Z"/><path class="cls-24" d="M87.52,66v2.69l.31,0V66l-.3,0Z"/><path class="cls-25" d="M87.82,66v2.69l.34,0V66L87.82,66Z"/><path class="cls-26" d="M88.17,66v2.68l.52.14V66.17a2.72,2.72,0,0,0-.51-.13Z"/><path class="cls-27" d="M88.68,66.17v2.69a3.51,3.51,0,0,1,.59.26l0,0V66.45l0,0a2.64,2.64,0,0,0-.59-.26Z"/><path class="cls-26" d="M89.31,66.45v2.69a2,2,0,0,1,.35.26V66.71a1.53,1.53,0,0,0-.34-.26Z"/><path class="cls-25" d="M89.65,66.71V69.4l.16.18V66.89l-.17-.18Z"/><path class="cls-24" d="M89.82,66.89v2.69a1.16,1.16,0,0,1,.11.16V67.05l-.11-.16Z"/><path class="cls-23" d="M89.93,67.05v2.69a.77.77,0,0,1,.07.16V67.21c0-.06,0-.11-.07-.16Z"/><path class="cls-22" d="M90,67.21V69.9a.42.42,0,0,1,0,.15V67.36s0-.1,0-.15Z"/><path class="cls-21" d="M90,67.36v2.69a.44.44,0,0,1,0,.16V67.52a.78.78,0,0,0,0-.16Z"/><path class="cls-20" d="M90.06,67.52v0Z"/></g></g></g><g class="cls-2"><g class="cls-28"><g class="cls-2"><path class="cls-29" d="M84.61,67.53v0Z"/><path class="cls-30" d="M84.61,67.56v2.69a.92.92,0,0,0,0,.16V67.72a1,1,0,0,1,0-.16Z"/><path class="cls-31" d="M84.63,67.72v2.69l0,.15V67.87a.88.88,0,0,1-.05-.15Z"/><path class="cls-32" d="M84.68,67.87v2.69a1,1,0,0,0,.07.15V68a1,1,0,0,1-.07-.15Z"/><path class="cls-33" d="M84.75,68v2.69a1,1,0,0,0,.11.17V68.19a.75.75,0,0,1-.1-.17Z"/><path class="cls-34" d="M84.85,68.19v2.69a1.41,1.41,0,0,0,.17.18V68.37l-.17-.18Z"/><path class="cls-35" d="M85,68.37v2.69a2.34,2.34,0,0,0,.34.26V68.63a2,2,0,0,1-.35-.26Z"/><path class="cls-36" d="M85.37,68.63v2.69l0,0a4,4,0,0,0,.6.26V68.91a3.51,3.51,0,0,1-.59-.26l0,0Z"/><path class="cls-35" d="M86,68.91V71.6a4,4,0,0,0,.52.13V69a3,3,0,0,1-.52-.13Z"/><path class="cls-34" d="M86.51,69v2.69l.34,0V69.09l-.35,0Z"/><path class="cls-33" d="M86.86,69.09v2.69l.3,0V69.11l-.3,0Z"/><path class="cls-32" d="M87.16,69.11V71.8h.28v-2.7Z"/><path class="cls-31" d="M87.44,69.11v2.7l.27,0V69.1Z"/><path class="cls-30" d="M87.7,69.1v2.69l.26,0V69.07a2.48,2.48,0,0,1-.27,0Z"/><path class="cls-29" d="M88,69.07v2.69l.28,0V69l-.27,0Z"/><path class="cls-37" d="M88.24,69v2.69l.28-.07V69l-.28.07Z"/><path class="cls-38" d="M88.52,69v2.69l.33-.11V68.85l-.34.11Z"/><path class="cls-39" d="M88.86,68.85v2.69a1.76,1.76,0,0,0,.39-.19,1.35,1.35,0,0,0,.81-1.12V67.54a1.38,1.38,0,0,1-.81,1.13c-.13.06-.26.13-.39.18Z"/></g></g></g><polygon class="cls-40" points="63.67 76.42 63.66 79.11 101 57.79 101 55.1 63.67 76.42"/><path class="cls-41" d="M85.42,66.42a1.18,1.18,0,0,0,0,2.23,4.25,4.25,0,0,0,3.85,0,1.18,1.18,0,0,0,0-2.24A4.25,4.25,0,0,0,85.42,66.42Z"/><polygon class="cls-42" points="19.12 50.26 19.12 52.95 63.66 79.11 63.67 76.42 19.12 50.26"/><polygon class="cls-43" points="19.12 50.26 63.67 76.42 101 55.1 56.45 28.93 19.12 50.26"/><polygon class="cls-44" points="29.69 51.16 62.74 70.56 90.43 54.75 57.38 35.34 29.69 51.16"/><polygon class="cls-45" points="32.22 51.31 62.52 69.1 87.91 54.6 57.61 36.8 32.22 51.31"/><polygon class="cls-46" points="33.99 51.41 62.37 68.08 86.15 54.49 57.77 37.83 33.99 51.41"/><path class="cls-47" d="M14,50.38v0a1.26,1.26,0,0,0,.13.26l0,0a1.1,1.1,0,0,0,.21.23,1.57,1.57,0,0,0,.19.15l.15.11L67.11,82v2.69L14.67,53.88l0,0h0l-.12-.09-.2-.15h0a1.41,1.41,0,0,1-.17-.18s0,0,0,0l0,0a.59.59,0,0,0,0-.08,1,1,0,0,1-.07-.15v0a0,0,0,0,0,0,0,.3.3,0,0,1,0-.1.77.77,0,0,1,0-.15V50.11A.86.86,0,0,0,14,50.38Z"/><path class="cls-48" d="M53.91,26.62a4.12,4.12,0,0,1,3.73,0l52.44,30.8a1.14,1.14,0,0,1,0,2.16L70.85,82a4.14,4.14,0,0,1-3.74,0L14.67,51.19a1.15,1.15,0,0,1,0-2.17Zm9.76,49.8L101,55.1,56.46,28.93,19.12,50.26,63.67,76.42Zm25.58-7.75a1.18,1.18,0,0,0,0-2.24,4.25,4.25,0,0,0-3.85,0,1.18,1.18,0,0,0,0,2.23,4.25,4.25,0,0,0,3.85,0Z"/><path class="cls-47" d="M67.11,82a3,3,0,0,0,.52.23l.2.06.26.07.33.06h.08l.43,0H69a3.25,3.25,0,0,0,.44,0h.07l.42-.07.08,0,.35-.11.08,0a3.71,3.71,0,0,0,.4-.19l39.21-22.4a1.33,1.33,0,0,0,.79-1.08c0,.89,0,1.79,0,2.69a1.31,1.31,0,0,1-.79,1.08l-39.2,22.4a2.32,2.32,0,0,1-.39.18h0l-.07,0-.23.08L70,85h-.08l-.07,0-.25,0h-.17l-.09,0h-.53c-.1,0-.2,0-.3,0h-.1l-.23,0-.1,0L67.83,85l-.14,0-.06,0a3,3,0,0,1-.52-.23Z"/><path class="cls-49" d="M85.42,66.69c-1.07.62-1.08,1.61,0,2.23a4.25,4.25,0,0,0,3.85,0,1.18,1.18,0,0,0,0-2.23A4.25,4.25,0,0,0,85.42,66.69Z"/><polygon class="cls-50" points="36.09 51.54 62.19 66.86 84.06 54.37 57.97 39.04 36.09 51.54"/><g class="cls-51"><polygon class="cls-50" points="36.09 46.35 62.19 61.67 84.06 49.18 57.97 33.85 36.09 46.35"/></g><g class="cls-52"><polygon class="cls-50" points="36.09 41.16 62.19 56.49 84.06 43.99 57.97 28.67 36.09 41.16"/></g><g class="cls-4"><polygon class="cls-50" points="36.09 35.98 62.19 51.3 84.06 38.81 57.97 23.48 36.09 35.98"/></g><g class="cls-53"><polygon class="cls-50" points="36.09 30.79 62.19 46.12 84.06 33.62 57.97 18.3 36.09 30.79"/></g><g class="cls-54"><polygon class="cls-50" points="36.09 25.6 62.19 40.93 84.06 28.43 57.97 13.11 36.09 25.6"/></g><g class="cls-55"><polygon class="cls-50" points="36.09 20.42 62.19 35.74 84.06 23.25 57.97 7.92 36.09 20.42"/></g><path class="cls-56" d="M78.9,35.5l-1.07.89a.16.16,0,0,1-.22,0l-1.08-.89a.38.38,0,0,1,0-.54l1.07-.9a.18.18,0,0,1,.22,0l1.08.9A.38.38,0,0,1,78.9,35.5Z"/><g class="cls-51"><path class="cls-56" d="M78.9,36.6l-1.07.89a.16.16,0,0,1-.22,0l-1.08-.89a.38.38,0,0,1,0-.54l1.07-.9a.18.18,0,0,1,.22,0l1.08.9A.38.38,0,0,1,78.9,36.6Z"/></g><g class="cls-52"><path class="cls-56" d="M78.9,37.7l-1.07.89a.16.16,0,0,1-.22,0l-1.08-.89a.38.38,0,0,1,0-.54l1.07-.9a.18.18,0,0,1,.22,0l1.08.9A.38.38,0,0,1,78.9,37.7Z"/></g><g class="cls-4"><path class="cls-56" d="M78.9,38.8l-1.07.89a.16.16,0,0,1-.22,0l-1.08-.89a.38.38,0,0,1,0-.54l1.07-.9a.18.18,0,0,1,.22,0l1.08.9A.38.38,0,0,1,78.9,38.8Z"/></g><g class="cls-53"><path class="cls-56" d="M78.9,39.9l-1.07.89a.16.16,0,0,1-.22,0l-1.08-.89a.38.38,0,0,1,0-.54l1.07-.9a.18.18,0,0,1,.22,0l1.08.9A.38.38,0,0,1,78.9,39.9Z"/></g><g class="cls-54"><path class="cls-56" d="M78.9,41l-1.07.89a.16.16,0,0,1-.22,0L76.53,41a.38.38,0,0,1,0-.54l1.07-.9a.18.18,0,0,1,.22,0l1.08.9A.38.38,0,0,1,78.9,41Z"/></g><g class="cls-55"><path class="cls-56" d="M78.9,42.1,77.83,43a.16.16,0,0,1-.22,0l-1.08-.89a.38.38,0,0,1,0-.54l1.07-.9a.18.18,0,0,1,.22,0l1.08.9A.38.38,0,0,1,78.9,42.1Z"/></g><g class="cls-54"><path class="cls-57" d="M78.9,41l-1.07.89a.16.16,0,0,1-.22,0L76.53,41a.38.38,0,0,1,0-.54l1.07-.9a.18.18,0,0,1,.22,0l1.08.9A.38.38,0,0,1,78.9,41Z"/></g><g class="cls-53"><path class="cls-58" d="M78.9,39.9l-1.07.89a.16.16,0,0,1-.22,0l-1.08-.89a.38.38,0,0,1,0-.54l1.07-.9a.18.18,0,0,1,.22,0l1.08.9A.38.38,0,0,1,78.9,39.9Z"/></g><g class="cls-4"><path class="cls-59" d="M78.9,38.8l-1.07.89a.16.16,0,0,1-.22,0l-1.08-.89a.38.38,0,0,1,0-.54l1.07-.9a.18.18,0,0,1,.22,0l1.08.9A.38.38,0,0,1,78.9,38.8Z"/></g><g class="cls-52"><path class="cls-60" d="M78.9,37.7l-1.07.89a.16.16,0,0,1-.22,0l-1.08-.89a.38.38,0,0,1,0-.54l1.07-.9a.18.18,0,0,1,.22,0l1.08.9A.38.38,0,0,1,78.9,37.7Z"/></g><g class="cls-51"><path class="cls-61" d="M78.9,36.6l-1.07.89a.16.16,0,0,1-.22,0l-1.08-.89a.38.38,0,0,1,0-.54l1.07-.9a.18.18,0,0,1,.22,0l1.08.9A.38.38,0,0,1,78.9,36.6Z"/></g><path class="cls-6" d="M78.9,35.5l-1.07.89a.16.16,0,0,1-.22,0l-1.08-.89a.38.38,0,0,1,0-.54l1.07-.9a.18.18,0,0,1,.22,0l1.08.9A.38.38,0,0,1,78.9,35.5Z"/><g class="cls-62"><path class="cls-63" d="M78.9,36.58l-1.07.9a.18.18,0,0,1-.22,0l-1.08-.9a.38.38,0,0,1,0-.54l1.07-.89a.16.16,0,0,1,.22,0L78.9,36A.38.38,0,0,1,78.9,36.58Z"/></g><g class="cls-64"><path class="cls-65" d="M78.9,37.67l-1.07.89a.16.16,0,0,1-.22,0l-1.08-.89a.38.38,0,0,1,0-.54l1.07-.9a.18.18,0,0,1,.22,0l1.08.9A.38.38,0,0,1,78.9,37.67Z"/></g><g class="cls-66"><path class="cls-67" d="M78.9,38.75l-1.07.9a.18.18,0,0,1-.22,0l-1.08-.9a.38.38,0,0,1,0-.54l1.07-.89a.16.16,0,0,1,.22,0l1.08.89A.38.38,0,0,1,78.9,38.75Z"/></g><g class="cls-68"><path class="cls-69" d="M78.9,39.84l-1.07.89a.16.16,0,0,1-.22,0l-1.08-.89a.39.39,0,0,1,0-.55l1.07-.89a.16.16,0,0,1,.22,0l1.08.9A.38.38,0,0,1,78.9,39.84Z"/></g><g class="cls-70"><path class="cls-71" d="M78.9,40.92l-1.07.9a.18.18,0,0,1-.22,0l-1.08-.9a.38.38,0,0,1,0-.54l1.07-.89a.17.17,0,0,1,.22,0l1.08.9A.38.38,0,0,1,78.9,40.92Z"/></g><g class="cls-72"><path class="cls-73" d="M78.9,42l-1.07.89a.16.16,0,0,1-.22,0L76.53,42a.39.39,0,0,1,0-.55l1.07-.89a.16.16,0,0,1,.22,0l1.08.89A.39.39,0,0,1,78.9,42Z"/></g><path class="cls-56" d="M41.4,33.41l-1.07.89a.16.16,0,0,1-.22,0L39,33.41a.4.4,0,0,1,0-.55L40.1,32a.16.16,0,0,1,.22,0l1.08.89A.39.39,0,0,1,41.4,33.41Z"/><g class="cls-51"><path class="cls-56" d="M41.4,34.51l-1.07.89a.16.16,0,0,1-.22,0L39,34.51A.4.4,0,0,1,39,34l1.08-.89a.16.16,0,0,1,.22,0L41.4,34A.39.39,0,0,1,41.4,34.51Z"/></g><g class="cls-52"><path class="cls-56" d="M41.4,35.61l-1.07.89a.16.16,0,0,1-.22,0L39,35.61a.4.4,0,0,1,0-.55l1.08-.89a.16.16,0,0,1,.22,0l1.08.89A.39.39,0,0,1,41.4,35.61Z"/></g><g class="cls-4"><path class="cls-56" d="M41.4,36.71l-1.07.89a.16.16,0,0,1-.22,0L39,36.71a.4.4,0,0,1,0-.55l1.08-.89a.16.16,0,0,1,.22,0l1.08.89A.39.39,0,0,1,41.4,36.71Z"/></g><g class="cls-53"><path class="cls-56" d="M41.4,37.81l-1.07.89a.16.16,0,0,1-.22,0L39,37.81a.4.4,0,0,1,0-.55l1.08-.89a.16.16,0,0,1,.22,0l1.08.89A.39.39,0,0,1,41.4,37.81Z"/></g><g class="cls-54"><path class="cls-56" d="M41.4,38.91l-1.07.89a.16.16,0,0,1-.22,0L39,38.91a.4.4,0,0,1,0-.55l1.08-.89a.16.16,0,0,1,.22,0l1.08.89A.39.39,0,0,1,41.4,38.91Z"/></g><g class="cls-55"><path class="cls-56" d="M41.4,40l-1.07.89a.16.16,0,0,1-.22,0L39,40a.4.4,0,0,1,0-.55l1.08-.89a.16.16,0,0,1,.22,0l1.08.89A.39.39,0,0,1,41.4,40Z"/></g><g class="cls-54"><path class="cls-57" d="M41.4,38.91l-1.07.89a.16.16,0,0,1-.22,0L39,38.91a.4.4,0,0,1,0-.55l1.08-.89a.16.16,0,0,1,.22,0l1.08.89A.39.39,0,0,1,41.4,38.91Z"/></g><g class="cls-53"><path class="cls-58" d="M41.4,37.81l-1.07.89a.16.16,0,0,1-.22,0L39,37.81a.4.4,0,0,1,0-.55l1.08-.89a.16.16,0,0,1,.22,0l1.08.89A.39.39,0,0,1,41.4,37.81Z"/></g><g class="cls-4"><path class="cls-59" d="M41.4,36.71l-1.07.89a.16.16,0,0,1-.22,0L39,36.71a.4.4,0,0,1,0-.55l1.08-.89a.16.16,0,0,1,.22,0l1.08.89A.39.39,0,0,1,41.4,36.71Z"/></g><g class="cls-52"><path class="cls-60" d="M41.4,35.61l-1.07.89a.16.16,0,0,1-.22,0L39,35.61a.4.4,0,0,1,0-.55l1.08-.89a.16.16,0,0,1,.22,0l1.08.89A.39.39,0,0,1,41.4,35.61Z"/></g><g class="cls-51"><path class="cls-61" d="M41.4,34.51l-1.07.89a.16.16,0,0,1-.22,0L39,34.51A.4.4,0,0,1,39,34l1.08-.89a.16.16,0,0,1,.22,0L41.4,34A.39.39,0,0,1,41.4,34.51Z"/></g><path class="cls-6" d="M41.4,33.41l-1.07.89a.16.16,0,0,1-.22,0L39,33.41a.4.4,0,0,1,0-.55L40.1,32a.16.16,0,0,1,.22,0l1.08.89A.39.39,0,0,1,41.4,33.41Z"/><g class="cls-62"><path class="cls-63" d="M41.4,34.49l-1.07.89a.16.16,0,0,1-.22,0L39,34.49A.39.39,0,0,1,39,34l1.08-.9a.18.18,0,0,1,.22,0l1.08.9A.38.38,0,0,1,41.4,34.49Z"/></g><g class="cls-64"><path class="cls-65" d="M41.4,35.58l-1.07.89a.16.16,0,0,1-.22,0L39,35.57A.39.39,0,0,1,39,35l1.08-.89a.16.16,0,0,1,.22,0L41.4,35A.39.39,0,0,1,41.4,35.58Z"/></g><g class="cls-66"><path class="cls-67" d="M41.4,36.66l-1.07.89a.16.16,0,0,1-.22,0L39,36.66a.39.39,0,0,1,0-.54l1.08-.9a.18.18,0,0,1,.22,0l1.08.9A.38.38,0,0,1,41.4,36.66Z"/></g><g class="cls-68"><path class="cls-69" d="M41.4,37.74l-1.07.9a.18.18,0,0,1-.22,0L39,37.74a.39.39,0,0,1,0-.54l1.08-.89a.16.16,0,0,1,.22,0l1.08.89A.38.38,0,0,1,41.4,37.74Z"/></g><g class="cls-70"><path class="cls-71" d="M41.4,38.83l-1.07.89a.16.16,0,0,1-.22,0L39,38.83a.39.39,0,0,1,0-.54l1.08-.9a.18.18,0,0,1,.22,0l1.08.9A.38.38,0,0,1,41.4,38.83Z"/></g><g class="cls-72"><path class="cls-73" d="M41.4,39.91l-1.07.9a.18.18,0,0,1-.22,0L39,39.91a.39.39,0,0,1,0-.54l1.08-.89a.16.16,0,0,1,.22,0l1.08.89A.38.38,0,0,1,41.4,39.91Z"/></g><path class="cls-56" d="M70.24,33.41l-1.07.89a.16.16,0,0,1-.22,0l-1.08-.89a.4.4,0,0,1,0-.55L68.94,32a.16.16,0,0,1,.22,0l1.08.89A.4.4,0,0,1,70.24,33.41Z"/><g class="cls-51"><path class="cls-56" d="M70.24,34.51l-1.07.89a.16.16,0,0,1-.22,0l-1.08-.89a.4.4,0,0,1,0-.55l1.08-.89a.16.16,0,0,1,.22,0l1.08.89A.4.4,0,0,1,70.24,34.51Z"/></g><g class="cls-52"><path class="cls-56" d="M70.24,35.61l-1.07.89a.16.16,0,0,1-.22,0l-1.08-.89a.4.4,0,0,1,0-.55l1.08-.89a.16.16,0,0,1,.22,0l1.08.89A.4.4,0,0,1,70.24,35.61Z"/></g><g class="cls-4"><path class="cls-56" d="M70.24,36.71l-1.07.89a.16.16,0,0,1-.22,0l-1.08-.89a.4.4,0,0,1,0-.55l1.08-.89a.16.16,0,0,1,.22,0l1.08.89A.4.4,0,0,1,70.24,36.71Z"/></g><g class="cls-53"><path class="cls-56" d="M70.24,37.81l-1.07.89a.16.16,0,0,1-.22,0l-1.08-.89a.4.4,0,0,1,0-.55l1.08-.89a.16.16,0,0,1,.22,0l1.08.89A.4.4,0,0,1,70.24,37.81Z"/></g><g class="cls-54"><path class="cls-56" d="M70.24,38.91l-1.07.89a.16.16,0,0,1-.22,0l-1.08-.89a.4.4,0,0,1,0-.55l1.08-.89a.16.16,0,0,1,.22,0l1.08.89A.4.4,0,0,1,70.24,38.91Z"/></g><g class="cls-55"><path class="cls-56" d="M70.24,40l-1.07.89a.16.16,0,0,1-.22,0L67.87,40a.4.4,0,0,1,0-.55l1.08-.89a.16.16,0,0,1,.22,0l1.08.89A.4.4,0,0,1,70.24,40Z"/></g><g class="cls-54"><path class="cls-57" d="M70.24,38.91l-1.07.89a.16.16,0,0,1-.22,0l-1.08-.89a.4.4,0,0,1,0-.55l1.08-.89a.16.16,0,0,1,.22,0l1.08.89A.4.4,0,0,1,70.24,38.91Z"/></g><g class="cls-53"><path class="cls-58" d="M70.24,37.81l-1.07.89a.16.16,0,0,1-.22,0l-1.08-.89a.4.4,0,0,1,0-.55l1.08-.89a.16.16,0,0,1,.22,0l1.08.89A.4.4,0,0,1,70.24,37.81Z"/></g><g class="cls-4"><path class="cls-59" d="M70.24,36.71l-1.07.89a.16.16,0,0,1-.22,0l-1.08-.89a.4.4,0,0,1,0-.55l1.08-.89a.16.16,0,0,1,.22,0l1.08.89A.4.4,0,0,1,70.24,36.71Z"/></g><g class="cls-52"><path class="cls-60" d="M70.24,35.61l-1.07.89a.16.16,0,0,1-.22,0l-1.08-.89a.4.4,0,0,1,0-.55l1.08-.89a.16.16,0,0,1,.22,0l1.08.89A.4.4,0,0,1,70.24,35.61Z"/></g><g class="cls-51"><path class="cls-61" d="M70.24,34.51l-1.07.89a.16.16,0,0,1-.22,0l-1.08-.89a.4.4,0,0,1,0-.55l1.08-.89a.16.16,0,0,1,.22,0l1.08.89A.4.4,0,0,1,70.24,34.51Z"/></g><path class="cls-6" d="M70.24,33.41l-1.07.89a.16.16,0,0,1-.22,0l-1.08-.89a.4.4,0,0,1,0-.55L68.94,32a.16.16,0,0,1,.22,0l1.08.89A.4.4,0,0,1,70.24,33.41Z"/><g class="cls-62"><path class="cls-63" d="M70.24,34.49l-1.07.89a.16.16,0,0,1-.22,0l-1.08-.89a.39.39,0,0,1,0-.54l1.08-.9a.18.18,0,0,1,.22,0l1.08.9A.39.39,0,0,1,70.24,34.49Z"/></g><g class="cls-64"><path class="cls-65" d="M70.24,35.58l-1.07.89a.16.16,0,0,1-.22,0l-1.08-.9a.39.39,0,0,1,0-.54l1.08-.89a.16.16,0,0,1,.22,0l1.08.89A.4.4,0,0,1,70.24,35.58Z"/></g><g class="cls-66"><path class="cls-67" d="M70.24,36.66l-1.07.89a.16.16,0,0,1-.22,0l-1.08-.89a.39.39,0,0,1,0-.54l1.08-.9a.18.18,0,0,1,.22,0l1.08.9A.39.39,0,0,1,70.24,36.66Z"/></g><g class="cls-68"><path class="cls-69" d="M70.24,37.74l-1.07.9a.18.18,0,0,1-.22,0l-1.08-.9a.39.39,0,0,1,0-.54l1.08-.89a.16.16,0,0,1,.22,0l1.08.89A.39.39,0,0,1,70.24,37.74Z"/></g><g class="cls-70"><path class="cls-71" d="M70.24,38.83l-1.07.89a.16.16,0,0,1-.22,0l-1.08-.89a.39.39,0,0,1,0-.54l1.08-.9a.18.18,0,0,1,.22,0l1.08.9A.39.39,0,0,1,70.24,38.83Z"/></g><g class="cls-72"><path class="cls-73" d="M70.24,39.91l-1.07.9a.18.18,0,0,1-.22,0l-1.08-.9a.39.39,0,0,1,0-.54l1.08-.89a.16.16,0,0,1,.22,0l1.08.89A.39.39,0,0,1,70.24,39.91Z"/></g><path class="cls-56" d="M50.73,44.42l-1.07.89a.16.16,0,0,1-.22,0l-1.09-.89a.4.4,0,0,1,0-.54l1.08-.9a.17.17,0,0,1,.21,0l1.09.9A.4.4,0,0,1,50.73,44.42Z"/><g class="cls-51"><path class="cls-56" d="M50.73,45.52l-1.07.9a.18.18,0,0,1-.22,0l-1.09-.9a.4.4,0,0,1,0-.54l1.08-.9a.17.17,0,0,1,.21,0l1.09.9A.4.4,0,0,1,50.73,45.52Z"/></g><g class="cls-52"><path class="cls-56" d="M50.73,46.62l-1.07.89a.17.17,0,0,1-.22,0l-1.09-.9a.4.4,0,0,1,0-.54l1.08-.9a.17.17,0,0,1,.21,0l1.09.9A.4.4,0,0,1,50.73,46.62Z"/></g><g class="cls-4"><path class="cls-56" d="M50.73,47.72l-1.07.89a.16.16,0,0,1-.22,0l-1.09-.89a.4.4,0,0,1,0-.54l1.08-.9a.17.17,0,0,1,.21,0l1.09.9A.4.4,0,0,1,50.73,47.72Z"/></g><g class="cls-53"><path class="cls-56" d="M50.73,48.82l-1.07.89a.16.16,0,0,1-.22,0l-1.09-.89a.4.4,0,0,1,0-.54l1.08-.9a.17.17,0,0,1,.21,0l1.09.9A.4.4,0,0,1,50.73,48.82Z"/></g><g class="cls-54"><path class="cls-56" d="M50.73,49.92l-1.07.89a.16.16,0,0,1-.22,0l-1.09-.89a.4.4,0,0,1,0-.54l1.08-.9a.17.17,0,0,1,.21,0l1.09.9A.4.4,0,0,1,50.73,49.92Z"/></g><g class="cls-55"><path class="cls-56" d="M50.73,51l-1.07.89a.17.17,0,0,1-.22,0L48.35,51a.4.4,0,0,1,0-.54l1.08-.9a.17.17,0,0,1,.21,0l1.09.9A.4.4,0,0,1,50.73,51Z"/></g><g class="cls-54"><path class="cls-57" d="M50.73,49.92l-1.07.89a.16.16,0,0,1-.22,0l-1.09-.89a.4.4,0,0,1,0-.54l1.08-.9a.17.17,0,0,1,.21,0l1.09.9A.4.4,0,0,1,50.73,49.92Z"/></g><g class="cls-53"><path class="cls-58" d="M50.73,48.82l-1.07.89a.16.16,0,0,1-.22,0l-1.09-.89a.4.4,0,0,1,0-.54l1.08-.9a.17.17,0,0,1,.21,0l1.09.9A.4.4,0,0,1,50.73,48.82Z"/></g><g class="cls-4"><path class="cls-59" d="M50.73,47.72l-1.07.89a.17.17,0,0,1-.22,0l-1.09-.9a.4.4,0,0,1,0-.54l1.08-.9a.17.17,0,0,1,.21,0l1.09.9A.4.4,0,0,1,50.73,47.72Z"/></g><g class="cls-52"><path class="cls-60" d="M50.73,46.62l-1.07.89a.17.17,0,0,1-.22,0l-1.09-.9a.4.4,0,0,1,0-.54l1.08-.9a.17.17,0,0,1,.21,0l1.09.9A.4.4,0,0,1,50.73,46.62Z"/></g><g class="cls-51"><path class="cls-61" d="M50.73,45.52l-1.07.9a.18.18,0,0,1-.22,0l-1.09-.9a.4.4,0,0,1,0-.54l1.08-.9a.17.17,0,0,1,.21,0l1.09.9A.4.4,0,0,1,50.73,45.52Z"/></g><path class="cls-6" d="M50.73,44.42l-1.07.89a.16.16,0,0,1-.22,0l-1.09-.89a.4.4,0,0,1,0-.54l1.08-.9a.17.17,0,0,1,.21,0l1.09.9A.4.4,0,0,1,50.73,44.42Z"/><g class="cls-62"><path class="cls-63" d="M50.73,45.51l-1.07.89a.16.16,0,0,1-.22,0l-1.09-.9a.4.4,0,0,1,0-.54l1.08-.89a.14.14,0,0,1,.21,0l1.09.89A.41.41,0,0,1,50.73,45.51Z"/></g><g class="cls-64"><path class="cls-65" d="M50.73,46.59l-1.07.89a.16.16,0,0,1-.22,0l-1.09-.89a.4.4,0,0,1,0-.54l1.08-.9a.17.17,0,0,1,.21,0l1.09.9A.4.4,0,0,1,50.73,46.59Z"/></g><g class="cls-66"><path class="cls-67" d="M50.73,47.67l-1.07.9a.18.18,0,0,1-.22,0l-1.09-.9a.4.4,0,0,1,0-.54l1.08-.89a.14.14,0,0,1,.21,0l1.09.89A.4.4,0,0,1,50.73,47.67Z"/></g><g class="cls-68"><path class="cls-69" d="M50.73,48.76l-1.07.89a.16.16,0,0,1-.22,0l-1.09-.89a.4.4,0,0,1,0-.54l1.08-.9a.17.17,0,0,1,.21,0l1.09.9A.4.4,0,0,1,50.73,48.76Z"/></g><g class="cls-70"><path class="cls-71" d="M50.73,49.84l-1.07.9a.18.18,0,0,1-.22,0l-1.09-.9a.4.4,0,0,1,0-.54l1.08-.89a.14.14,0,0,1,.21,0l1.09.89A.4.4,0,0,1,50.73,49.84Z"/></g><g class="cls-72"><path class="cls-73" d="M50.73,50.93l-1.07.89a.16.16,0,0,1-.22,0l-1.09-.89a.4.4,0,0,1,0-.54l1.08-.9a.14.14,0,0,1,.21,0l1.09.9A.4.4,0,0,1,50.73,50.93Z"/></g><g class="cls-2"><polygon class="cls-47" points="34.74 22.32 34.75 25.17 62.63 41.37 62.62 38.52 34.74 22.32"/><polygon class="cls-74" points="62.62 38.52 62.63 41.37 86.48 27.6 86.47 24.75 62.62 38.52"/><polygon class="cls-75" points="34.74 22.32 62.62 38.52 86.47 24.75 58.59 8.54 34.74 22.32"/></g><path class="cls-76" d="M76,24.27c.38-6.18-7.37-18.34-20.62-13.7C47.74,13.23,46,17.51,54,23.4c0,0-.09,3.29,6.23,2.77,0,0,4.08-.17,6.83,1.91C70,30.28,75.78,27.05,76,24.27Z"/><path class="cls-77" d="M51.59,13.77a8.22,8.22,0,0,1,5-2.26,27.57,27.57,0,0,1,3.06.12c2.35.18,5.21.27,7.55-.71l-.63-.28c-2.22.93-4.59.64-6.88.47A28.45,28.45,0,0,0,56.53,11a8.62,8.62,0,0,0-5.31,2.42Z"/><path class="cls-77" d="M60.22,11.36l.45-.07c0,.19,0-.22,0-.28s1-.82,3.26-1.18l-.84-.16c-2,.31-2.65.57-2.91,1.15A.58.58,0,0,0,60.22,11.36Z"/><path class="cls-77" d="M67.07,15.26l.52-.37a13.05,13.05,0,0,0-4.31-3.44,3,3,0,0,1-.37-.16l-.66.28.82.36A12.28,12.28,0,0,1,67.07,15.26Z"/><path class="cls-77" d="M74.53,18.4l-.28-.55a12,12,0,0,1-2.1-.6,3.06,3.06,0,0,1-1.25-1.06,3.45,3.45,0,0,0-1.82-1.36,2.38,2.38,0,0,0-2.63,1l.45.28a1.82,1.82,0,0,1,2-.73,2.93,2.93,0,0,1,1.55,1.18A3.33,3.33,0,0,0,72,17.73,14.68,14.68,0,0,0,74.53,18.4Z"/><path class="cls-77" d="M71.74,17.3c1.32-2.55-2.44-4.6-2.6-4.69l-.25.46s3.47,1.9,2.38,4Z"/><path class="cls-77" d="M73.7,27.43c.1-.09,2.38-2,1.37-4.06a7.55,7.55,0,0,0-1.61-2c-.55-.53-.95-.92-.93-1.46a2.56,2.56,0,0,0-1.59-2.07,1.81,1.81,0,0,0-2,.15l.35.39a1.36,1.36,0,0,1,1.46-.06A2,2,0,0,1,72,19.85c0,.77.49,1.28,1.09,1.86a6.62,6.62,0,0,1,1.5,1.89c.85,1.71-1.76,4.29-1.79,4.31Z"/><path class="cls-77" d="M75.59,21.18l-.22-.73a3.21,3.21,0,0,0-3.1-.33l.18.49S74.67,19.88,75.59,21.18Z"/><path class="cls-77" d="M72.07,26.47a5.86,5.86,0,0,0,2.12-4.17l-.54-.11h0l.06.3a7.81,7.81,0,0,1-1.9,3.35Z"/><path class="cls-78" d="M67.09,28.08c-2.75-2.08-6.83-1.91-6.83-1.91C53.94,26.69,54,23.4,54,23.4c-5.16-3.77-6.29-6.88-4.45-9.32a17.88,17.88,0,0,1,3.71-1.72c13.26-4.64,21,7.52,20.62,13.69a3.08,3.08,0,0,1-.65,1.61C71.31,28.83,68.74,29.33,67.09,28.08Z"/><path class="cls-79" d="M72.05,27c.38-6.18-5.81-17.77-20.62-13.69-3.11.85-9.36,6.93-1.3,12.82,0,0-.09,3.3,6.23,2.78a23.07,23.07,0,0,1,6.71,3.28C67.55,35.48,71.88,29.78,72.05,27Z"/><path class="cls-77" d="M49.67,25.78l.46.34s-.55-1.54,0-2.34c.26-.42.85-.62,1.75-.59l.38,0c2.1.08,3.49.13,4.18-.69.46-.53.53-1.37.25-2.7-.51-2.41-.39-4.07.36-4.93a2.84,2.84,0,0,1,2.45-.74c2.28.18,3.12,1.69,3.45,6.22A3.53,3.53,0,0,0,65,22.92c1,.49,3,1.68,6.34-.41L71.2,22c-3.07,1.94-5,.88-5.92.44a3,3,0,0,1-1.85-2.13c-.31-4.17-1-6.47-3.93-6.69a3.31,3.31,0,0,0-2.88.91c-.88,1-1,2.76-.48,5.38.24,1.14.2,1.86-.14,2.26-.52.62-1.88.57-3.76.5l-.38,0a2.32,2.32,0,0,0-2.21.83A2.35,2.35,0,0,0,49.67,25.78Z"/><path class="cls-77" d="M58,26.14l.52-.05c-.34-3.6-5-3.37-5.09-3.36l0,.52C53.66,23.24,57.74,23,58,26.14Z"/><path class="cls-77" d="M56,18.84l.51-.1s-.93-4.37-5.07-4.17l0,.51C55.13,14.9,55.91,18.68,56,18.84Z"/><path class="cls-77" d="M51.07,17.82c.59-2,3-2,3-2v-.52s-2.82.05-3.51,2.42Z"/><path class="cls-77" d="M66.58,27.22l.19-.48c-5-2-3.46-6.46-3.39-6.65l-.48-.18A5.69,5.69,0,0,0,66.58,27.22Z"/><path class="cls-77" d="M63.77,28.67l.35-.39c-1.46-1.34-.34-3.59-.33-3.61l-.46-.24C63.28,24.54,62,27.05,63.77,28.67Z"/><path class="cls-77" d="M62.65,17.9l.42-.3s-1.76-2.43-4-1.52l.19.48C61.13,15.8,62.63,17.88,62.65,17.9Z"/><path class="cls-77" d="M65.76,31.53c2.36-.21,2.45-2,3-3.7a5.87,5.87,0,0,1,.59-1.59,2.92,2.92,0,0,1,2.63-1.39l-.08-.51a3.14,3.14,0,0,0-3,1.65,10.55,10.55,0,0,0-.62,1.68c-.52,1.68-1.49,3.6-3.51,3.79Z"/><path class="cls-77" d="M64.92,22.73l.52-.05c-.18-2,3.12-2.42,3.15-2.43l-.06-.51C68.37,19.76,64.7,20.24,64.92,22.73Z"/><path class="cls-77" d="M66.05,20.92l.44-.27c-.94-1.54.57-3.53.58-3.55l-.41-.32C66.59,16.87,64.92,19.08,66.05,20.92Z"/><path class="cls-77" d="M50.76,23.09l.47-.22A3.75,3.75,0,0,0,49.54,21l-.64-.45c-1.28-.92-.4-2.68-.38-2.7l-.47-.24A2.65,2.65,0,0,0,48.6,21l.65.45A3.26,3.26,0,0,1,50.76,23.09Z"/><path class="cls-77" d="M47.5,21.45A2.79,2.79,0,0,0,48.9,21l-.3-.43a2,2,0,0,1-1.37.33c-.33-.07-.85-.71-1.06-1.08l0,.82c.29.5.42.66.9.77A1.58,1.58,0,0,0,47.5,21.45Z"/><path class="cls-77" d="M58,28.83c.06,0,.1,0,.15-.09s0-.37-.09-.45h0c-.11-.1-.42-.37-1.23-1.12A1.48,1.48,0,0,1,56.21,26c.08-.93,1.2-1.68,1.21-1.69l-.28-.43A3.29,3.29,0,0,0,55.69,26a2,2,0,0,0,.74,1.61c.65.6,1,.93,1.24,1.11l0,0h0A.45.45,0,0,0,58,28.83Z"/><path class="cls-77" d="M53.69,27.12a1.62,1.62,0,0,1,1-.79,1.7,1.7,0,0,1,1.13.21l.28-.44a2.22,2.22,0,0,0-1.53-.28,2.14,2.14,0,0,0-1.33,1Z"/><path class="cls-77" d="M56.73,21a4.2,4.2,0,0,1,2.41-1.3h0a1.41,1.41,0,0,1,1.09.51l.39-.35a1.94,1.94,0,0,0-1.47-.68,4.69,4.69,0,0,0-2.81,1.47Z"/><path class="cls-77" d="M52.23,19.82c1.42-1.36.1-3.72,0-3.82l-.45.26s1.18,2.11,0,3.19Z"/><path class="cls-77" d="M67.4,30.17l.37-.37a2.36,2.36,0,0,0-2.72-.32l.24.46A1.81,1.81,0,0,1,67.4,30.17Z"/><path class="cls-77" d="M61.22,27.1c.46-.87,1.87-.73,1.88-.72l.06-.52c-.07,0-1.77-.18-2.4,1Z"/><g class="cls-80"><path class="cls-8" d="M66.84,27.93a1.76,1.76,0,1,0,1.75-1.75A1.76,1.76,0,0,0,66.84,27.93Z"/><path class="cls-81" d="M67.05,28A1.55,1.55,0,1,0,68.6,26.4,1.55,1.55,0,0,0,67.05,28Z"/><path class="cls-82" d="M67.27,28a1.34,1.34,0,1,0,1.33-1.34A1.34,1.34,0,0,0,67.27,28Z"/><path class="cls-83" d="M67.48,28a1.13,1.13,0,1,0,1.13-1.13A1.13,1.13,0,0,0,67.48,28Z"/><path class="cls-84" d="M67.69,28a.93.93,0,1,0,.92-.92A.92.92,0,0,0,67.69,28Z"/><path class="cls-85" d="M67.91,28a.71.71,0,1,0,.71-.71A.71.71,0,0,0,67.91,28Z"/><path class="cls-86" d="M68.12,28a.51.51,0,1,0,.5-.51A.51.51,0,0,0,68.12,28Z"/></g><g class="cls-80"><path class="cls-8" d="M47.76,20.92a1.76,1.76,0,1,0,1.75-1.76A1.75,1.75,0,0,0,47.76,20.92Z"/><path class="cls-81" d="M48,20.94a1.55,1.55,0,1,0,1.55-1.55A1.54,1.54,0,0,0,48,20.94Z"/><path class="cls-82" d="M48.18,21a1.34,1.34,0,1,0,1.34-1.33A1.34,1.34,0,0,0,48.18,21Z"/><path class="cls-83" d="M48.4,21a1.13,1.13,0,1,0,1.13-1.13A1.13,1.13,0,0,0,48.4,21Z"/><path class="cls-84" d="M48.61,21a.92.92,0,1,0,.92-.92A.92.92,0,0,0,48.61,21Z"/><path class="cls-85" d="M48.83,21a.71.71,0,1,0,1.42,0,.71.71,0,1,0-1.42,0Z"/><path class="cls-86" d="M49,21a.5.5,0,0,0,.5.51.51.51,0,0,0,.51-.51.5.5,0,0,0-.51-.5A.5.5,0,0,0,49,21Z"/></g><g class="cls-80"><circle class="cls-8" cx="56.46" cy="19.82" r="1.75"/><path class="cls-81" d="M54.92,19.84a1.55,1.55,0,1,0,1.54-1.55A1.55,1.55,0,0,0,54.92,19.84Z"/><path class="cls-82" d="M55.13,19.86a1.34,1.34,0,0,0,2.68,0,1.34,1.34,0,0,0-2.68,0Z"/><path class="cls-83" d="M55.34,19.87a1.13,1.13,0,1,0,1.13-1.12A1.13,1.13,0,0,0,55.34,19.87Z"/><path class="cls-84" d="M55.56,19.89a.92.92,0,1,0,.92-.92A.92.92,0,0,0,55.56,19.89Z"/><path class="cls-85" d="M55.77,19.91a.71.71,0,0,0,.71.71.71.71,0,1,0,0-1.42A.71.71,0,0,0,55.77,19.91Z"/><path class="cls-86" d="M56,19.93a.5.5,0,0,0,.5.5.51.51,0,1,0-.5-.5Z"/></g><g class="cls-80"><path class="cls-8" d="M63.6,11.29a1.76,1.76,0,1,0,1.76-1.75A1.76,1.76,0,0,0,63.6,11.29Z"/><path class="cls-81" d="M63.82,11.31a1.55,1.55,0,1,0,1.54-1.55A1.55,1.55,0,0,0,63.82,11.31Z"/><path class="cls-82" d="M64,11.33A1.34,1.34,0,1,0,65.37,10,1.34,1.34,0,0,0,64,11.33Z"/><path class="cls-83" d="M64.24,11.34a1.13,1.13,0,1,0,1.13-1.13A1.13,1.13,0,0,0,64.24,11.34Z"/><path class="cls-84" d="M64.46,11.36a.92.92,0,1,0,.92-.92A.92.92,0,0,0,64.46,11.36Z"/><path class="cls-85" d="M64.67,11.38a.71.71,0,0,0,.71.71.71.71,0,1,0,0-1.42A.71.71,0,0,0,64.67,11.38Z"/><path class="cls-86" d="M64.88,11.4a.51.51,0,1,0,.51-.51A.51.51,0,0,0,64.88,11.4Z"/></g><g class="cls-80"><path class="cls-8" d="M70.31,16.24a1.76,1.76,0,1,0,1.76-1.76A1.76,1.76,0,0,0,70.31,16.24Z"/><circle class="cls-81" cx="72.07" cy="16.25" r="1.55"/><path class="cls-82" d="M70.74,16.27a1.34,1.34,0,1,0,1.34-1.34A1.34,1.34,0,0,0,70.74,16.27Z"/><path class="cls-83" d="M71,16.29a1.13,1.13,0,1,0,1.13-1.13A1.14,1.14,0,0,0,71,16.29Z"/><path class="cls-84" d="M71.17,16.31a.92.92,0,1,0,.92-.92A.92.92,0,0,0,71.17,16.31Z"/><path class="cls-85" d="M71.38,16.32a.71.71,0,0,0,.71.72.72.72,0,1,0,0-1.43A.71.71,0,0,0,71.38,16.32Z"/><path class="cls-86" d="M71.59,16.34a.51.51,0,1,0,.51-.5A.5.5,0,0,0,71.59,16.34Z"/></g><path class="cls-3" d="M122.3,76.66c4.1,2.37,4.12,6.22,0,8.59a16.35,16.35,0,0,1-14.83,0c-4.11-2.37-4.13-6.22,0-8.59A16.29,16.29,0,0,1,122.3,76.66Z"/><path class="cls-87" d="M97,42.55S89.12,38.84,88,30.41l-.57,5.9s0,6.84,9.66,10.53Z"/><path class="cls-87" d="M106.39,23.59v2s5.22-1.79,14.69-1V22.89A36,36,0,0,0,106.39,23.59Z"/><path class="cls-88" d="M87.68,46.81a22.26,22.26,0,0,1,8.12-8.14,38.18,38.18,0,0,1,12.87-4.5l-.06-7.88a35.68,35.68,0,0,0-12.54,3.77C88.66,34.06,86.79,39.77,87.68,46.81Z"/><path class="cls-88" d="M144.93,47.67c1.84-6.84-.12-12.59-7.36-17.08a34.06,34.06,0,0,0-9-3.79l-.27,8.61a34.06,34.06,0,0,1,9,3.79A21.37,21.37,0,0,1,144.93,47.67Z"/><path class="cls-88" d="M125.92,35l.27-8.61a47.35,47.35,0,0,0-15.07-.31l-.27,8.6A47.35,47.35,0,0,1,125.92,35Z"/><path class="cls-88" d="M145.24,39.77c-1.52,3.09-5.75,7.66-10.08,10.11a38.74,38.74,0,0,1-6.63,2.95l.08,10.35a39.62,39.62,0,0,0,6.64-2.94C144.34,55.09,145.93,47.67,145.24,39.77Z"/><path class="cls-89" d="M101.09,26.63S94,28.56,90.77,32.7V28.79s2.7-2.76,10.32-5.64Z"/><path class="cls-89" d="M124.9,21.4v3.82s7.34.27,16.35,6.38V26.8S135.64,22.94,124.9,21.4Z"/><path class="cls-90" d="M114,81.76s.84,1.35-.33,1.67-.81-.41-3.35.23-2.24-.78-2.18-1.08,1.16-.7,1.71-.84,2.77-.66,2.77-.66l1.35.25Z"/><path class="cls-91" d="M110.35,32.82a11.68,11.68,0,0,0-.38-2.1,3.72,3.72,0,0,0-2.25-2c-.7-.12-.31.62.34,1.45a1.47,1.47,0,0,1,.5,1.39,5.49,5.49,0,0,0,.22,1.88C108.92,33.85,110.35,32.82,110.35,32.82Z"/><path class="cls-92" d="M108.74,33.37a6.19,6.19,0,0,0-.54-1.76c-.4-.57.16-1.07-.14-1.44-.5-.65-.84-1.26-.65-1.42.35.52,1.19.35,1.63,1.91a10.19,10.19,0,0,1,.18,2.68C108.89,33.45,108.8,33.53,108.74,33.37Z"/><path class="cls-91" d="M109.28,33.3s-1.22-1.59-1.53-2.12-.28-1-.14-1,1.12,1.58,1.55,1.09C109.39,31,109.16,33,109.28,33.3Z"/><path class="cls-93" d="M121.41,40.75s-.15,2.22-3,1.45S110.61,39.37,110,38a29.63,29.63,0,0,1-1.31-5s1.37.45,1.88-.66l2.21,4.5S121.56,39.21,121.41,40.75Z"/><path class="cls-93" d="M121.41,40.75c.15-1.54-8.66-3.87-8.66-3.87l-2.21-4.5a1.2,1.2,0,0,1-.81.69,23.32,23.32,0,0,0,1.14,4.17c.65,1.35,5.7,3.4,8.5,4.17a2.93,2.93,0,0,0,1.83,0A1.91,1.91,0,0,0,121.41,40.75Z"/><path class="cls-90" d="M116.89,76.7s-1.06.16-.8.76,1.46,1.53,1.62,1.92,1.15,1.75,1.47,1.62,1.15.07,1-1.5A3.42,3.42,0,0,0,116.89,76.7Z"/><path class="cls-93" d="M120.12,56.12s0,9.05,0,10.07,1.14,9,.45,12.56c0,0-2,2-3.72,0,0,0-.56-10-1.06-12.32s-.34-9.22-.34-9.22Z"/><path class="cls-93" d="M116.66,57.4s-.46,5.85-.92,11.65c0,0-.29,11.51-.56,13.16,0,0-3.72.92-4.08-.83,0,0,.09-10.12,0-12.24s-.32-8,.52-11.43S116.66,57.4,116.66,57.4Z"/><path class="cls-94" d="M115.18,82.21c.27-1.65.56-13.16.56-13.16.31-3.91.62-7.83.78-10l-2.29.57a30,30,0,0,0-1.4,10.84c.2,5,.28,10,.31,12A9.44,9.44,0,0,0,115.18,82.21Z"/><path class="cls-94" d="M120.59,78.75c.69-3.51-.45-11.54-.45-12.56s0-9.23,0-10l-2,1.53s-.64,6.48,0,10.17c.57,3.35.2,9.88.48,11.75A3.15,3.15,0,0,0,120.59,78.75Z"/><path class="cls-94" d="M120.77,40s1.77.89.77,3.91-1.72,5-1.66,6.1a49.05,49.05,0,0,0,.71,5.69s.3,2.49-5.39,4c0,0-4.68.47-3.91-2.61a39.94,39.94,0,0,0,.94-9.24c-.11-1.18-.82-3.55,2.14-5.15S118.87,39.85,120.77,40Z"/><path class="cls-93" d="M119.46,40.1c-1.4.34-2.83,1.32-5.09,2.54-3,1.6-2.25,4-2.14,5.15a39.94,39.94,0,0,1-.94,9.24c-.62,2.48,2.27,2.66,3.44,2.63C120,56,119.49,46.63,119.46,40.1Z"/><path class="cls-91" d="M118.65,38.6a5.6,5.6,0,0,0,.38,2.77c.53,1-3.47,1.84-3.57,1a3.85,3.85,0,0,0-.21-3.3C114.75,38.12,118.65,38.6,118.65,38.6Z"/><path class="cls-95" d="M119,41.42a5,5,0,0,1-.4-2.46l-2.93,1.45h0c.1,0,2.08.52,2.5,1.94C118.8,42.12,119.21,41.78,119,41.42Z"/><path class="cls-91" d="M114.43,34.09a7.22,7.22,0,0,0-.49,2.87c.13,1.43-.08,1.72,0,2.35a1.52,1.52,0,0,0,.33.94,2.51,2.51,0,0,0,2.59.13c1.49-.54,3-2.59,2.42-4.43S116.68,32.58,114.43,34.09Z"/><path class="cls-92" d="M119.21,37.94a25.43,25.43,0,0,0-2.07-3.76,4.81,4.81,0,0,0-1-.7,3.33,3.33,0,0,0-1.67.61,9.67,9.67,0,0,0-.31,1c.36.4,1.09.85,1.19,1.19a4.34,4.34,0,0,1-.12,2.53c-.24.53.72,1.31.52,1.78a.13.13,0,0,0,0,.06,4,4,0,0,0,1.16-.26A4.28,4.28,0,0,0,119.21,37.94Z"/><path class="cls-96" d="M112.82,32.49c-.48-.29,1,2.29,2.26,2.92.78.39.71,1.65.68,1.89a5.89,5.89,0,0,0-.18,1.43c.19.26.8-.56,1.09-.5.74.14.45.83-.22,1.56s1.17,1.09,2,.45c.46-.34.64-.54,1.24-1.75.89-1.76,1.13-4.38-1.15-5S114.12,33.3,112.82,32.49Z"/><path class="cls-97" d="M118.49,40.24c.46-.34.64-.54,1.24-1.75.89-1.76,1.19-3.88-.89-5s-3.63.06-6-1a7,7,0,0,0,4.12,2.74c1.1.21,1.21.64,1.16,1.83s.25,2.65-1.67,3.3A1.92,1.92,0,0,0,118.49,40.24Z"/><path class="cls-98" d="M115.69,41.79l-1.37.87s4.12,1.39,5.31-.6a1.16,1.16,0,0,0-.74-1.41S118.75,42.28,115.69,41.79Z"/><path class="cls-99" d="M101.28,41.74s-1-1.15-1-1.54-.5-.57-.5-.1a2.25,2.25,0,0,0,.26.94s-1.35-1.19-1.1-1.68-1.11.87-.79,1.7.52,1.78,2.73,2.08A1.7,1.7,0,0,0,101.28,41.74Z"/><path class="cls-93" d="M114.54,43.74s.85,2-1.89,2.56-7.43,1.37-8.59.5-4-3.64-4-3.64,1.34-.41,1.28-1.59l4.42,2.74S114,42.36,114.54,43.74Z"/><path class="cls-93" d="M114.54,43.74c-.58-1.38-8.83.57-8.83.57l-4.42-2.74a1.3,1.3,0,0,1-.14.67,34.89,34.89,0,0,0,4.61,3.18c.84.27,7.36-.75,8.9-1A2,2,0,0,0,114.54,43.74Z"/><path class="cls-88" d="M87.81,39.77c-1.11,8.86.78,15.88,10,21a41.58,41.58,0,0,0,9,3.6V54a42.08,42.08,0,0,1-9-3.59A28.23,28.23,0,0,1,87.81,39.77Z"/><path class="cls-100" d="M126,64.11V53.74a61.85,61.85,0,0,1-17.33,1.12V65.2A61.5,61.5,0,0,0,126,64.11Z"/></g></g></g></svg>