<svg xmlns="http://www.w3.org/2000/svg" xmlns:xlink="http://www.w3.org/1999/xlink" viewBox="0 0 98.02 107.94"><defs><style>.cls-1{isolation:isolate;}.cls-2{opacity:0.2;}.cls-3{fill:#2afbfe;}.cls-18,.cls-4{mix-blend-mode:overlay;}.cls-5{fill:#fff;}.cls-29,.cls-5{opacity:0;}.cls-6{fill:#dcfeff;}.cls-27,.cls-6{opacity:0.17;}.cls-7{fill:#b8feff;}.cls-25,.cls-7{opacity:0.33;}.cls-8{fill:#95fdff;}.cls-17,.cls-23,.cls-8{opacity:0.5;}.cls-9{fill:#71fcfe;}.cls-21,.cls-9{opacity:0.67;}.cls-10{fill:#4efcfe;}.cls-10,.cls-19{opacity:0.83;}.cls-11{fill:#8fedff;}.cls-12{fill:#c5f9ff;}.cls-13{fill:url(#linear-gradient);}.cls-14{fill:#53d5ea;}.cls-15{fill:#6afce5;}.cls-16,.cls-47{opacity:0.1;}.cls-17{fill:#d4fcf4;}.cls-18{fill:#0edbfc;}.cls-20{fill:#36e1fc;}.cls-22{fill:#5de6fc;}.cls-24{fill:#85ecfd;}.cls-26{fill:#adf2fd;}.cls-28{fill:#d4f7fd;}.cls-30{fill:#fcfdfd;}.cls-31{fill:#fdcde7;}.cls-32{fill:#dad5eb;}.cls-33{fill:#b7dcef;}.cls-34{fill:#94e4f3;}.cls-35{fill:#70ecf6;}.cls-36{fill:#4df3fa;}.cls-37{opacity:0.85;}.cls-38{fill:#4afcfe;opacity:0.85;}.cls-39{opacity:0.7;}.cls-40{fill:#6afcfe;opacity:0.7;}.cls-41{opacity:0.55;}.cls-42{fill:#8bfdff;opacity:0.55;}.cls-43{opacity:0.4;}.cls-44{fill:#abfeff;opacity:0.4;}.cls-45{opacity:0.25;}.cls-46{fill:#cbfeff;opacity:0.25;}.cls-48{fill:#ebffff;opacity:0.1;}.cls-49{fill:#460689;}.cls-50{fill:#efb185;}.cls-51{fill:#111114;}.cls-52{fill:#43008d;}.cls-53{fill:#37007f;}.cls-54{fill:#5d0ca6;}.cls-55{fill:#feffff;}.cls-56{fill:#dd9569;}.cls-57{fill:#f2b78f;}.cls-58{fill:#e6a376;}.cls-59{fill:#9a45f4;}.cls-60{fill:#8c2ddf;}.cls-61{fill:#b4b9bc;}.cls-62{fill:#7d8183;}.cls-63{fill:#e3e5e5;}.cls-64{fill:#bdbbbb;}.cls-65{fill:#d2d0d0;}.cls-66{fill:#d5dfe6;}.cls-67{fill:#e9f0f4;}</style><linearGradient id="linear-gradient" x1="28.4" y1="63.13" x2="69.96" y2="63.13" gradientUnits="userSpaceOnUse"><stop offset="0" stop-color="#2f95e4"/><stop offset="1" stop-color="#7133de"/></linearGradient></defs><g class="cls-1"><g id="Layer_2" data-name="Layer 2"><g id="Layer_1-2" data-name="Layer 1"><g class="cls-2"><path d="M72.8,65.45c12.93,7.46,13,19.56.16,27s-33.73,7.47-46.66,0-13-19.56-.16-27S59.87,58,72.8,65.45Z"/></g><g class="cls-1"><path class="cls-3" d="M91,74c3.58,2.06,3.6,5.41,0,7.47l-35.4,20.57a14.26,14.26,0,0,1-12.91,0L7.16,81.52c-3.57-2.06-3.59-5.42,0-7.49L42.51,53.47a14.26,14.26,0,0,1,12.91,0Zm-36,27.68L90.47,81.16c3.21-1.87,3.19-4.9,0-6.77L54.81,53.83a12.86,12.86,0,0,0-11.68,0L7.74,74.39c-3.21,1.87-3.2,4.91,0,6.77L43.4,101.73a12.89,12.89,0,0,0,11.68,0Z"/><path class="cls-3" d="M73.28,75.83c2.17,1.25,2.17,3.28,0,4.53L52.55,92.42a8.64,8.64,0,0,1-7.83,0L23.83,80.36c-2.16-1.25-2.17-3.28,0-4.53L44.56,63.77a8.61,8.61,0,0,1,7.83,0ZM51.93,92.07,72.69,80c1.81-1.06,1.8-2.77,0-3.82L51.77,64.12a7.29,7.29,0,0,0-6.59,0L24.42,76.19c-1.81,1-1.8,2.76,0,3.82L45.33,92.07a7.31,7.31,0,0,0,6.6,0Z"/><path class="cls-3" d="M83.12,74.71c2.92,1.69,2.94,4.44,0,6.13L54.5,97.49a11.71,11.71,0,0,1-10.57,0L15.09,80.84c-2.92-1.69-2.94-4.44,0-6.13L43.71,58.06a11.71,11.71,0,0,1,10.57,0ZM53.89,97.13,82.54,80.48c2.57-1.49,2.55-3.92,0-5.41L53.67,58.42a10.32,10.32,0,0,0-9.34,0L15.67,75.07c-2.56,1.49-2.55,3.92,0,5.41L44.54,97.13a10.34,10.34,0,0,0,9.35,0Z"/></g><path class="cls-3" d="M6.71,77a1.08,1.08,0,0,1,0,2,3.94,3.94,0,0,1-3.54,0c-.87-.5-1-1.28-.31-1.85a2.23,2.23,0,0,1,.3-.2,2,2,0,0,1,.36-.18A4,4,0,0,1,6.71,77Z"/><g class="cls-4"><path class="cls-5" d="M0,77.78a5,5,0,1,0,5-5A4.95,4.95,0,0,0,0,77.78Z"/><path class="cls-6" d="M.6,77.83A4.36,4.36,0,1,0,5,73.47,4.36,4.36,0,0,0,.6,77.83Z"/><path class="cls-7" d="M1.2,77.87A3.78,3.78,0,1,0,5,74.1,3.77,3.77,0,0,0,1.2,77.87Z"/><path class="cls-8" d="M1.81,77.92A3.19,3.19,0,1,0,5,74.74,3.18,3.18,0,0,0,1.81,77.92Z"/><path class="cls-9" d="M2.41,78A2.6,2.6,0,1,0,5,75.37,2.6,2.6,0,0,0,2.41,78Z"/><path class="cls-10" d="M3,78a2,2,0,1,0,2-2A2,2,0,0,0,3,78Z"/><path class="cls-3" d="M3.61,78.07A1.43,1.43,0,1,0,5,76.65,1.43,1.43,0,0,0,3.61,78.07Z"/></g><path class="cls-3" d="M50.87,102.16a1.09,1.09,0,0,1,0,2.06,3.91,3.91,0,0,1-3.54,0c-.87-.5-1-1.28-.32-1.84l.3-.21.37-.17A4,4,0,0,1,50.87,102.16Z"/><g class="cls-4"><path class="cls-5" d="M44.16,103a4.95,4.95,0,1,0,4.94-4.94A4.95,4.95,0,0,0,44.16,103Z"/><path class="cls-6" d="M44.76,103a4.36,4.36,0,1,0,4.36-4.36A4.36,4.36,0,0,0,44.76,103Z"/><path class="cls-7" d="M45.36,103.09a3.78,3.78,0,1,0,3.77-3.77A3.77,3.77,0,0,0,45.36,103.09Z"/><path class="cls-8" d="M46,103.14A3.19,3.19,0,1,0,49.14,100,3.18,3.18,0,0,0,46,103.14Z"/><path class="cls-9" d="M46.57,103.19a2.6,2.6,0,1,0,2.59-2.6A2.59,2.59,0,0,0,46.57,103.19Z"/><path class="cls-10" d="M47.17,103.24a2,2,0,1,0,2-2A2,2,0,0,0,47.17,103.24Z"/><path class="cls-3" d="M47.77,103.29a1.42,1.42,0,0,0,1.42,1.42,1.43,1.43,0,1,0-1.42-1.42Z"/></g><path class="cls-3" d="M94.83,76.51a1.09,1.09,0,0,1,0,2.06,3.89,3.89,0,0,1-3.53,0c-.87-.5-1-1.28-.32-1.84a2.59,2.59,0,0,1,.3-.21,2.37,2.37,0,0,1,.36-.17A3.94,3.94,0,0,1,94.83,76.51Z"/><g class="cls-4"><path class="cls-5" d="M88.12,77.34a4.95,4.95,0,1,0,4.95-5A4.95,4.95,0,0,0,88.12,77.34Z"/><path class="cls-6" d="M88.72,77.39A4.36,4.36,0,1,0,93.08,73,4.36,4.36,0,0,0,88.72,77.39Z"/><path class="cls-7" d="M89.33,77.44a3.77,3.77,0,1,0,3.77-3.77A3.77,3.77,0,0,0,89.33,77.44Z"/><path class="cls-8" d="M89.93,77.49a3.19,3.19,0,1,0,3.18-3.19A3.18,3.18,0,0,0,89.93,77.49Z"/><path class="cls-9" d="M90.53,77.54a2.6,2.6,0,1,0,2.6-2.6A2.59,2.59,0,0,0,90.53,77.54Z"/><path class="cls-10" d="M91.13,77.59a2,2,0,1,0,2-2A2,2,0,0,0,91.13,77.59Z"/><path class="cls-3" d="M91.74,77.64a1.41,1.41,0,0,0,1.41,1.41,1.42,1.42,0,1,0-1.41-1.41Z"/></g><path class="cls-3" d="M50.77,51.81a1.09,1.09,0,0,1,0,2.06,3.89,3.89,0,0,1-3.53,0c-.88-.5-1-1.27-.32-1.84l.3-.21.36-.17A4,4,0,0,1,50.77,51.81Z"/><g class="cls-4"><path class="cls-5" d="M44.06,52.64A5,5,0,1,0,49,47.7,4.95,4.95,0,0,0,44.06,52.64Z"/><path class="cls-6" d="M44.66,52.69A4.36,4.36,0,1,0,49,48.33,4.36,4.36,0,0,0,44.66,52.69Z"/><path class="cls-7" d="M45.27,52.74A3.77,3.77,0,1,0,49,49,3.77,3.77,0,0,0,45.27,52.74Z"/><path class="cls-8" d="M45.87,52.79a3.19,3.19,0,1,0,3.18-3.18A3.18,3.18,0,0,0,45.87,52.79Z"/><path class="cls-9" d="M46.47,52.84a2.6,2.6,0,1,0,2.6-2.6A2.6,2.6,0,0,0,46.47,52.84Z"/><path class="cls-10" d="M47.07,52.89a2,2,0,1,0,2-2A2,2,0,0,0,47.07,52.89Z"/><path class="cls-3" d="M47.68,52.94a1.42,1.42,0,0,0,1.41,1.42,1.42,1.42,0,1,0,0-2.84A1.41,1.41,0,0,0,47.68,52.94Z"/></g><path class="cls-11" d="M77.85,63.8l0,.42c0,.13,0,.25,0,.38s0,.28-.07.42,0,.25-.08.37-.06.29-.1.43-.07.24-.11.36a3.45,3.45,0,0,1-.14.42c0,.12-.08.24-.13.36s-.12.29-.19.44a3.73,3.73,0,0,1-.16.35c-.07.15-.14.29-.22.43l-.19.35c-.1.17-.21.34-.32.51l-.19.29c-.13.19-.27.37-.41.56l-.17.23c-.23.29-.48.58-.74.86l-.2.21c-.21.22-.43.44-.65.65l-.31.28-.41.37-.39.32-.45.35-.42.31a5.85,5.85,0,0,1-.48.34l-.45.31-.51.32-.66.41c-.62.35-1.26.68-1.92,1l-.53.25c-.59.27-1.18.53-1.8.77l-.26.1c-.66.26-1.34.48-2,.7-.49.15-1,.29-1.48.42s-.73.21-1.1.3c-.52.13-1.06.23-1.59.34L57.78,79l-.49.08c-.64.1-1.29.19-1.94.27l-.6.07c-.76.09-1.52.15-2.29.19l-.45,0-1.53,0H48.89l-1.27,0c-.49,0-1,0-1.46-.08l-1.29-.1c-.49-.05-1-.1-1.44-.17l-1.25-.17c-.52-.08-1-.17-1.53-.27s-1-.19-1.55-.31l-.37-.08c-.73-.18-1.44-.37-2.14-.58L36,77.66c-.58-.18-1.15-.38-1.71-.58l-.5-.19c-.51-.19-1-.41-1.5-.63l-.75-.33c-.71-.34-1.41-.7-2.08-1.08-5.6-3.24-8.4-7.48-8.39-11.72L21,76c0,4.24,2.78,8.49,8.39,11.72.67.39,1.36.75,2.08,1.09.23.11.46.2.69.3.44.19.87.4,1.32.58l.24.08.46.17c.58.22,1.17.42,1.76.6l.59.19.4.12c.58.16,1.16.31,1.75.45l.35.08.87.2.72.12c.49.1,1,.18,1.48.26l.61.11.68.07,1.39.16.69.08.65,0,1.42.08.73,0h.58q.78,0,1.56,0h.77l.79,0,.42,0c.65,0,1.3-.08,1.94-.15l.38,0,.56-.07c.67-.08,1.33-.17,2-.28l.46-.07.24,0,.93-.2c.52-.11,1-.21,1.55-.33l1.12-.3c.49-.14,1-.27,1.46-.42l.31-.09c.59-.19,1.16-.4,1.73-.61l.24-.1c.62-.24,1.23-.5,1.82-.78l.52-.24c.66-.32,1.3-.65,1.92-1l.35-.2.29-.19.55-.35c.14-.09.28-.18.41-.28l.52-.36.39-.3.47-.36.38-.31.42-.38.16-.14.14-.13c.23-.22.44-.43.65-.65l.2-.21c.27-.29.51-.57.74-.86l0,0c.06-.07.1-.13.15-.2s.28-.37.4-.55l.2-.31c.11-.16.21-.33.31-.5l.09-.14c0-.06.06-.13.1-.2s.15-.29.22-.43.12-.24.17-.36l.18-.43a1.54,1.54,0,0,0,.08-.19,1.27,1.27,0,0,0,.06-.18c.05-.13.09-.27.14-.41s.07-.25.11-.37.07-.28.1-.41,0-.15,0-.23a.77.77,0,0,0,0-.15c0-.14,0-.28.07-.43s0-.25,0-.37l0-.43a2,2,0,0,0,0-.25v-.25q0-6.42,0-12.86C77.87,63.46,77.85,63.63,77.85,63.8Z"/><path class="cls-12" d="M69.48,51.58c11.13,6.42,11.19,16.84.14,23.27s-29.05,6.42-40.18,0S18.25,58,29.31,51.57,58.35,45.15,69.48,51.58Z"/><path class="cls-13" d="M63.82,54.62c8.14,4.7,8.19,12.32.1,17s-21.24,4.7-29.38,0-8.19-12.32-.1-17S55.68,49.92,63.82,54.62Z"/><path class="cls-14" d="M25.21,33C24.59,22.87,37.29,2.92,59.05,10.53c12.45,4.36,15.36,11.38,2.13,21,0,0,.14,5.4-10.24,4.55,0,0-6.68-.28-11.19,3.13C35,42.87,25.48,37.58,25.21,33Z"/><path class="cls-15" d="M65.18,15.78A13.57,13.57,0,0,0,57,12.07a44.54,44.54,0,0,0-5,.2c-3.86.29-8.55.45-12.38-1.17l1-.46c3.65,1.53,7.53,1.06,11.3.78a43.63,43.63,0,0,1,5.12-.2,14.17,14.17,0,0,1,8.71,4Z"/><path class="cls-15" d="M51,11.83l-.73-.12a2.65,2.65,0,0,0,0-.46c-.17-.3-1.61-1.34-5.34-1.93l1.37-.27c3.21.51,4.35.94,4.78,1.9A1,1,0,0,1,51,11.83Z"/><path class="cls-15" d="M39.77,18.23l-.84-.61A21.25,21.25,0,0,1,46,12c.44-.19.16-.06.61-.27l1.08.45-1.35.6A20.28,20.28,0,0,0,39.77,18.23Z"/><path class="cls-15" d="M27.53,23.38l.47-.9a20.06,20.06,0,0,0,3.43-1,4.87,4.87,0,0,0,2.06-1.72,5.62,5.62,0,0,1,3-2.23,3.87,3.87,0,0,1,4.32,1.57l-.73.45a3,3,0,0,0-3.36-1.2,4.79,4.79,0,0,0-2.55,1.95,5.55,5.55,0,0,1-2.43,2A22.79,22.79,0,0,1,27.53,23.38Z"/><path class="cls-15" d="M32.12,21.58c-2.17-4.19,4-7.56,4.26-7.7l.41.75c-.06,0-5.7,3.11-3.91,6.56Z"/><path class="cls-15" d="M28.9,38.2c-.17-.16-3.92-3.29-2.25-6.66a12.09,12.09,0,0,1,2.63-3.35c.91-.88,1.57-1.51,1.54-2.4,0-1.42,1.29-2.78,2.61-3.39a3,3,0,0,1,3.33.24l-.57.64a2.25,2.25,0,0,0-2.4-.11,3.36,3.36,0,0,0-2.11,2.6c0,1.26-.82,2.08-1.8,3a11.11,11.11,0,0,0-2.46,3.12C26,34.71,30.31,39,30.35,39Z"/><path class="cls-15" d="M25.8,27.94l.36-1.2c2.12-1.75,4.94-.6,5.09-.53L31,27S27.3,25.8,25.8,27.94Z"/><path class="cls-15" d="M31.58,36.63c-3.61-3.36-3.5-6.82-3.49-6.85L29,29.6h0l-.1.49A12.92,12.92,0,0,0,32,35.6Z"/><path class="cls-16" d="M39.75,39.26c4.51-3.41,11.19-3.13,11.19-3.13,10.38.85,10.24-4.55,10.24-4.55,8.46-6.19,10.31-11.28,7.3-15.3a30.76,30.76,0,0,0-6.09-2.81C40.64,5.85,27.93,25.8,28.55,35.94a5.05,5.05,0,0,0,1.07,2.63C32.82,40.49,37,41.31,39.75,39.26Z"/><path class="cls-15" d="M31.6,37.48C31,27.34,41.13,8.32,65.45,15c5.1,1.4,15.36,11.37,2.13,21,0,0,.14,5.41-10.24,4.55,0,0-6.68-.28-11.19,3.13C41.37,47.35,31.88,42.05,31.6,37.48Z"/><path class="cls-14" d="M68.34,35.48l-.76.57s.89-2.54.06-3.85c-.43-.69-1.4-1-2.87-1l-.62,0c-3.46.14-5.74.23-6.87-1.12-.74-.88-.87-2.24-.41-4.43.84-4,.64-6.68-.59-8.09-.82-.94-2.17-1.35-4-1.21-3.74.29-5.12,2.76-5.66,10.2-.12,1.53-1.49,3.18-3.5,4.19-1.58.79-5,2.76-10.4-.67l.28-.82c5,3.2,8.29,1.45,9.73.73,2-1,3-2.48,3-3.49.51-6.85,1.69-10.63,6.45-11,2.12-.16,3.71.34,4.73,1.5,1.43,1.64,1.69,4.53.78,8.83-.4,1.87-.32,3.05.22,3.71.87,1,3.1.93,6.19.81l.62,0c1.79-.06,3,.39,3.63,1.36A3.86,3.86,0,0,1,68.34,35.48Z"/><path class="cls-14" d="M54.6,36.08,53.75,36c.57-5.91,8.29-5.53,8.36-5.52l0,.85C61.78,31.31,55.09,31,54.6,36.08Z"/><path class="cls-14" d="M58,24.1l-.84-.16c0-.08,1.52-7.18,8.32-6.85l-.05.85C59.37,17.63,58.08,23.84,58,24.1Z"/><path class="cls-14" d="M66,22.43c-1-3.28-4.91-3.35-5-3.35v-.85s4.61.07,5.75,4Z"/><path class="cls-14" d="M40.58,37.85l-.31-.79c8.26-3.23,5.67-10.6,5.56-10.91l.8-.3C46.66,25.94,49.61,34.33,40.58,37.85Z"/><path class="cls-14" d="M45.19,40.22l-.58-.63c2.4-2.2.56-5.89.54-5.93l.76-.39C46,33.45,48.06,37.58,45.19,40.22Z"/><path class="cls-14" d="M47,22.56l-.69-.5s2.89-4,6.64-2.49l-.31.79C49.52,19.11,47.06,22.52,47,22.56Z"/><path class="cls-14" d="M41.93,44.93c-3.88-.36-4-3.35-4.87-6.08a9.44,9.44,0,0,0-1-2.61A4.77,4.77,0,0,0,31.78,34l.14-.85a5.17,5.17,0,0,1,4.93,2.72,16.28,16.28,0,0,1,1,2.76c.85,2.74,2.44,5.9,5.75,6.21Z"/><path class="cls-14" d="M43.3,30.47l-.84-.07c.28-3.26-5.13-4-5.18-4l.1-.84C37.64,25.61,43.66,26.4,43.3,30.47Z"/><path class="cls-14" d="M41.44,27.51l-.72-.44c1.55-2.53-.92-5.79-.95-5.83l.68-.52C40.57,20.88,43.31,24.49,41.44,27.51Z"/><path class="cls-14" d="M66.54,31.08l-.76-.37a6.07,6.07,0,0,1,2.76-3l1-.74c2.11-1.51.65-4.41.64-4.43l.75-.39c.64,1.23,1.26,4-.89,5.52L69,28.38A5.37,5.37,0,0,0,66.54,31.08Z"/><path class="cls-14" d="M71.89,28.39a4.54,4.54,0,0,1-2.3-.75l.49-.7a3.31,3.31,0,0,0,2.26.55c.53-.13,1.39-1.17,1.73-1.78L74,27.05c-.47.82-.69,1.09-1.47,1.27A2.7,2.7,0,0,1,71.89,28.39Z"/><path class="cls-14" d="M54.72,40.5c-.1,0-.16-.07-.24-.15-.29-.32,0-.62.15-.75v0c.19-.16.69-.61,2-1.84a2.38,2.38,0,0,0,.93-2c-.12-1.52-2-2.76-2-2.77l.47-.71c.09.06,2.21,1.48,2.37,3.41a3.23,3.23,0,0,1-1.21,2.65c-1.06,1-1.66,1.53-2,1.82l-.09.09h0A.82.82,0,0,1,54.72,40.5Z"/><path class="cls-14" d="M61.73,37.68a2.69,2.69,0,0,0-1.65-1.3,2.64,2.64,0,0,0-1.85.36L57.76,36a3.56,3.56,0,0,1,2.5-.47,3.48,3.48,0,0,1,2.19,1.68Z"/><path class="cls-14" d="M56.75,27.58s-2-2.14-4-2.14h0a2.3,2.3,0,0,0-1.79.85l-.64-.58a3.2,3.2,0,0,1,2.42-1.12c2.28,0,4.52,2.31,4.61,2.41Z"/><path class="cls-14" d="M64.13,25.71c-2.34-2.23-.17-6.1-.07-6.27l.74.43s-1.93,3.45-.08,5.23Z"/><path class="cls-14" d="M39.23,42.69l-.6-.61a3.91,3.91,0,0,1,4.45-.53l-.38.77A3,3,0,0,0,39.23,42.69Z"/><path class="cls-14" d="M49.38,37.66c-.76-1.43-3.07-1.2-3.09-1.19l-.1-.85c.12,0,2.91-.3,3.94,1.64Z"/><path class="cls-17" d="M31.6,37.48c.28,4.57,9.77,9.87,14.55,6.25,4.51-3.41,11.19-3.13,11.19-3.13,10.38.86,10.24-4.55,10.24-4.55,8.33-6.09,7.34-12.29,4.2-16.41C73.89,26.25,67,32,64.8,34.31c-2.37,2.6-5.25,2-8.88,1.62s-3.2,1.56-11.87,4.29c-7.19,2.27-11.25-2.93-12.43-4.78A17.48,17.48,0,0,0,31.6,37.48Z"/><g class="cls-4"><path class="cls-18" d="M61.37,58.43c6.53,3.31,6.57,8.69.08,12s-17,3.31-23.57,0-6.57-8.7-.08-12S54.84,55.11,61.37,58.43Z"/><g class="cls-19"><path class="cls-20" d="M64.46,49.56c8.24,3.93,8.29,10.29.1,14.22S43,67.7,34.79,63.78s-8.29-10.29-.1-14.22S56.21,45.63,64.46,49.56Z"/></g><g class="cls-21"><path class="cls-22" d="M67.54,40.69c10,4.54,10,11.89.12,16.43s-26,4.53-36,0-10-11.89-.11-16.43S57.58,36.16,67.54,40.69Z"/></g><g class="cls-23"><path class="cls-24" d="M70.63,31.83c11.68,5.14,11.74,13.49.14,18.63s-30.47,5.15-42.15,0S16.88,37,28.48,31.83,59,26.68,70.63,31.83Z"/></g><g class="cls-25"><path class="cls-26" d="M73.72,23c13.39,5.76,13.46,15.09.15,20.84s-34.95,5.76-48.34,0S12.07,28.72,25.37,23,60.32,17.21,73.72,23Z"/></g><g class="cls-27"><path class="cls-28" d="M76.8,14.1c15.11,6.36,15.19,16.68.18,23s-39.43,6.36-54.54,0-15.18-16.69-.17-23S61.7,7.73,76.8,14.1Z"/></g><g class="cls-29"><path class="cls-30" d="M79.89,5.23c16.82,7,16.91,18.28.2,25.26s-43.91,7-60.73,0S2.45,12.2,19.16,5.23,63.07-1.74,79.89,5.23Z"/></g></g><path class="cls-31" d="M80.37,17.51l-1.21,1a.2.2,0,0,1-.25,0l-1.22-1a.45.45,0,0,1,0-.61l1.21-1a.2.2,0,0,1,.25,0l1.22,1A.45.45,0,0,1,80.37,17.51Z"/><g class="cls-19"><path class="cls-31" d="M80.37,18.75l-1.21,1a.2.2,0,0,1-.25,0l-1.22-1a.45.45,0,0,1,0-.61l1.21-1a.2.2,0,0,1,.25,0l1.22,1A.45.45,0,0,1,80.37,18.75Z"/></g><g class="cls-21"><path class="cls-31" d="M80.37,20l-1.21,1a.2.2,0,0,1-.25,0l-1.22-1a.45.45,0,0,1,0-.61l1.21-1a.2.2,0,0,1,.25,0l1.22,1A.45.45,0,0,1,80.37,20Z"/></g><g class="cls-23"><path class="cls-31" d="M80.37,21.23l-1.21,1a.2.2,0,0,1-.25,0l-1.22-1a.45.45,0,0,1,0-.61l1.21-1a.2.2,0,0,1,.25,0l1.22,1A.45.45,0,0,1,80.37,21.23Z"/></g><g class="cls-25"><path class="cls-31" d="M80.37,22.47l-1.21,1a.18.18,0,0,1-.25,0l-1.22-1a.45.45,0,0,1,0-.61l1.21-1a.2.2,0,0,1,.25,0l1.22,1A.45.45,0,0,1,80.37,22.47Z"/></g><g class="cls-27"><path class="cls-31" d="M80.37,23.71l-1.21,1a.18.18,0,0,1-.25,0l-1.22-1a.45.45,0,0,1,0-.61l1.21-1a.2.2,0,0,1,.25,0l1.22,1A.45.45,0,0,1,80.37,23.71Z"/></g><g class="cls-29"><path class="cls-31" d="M80.37,25l-1.21,1a.18.18,0,0,1-.25,0l-1.22-1a.46.46,0,0,1,0-.62l1.21-1a.18.18,0,0,1,.25,0l1.22,1A.45.45,0,0,1,80.37,25Z"/></g><g class="cls-27"><path class="cls-32" d="M80.37,23.71l-1.21,1a.18.18,0,0,1-.25,0l-1.22-1a.45.45,0,0,1,0-.61l1.21-1a.2.2,0,0,1,.25,0l1.22,1A.45.45,0,0,1,80.37,23.71Z"/></g><g class="cls-25"><path class="cls-33" d="M80.37,22.47l-1.21,1a.18.18,0,0,1-.25,0l-1.22-1a.45.45,0,0,1,0-.61l1.21-1a.2.2,0,0,1,.25,0l1.22,1A.45.45,0,0,1,80.37,22.47Z"/></g><g class="cls-23"><path class="cls-34" d="M80.37,21.23l-1.21,1a.2.2,0,0,1-.25,0l-1.22-1a.45.45,0,0,1,0-.61l1.21-1a.2.2,0,0,1,.25,0l1.22,1A.45.45,0,0,1,80.37,21.23Z"/></g><g class="cls-21"><path class="cls-35" d="M80.37,20l-1.21,1a.2.2,0,0,1-.25,0l-1.22-1a.45.45,0,0,1,0-.61l1.21-1a.2.2,0,0,1,.25,0l1.22,1A.45.45,0,0,1,80.37,20Z"/></g><g class="cls-19"><path class="cls-36" d="M80.37,18.75l-1.21,1a.2.2,0,0,1-.25,0l-1.22-1a.45.45,0,0,1,0-.61l1.21-1a.2.2,0,0,1,.25,0l1.22,1A.45.45,0,0,1,80.37,18.75Z"/></g><path class="cls-3" d="M80.37,17.51l-1.21,1a.2.2,0,0,1-.25,0l-1.22-1a.45.45,0,0,1,0-.61l1.21-1a.2.2,0,0,1,.25,0l1.22,1A.45.45,0,0,1,80.37,17.51Z"/><g class="cls-37"><path class="cls-38" d="M80.37,18.73l-1.21,1a.2.2,0,0,1-.25,0l-1.22-1a.45.45,0,0,1,0-.61l1.21-1a.18.18,0,0,1,.25,0l1.22,1A.45.45,0,0,1,80.37,18.73Z"/></g><g class="cls-39"><path class="cls-40" d="M80.37,20l-1.21,1a.18.18,0,0,1-.25,0l-1.22-1a.45.45,0,0,1,0-.61l1.21-1a.18.18,0,0,1,.25,0l1.22,1A.45.45,0,0,1,80.37,20Z"/></g><g class="cls-41"><path class="cls-42" d="M80.37,21.18l-1.21,1a.18.18,0,0,1-.25,0l-1.22-1a.45.45,0,0,1,0-.61l1.21-1a.18.18,0,0,1,.25,0l1.22,1A.45.45,0,0,1,80.37,21.18Z"/></g><g class="cls-43"><path class="cls-44" d="M80.37,22.4l-1.21,1a.18.18,0,0,1-.25,0l-1.22-1a.45.45,0,0,1,0-.61l1.21-1a.2.2,0,0,1,.25,0l1.22,1A.45.45,0,0,1,80.37,22.4Z"/></g><g class="cls-45"><path class="cls-46" d="M80.37,23.62l-1.21,1a.2.2,0,0,1-.25,0l-1.22-1a.45.45,0,0,1,0-.61l1.21-1a.2.2,0,0,1,.25,0l1.22,1A.45.45,0,0,1,80.37,23.62Z"/></g><g class="cls-47"><path class="cls-48" d="M80.37,24.84l-1.21,1a.2.2,0,0,1-.25,0l-1.22-1a.45.45,0,0,1,0-.61l1.21-1a.2.2,0,0,1,.25,0l1.22,1A.45.45,0,0,1,80.37,24.84Z"/></g><path class="cls-31" d="M55.93,58.22l-1.21,1a.2.2,0,0,1-.25,0l-1.21-1a.44.44,0,0,1,0-.61l1.21-1a.2.2,0,0,1,.25,0l1.22,1A.45.45,0,0,1,55.93,58.22Z"/><g class="cls-19"><path class="cls-31" d="M55.93,59.46l-1.21,1a.18.18,0,0,1-.25,0l-1.21-1a.44.44,0,0,1,0-.61l1.21-1a.2.2,0,0,1,.25,0l1.22,1A.45.45,0,0,1,55.93,59.46Z"/></g><g class="cls-21"><path class="cls-31" d="M55.93,60.7l-1.21,1a.17.17,0,0,1-.25,0l-1.21-1a.44.44,0,0,1,0-.61l1.21-1a.2.2,0,0,1,.25,0l1.22,1A.45.45,0,0,1,55.93,60.7Z"/></g><g class="cls-23"><path class="cls-31" d="M55.93,61.94l-1.21,1a.17.17,0,0,1-.25,0l-1.21-1a.44.44,0,0,1,0-.61l1.21-1a.18.18,0,0,1,.25,0l1.22,1A.45.45,0,0,1,55.93,61.94Z"/></g><g class="cls-25"><path class="cls-31" d="M55.93,63.18l-1.21,1a.17.17,0,0,1-.25,0l-1.21-1a.44.44,0,0,1,0-.61l1.21-1a.18.18,0,0,1,.25,0l1.22,1A.45.45,0,0,1,55.93,63.18Z"/></g><g class="cls-27"><path class="cls-31" d="M55.93,64.41l-1.21,1a.2.2,0,0,1-.25,0l-1.21-1a.44.44,0,0,1,0-.61l1.21-1a.18.18,0,0,1,.25,0l1.22,1A.45.45,0,0,1,55.93,64.41Z"/></g><g class="cls-29"><path class="cls-31" d="M55.93,65.65l-1.21,1a.2.2,0,0,1-.25,0l-1.21-1a.44.44,0,0,1,0-.61l1.21-1a.2.2,0,0,1,.25,0l1.22,1A.45.45,0,0,1,55.93,65.65Z"/></g><g class="cls-27"><path class="cls-32" d="M55.93,64.41l-1.21,1a.2.2,0,0,1-.25,0l-1.21-1a.44.44,0,0,1,0-.61l1.21-1a.18.18,0,0,1,.25,0l1.22,1A.45.45,0,0,1,55.93,64.41Z"/></g><g class="cls-25"><path class="cls-33" d="M55.93,63.18l-1.21,1a.17.17,0,0,1-.25,0l-1.21-1a.44.44,0,0,1,0-.61l1.21-1a.18.18,0,0,1,.25,0l1.22,1A.45.45,0,0,1,55.93,63.18Z"/></g><g class="cls-23"><path class="cls-34" d="M55.93,61.94l-1.21,1a.17.17,0,0,1-.25,0l-1.21-1a.44.44,0,0,1,0-.61l1.21-1a.18.18,0,0,1,.25,0l1.22,1A.45.45,0,0,1,55.93,61.94Z"/></g><g class="cls-21"><path class="cls-35" d="M55.93,60.7l-1.21,1a.17.17,0,0,1-.25,0l-1.21-1a.44.44,0,0,1,0-.61l1.21-1a.2.2,0,0,1,.25,0l1.22,1A.45.45,0,0,1,55.93,60.7Z"/></g><g class="cls-19"><path class="cls-36" d="M55.93,59.46l-1.21,1a.18.18,0,0,1-.25,0l-1.21-1a.44.44,0,0,1,0-.61l1.21-1a.2.2,0,0,1,.25,0l1.22,1A.45.45,0,0,1,55.93,59.46Z"/></g><path class="cls-3" d="M55.93,58.22l-1.21,1a.2.2,0,0,1-.25,0l-1.21-1a.44.44,0,0,1,0-.61l1.21-1a.2.2,0,0,1,.25,0l1.22,1A.45.45,0,0,1,55.93,58.22Z"/><g class="cls-37"><path class="cls-38" d="M55.93,59.44l-1.21,1a.2.2,0,0,1-.25,0l-1.21-1a.44.44,0,0,1,0-.61l1.21-1a.2.2,0,0,1,.25,0l1.22,1A.45.45,0,0,1,55.93,59.44Z"/></g><g class="cls-39"><path class="cls-40" d="M55.93,60.66l-1.21,1a.2.2,0,0,1-.25,0l-1.21-1a.44.44,0,0,1,0-.61l1.21-1a.2.2,0,0,1,.25,0l1.22,1A.45.45,0,0,1,55.93,60.66Z"/></g><g class="cls-41"><path class="cls-42" d="M55.93,61.88l-1.21,1a.2.2,0,0,1-.25,0l-1.21-1a.44.44,0,0,1,0-.61l1.21-1a.18.18,0,0,1,.25,0l1.22,1A.45.45,0,0,1,55.93,61.88Z"/></g><g class="cls-43"><path class="cls-44" d="M55.93,63.11l-1.21,1a.17.17,0,0,1-.25,0l-1.21-1a.44.44,0,0,1,0-.61l1.21-1a.18.18,0,0,1,.25,0l1.22,1A.45.45,0,0,1,55.93,63.11Z"/></g><g class="cls-45"><path class="cls-46" d="M55.93,64.33l-1.21,1a.17.17,0,0,1-.25,0l-1.21-1a.44.44,0,0,1,0-.61l1.21-1a.18.18,0,0,1,.25,0l1.22,1A.45.45,0,0,1,55.93,64.33Z"/></g><g class="cls-47"><path class="cls-48" d="M55.93,65.55l-1.21,1a.18.18,0,0,1-.25,0l-1.21-1a.44.44,0,0,1,0-.61l1.21-1a.2.2,0,0,1,.25,0l1.22,1A.45.45,0,0,1,55.93,65.55Z"/></g><path class="cls-31" d="M22.45,17.32l-1.21,1a.18.18,0,0,1-.25,0l-1.22-1a.45.45,0,0,1,0-.61l1.21-1a.18.18,0,0,1,.25,0l1.22,1A.46.46,0,0,1,22.45,17.32Z"/><g class="cls-19"><path class="cls-31" d="M22.45,18.55l-1.21,1a.2.2,0,0,1-.25,0l-1.22-1a.45.45,0,0,1,0-.61l1.21-1a.18.18,0,0,1,.25,0l1.22,1A.45.45,0,0,1,22.45,18.55Z"/></g><g class="cls-21"><path class="cls-31" d="M22.45,19.79l-1.21,1a.2.2,0,0,1-.25,0l-1.22-1a.45.45,0,0,1,0-.61l1.21-1a.18.18,0,0,1,.25,0l1.22,1A.45.45,0,0,1,22.45,19.79Z"/></g><g class="cls-23"><path class="cls-31" d="M22.45,21l-1.21,1A.2.2,0,0,1,21,22l-1.22-1a.45.45,0,0,1,0-.61l1.21-1a.2.2,0,0,1,.25,0l1.22,1A.45.45,0,0,1,22.45,21Z"/></g><g class="cls-25"><path class="cls-31" d="M22.45,22.27l-1.21,1a.2.2,0,0,1-.25,0l-1.22-1a.45.45,0,0,1,0-.61l1.21-1a.2.2,0,0,1,.25,0l1.22,1A.45.45,0,0,1,22.45,22.27Z"/></g><g class="cls-27"><path class="cls-31" d="M22.45,23.51l-1.21,1a.2.2,0,0,1-.25,0l-1.22-1a.45.45,0,0,1,0-.61l1.21-1a.2.2,0,0,1,.25,0l1.22,1A.45.45,0,0,1,22.45,23.51Z"/></g><g class="cls-29"><path class="cls-31" d="M22.45,24.75l-1.21,1a.2.2,0,0,1-.25,0l-1.22-1a.45.45,0,0,1,0-.61l1.21-1a.2.2,0,0,1,.25,0l1.22,1A.45.45,0,0,1,22.45,24.75Z"/></g><g class="cls-27"><path class="cls-32" d="M22.45,23.51l-1.21,1a.2.2,0,0,1-.25,0l-1.22-1a.45.45,0,0,1,0-.61l1.21-1a.2.2,0,0,1,.25,0l1.22,1A.45.45,0,0,1,22.45,23.51Z"/></g><g class="cls-25"><path class="cls-33" d="M22.45,22.27l-1.21,1a.2.2,0,0,1-.25,0l-1.22-1a.45.45,0,0,1,0-.61l1.21-1a.2.2,0,0,1,.25,0l1.22,1A.45.45,0,0,1,22.45,22.27Z"/></g><g class="cls-23"><path class="cls-34" d="M22.45,21l-1.21,1A.2.2,0,0,1,21,22l-1.22-1a.45.45,0,0,1,0-.61l1.21-1a.2.2,0,0,1,.25,0l1.22,1A.45.45,0,0,1,22.45,21Z"/></g><g class="cls-21"><path class="cls-35" d="M22.45,19.79l-1.21,1a.2.2,0,0,1-.25,0l-1.22-1a.45.45,0,0,1,0-.61l1.21-1a.18.18,0,0,1,.25,0l1.22,1A.45.45,0,0,1,22.45,19.79Z"/></g><g class="cls-19"><path class="cls-36" d="M22.45,18.55l-1.21,1a.2.2,0,0,1-.25,0l-1.22-1a.45.45,0,0,1,0-.61l1.21-1a.18.18,0,0,1,.25,0l1.22,1A.45.45,0,0,1,22.45,18.55Z"/></g><path class="cls-3" d="M22.45,17.32l-1.21,1a.18.18,0,0,1-.25,0l-1.22-1a.45.45,0,0,1,0-.61l1.21-1a.18.18,0,0,1,.25,0l1.22,1A.46.46,0,0,1,22.45,17.32Z"/><g class="cls-37"><path class="cls-38" d="M22.45,18.54l-1.21,1a.18.18,0,0,1-.25,0l-1.22-1a.45.45,0,0,1,0-.61l1.21-1a.2.2,0,0,1,.25,0l1.22,1A.45.45,0,0,1,22.45,18.54Z"/></g><g class="cls-39"><path class="cls-40" d="M22.45,19.76l-1.21,1a.18.18,0,0,1-.25,0l-1.22-1a.45.45,0,0,1,0-.61l1.21-1a.2.2,0,0,1,.25,0l1.22,1A.45.45,0,0,1,22.45,19.76Z"/></g><g class="cls-41"><path class="cls-42" d="M22.45,21l-1.21,1A.2.2,0,0,1,21,22l-1.22-1a.45.45,0,0,1,0-.61l1.21-1a.2.2,0,0,1,.25,0l1.22,1A.45.45,0,0,1,22.45,21Z"/></g><g class="cls-43"><path class="cls-44" d="M22.45,22.2l-1.21,1a.2.2,0,0,1-.25,0l-1.22-1a.45.45,0,0,1,0-.61l1.21-1a.2.2,0,0,1,.25,0l1.22,1A.45.45,0,0,1,22.45,22.2Z"/></g><g class="cls-45"><path class="cls-46" d="M22.45,23.42l-1.21,1a.2.2,0,0,1-.25,0l-1.22-1a.45.45,0,0,1,0-.61l1.21-1a.18.18,0,0,1,.25,0l1.22,1A.45.45,0,0,1,22.45,23.42Z"/></g><g class="cls-47"><path class="cls-48" d="M22.45,24.64l-1.21,1a.18.18,0,0,1-.25,0l-1.22-1a.45.45,0,0,1,0-.61L21,23a.18.18,0,0,1,.25,0l1.22,1A.45.45,0,0,1,22.45,24.64Z"/></g><path class="cls-31" d="M42.93,53.56l-1.21,1a.2.2,0,0,1-.25,0l-1.22-1a.45.45,0,0,1,0-.61l1.21-1a.2.2,0,0,1,.25,0l1.22,1A.45.45,0,0,1,42.93,53.56Z"/><g class="cls-19"><path class="cls-31" d="M42.93,54.8l-1.21,1a.18.18,0,0,1-.25,0l-1.22-1a.45.45,0,0,1,0-.61l1.21-1a.2.2,0,0,1,.25,0l1.22,1A.45.45,0,0,1,42.93,54.8Z"/></g><g class="cls-21"><path class="cls-31" d="M42.93,56l-1.21,1a.18.18,0,0,1-.25,0l-1.22-1a.43.43,0,0,1,0-.6l1.21-1a.18.18,0,0,1,.25,0l1.22,1A.45.45,0,0,1,42.93,56Z"/></g><g class="cls-23"><path class="cls-31" d="M42.93,57.28l-1.21,1a.18.18,0,0,1-.25,0l-1.22-1a.45.45,0,0,1,0-.61l1.21-1a.18.18,0,0,1,.25,0l1.22,1A.45.45,0,0,1,42.93,57.28Z"/></g><g class="cls-25"><path class="cls-31" d="M42.93,58.51l-1.21,1a.2.2,0,0,1-.25,0l-1.22-1a.45.45,0,0,1,0-.61l1.21-1a.18.18,0,0,1,.25,0l1.22,1A.45.45,0,0,1,42.93,58.51Z"/></g><g class="cls-27"><path class="cls-31" d="M42.93,59.75l-1.21,1a.2.2,0,0,1-.25,0l-1.22-1a.45.45,0,0,1,0-.61l1.21-1a.18.18,0,0,1,.25,0l1.22,1A.45.45,0,0,1,42.93,59.75Z"/></g><g class="cls-29"><path class="cls-31" d="M42.93,61l-1.21,1a.2.2,0,0,1-.25,0l-1.22-1a.45.45,0,0,1,0-.61l1.21-1a.2.2,0,0,1,.25,0l1.22,1A.45.45,0,0,1,42.93,61Z"/></g><g class="cls-27"><path class="cls-32" d="M42.93,59.75l-1.21,1a.2.2,0,0,1-.25,0l-1.22-1a.45.45,0,0,1,0-.61l1.21-1a.18.18,0,0,1,.25,0l1.22,1A.45.45,0,0,1,42.93,59.75Z"/></g><g class="cls-25"><path class="cls-33" d="M42.93,58.51l-1.21,1a.2.2,0,0,1-.25,0l-1.22-1a.45.45,0,0,1,0-.61l1.21-1a.18.18,0,0,1,.25,0l1.22,1A.45.45,0,0,1,42.93,58.51Z"/></g><g class="cls-23"><path class="cls-34" d="M42.93,57.28l-1.21,1a.18.18,0,0,1-.25,0l-1.22-1a.45.45,0,0,1,0-.61l1.21-1a.18.18,0,0,1,.25,0l1.22,1A.45.45,0,0,1,42.93,57.28Z"/></g><g class="cls-21"><path class="cls-35" d="M42.93,56l-1.21,1a.18.18,0,0,1-.25,0l-1.22-1a.43.43,0,0,1,0-.6l1.21-1a.18.18,0,0,1,.25,0l1.22,1A.45.45,0,0,1,42.93,56Z"/></g><g class="cls-19"><path class="cls-36" d="M42.93,54.8l-1.21,1a.18.18,0,0,1-.25,0l-1.22-1a.45.45,0,0,1,0-.61l1.21-1a.2.2,0,0,1,.25,0l1.22,1A.45.45,0,0,1,42.93,54.8Z"/></g><path class="cls-3" d="M42.93,53.56l-1.21,1a.2.2,0,0,1-.25,0l-1.22-1a.45.45,0,0,1,0-.61l1.21-1a.2.2,0,0,1,.25,0l1.22,1A.45.45,0,0,1,42.93,53.56Z"/><g class="cls-37"><path class="cls-38" d="M42.93,54.78l-1.21,1a.2.2,0,0,1-.25,0l-1.22-1a.45.45,0,0,1,0-.61l1.21-1a.2.2,0,0,1,.25,0l1.22,1A.45.45,0,0,1,42.93,54.78Z"/></g><g class="cls-39"><path class="cls-40" d="M42.93,56l-1.21,1a.2.2,0,0,1-.25,0l-1.22-1a.45.45,0,0,1,0-.61l1.21-1a.2.2,0,0,1,.25,0l1.22,1A.45.45,0,0,1,42.93,56Z"/></g><g class="cls-41"><path class="cls-42" d="M42.93,57.22l-1.21,1a.2.2,0,0,1-.25,0l-1.22-1a.45.45,0,0,1,0-.61l1.21-1a.18.18,0,0,1,.25,0l1.22,1A.45.45,0,0,1,42.93,57.22Z"/></g><g class="cls-43"><path class="cls-44" d="M42.93,58.44l-1.21,1a.2.2,0,0,1-.25,0l-1.22-1a.45.45,0,0,1,0-.61l1.21-1a.18.18,0,0,1,.25,0l1.22,1A.45.45,0,0,1,42.93,58.44Z"/></g><g class="cls-45"><path class="cls-46" d="M42.93,59.67l-1.21,1a.18.18,0,0,1-.25,0l-1.22-1a.43.43,0,0,1,0-.6l1.21-1a.18.18,0,0,1,.25,0l1.22,1A.45.45,0,0,1,42.93,59.67Z"/></g><g class="cls-47"><path class="cls-48" d="M42.93,60.89l-1.21,1a.18.18,0,0,1-.25,0l-1.22-1a.45.45,0,0,1,0-.61l1.21-1a.2.2,0,0,1,.25,0l1.22,1A.45.45,0,0,1,42.93,60.89Z"/></g><path class="cls-49" d="M68.24,56a1.6,1.6,0,0,0-1.48,1.64c-.07,1.58.82,8.5,2.38,10s1.79-1.73,1.79-1.73S70.73,55.84,68.24,56Z"/><path class="cls-50" d="M76.77,67.61A6.8,6.8,0,0,0,80,67.7c1.35-.43,1-.5,1-.71-.18-.45-1.91-.47-2.22-.58s.29-.32.44-.52.47-.44.37-.52-.36-.18-.87.17a10.88,10.88,0,0,1-1.78.76Z"/><path class="cls-49" d="M77.17,66.14A3.09,3.09,0,0,0,77,67a1.88,1.88,0,0,0,.19,1s-6.33.73-7.84-.21c0,0-1.33-2.48,1.05-2.91Z"/><path class="cls-49" d="M69.87,68a.92.92,0,0,1-.5-.2s0,0,0,0h0a1.27,1.27,0,0,1-.2-.16c-1.56-1.49-2.45-8.41-2.38-10a2.17,2.17,0,0,1,.18-.74c.37,1.8,2.07,10,2.79,10.24s5.53.3,7.29.34a2.07,2.07,0,0,0,.17.53S72,68.59,69.87,68Z"/><path class="cls-51" d="M75.05,87s-.35,1.25.53,1.56a7.55,7.55,0,0,1,1.93,1c.34.26,4.11,1.86,4.57,1.1s-.66-1.61-.94-1.87-2.86-2.49-2.86-2.49Z"/><path class="cls-51" d="M72,89.16s-.36,1.25.52,1.56a7.58,7.58,0,0,1,1.93,1c.34.27,4.11,1.87,4.57,1.12s-.66-1.62-.94-1.89-2.86-2.48-2.86-2.48Z"/><path class="cls-52" d="M68.75,69s9.24,5.81,9.5,7.29.21,10.18.21,10.18-2.36,1-3.5.39l-1-8.2s-7.27-5.37-7.59-5.57S68.75,69,68.75,69Z"/><path class="cls-53" d="M66.41,73.08c.32.2,7.59,5.57,7.59,5.57l1,8.2a3.18,3.18,0,0,0,2.1.06c-.33-2.49-1.06-8-1.32-9.36-.35-1.82-7.8-6.11-7.8-6.11l-1.52,1.42C66.38,73,66.37,73.06,66.41,73.08Z"/><path class="cls-52" d="M68.76,69.21a23.18,23.18,0,0,1-1.63,3.87s7.39,3.91,7.77,5.8.84,10,.84,10a4.64,4.64,0,0,1-3.88.28S71,82.93,71,80.43c0,0-11.17-3-10.35-9.07A7.86,7.86,0,0,0,68.76,69.21Z"/><path class="cls-53" d="M71,80.43c.08,2.5.91,8.71.91,8.71A4.77,4.77,0,0,0,73,89.4c-.06-1-.14-2.25-.24-3.93-.37-6.27-1.33-6.15-1.33-6.15-7.09-3.2-8.52-6.25-8.52-6.25l-2.28-1.4C60.17,77.57,71,80.43,71,80.43Z"/><path class="cls-54" d="M64,56.56a30.55,30.55,0,0,0-3.62,2.07c-.08.28-1,.93.31,4a10.56,10.56,0,0,1,.87,6.72,20.72,20.72,0,0,1-1,3s1.57,2.32,6,.7a6.21,6.21,0,0,0,2.83-2.51,22.92,22.92,0,0,1,.14-6.23c.55-3.36.86-7.72-1-8.3C68.47,56,68,55.42,64,56.56Z"/><path class="cls-55" d="M65.23,55.49s2.56,1.35,1.42,3.28l1.2.66A2.88,2.88,0,0,0,65.23,55.49Z"/><path class="cls-50" d="M63.58,54.13s1.08,1.63.23,2.74c-.48.62.64,2.08,2.56,2,0,0,.86-.21.77-.52a1.91,1.91,0,0,1,.39-1.64C67.84,56.13,63.58,54.13,63.58,54.13Z"/><path class="cls-56" d="M63.81,56.87a.47.47,0,0,0-.11.25,3.65,3.65,0,0,1,2.1-.79l-1.82-2-.18-.09-.06.18A2.4,2.4,0,0,1,63.81,56.87Z"/><path class="cls-57" d="M67.14,58.31c-.18-1.12.09-1.1.39-1.64.09-.15-.17-.41-.6-.71a1.46,1.46,0,0,0-.31.36A3.44,3.44,0,0,0,66,58.83a1.34,1.34,0,0,0,.4,0C66.6,58.8,67.2,58.66,67.14,58.31Z"/><path class="cls-50" d="M63.18,53.21a5.69,5.69,0,0,0,2,3.15c1.32.87,2.86,1.44,3.14-.14.23-1.25.84-4.44-.26-5.08-1.43-.83-2-1.85-3.6-1.24A2.69,2.69,0,0,0,63.18,53.21Z"/><path class="cls-58" d="M63.18,53.21a4.86,4.86,0,0,0,1.95,3.18,6.89,6.89,0,0,0,1.25.66,6.12,6.12,0,0,1-1.3-1.29c-.54-.63.8-.39-.11-2-.31-.55,1.21.15,1.55.14,2,0,1.89-1.21,1.93-1.7a4.3,4.3,0,0,0-.17-.6l-.2-.37-.06-.1a8.16,8.16,0,0,0-.66-.73L64,50.5s-.46.58-.85,1.13A3.21,3.21,0,0,0,63.18,53.21Z"/><path class="cls-59" d="M64.07,55.31A3.93,3.93,0,0,1,63,51.63a2.54,2.54,0,0,1,2.24-2,3,3,0,0,1,3.41,1.82c.22.58.07,1.86-2.21,1.26-.33-.09-1.2-.2-1.51.08a1.18,1.18,0,0,0-.19,1.24c.13.39-.22.43-.26.35s-.49-1.19-.9-.76S64,55.23,64.07,55.31Z"/><path class="cls-60" d="M64.07,55.31c0-.08-.87-1.28-.49-1.67s.85.68.9.76.39,0,.26-.35a1.18,1.18,0,0,1,.19-1.24c.28-.25,1-.12,1.51-.08-.39-.24-1.14-.33-1.41-1a2.24,2.24,0,0,0-1.35-1.39A2.63,2.63,0,0,0,63,51.63,3.93,3.93,0,0,0,64.07,55.31Z"/><path class="cls-55" d="M64.07,56.34a3.36,3.36,0,0,0,2.58,2.43L66,60.29S62.1,58.33,64.07,56.34Z"/><path class="cls-49" d="M60.37,58.63c-.08.28-1,.93.31,4a12,12,0,0,1,.7,6.69c-.32,1.44-.48,1.1-1,2.32-.32.7,1.17,1.78,2.62,1.91.76-1.78.55-1.76.86-3.71a8.53,8.53,0,0,0-2.06-7.55c-1.92-2.36-1.11-3.27-1.15-3.89A.74.74,0,0,0,60.37,58.63Z"/><path class="cls-59" d="M68.65,51.47s.34,2.08-2.32,1.33a3.09,3.09,0,0,1-1.86-1.59,1.19,1.19,0,0,0-.87-.74,2.81,2.81,0,0,1,2.54-.88,4.52,4.52,0,0,1,2,1C68.33,50.76,68,51.63,68.65,51.47Z"/><g class="cls-1"><polygon class="cls-61" points="64.16 73.26 64.13 73.6 68.98 77.05 69.01 76.72 64.16 73.26"/><polygon class="cls-62" points="69.01 76.72 68.98 77.05 78.04 72.89 78.07 72.55 69.01 76.72"/><polygon class="cls-63" points="64.16 73.26 69.01 76.72 78.07 72.55 73.22 69.09 64.16 73.26"/></g><g class="cls-1"><polygon class="cls-64" points="70.46 70.97 70.1 70.64 68.59 76.7 68.95 77.03 70.46 70.97"/><polygon class="cls-65" points="79.93 66.62 79.57 66.29 70.1 70.64 70.46 70.97 79.93 66.62"/><polygon class="cls-66" points="70.46 70.97 68.95 77.03 78.42 72.68 79.93 66.62 70.46 70.97"/><polygon class="cls-67" points="70.46 70.97 70.46 70.97 78.42 72.68 79.93 66.62 70.46 70.97"/></g><path class="cls-50" d="M65.82,73.63s1.75,2.11,3.85,2.09c0,0,.1-.52-.77-.89a1.65,1.65,0,0,1-1.05-1.23c0-.11.75,0,1.07,0s.79-.31,0-.51a13.41,13.41,0,0,0-2.8-.72S65.24,73,65.82,73.63Z"/><path class="cls-54" d="M61.84,58.12a3.07,3.07,0,0,0-2.48,1.49c-.7,1.42-2.63,8.12-1.8,10.11s8.31,4.37,8.31,4.37A2.13,2.13,0,0,1,66.5,72l-6.07-4S63.35,59.08,61.84,58.12Z"/><path class="cls-54" d="M60.43,68l6.07,4a2.1,2.1,0,0,0-.33.4c-1.48-.85-6.34-3.65-6.74-4.41s2.27-8.31,2.7-9.47C62.88,60.52,60.43,68,60.43,68Z"/></g></g></g></svg>