<svg xmlns="http://www.w3.org/2000/svg" viewBox="0 0 391.51 297.1"><defs><style>.cls-1{fill:none;}.cls-2{fill:lime;}.cls-3{fill:#fff;}.cls-4{fill:#70c3ff;}</style></defs><g id="Layer_2" data-name="Layer 2"><g id="Layer_1-2" data-name="Layer 1"><g id="Layer_2-2" data-name="Layer 2"><g id="Layer_1-2-2" data-name="Layer 1-2"><g id="Layer_2-2-2" data-name="Layer 2-2"><g id="Layer_1-2-2-2" data-name="Layer 1-2-2"><g id="Layer_2-2-2-2" data-name="Layer 2-2-2"><g id="Layer_1-2-2-2-2" data-name="Layer 1-2-2-2"><g id="Layer_2-2-2-2-2" data-name="Layer 2-2-2-2"><g id="Layer_1-2-2-2-2-2" data-name="Layer 1-2-2-2-2"><path class="cls-1" d="M185.16,295.3a6.43,6.43,0,0,1-3-.8L3.46,191.8a6,6,0,0,1-2.2-8.1L104,5a6.11,6.11,0,0,1,5.2-3,6.43,6.43,0,0,1,3,.8L290.9,105.5a5.88,5.88,0,0,1,2.25,8v.08L190.26,292.4A5.83,5.83,0,0,1,185.16,295.3Z"/><path d="M109.05,1.75V2.6a6.37,6.37,0,0,1,2.7.7L290.45,106a4.93,4.93,0,0,1,2.5,3.3,5.34,5.34,0,0,1-.5,4.1L189.75,292.1a5.45,5.45,0,0,1-4.7,2.7,6.37,6.37,0,0,1-2.7-.7L3.65,191.4a5.41,5.41,0,0,1-2-7.38h0L104.35,5.3a5.46,5.46,0,0,1,4.7-2.7V1.75m.11-.15a6.66,6.66,0,0,0-5.6,3.2L.86,183.5a6.42,6.42,0,0,0,2.35,8.77h0L182,295a6.11,6.11,0,0,0,3.2.9,6.66,6.66,0,0,0,5.6-3.2L293.46,114a6.41,6.41,0,0,0-2.33-8.76h-.07L112.36,2.4A6.07,6.07,0,0,0,109.16,1.6Z"/><polygon points="2.46 52 266.56 61.5 125.86 296.1 2.46 52"/><path d="M3.26,52.6,265.66,62,126,295.1,3.26,52.6m-1.7-1.1,124.2,245.6L267.36,61Z"/><polygon class="cls-2" points="161.66 238.2 145.66 265.2 92.16 161 123.26 162.1 161.66 238.2"/><polygon class="cls-2" points="218.56 244.3 203.66 274.2 135.46 139.8 168.16 144.2 218.56 244.3"/><polygon class="cls-2" points="238.66 161.2 197.46 235.7 217.36 247.2 280.66 136.2 238.66 161.2"/><polygon class="cls-2" points="193.06 170.1 267.66 155.2 280.66 136.2 206.66 148.2 193.06 170.1"/><g id="Layer_2-2-2-2-2-2" data-name="Layer 2-2-2-2-2"><g id="Ñëîé_1" data-name="Ñëîé 1"><polygon class="cls-3" points="42.45 136.9 57.55 101.4 57.85 101.6 42.95 136.5 63.05 130.7 63.05 131 42.45 136.9"/><polygon class="cls-3" points="37.01 89.4 24.61 71.2 55.21 49.8 55.31 50 24.81 71.2 37.31 89.3 37.01 89.4"/><polygon class="cls-3" points="98.41 78.9 98.61 78.8 140.61 151.8 140.41 151.9 98.41 78.9"/><path class="cls-3" d="M142.61,151.7a2.14,2.14,0,0,0-2.08-2.2h0a2.2,2.2,0,1,0,0,4.4h0A2.19,2.19,0,0,0,142.61,151.7Z"/><path class="cls-3" d="M190,95.4a1.9,1.9,0,1,0-1.9,1.9h0A2,2,0,0,0,190,95.4Z"/><path class="cls-3" d="M179.41,173.6a2.14,2.14,0,0,0-2.08-2.2h0a2.2,2.2,0,0,0,0,4.4h0a2.09,2.09,0,0,0,2.11-2.06Z"/><path class="cls-3" d="M210.71,68.1a1.5,1.5,0,1,0-1.5,1.5h0a1.4,1.4,0,0,0,1.5-1.31h0A.61.61,0,0,0,210.71,68.1Z"/><path class="cls-3" d="M161.05,139.45a1.25,1.25,0,1,0-2.5.1,1.16,1.16,0,0,0,1.12,1.2h.08a1.26,1.26,0,0,0,1.3-1.22h0Z"/><path class="cls-3" d="M63.91,27.75a2.11,2.11,0,0,0-2-2.2,2,2,0,0,0-2.1,1.9h0v.1a2.12,2.12,0,0,0,2,2.2h.1A2.15,2.15,0,0,0,63.91,27.75Z"/><path class="cls-3" d="M38.91,89.7a1.7,1.7,0,1,0-1.7,1.7h0a1.63,1.63,0,0,0,1.7-1.56h0Z"/><path class="cls-3" d="M26.21,71a1.3,1.3,0,1,0-1.3,1.3C25.71,72.4,26.21,71.8,26.21,71Z"/><circle class="cls-3" cx="98.61" cy="45.7" r="1.6"/><path class="cls-3" d="M151.71,98.6a1.9,1.9,0,1,0-1.9,1.9h0a1.84,1.84,0,0,0,1.9-1.78h0Z"/><path class="cls-3" d="M173.21,106.5a1.2,1.2,0,1,0-1.2,1.2h0C172.61,107.9,173.21,107.2,173.21,106.5Z"/><path class="cls-3" d="M210.41,150.2a1.6,1.6,0,1,0-1.6,1.6A1.64,1.64,0,0,0,210.41,150.2Z"/><path class="cls-3" d="M147.11,122.5a1.7,1.7,0,1,0-1.7,1.7h0a1.63,1.63,0,0,0,1.7-1.56h0Z"/><path class="cls-3" d="M144.31,54.7a1.5,1.5,0,1,0-1.5,1.5C143.51,56.4,144.21,55.7,144.31,54.7Z"/><path class="cls-3" d="M130.41,70.2a2.3,2.3,0,1,0-2.3,2.3h0A2.4,2.4,0,0,0,130.41,70.2Z"/><path class="cls-3" d="M168.51,32.8a1.6,1.6,0,1,0-1.6,1.6A1.64,1.64,0,0,0,168.51,32.8Z"/><path class="cls-3" d="M111.41,83.3a1.13,1.13,0,0,0-1-1.2h0a1.12,1.12,0,0,0-1.1,1.1,1.14,1.14,0,0,0,1.06,1.2h0A1.24,1.24,0,0,0,111.41,83.3Z"/><path class="cls-3" d="M116.41,174.5a2,2,0,1,0-2,2h0a1.94,1.94,0,0,0,2-1.88h0Z"/><path class="cls-3" d="M117.71,108.1a2.14,2.14,0,0,0-2.08-2.2h0a2.08,2.08,0,0,0-2.1,2.06h0v.14a2.14,2.14,0,0,0,2.08,2.2h0a2.09,2.09,0,0,0,2.11-2.06S117.71,108.15,117.71,108.1Z"/><path class="cls-3" d="M104.11,141.4a2,2,0,1,0-2,2A2.24,2.24,0,0,0,104.11,141.4Z"/><path class="cls-3" d="M93.05,148a1.3,1.3,0,1,0-1.3,1.3,1.26,1.26,0,0,0,1.3-1.22h0Z"/><path class="cls-3" d="M176.41,53.9a1.9,1.9,0,1,0-1.9,1.9h0a1.84,1.84,0,0,0,1.9-1.78h0Z"/><path class="cls-3" d="M149.81,2a2,2,0,1,0-2,2A2,2,0,0,0,149.81,2Z"/><path class="cls-3" d="M190.11,49.1a1.2,1.2,0,1,0-1.2,1.2h0A1.22,1.22,0,0,0,190.11,49.1Z"/><path class="cls-3" d="M167.71,69.1a1.6,1.6,0,1,0-1.6,1.6A1.64,1.64,0,0,0,167.71,69.1Z"/><path class="cls-3" d="M209.41,43.2a2,2,0,1,0-2,2h0A2.07,2.07,0,0,0,209.41,43.2Z"/><path class="cls-3" d="M229.21,78.4a1.9,1.9,0,1,0-1.9,1.9h0A2,2,0,0,0,229.21,78.4Z"/><circle class="cls-3" cx="98.61" cy="15.7" r="2"/><circle class="cls-3" cx="111.71" cy="26.4" r="1.2"/><path class="cls-3" d="M55.05,89.8a1.7,1.7,0,1,0-1.7,1.7h0a1.69,1.69,0,0,0,1.7-1.68h0Z"/><path class="cls-3" d="M51.21,67.1a1.1,1.1,0,1,0-1.1,1.1h0A1.1,1.1,0,0,0,51.21,67.1Z"/><path class="cls-3" d="M82.61,54.9c0-.5-.4-.9-1.1-1.1a1.12,1.12,0,0,0-1.1,1.1A1,1,0,0,0,81.3,56h.21A1.1,1.1,0,0,0,82.61,54.9Z"/><path class="cls-3" d="M65.21,130.9a1.7,1.7,0,1,0-1.7,1.7h0A1.75,1.75,0,0,0,65.21,130.9Z"/><path class="cls-3" d="M44.61,136.7a1.5,1.5,0,1,0-1.5,1.5h0A1.54,1.54,0,0,0,44.61,136.7Z"/><path class="cls-3" d="M83,104.6a1.94,1.94,0,0,0-1.88-2H81a2,2,0,0,0-2,2,1.94,1.94,0,0,0,1.88,2H81A2,2,0,0,0,83,104.6Z"/><path class="cls-3" d="M114.05,116.3a1.29,1.29,0,0,0-1.3-1.1c-.5,0-.9.5-1.1,1.1a1.21,1.21,0,0,0,1.1,1.3,1.2,1.2,0,0,0,1.3-1.09h0Z"/><path class="cls-3" d="M100.31,78.8a1.7,1.7,0,1,0-1.7,1.7h0a1.63,1.63,0,0,0,1.7-1.56h0Z"/><polygon class="cls-3" points="62.95 131.1 63.05 130.8 140.05 151.6 140.05 151.9 62.95 131.1"/><polygon class="cls-3" points="150.01 98.7 98.21 78.8 207.21 43 207.41 43.3 99.01 78.8 150.21 98.5 150.01 98.7"/><rect class="cls-3" x="99.05" y="15.75" height="63"/><polygon class="cls-3" points="63.91 129.6 98.81 78 99.01 78.1 64.11 129.7 63.91 129.6"/><polygon class="cls-3" points="140.61 151.75 149.81 98.85 150.11 98.95 140.81 151.75 140.61 151.75"/><polygon class="cls-3" points="99.31 15.8 99.41 15.5 207.31 43 207.21 43.2 99.31 15.8"/><polygon class="cls-3" points="149.61 98.6 174.31 54 174.61 54.1 149.81 98.7 149.61 98.6"/><polygon class="cls-3" points="61.91 27.6 62.11 27.5 98.01 78.1 97.71 78.2 61.91 27.6"/><polygon class="cls-3" points="61.91 27.8 97.71 15.6 97.81 15.8 62.01 28.1 61.91 27.8"/><polygon class="cls-3" points="101.91 141.3 102.21 141.2 114.51 174.5 114.31 174.6 101.91 141.3"/><polygon class="cls-3" points="114.41 174.5 140.61 151.7 140.81 151.9 114.61 174.7 114.41 174.5"/><polygon class="cls-3" points="114.21 174.5 91.41 148.1 91.51 147.8 114.51 174.3 114.21 174.5"/><polygon class="cls-3" points="91.11 148 63.71 131 63.91 130.7 91.31 147.7 91.11 148"/><polygon class="cls-3" points="91.91 148 91.81 147.7 101.91 141.2 102.11 141.5 91.91 148"/><polygon class="cls-3" points="145.31 122.4 188.21 95.2 188.31 95.5 145.41 122.6 145.31 122.4"/><polygon class="cls-3" points="174.41 54 174.61 53.9 188.31 95.4 188.01 95.5 174.41 54"/><polygon class="cls-3" points="53.51 90 53.61 89.7 81.01 104.6 80.91 104.9 53.51 90"/><polygon class="cls-3" points="53.41 89.8 81.41 54.6 81.61 54.8 53.61 89.9 53.41 89.8"/><polygon class="cls-3" points="102.01 140.9 115.51 108.2 115.81 108.3 102.31 141 102.01 140.9"/><polygon class="cls-3" points="115.71 108.2 115.81 108 145.01 122 144.91 122.2 115.71 108.2"/><polygon class="cls-3" points="101.91 141.4 80.81 104.6 81.11 104.5 102.11 141.2 101.91 141.4"/><polygon class="cls-3" points="53.31 89.75 61.71 27.45 61.91 27.55 53.51 89.75 53.31 89.75"/><polygon class="cls-3" points="140.95 151.9 140.75 151.6 157.05 147.1 157.05 147.1 209.05 150.1 209.05 150.4 157.25 147.6 140.95 151.9"/><polygon class="cls-3" points="188.11 95.4 188.31 95.3 209.01 150.1 208.81 150.2 188.11 95.4"/><polygon class="cls-3" points="149.81 98.8 149.91 98.5 171.91 106.5 171.81 106.7 149.81 98.8"/><polygon class="cls-3" points="111.71 26.5 111.81 26.2 174.61 53.9 174.51 54.1 111.71 26.5"/><polygon class="cls-3" points="98.45 78.75 111.58 26.75 111.77 26.75 98.75 78.75 98.45 78.75"/><polygon class="cls-3" points="62.01 27.6 62.11 27.4 98.71 45.5 98.51 45.8 62.01 27.6"/><polygon class="cls-3" points="111.61 26.4 111.81 26.3 128.11 70.2 127.91 70.3 111.61 26.4"/><rect class="cls-3" x="128.14" y="69.5" width="38.1" height="0.3" transform="translate(-1.94 4.27) rotate(-1.65)"/><polygon class="cls-3" points="156.91 147.4 156.61 147.3 171.81 106.5 172.11 106.7 156.91 147.4"/><polygon class="cls-3" points="188.07 95.75 206.65 44.75 206.85 44.75 188.38 95.75 188.07 95.75"/><polygon class="cls-3" points="111.81 26.1 147.81 1.6 147.91 1.9 111.91 26.3 111.81 26.1"/><polygon class="cls-3" points="147.81 2.1 148.01 1.9 189.11 49 188.91 49.2 147.81 2.1"/><polygon class="cls-3" points="110.21 83.4 110.11 83.1 128.01 70.2 128.11 70.3 110.21 83.4"/><polygon class="cls-3" points="112.45 116.5 81.05 104.8 81.05 104.5 112.65 116.2 112.45 116.5"/><polygon class="cls-3" points="145.21 122.7 145.41 122.5 159.81 139.8 159.61 140 145.21 122.7"/><polygon class="cls-3" points="159.51 139.8 188.11 95.4 188.31 95.6 159.71 139.9 159.51 139.8"/><rect class="cls-3" x="60.66" y="79.95" width="37.05" height="0.3" transform="translate(-3.9 4.05) rotate(-2.86)"/><polygon class="cls-3" points="188.31 95.5 188.11 95.2 227.11 78.3 227.31 78.4 188.31 95.5"/><polygon class="cls-3" points="207.21 43.3 207.41 43.1 227.41 77.9 227.11 78.1 207.21 43.3"/><rect class="cls-3" x="37.05" y="89.75" width="16" height="1"/><polygon class="cls-3" points="37.91 89.4 37.71 89.3 50.01 67.1 61.91 27.4 62.11 27.6 50.21 67.3 37.91 89.4"/><polygon class="cls-3" points="37.11 89.9 37.21 89.6 75.81 101.9 75.71 102.1 37.11 89.9"/><polygon class="cls-3" points="56.91 96.1 57.21 96 63.61 130.4 63.31 130.5 56.91 96.1"/><polygon class="cls-3" points="50.01 67.05 50.31 66.95 53.71 89.75 53.41 89.75 50.01 67.05"/><polygon class="cls-3" points="227.31 78.4 209.21 68.2 209.41 67.9 227.41 78.3 227.31 78.4"/><polygon class="cls-3" points="207.21 44.75 207.51 44.75 209.41 68.15 209.21 68.25 207.21 44.75"/><polygon class="cls-3" points="190.61 88.5 208.81 68.4 209.01 68.6 190.81 88.7 190.61 88.5"/><polygon class="cls-3" points="147.71 2.1 147.91 2 166.91 32.9 166.71 33 147.71 2.1"/><polygon class="cls-3" points="208.8 150.75 208.6 150.75 218.72 82.75 219.02 82.75 208.8 150.75"/><polygon class="cls-3" points="121.05 168.6 121.05 168.29 177.05 173.6 177.05 173.81 121.05 168.6"/><polygon class="cls-3" points="177.41 173.8 177.21 173.5 208.61 150.1 208.81 150.4 177.41 173.8"/><polygon class="cls-3" points="140.51 151.9 140.61 151.7 177.41 173.6 177.31 173.8 140.51 151.9"/><polygon class="cls-3" points="177.21 173.8 152.21 148.9 152.51 148.6 177.41 173.5 177.21 173.8"/><polygon class="cls-3" points="127.75 70.3 127.65 70.2 142.45 54.6 174.05 53.8 174.05 54.1 142.65 54.9 127.75 70.3"/><polygon class="cls-3" points="142.81 54.9 120.91 30.5 121.11 30.3 143.01 54.7 142.81 54.9"/><polygon class="cls-3" points="92.91 106.4 135.01 33.4 135.21 33.6 93.21 106.5 92.91 106.4"/><path class="cls-3" d="M139.05,33.5a3.7,3.7,0,1,1-3.7-3.8h0a3.71,3.71,0,0,1,3.7,3.72h0Z"/><path class="cls-3" d="M184.11,87.8A2.14,2.14,0,0,1,182,90h0a2.2,2.2,0,1,1,0-4.4A2.36,2.36,0,0,1,184.11,87.8Z"/><path class="cls-3" d="M228.05,37.8a1.7,1.7,0,1,1-1.7-1.7h0a1.69,1.69,0,0,1,1.7,1.68h0Z"/><ellipse class="cls-3" cx="163.01" cy="13.7" rx="2.1" ry="2.2"/><path class="cls-3" d="M205,117a1.46,1.46,0,0,1-2.86.6V117a1.37,1.37,0,0,1,1.43-1.31h.17C204.25,115.7,204.75,116.3,205,117Z"/><path class="cls-3" d="M155.05,45.3a1.25,1.25,0,1,1-2.5-.1,1.16,1.16,0,0,1,1.12-1.2h.08a1.25,1.25,0,0,1,1.3,1.18Z"/><path class="cls-3" d="M62.05,145.7a3.2,3.2,0,1,1-3.2-3.2h0a3.15,3.15,0,0,1,3.2,3.1h0Z"/><path class="cls-3" d="M20.61,93.9a1.7,1.7,0,1,1-1.7-1.7h0a1.63,1.63,0,0,1,1.7,1.56h0Z"/><circle class="cls-3" cx="80.61" cy="143.4" r="1.9"/><path class="cls-3" d="M147.11,86.5a2.8,2.8,0,1,1-2.8-2.8h0a2.8,2.8,0,0,1,2.8,2.8Z"/><path class="cls-3" d="M167.71,78.7a1.2,1.2,0,1,1-1.2-1.2h0a1.1,1.1,0,0,1,1.2,1h0A.67.67,0,0,1,167.71,78.7Z"/><path class="cls-3" d="M198.41,38.7a2.8,2.8,0,1,1-2.8-2.8h0a2.8,2.8,0,0,1,2.8,2.8Z"/><path class="cls-3" d="M197.31,68.5a1.8,1.8,0,1,1-1.9-1.7h0a1.61,1.61,0,0,1,1.88,1.2A1.39,1.39,0,0,1,197.31,68.5Z"/><path class="cls-3" d="M141.81,62.7a1.9,1.9,0,1,1-1.9-1.9h0a1.78,1.78,0,0,1,1.9,1.65A1,1,0,0,1,141.81,62.7Z"/><path class="cls-3" d="M139.05,130.5a1.5,1.5,0,1,1-1.5-1.5,1.47,1.47,0,0,1,1.5,1.44h0Z"/><path class="cls-3" d="M124.91,115a2.3,2.3,0,1,1-2.3-2.3h0A2.33,2.33,0,0,1,124.91,115Z"/><path class="cls-3" d="M170.11,147.1a1.9,1.9,0,1,1-1.9-1.9h0A2,2,0,0,1,170.11,147.1Z"/><path class="cls-3" d="M108.21,101a1,1,0,0,1-.89,1.1h0a.74.74,0,0,1-.21,0h0a1,1,0,0,1-1.12-.86h0a.89.89,0,0,1,0-.23h0a1,1,0,0,1,.89-1.1h.21a1,1,0,0,1,1.12.86h0A.89.89,0,0,1,108.21,101Z"/><path class="cls-3" d="M94.31,8.7a2,2,0,1,1-2-2h0A2,2,0,0,1,94.31,8.7Z"/><path class="cls-3" d="M112.21,77.1a2.14,2.14,0,0,1-2.08,2.2h0a2.08,2.08,0,0,1-2.1-2.06h0V77.1a2.14,2.14,0,0,1,2.08-2.2h0a2.14,2.14,0,0,1,2.1,2.18h0Z"/><path class="cls-3" d="M98.61,43.8a2,2,0,1,1-2-2h0A2.07,2.07,0,0,1,98.61,43.8Z"/><path class="cls-3" d="M86.71,34.8a1.3,1.3,0,1,1-1.3-1.3,1.2,1.2,0,0,1,1.3,1.09h0A.74.74,0,0,1,86.71,34.8Z"/><path class="cls-3" d="M171.81,128.6a1.9,1.9,0,1,1-1.9-1.9h0a1.84,1.84,0,0,1,1.9,1.78h0Z"/><path class="cls-3" d="M166.41,181.3a2,2,0,1,1-2-2A2,2,0,0,1,166.41,181.3Z"/><path class="cls-3" d="M188.05,138.7a1.2,1.2,0,1,1-1.2-1.2h0a1.16,1.16,0,0,1,1.2,1.12h0Z"/><path class="cls-3" d="M159.91,109.5a1.6,1.6,0,1,1-1.6-1.6h0a1.47,1.47,0,0,1,1.6,1.31h0A1.41,1.41,0,0,1,159.91,109.5Z"/><path class="cls-3" d="M199.21,136a3.65,3.65,0,1,1-7.3-.2,3.55,3.55,0,0,1,3.5-3.6h.2a3.63,3.63,0,0,1,3.61,3.65h0Z"/><path class="cls-3" d="M238.51,106.05a2.7,2.7,0,0,1-2.7,2.7h-.1a2.75,2.75,0,1,1,2.8-2.7Z"/><path class="cls-3" d="M85,181.55a2.75,2.75,0,0,1-5.5-.1,2.71,2.71,0,0,1,2.72-2.7h.08a2.66,2.66,0,0,1,2.7,2.59h0A.74.74,0,0,1,85,181.55Z"/><path class="cls-3" d="M118.05,167.7a1.3,1.3,0,1,1-1.3-1.3,1.26,1.26,0,0,1,1.3,1.22h0Z"/><path class="cls-3" d="M50.05,95.4a1.7,1.7,0,1,1-1.7-1.7h0a1.69,1.69,0,0,1,1.7,1.68h0Z"/><path class="cls-3" d="M45.71,118.1a1.1,1.1,0,1,1-1.1-1.1h0C45.31,116.9,45.71,117.4,45.71,118.1Z"/><path class="cls-3" d="M75.91,128a1.3,1.3,0,1,1-1.3-1.3,1.2,1.2,0,0,1,1.3,1.09h0A.74.74,0,0,1,75.91,128Z"/><path class="cls-3" d="M47.85,45.9a3,3,0,0,1-2.9,3,2.93,2.93,0,0,1-2.9-3v0h0a3,3,0,0,1,2.9-3h0A3,3,0,0,1,47.85,45.9Z"/><path class="cls-3" d="M75.41,81.5a2,2,0,1,1-2-2A2,2,0,0,1,75.41,81.5Z"/><path class="cls-3" d="M108.41,68.9a1.5,1.5,0,1,1-1.5-1.5h0A1.54,1.54,0,0,1,108.41,68.9Z"/><path class="cls-3" d="M97.51,106.4a4.4,4.4,0,1,1-4.4-4.4h0A4.44,4.44,0,0,1,97.51,106.4Z"/><polygon class="cls-3" points="45.05 46 45.05 45.7 95.55 44.1 134.75 33.4 134.85 33.6 95.65 44.4 45.05 46"/><polygon class="cls-3" points="195.51 136.1 92.61 106.4 144.61 86.5 144.71 86.6 93.51 106.4 195.61 135.7 195.51 136.1"/><polygon class="cls-3" points="82.21 181.75 80.4 143.8 80.6 143.6 93.02 106.75 93.32 106.75 80.7 143.8 82.41 181.75 82.21 181.75"/><polygon class="cls-3" points="45.81 47.2 46.01 47 93.61 107 93.41 107.2 45.81 47.2"/><polygon class="cls-3" points="134.91 35 135.21 34.9 144.11 85.8 143.81 85.9 134.91 35"/><polygon class="cls-3" points="83.11 181.2 195.61 135.7 195.71 135.9 83.21 181.4 83.11 181.2"/><polygon class="cls-3" points="170.01 128.6 144.31 86.6 109.61 82.2 109.71 81.9 144.41 86.5 144.41 86.5 170.21 128.5 170.01 128.6"/><polygon class="cls-3" points="58.51 146.7 92.31 106.9 92.51 107.1 58.81 146.9 58.51 146.7"/><polygon class="cls-3" points="59.21 146.9 59.51 146.8 81.61 181.2 81.41 181.4 59.21 146.9"/><polygon class="cls-3" points="92.21 8.8 92.51 8.7 96.71 43.8 96.41 43.9 92.21 8.8"/><polygon class="cls-3" points="92.41 8.9 92.51 8.7 133.61 32.6 133.51 32.8 92.41 8.9"/><polygon class="cls-3" points="85.21 34.8 92.21 8.8 92.41 8.9 85.51 34.9 85.21 34.8"/><polygon class="cls-3" points="45.45 45.8 85.05 34.9 85.05 35.2 45.55 46.1 45.45 45.8"/><polygon class="cls-3" points="96.51 44 85.61 35.1 85.91 34.8 96.61 43.7 96.51 44"/><polygon class="cls-3" points="181.81 88 139.81 62.8 139.91 62.5 182.01 87.8 181.81 88"/><polygon class="cls-3" points="169.91 128.6 181.81 87.9 182.11 88 170.21 128.7 169.91 128.6"/><polygon class="cls-3" points="48.01 95.1 73.31 81.4 73.41 81.6 48.11 95.4 48.01 95.1"/><polygon class="cls-3" points="74.41 128.2 48.01 95.4 48.11 95.2 74.71 128 74.41 128.2"/><polygon class="cls-3" points="96.51 44.3 96.81 44.2 110.21 76.9 110.01 77 96.51 44.3"/><polygon class="cls-3" points="110.21 76.8 139.41 62.8 139.51 63 110.41 77.1 110.21 76.8"/><polygon class="cls-3" points="73.31 81.6 96.61 44 96.91 44.1 73.51 81.8 73.31 81.6"/><polygon class="cls-3" points="47.91 95.75 48.21 95.75 58.71 144.75 58.51 144.85 47.91 95.75"/><polygon class="cls-3" points="195.05 38.9 151.05 37.9 151.05 37.9 136.95 33.6 137.15 33.4 151.15 37.7 195.05 38.6 195.05 38.9"/><polygon class="cls-3" points="181.81 87.8 195.41 38.7 195.71 38.8 182.11 87.9 181.81 87.8"/><polygon class="cls-3" points="145.15 85.7 166.05 78.4 166.05 78.7 145.25 85.9 145.15 85.7"/><polygon class="cls-3" points="117.21 167.9 117.01 167.6 170.01 128.5 170.11 128.7 117.21 167.9"/><polygon class="cls-3" points="116.91 167.75 94.31 108.35 94.61 108.15 117.21 167.75 116.91 167.75"/><polygon class="cls-3" points="60.11 144.9 80.51 143.2 80.61 143.5 60.21 145.1 60.11 144.9"/><polygon class="cls-3" points="116.89 167.75 122.43 114.75 122.73 114.75 117.2 167.75 116.89 167.75"/><polygon class="cls-3" points="123.05 115.1 123.05 114.9 158.65 109.4 158.85 109.6 123.05 115.1"/><polygon class="cls-3" points="163.15 116.75 162.95 116.75 166.85 78.95 151.75 38.15 151.95 38.05 167.05 78.85 167.05 78.95 163.15 116.75"/><polygon class="cls-3" points="181.81 88 182.01 87.9 195.01 134.4 194.81 134.5 181.81 88"/><polygon class="cls-3" points="117.01 167.8 117.11 167.5 164.41 181.2 164.31 181.4 117.01 167.8"/><polygon class="cls-3" points="164.61 181.3 164.31 181.2 187.11 138.7 187.31 138.8 164.61 181.3"/><polygon class="cls-3" points="122.51 115 107.01 101.1 107.21 100.9 122.81 114.9 122.51 115"/><polygon class="cls-3" points="73.21 81.4 106.71 68.7 106.81 68.9 73.31 81.7 73.21 81.4"/><polygon class="cls-3" points="139.91 62.7 139.61 62.5 154.11 45.2 154.31 45.3 139.91 62.7"/><polygon class="cls-3" points="154.11 45.4 154.31 45.2 182.11 87.9 181.91 88 154.11 45.4"/><rect class="cls-3" x="73.75" y="86.59" width="0.3" height="37.05" transform="translate(-34.77 173.68) rotate(-87.14)"/><polygon class="cls-3" points="235.71 106.5 181.81 88 182.01 87.7 235.81 106.3 235.71 106.5"/><polygon class="cls-3" points="195.61 136 195.51 135.8 235.71 106.7 235.81 106.9 195.61 136"/><rect class="cls-3" x="33.39" y="79.65" width="0.3" height="29.34" transform="translate(-62.34 123.11) rotate(-87.14)"/><polygon class="cls-3" points="57.11 145.8 44.51 118.1 19.51 94.3 19.61 94.2 44.81 118 44.81 118 57.31 145.7 57.11 145.8"/><polygon class="cls-3" points="19.05 93.97 19.05 93.67 68.05 84.23 68.05 84.53 19.05 93.97"/><rect class="cls-3" x="46.51" y="46.3" width="0.3" height="41.8" transform="translate(-4.36 3.25) rotate(-3.81)"/><polygon class="cls-3" points="44.51 117.75 47.91 94.95 48.21 95.05 44.71 117.75 44.51 117.75"/><polygon class="cls-3" points="203.71 116.8 234.21 106.7 234.31 107 203.81 117.1 203.71 116.8"/><polygon class="cls-3" points="195.51 134.3 203.71 117 204.01 117.1 195.71 134.5 195.51 134.3"/><polygon class="cls-3" points="183.81 95.1 184.01 94.9 203.51 116.7 203.31 116.8 183.81 95.1"/><polygon class="cls-3" points="164.23 180.75 168 146.75 168.29 146.75 164.53 180.75 164.23 180.75"/><polygon class="cls-3" points="214.61 99.3 195.05 68.5 195.05 68.5 195.05 38.75 195.05 38.75 195.05 68.3 214.91 99.1 214.61 99.3"/><polygon class="cls-3" points="121.01 25.2 163.01 13.5 163.11 13.8 121.11 25.5 121.01 25.2"/><polygon class="cls-3" points="195.31 38.9 162.91 13.9 163.01 13.6 195.51 38.6 195.31 38.9"/><polygon class="cls-3" points="135.01 33.3 162.91 13.6 163.11 13.8 135.21 33.5 135.01 33.3"/><polygon class="cls-3" points="146.71 36.3 162.91 13.6 163.11 13.7 146.91 36.5 146.71 36.3"/><polygon class="cls-3" points="138.05 130.5 138.05 130.4 123.34 115.1 123.64 115 138.15 130.1 169.05 128.62 169.05 128.92 138.05 130.5"/><polygon class="cls-3" points="123.41 162.9 137.31 130.4 137.51 130.5 123.61 163 123.41 162.9"/><polygon class="cls-3" points="107.01 100.9 110.21 76.9 110.41 77 107.31 101 107.01 100.9"/><polygon class="cls-3" points="210.75 93.5 210.55 93.3 225.65 37.9 195.15 39.3 154.05 45.5 154.05 45.2 195.05 39 226.05 37.7 226.05 37.8 210.75 93.5"/><polygon class="cls-3" points="195.41 63.2 226.21 37.8 226.41 38 195.61 63.4 195.41 63.2"/><polygon class="cls-3" points="53.81 57 96.71 44.2 96.81 44.4 53.91 57.2 53.81 57"/><polygon class="cls-3" points="82.41 181.4 82.21 181.2 112.11 155.2 80.61 143.5 80.71 143.2 112.61 155.1 82.41 181.4"/></g></g></g></g></g></g></g></g></g><rect x="166.01" y="225.06" width="8.47" height="38.84"/><path d="M174,225.56v37.85h-7.47V225.56H174m1-1h-9.47v39.85H175V224.56Z"/><rect x="296.68" y="225.06" width="11" height="38.84"/><path d="M307.18,225.56v37.85h-10V225.56h10m1-1h-12v39.85h12V224.56Z"/><path d="M360.55,263.91a3.27,3.27,0,0,1-3.26-3.27V230.1a5,5,0,0,1,5-5h6v38.85Z"/><path d="M367.78,225.56v37.85h-7.23a2.77,2.77,0,0,1-2.76-2.77V230.1a4.54,4.54,0,0,1,4.53-4.54h5.46m1-1h-6.46a5.53,5.53,0,0,0-5.53,5.54v30.54a3.76,3.76,0,0,0,3.76,3.77h8.23V224.56Z"/><polygon points="330.36 226.65 333.59 235.32 320.15 263.21 310.91 263.39 330.36 226.65"/><path d="M330.28,227.87l2.77,7.43-13.22,27.41-8.08.16,18.53-35m.16-2.44L310.07,263.9l10.39-.2,13.67-28.35-3.69-9.92Z"/><polygon points="344.15 263.71 327.01 232.54 332.07 223.79 354.04 263.89 344.15 263.71"/><path d="M332.06,224.81l21.13,38.57-8.74-.17-16.86-30.66,4.47-7.74m0-2-5.64,9.77,17.41,31.66,11,.21-22.81-41.64Z"/><rect x="256.28" y="225.06" width="8.47" height="38.84"/><path d="M264.25,225.56v37.85h-7.47V225.56h7.47m1-1h-9.47v39.85h9.47V224.56Z"/><rect x="284.06" y="225.06" width="8.47" height="38.84"/><path d="M292,225.56v37.85h-7.47V225.56H292m1-1h-9.47v39.85H293V224.56Z"/><polygon points="259.13 227.38 265.06 225.17 288.56 259.77 283.67 263.68 259.13 227.38"/><path d="M264.86,225.78l23,33.89L283.78,263,259.9,227.62l5-1.84m.39-1.22-6.89,2.57,25.2,37.28,5.68-4.54-24-35.31Z"/><rect x="167.9" y="225.06" width="37.51" height="6.57"/><path d="M204.91,225.56v5.57H168.4v-5.57h36.51m1-1H167.4v7.57h38.51v-7.57Z"/><rect x="166.01" y="241.2" width="27.41" height="6.56"/><path d="M192.91,241.7v5.57h-26.4V241.7h26.4m1-1h-28.4v7.57h28.4V240.7Z"/><rect x="167.9" y="257.34" width="37.51" height="6.57"/><path d="M204.91,257.84v5.57H168.4v-5.57h36.51m1-1H167.4v7.57h38.51v-7.57Z"/><rect x="210.2" y="225.06" width="8.47" height="38.84"/><path d="M218.17,225.56v37.85H210.7V225.56h7.47m1-1H209.7v39.85h9.47V224.56Z"/><path d="M243,225.08a9,9,0,0,1,8.47,8.95v20.91a9,9,0,0,1-8.47,8.95Z"/><path d="M243.52,225.62A8.49,8.49,0,0,1,251,234v20.91a8.49,8.49,0,0,1-7.47,8.41V225.62m-1-1.06v39.85a9.47,9.47,0,0,0,9.47-9.47V234a9.47,9.47,0,0,0-9.47-9.47Z"/><polygon points="212.09 231.63 212.09 225.06 242.32 225.06 248.89 231.63 212.09 231.63"/><path d="M242.11,225.56l5.57,5.57H212.59v-5.57h29.52m.41-1H211.59v7.57H250.1l-7.58-7.57Z"/><rect x="210.2" y="241.2" width="38.14" height="6.56"/><path d="M247.84,241.7v5.57H210.7V241.7h37.14m1-1H209.7v7.57h39.14V240.7Z"/><polygon points="212.09 263.91 212.09 257.34 248.89 257.34 242.32 263.91 212.09 263.91"/><path d="M247.68,257.84l-5.57,5.57H212.59v-5.57h35.09m2.42-1H211.59v7.57h30.93l7.58-7.57Z"/><circle class="cls-4" cx="302.5" cy="211.82" r="8.21"/><rect x="321.84" y="247.76" width="18.03" height="3.54"/><path d="M339.37,248.26v2.54h-17v-2.54h17m1-1h-19v4.54h19v-4.54Z"/><path d="M361.72,264.41a4.43,4.43,0,0,1-4.43-4.43v-2.13H391v6.56Z"/><path d="M390.51,258.35v5.56H361.72a3.93,3.93,0,0,1-3.93-3.93v-1.63h32.72m1-1H356.79V260a4.93,4.93,0,0,0,4.93,4.93h29.79v-7.56Z"/><path d="M357.3,231.63a7.08,7.08,0,0,1,7.05-6.57H391v6.57Z"/><path d="M390.51,225.56v5.57H357.86a6.58,6.58,0,0,1,6.49-5.57h26.16m1-1H364.35a7.56,7.56,0,0,0-7.56,7.57h34.72v-7.57Z"/></g></g></g></svg>