<?xml version="1.0" standalone="no"?>
<!DOCTYPE svg PUBLIC "-//W3C//DTD SVG 20010904//EN"
 "http://www.w3.org/TR/2001/REC-SVG-20010904/DTD/svg10.dtd">
<svg version="1.0" xmlns="http://www.w3.org/2000/svg"
 width="784.000000pt" height="784.000000pt" viewBox="0 0 784.000000 784.000000"
 preserveAspectRatio="xMidYMid meet">
<metadata>
Created by potrace 1.14, written by Peter Selinger 2001-2017
</metadata>
<g transform="translate(0.000000,784.000000) scale(0.100000,-0.100000)"
fill="#000000" stroke="none">
<path d="M2921 6849 c-12 -25 -15 -36 -6 -29 9 8 15 8 20 0 4 -6 14 -10 23 -9
32 3 43 -1 36 -13 -5 -7 -3 -8 5 -3 9 5 9 11 3 17 -6 6 -8 16 -5 23 7 21 -16
55 -37 55 -13 0 -26 -14 -39 -41z"/>
<path d="M2134 6845 c-16 -7 -36 -21 -45 -31 -21 -26 -89 -143 -89 -155 0 -5
-4 -9 -10 -9 -5 0 -10 -7 -10 -16 0 -9 -9 -18 -19 -21 -12 -3 -22 -17 -26 -37
-9 -44 -38 -97 -50 -92 -6 2 -11 -6 -11 -18 0 -11 -31 -74 -69 -139 -52 -89
-71 -115 -81 -107 -9 8 -16 5 -28 -12 -15 -21 -15 -24 0 -35 12 -9 13 -16 4
-32 -6 -12 -16 -18 -22 -15 -6 4 -8 3 -4 -4 8 -13 -13 -62 -27 -62 -6 0 -7 -3
-4 -7 4 -3 1 -13 -7 -22 -8 -9 -26 -38 -41 -66 -74 -138 -97 -171 -115 -160
-3 2 -98 7 -211 10 -241 7 -232 6 -261 30 -13 11 -17 13 -10 5 21 -24 14 -28
-40 -24 -29 2 -134 6 -233 9 -180 5 -359 11 -578 19 l-116 4 209 -413 c115
-228 206 -416 202 -419 -5 -3 -20 1 -35 9 -20 10 -29 10 -40 2 -23 -19 -27
-45 -9 -53 32 -14 40 -12 50 11 18 38 53 22 81 -38 13 -29 25 -54 26 -57 0 -3
12 -25 25 -50 89 -169 190 -377 190 -390 0 -8 -9 -26 -20 -40 -11 -14 -20 -28
-20 -32 0 -4 -21 -42 -46 -85 -26 -43 -100 -170 -164 -283 -152 -265 -154
-269 -176 -310 -11 -19 -21 -37 -24 -40 -8 -8 -28 -43 -47 -80 -9 -19 -20 -37
-23 -40 -4 -3 -29 -45 -56 -94 -27 -49 -64 -114 -82 -145 -72 -124 -74 -131
-67 -179 4 -25 16 -54 28 -66 12 -12 90 -61 172 -108 83 -47 190 -108 239
-137 49 -28 90 -51 91 -51 3 0 126 -72 155 -90 8 -6 38 -22 65 -37 28 -15 58
-32 68 -38 22 -13 402 -233 442 -255 60 -34 362 -208 460 -265 150 -87 154
-89 230 -132 l70 -40 64 -124 c107 -209 165 -324 166 -329 0 -3 12 -25 25 -50
13 -25 70 -138 128 -252 58 -115 109 -208 114 -208 5 0 12 8 16 18 6 14 31 58
87 150 6 9 33 55 60 100 28 46 58 96 67 110 10 15 21 34 25 42 20 38 48 80 55
80 4 0 26 -13 50 -29 24 -15 70 -43 103 -60 33 -18 65 -36 70 -41 6 -4 35 -21
65 -37 30 -16 127 -72 215 -123 88 -51 176 -102 195 -113 19 -11 49 -27 65
-35 17 -9 32 -19 35 -23 8 -11 73 -26 100 -22 59 9 68 22 218 283 101 176 112
192 119 173 9 -25 20 -11 73 99 36 72 56 105 58 92 3 -20 8 -21 355 -19 316 1
355 3 386 19 40 21 79 61 94 96 13 32 17 502 5 549 -6 18 -15 40 -21 48 -63
75 -91 85 -259 86 -76 0 -138 3 -138 7 0 12 103 195 112 198 4 2 8 8 8 12 0 7
621 1100 738 1301 12 18 33 57 48 84 14 28 35 62 45 77 11 14 19 28 19 31 0 3
20 40 45 81 25 42 45 78 45 80 0 2 22 42 50 90 28 47 73 125 100 173 56 96 72
146 58 183 -9 25 -56 80 -68 80 -4 0 -138 76 -299 170 -161 93 -301 172 -312
175 -10 4 -19 11 -19 16 0 5 -5 9 -10 9 -6 0 -30 12 -54 28 l-45 27 31 50 c17
28 39 64 49 81 9 17 23 42 31 55 7 13 15 26 18 29 11 11 140 233 137 236 -2 3
-145 9 -447 19 -405 13 -474 17 -482 21 -5 3 -5 10 -2 16 4 7 2 8 -5 4 -6 -4
-9 -11 -6 -16 11 -18 -65 -3 -81 16 -15 19 -15 18 -5 -2 9 -19 7 -20 -52 -16
-34 3 -63 8 -65 13 -2 5 -10 9 -18 9 -9 0 -12 4 -9 10 3 5 0 8 -7 5 -7 -3 -24
4 -36 13 l-24 19 31 26 c17 14 31 30 31 36 0 6 -15 -6 -33 -25 l-33 -37 -50
28 c-177 98 -200 115 -182 127 9 6 6 7 -9 3 -23 -6 -117 38 -161 75 -12 11
-23 19 -25 18 -11 -6 -47 16 -43 27 3 9 -1 12 -13 10 -11 -2 -42 12 -71 31
-28 19 -54 34 -56 34 -3 0 -33 16 -68 36 -57 33 -62 39 -58 65 4 25 -7 37 -21
27 -2 -2 -11 3 -21 11 -14 12 -16 12 -11 -2 15 -37 -22 -26 -149 47 -33 19
-65 41 -71 50 -7 9 -15 13 -18 10 -3 -3 -24 5 -46 18 -33 20 -38 27 -28 38 10
12 9 12 -5 1 -15 -11 -22 -11 -45 5 -16 10 -41 26 -58 35 -16 10 -29 21 -28
26 1 4 -11 9 -25 10 -15 0 -28 6 -30 12 -2 6 -8 11 -12 11 -20 0 -168 94 -163
103 3 6 1 7 -5 3 -7 -4 -42 11 -79 32 -38 22 -84 49 -103 59 -19 11 -77 44
-128 73 -98 56 -140 66 -188 45z m134 -38 c20 -13 44 -27 52 -30 8 -4 29 -15
45 -26 17 -10 48 -28 70 -41 22 -12 69 -39 105 -60 36 -21 81 -47 100 -57 19
-11 55 -32 80 -47 25 -15 53 -30 63 -33 10 -3 16 -12 13 -19 -3 -8 0 -11 8 -8
18 7 161 -77 146 -86 -6 -4 2 -7 17 -7 31 -1 196 -96 185 -107 -3 -4 1 -4 11
0 10 4 19 1 22 -8 3 -8 11 -15 18 -15 7 0 56 -25 109 -56 53 -31 101 -57 107
-57 6 0 11 -8 11 -17 0 -9 3 -14 6 -10 6 6 83 -29 94 -42 3 -3 25 -17 50 -30
25 -14 73 -41 107 -62 35 -21 72 -40 83 -44 19 -6 19 -7 -5 -29 -25 -23 -25
-24 -4 -29 26 -7 49 1 49 18 0 8 8 11 20 8 11 -3 20 -9 20 -14 0 -5 7 -9 15
-9 8 0 15 -4 15 -10 0 -5 5 -10 11 -10 10 0 148 -78 159 -90 3 -3 27 -16 53
-30 27 -14 50 -28 53 -31 2 -4 -21 -6 -51 -6 -42 1 -55 5 -55 17 0 12 -2 12
-9 2 -9 -15 -59 -23 -67 -11 -2 5 -15 4 -28 -1 -13 -5 -26 -7 -29 -4 -2 2 -60
6 -128 9 -68 2 -198 7 -289 11 -91 4 -194 7 -230 8 -36 1 -72 6 -79 11 -10 5
-12 4 -7 -4 5 -8 -1 -10 -21 -7 -15 3 -73 6 -128 7 -55 1 -108 6 -117 11 -11
5 -18 5 -18 -1 0 -5 -9 -7 -20 -4 -19 5 -19 5 1 22 18 15 19 18 6 29 -8 7 -23
14 -34 16 -15 3 -19 -2 -21 -25 -1 -16 2 -29 8 -29 5 0 10 -5 10 -11 0 -5 -5
-7 -11 -4 -5 4 -92 9 -191 11 -158 3 -182 6 -194 21 -11 14 -14 14 -12 3 3
-13 -12 -15 -92 -13 -244 5 -322 11 -331 24 -7 11 -9 11 -9 1 0 -10 -22 -12
-95 -10 -52 2 -95 7 -95 12 0 4 -6 4 -12 -1 -7 -5 -31 -8 -53 -6 -22 2 -82 4
-132 6 -86 2 -107 7 -84 21 5 3 20 27 34 53 48 93 65 118 77 115 6 -1 9 2 5 8
-7 11 15 70 26 70 4 0 9 10 13 22 4 18 8 20 18 10 6 -6 16 -12 22 -12 5 0 1 6
-9 14 -17 13 -16 17 23 85 23 40 42 77 42 81 0 5 6 15 13 22 6 7 21 30 32 51
11 21 28 47 38 57 9 11 17 24 17 29 0 25 63 112 79 109 9 -1 27 5 41 15 13 9
20 17 15 17 -6 0 -15 10 -20 23 -8 17 -6 30 10 58 11 20 35 64 53 97 52 92
116 111 200 59z m2856 -1639 c22 -13 43 -26 46 -29 3 -3 46 -28 95 -56 94 -52
382 -217 463 -266 26 -15 59 -33 73 -39 33 -14 69 -67 69 -100 0 -22 -82 -194
-99 -208 -3 -3 -19 -30 -35 -60 -16 -30 -35 -62 -42 -70 -7 -8 -17 -26 -23
-40 -31 -74 -79 -143 -102 -146 -13 -2 -51 -8 -84 -14 -33 -5 -73 -12 -90 -15
-16 -2 -70 -11 -120 -19 -49 -8 -108 -18 -130 -21 -22 -3 -51 -8 -65 -10 -80
-13 -346 -57 -369 -60 -76 -12 -282 -46 -326 -54 -27 -5 -51 -8 -53 -6 -3 3
227 395 238 405 9 9 41 65 47 83 3 9 9 17 13 17 4 0 10 8 13 18 4 9 18 35 32
57 13 22 30 51 37 65 7 14 15 27 18 30 4 4 145 237 195 322 95 164 142 238
149 238 4 0 27 -10 50 -22z m-4309 -860 c59 -115 63 -128 41 -128 -18 0 -27
-35 -13 -49 14 -14 23 -14 39 3 12 12 40 -36 187 -328 95 -187 177 -348 182
-356 4 -8 32 -64 61 -123 29 -59 167 -334 307 -610 140 -276 284 -562 321
-635 37 -73 65 -131 61 -130 -3 2 -25 12 -48 23 -24 11 -43 23 -43 27 0 5 -4
8 -9 8 -4 0 -48 23 -97 51 -49 29 -102 59 -119 69 -34 19 -251 145 -395 228
-110 63 -145 84 -197 113 -21 12 -67 38 -103 59 -36 21 -81 47 -100 57 -19 11
-79 45 -132 76 -242 140 -645 372 -669 384 -64 32 -86 102 -52 163 11 19 35
62 53 95 18 33 40 71 49 85 9 14 30 50 46 80 16 30 39 70 52 89 13 18 23 40
23 47 0 7 4 14 8 16 7 3 128 210 160 273 8 17 20 37 27 45 7 8 30 47 50 85 21
39 49 87 62 107 13 21 23 40 23 42 0 3 24 44 54 93 29 48 63 108 76 132 26 52
20 57 95 -91z m3927 -715 c-21 -37 -54 -95 -72 -128 -172 -311 -299 -540 -327
-590 -19 -33 -37 -68 -40 -77 -3 -10 -10 -18 -15 -18 -5 0 -7 -4 -3 -9 3 -5 0
-13 -6 -17 -6 -3 -16 -18 -23 -33 -25 -56 -118 -221 -125 -221 -4 0 -76 137
-160 304 l-153 304 86 142 c47 78 86 146 86 150 0 4 11 20 25 36 14 16 25 34
25 39 1 35 54 58 175 78 17 3 86 17 155 30 69 14 139 28 155 31 17 3 80 16
140 29 61 12 112 22 113 21 2 -2 -14 -33 -36 -71z m-1209 -1118 c20 -42 37
-77 37 -79 0 -1 -40 -3 -90 -3 -88 1 -90 1 -76 21 7 12 28 47 46 79 17 31 35
57 39 57 4 0 23 -34 44 -75z m-218 -545 c0 -217 3 -331 10 -333 5 -2 150 -3
320 -2 171 0 317 -1 325 -3 8 -2 28 -31 44 -64 l29 -60 -29 -56 c-16 -32 -31
-59 -34 -62 -12 -10 -100 -169 -100 -180 0 -5 -4 -10 -10 -10 -5 0 -10 -4 -10
-10 0 -5 -14 -33 -32 -62 -69 -116 -112 -126 -233 -55 -38 23 -73 40 -77 39
-5 -1 -8 2 -8 7 0 5 -8 11 -17 14 -10 4 -39 19 -64 34 -25 15 -97 57 -160 93
-63 35 -115 68 -117 72 -2 4 -8 8 -14 8 -5 0 -52 25 -103 55 -52 30 -99 55
-104 55 -6 0 -11 5 -11 10 0 6 -6 10 -12 10 -7 0 -26 10 -42 23 l-28 23 36 56
c19 31 39 58 44 60 4 1 61 93 126 203 65 110 129 216 142 236 13 19 24 40 24
46 0 6 7 16 15 23 9 7 14 19 11 26 -3 7 2 18 10 24 8 7 14 16 14 21 0 8 49 89
54 89 0 0 1 -148 1 -330z m335 303 c12 -14 80 -144 80 -154 0 -5 -51 -9 -113
-9 l-113 0 1 78 c0 42 3 82 7 87 7 12 128 10 138 -2z m1180 8 c25 -1 26 -2 26
-86 l0 -85 -214 0 -214 0 38 68 c55 99 57 101 79 104 16 2 183 2 285 -1z
m-989 -371 c13 -25 23 -47 24 -50 0 -3 9 -19 18 -37 9 -17 14 -33 9 -35 -6 -3
-366 -2 -382 1 -5 1 -6 163 -1 167 0 1 70 1 155 0 l154 -1 23 -45z m1015 -25
c0 -38 -2 -77 -3 -85 -4 -13 -36 -15 -226 -14 -122 1 -225 2 -229 3 -5 1 -8
39 -8 85 l0 83 233 -1 232 -1 1 -70z"/>
<path d="M2060 6556 c0 -2 7 -7 16 -10 8 -3 12 -2 9 4 -6 10 -25 14 -25 6z"/>
<path d="M2114 6547 c-4 -7 -4 -9 1 -5 4 4 14 3 22 -3 8 -7 13 -8 13 -1 0 15
-28 23 -36 9z"/>
<path d="M2170 6532 c0 -12 19 -26 26 -19 2 2 -2 10 -11 17 -9 8 -15 8 -15 2z"/>
<path d="M2210 6520 c0 -5 5 -10 11 -10 5 0 7 5 4 10 -3 6 -8 10 -11 10 -2 0
-4 -4 -4 -10z"/>
<path d="M2460 6520 c-9 -6 -10 -10 -3 -10 6 0 15 5 18 10 8 12 4 12 -15 0z"/>
<path d="M2230 6496 c0 -2 8 -10 18 -17 15 -13 16 -12 3 4 -13 16 -21 21 -21
13z"/>
<path d="M2370 6478 c5 -6 22 -12 37 -14 15 -1 22 0 15 3 -6 3 -9 9 -6 15 4 6
-1 6 -13 -1 -13 -6 -24 -7 -31 -1 -9 7 -9 7 -2 -2z"/>
<path d="M2725 6470 c-16 -7 -17 -9 -3 -9 9 -1 20 4 23 9 7 11 7 11 -20 0z"/>
<path d="M2340 6439 c-22 -18 -22 -19 -3 -10 12 6 25 16 28 21 9 15 3 12 -25
-11z"/>
<path d="M2678 6453 c7 -3 16 -2 19 1 4 3 -2 6 -13 5 -11 0 -14 -3 -6 -6z"/>
<path d="M2545 6430 c11 -4 35 -10 53 -13 25 -5 30 -4 21 6 -7 6 -30 13 -53
13 -28 1 -35 -1 -21 -6z"/>
<path d="M2242 6383 c-13 -3 -26 -11 -29 -20 -7 -18 18 -36 31 -23 5 5 19 5
34 -1 13 -5 27 -7 30 -5 2 3 -8 8 -23 12 -20 5 -25 11 -22 25 3 11 4 18 4 18
-1 -1 -12 -4 -25 -6z"/>
<path d="M2420 6379 c0 -5 5 -7 10 -4 6 3 10 8 10 11 0 2 -4 4 -10 4 -5 0 -10
-5 -10 -11z"/>
<path d="M2910 6346 c0 -2 7 -7 16 -10 8 -3 12 -2 9 4 -6 10 -25 14 -25 6z"/>
<path d="M3028 6308 c6 -6 18 -8 28 -6 14 3 12 5 -9 10 -19 3 -25 2 -19 -4z"/>
<path d="M1890 6300 c0 -5 5 -10 11 -10 5 0 7 5 4 10 -3 6 -8 10 -11 10 -2 0
-4 -4 -4 -10z"/>
<path d="M2370 6306 c0 -3 9 -10 20 -16 11 -6 20 -8 20 -6 0 3 -9 10 -20 16
-11 6 -20 8 -20 6z"/>
<path d="M2815 6300 c-3 -6 1 -7 9 -4 18 7 21 14 7 14 -6 0 -13 -4 -16 -10z"/>
<path d="M2694 6292 c-50 -8 -80 -97 -42 -121 17 -10 18 -15 6 -29 -12 -15
-11 -16 4 -4 17 14 53 13 78 -2 8 -5 12 -6 8 -1 -4 4 4 22 17 39 19 26 23 38
16 62 -6 21 -4 32 8 42 14 11 13 12 -6 3 -12 -6 -24 -7 -27 -2 -7 11 -36 17
-62 13z"/>
<path d="M2426 6276 c3 -9 13 -16 22 -16 8 0 13 1 11 3 -2 1 -12 9 -22 16 -15
12 -17 12 -11 -3z"/>
<path d="M2590 6280 c0 -5 5 -10 11 -10 5 0 7 5 4 10 -3 6 -8 10 -11 10 -2 0
-4 -4 -4 -10z"/>
<path d="M1901 6244 c0 -11 3 -14 6 -6 3 7 2 16 -1 19 -3 4 -6 -2 -5 -13z"/>
<path d="M2542 6224 c10 -10 20 -16 22 -13 3 3 -5 11 -17 18 -21 13 -21 12 -5
-5z"/>
<path d="M1900 6211 c0 -6 4 -13 10 -16 6 -3 7 1 4 9 -7 18 -14 21 -14 7z"/>
<path d="M2471 6217 c2 -1 13 -9 24 -17 19 -14 19 -14 6 3 -7 9 -18 17 -24 17
-6 0 -8 -1 -6 -3z"/>
<path d="M2586 6205 c4 -8 12 -15 20 -15 20 0 17 7 -6 20 -16 9 -18 8 -14 -5z"/>
<path d="M2959 6193 c-13 -16 -12 -17 4 -4 9 7 17 15 17 17 0 8 -8 3 -21 -13z"/>
<path d="M2504 6167 c-4 -7 -3 -9 1 -4 5 4 27 -10 49 -30 l40 -38 -30 37 c-34
42 -51 52 -60 35z"/>
<path d="M1745 6164 c6 -5 23 -20 40 -34 29 -24 29 -24 10 -2 -11 13 -29 28
-40 34 -11 6 -15 6 -10 2z"/>
<path d="M2360 6130 c-9 -6 -10 -10 -3 -10 6 0 15 5 18 10 8 12 4 12 -15 0z"/>
<path d="M2320 6120 c-9 -6 -10 -10 -3 -10 6 0 15 5 18 10 8 12 4 12 -15 0z"/>
<path d="M2624 6085 c-5 -13 -9 -13 -23 -3 -14 12 -15 11 -1 -7 8 -11 15 -21
16 -23 0 -1 6 9 12 23 6 14 9 25 6 25 -2 0 -7 -7 -10 -15z"/>
<path d="M1750 6086 c0 -2 7 -7 16 -10 8 -3 12 -2 9 4 -6 10 -25 14 -25 6z"/>
<path d="M1866 6062 c16 -16 28 -34 26 -41 -2 -6 1 -18 7 -25 6 -7 8 -22 4
-32 -7 -18 -6 -18 11 -1 19 19 36 15 36 -9 0 -28 52 -9 56 21 2 10 -6 19 -18
23 -20 5 -20 5 -2 20 11 8 13 12 5 10 -8 -2 -23 4 -33 14 -15 15 -23 16 -38 8
-16 -9 -25 -6 -46 15 -13 14 -28 25 -32 25 -4 0 7 -13 24 -28z"/>
<path d="M2153 6076 c-9 -11 -9 -15 0 -19 7 -3 14 3 14 14 2 22 2 22 -14 5z"/>
<path d="M1797 6059 c7 -7 15 -10 18 -7 3 3 -2 9 -12 12 -14 6 -15 5 -6 -5z"/>
<path d="M2098 6053 c7 -3 16 -2 19 1 4 3 -2 6 -13 5 -11 0 -14 -3 -6 -6z"/>
<path d="M2045 6040 c-3 -6 1 -7 9 -4 18 7 21 14 7 14 -6 0 -13 -4 -16 -10z"/>
<path d="M2630 6046 c0 -2 8 -10 18 -17 15 -13 16 -12 3 4 -13 16 -21 21 -21
13z"/>
<path d="M2967 6039 c7 -7 15 -10 18 -7 3 3 -2 9 -12 12 -14 6 -15 5 -6 -5z"/>
<path d="M3395 6030 c-3 -5 -1 -10 4 -10 6 0 11 5 11 10 0 6 -2 10 -4 10 -3 0
-8 -4 -11 -10z"/>
<path d="M1760 6000 c-12 -7 -10 -9 7 -7 12 0 19 5 17 9 -6 10 -6 10 -24 -2z"/>
<path d="M1850 5998 c0 -4 4 -8 9 -8 6 0 12 4 15 8 3 5 -1 9 -9 9 -8 0 -15 -4
-15 -9z"/>
<path d="M2676 5997 c3 -10 9 -15 12 -12 3 3 0 11 -7 18 -10 9 -11 8 -5 -6z"/>
<path d="M3057 5998 c-7 -24 4 -46 22 -41 13 3 23 -6 34 -29 9 -18 17 -26 17
-16 0 9 -4 19 -9 22 -5 3 -11 15 -14 27 -4 15 -2 19 9 15 8 -3 14 -2 14 2 0 7
-48 32 -61 32 -4 0 -9 -6 -12 -12z"/>
<path d="M3188 5993 c7 -3 16 -2 19 1 4 3 -2 6 -13 5 -11 0 -14 -3 -6 -6z"/>
<path d="M2700 5966 c0 -2 8 -10 18 -17 15 -13 16 -12 3 4 -13 16 -21 21 -21
13z"/>
<path d="M3187 5939 c7 -7 15 -10 18 -7 3 3 -2 9 -12 12 -14 6 -15 5 -6 -5z"/>
<path d="M2525 5919 c-4 -6 -5 -12 -2 -15 2 -3 7 2 10 11 7 17 1 20 -8 4z"/>
<path d="M2747 5906 c4 -18 10 -23 21 -18 10 4 12 7 4 10 -7 2 -12 10 -12 18
0 8 -4 14 -9 14 -4 0 -6 -11 -4 -24z"/>
<path d="M1865 5899 c-4 -6 -5 -12 -2 -15 2 -3 7 2 10 11 7 17 1 20 -8 4z"/>
<path d="M1970 5900 c0 -5 5 -10 11 -10 5 0 7 5 4 10 -3 6 -8 10 -11 10 -2 0
-4 -4 -4 -10z"/>
<path d="M3705 5880 c-3 -6 1 -7 9 -4 18 7 21 14 7 14 -6 0 -13 -4 -16 -10z"/>
<path d="M2780 5876 c0 -2 8 -10 18 -17 15 -13 16 -12 3 4 -13 16 -21 21 -21
13z"/>
<path d="M1832 5850 c-7 -11 -8 -20 -3 -20 9 0 24 30 18 36 -1 2 -8 -6 -15
-16z"/>
<path d="M2980 5860 c-9 -6 -10 -10 -3 -10 6 0 15 5 18 10 8 12 4 12 -15 0z"/>
<path d="M3600 5850 c-8 -5 -10 -10 -5 -10 6 0 17 5 25 10 8 5 11 10 5 10 -5
0 -17 -5 -25 -10z"/>
<path d="M3170 5846 c0 -2 8 -10 18 -17 15 -13 16 -12 3 4 -13 16 -21 21 -21
13z"/>
<path d="M3468 5836 c-10 -7 -14 -17 -10 -21 4 -4 -5 -5 -20 -3 -37 7 -35 0 3
-14 24 -8 30 -15 25 -32 -4 -18 -3 -19 7 -6 7 8 19 15 27 15 8 0 20 11 27 24
10 21 9 27 -5 38 -21 16 -33 16 -54 -1z"/>
<path d="M3558 5833 c7 -3 16 -2 19 1 4 3 -2 6 -13 5 -11 0 -14 -3 -6 -6z"/>
<path d="M2466 5814 c-5 -14 -4 -15 9 -4 17 14 19 20 6 20 -5 0 -12 -7 -15
-16z"/>
<path d="M2931 5809 c-13 -11 -20 -23 -16 -27 4 -4 10 -1 12 6 3 6 10 9 16 5
7 -3 9 -3 5 2 -4 4 -3 14 3 22 16 19 8 16 -20 -8z"/>
<path d="M3145 5809 c-4 -5 -11 -6 -17 -3 -7 4 -8 2 -4 -5 6 -8 12 -9 20 -2 9
7 16 7 24 -1 8 -8 12 -9 12 -1 0 15 -28 25 -35 12z"/>
<path d="M3826 5803 c-6 -14 -5 -15 5 -6 7 7 10 15 7 18 -3 3 -9 -2 -12 -12z"/>
<path d="M3207 5790 c10 -11 18 -20 19 -20 1 0 0 9 -3 20 -3 11 -12 20 -19 20
-11 0 -10 -5 3 -20z"/>
<path d="M3338 5803 c6 -2 18 -2 25 0 6 3 1 5 -13 5 -14 0 -19 -2 -12 -5z"/>
<path d="M3408 5783 c7 -3 16 -2 19 1 4 3 -2 6 -13 5 -11 0 -14 -3 -6 -6z"/>
<path d="M4056 5748 c3 -5 10 -6 15 -3 13 9 11 12 -6 12 -8 0 -12 -4 -9 -9z"/>
<path d="M3005 6780 c-3 -6 1 -7 9 -4 18 7 21 14 7 14 -6 0 -13 -4 -16 -10z"/>
<path d="M2809 6753 c-13 -16 -12 -17 4 -4 16 13 21 21 13 21 -2 0 -10 -8 -17
-17z"/>
<path d="M3030 6762 c0 -4 10 -13 23 -21 22 -14 22 -14 3 8 -20 22 -26 25 -26
13z"/>
<path d="M1827 6748 c-21 -11 -22 -44 -2 -65 14 -13 18 -13 40 1 14 9 25 22
25 29 -1 31 -36 51 -63 35z"/>
<path d="M3100 6691 c0 -6 4 -13 10 -16 6 -3 7 1 4 9 -7 18 -14 21 -14 7z"/>
<path d="M3130 6651 c0 -10 29 -36 34 -30 1 2 -6 12 -16 22 -10 9 -18 13 -18
8z"/>
<path d="M3235 6644 c-9 -9 -14 -23 -11 -31 3 -8 1 -11 -4 -8 -6 3 -10 2 -10
-3 0 -17 60 -36 72 -24 9 9 18 6 37 -11 l26 -22 -20 23 c-10 13 -20 35 -21 49
-2 41 -40 56 -69 27z"/>
<path d="M1855 6601 c-3 -5 -2 -12 3 -15 5 -3 9 1 9 9 0 17 -3 19 -12 6z"/>
<path d="M3170 6600 c0 -6 7 -10 15 -10 8 0 15 2 15 4 0 2 -7 6 -15 10 -8 3
-15 1 -15 -4z"/>
<path d="M3108 6578 c-9 -5 -6 -8 9 -8 12 0 24 4 27 8 7 11 -19 11 -36 0z"/>
<path d="M3180 6565 c-8 -9 -8 -15 -2 -15 6 0 13 6 16 13 3 8 8 7 16 -5 6 -10
16 -18 23 -18 7 0 6 4 -3 10 -8 5 -10 10 -5 10 10 0 -15 20 -26 20 -4 0 -12
-7 -19 -15z"/>
<path d="M1870 6550 c-9 -6 -10 -10 -3 -10 6 0 15 5 18 10 8 12 4 12 -15 0z"/>
<path d="M2998 6543 c7 -3 16 -2 19 1 4 3 -2 6 -13 5 -11 0 -14 -3 -6 -6z"/>
<path d="M3145 6541 c-3 -5 -2 -12 3 -15 5 -3 9 1 9 9 0 17 -3 19 -12 6z"/>
<path d="M2945 6530 c-16 -7 -17 -9 -3 -9 9 -1 20 4 23 9 7 11 7 11 -20 0z"/>
<path d="M1785 6520 c-3 -5 -2 -10 4 -10 5 0 13 5 16 10 3 6 2 10 -4 10 -5 0
-13 -4 -16 -10z"/>
<path d="M3172 6491 c7 -9 13 -18 15 -20 1 -2 1 5 0 16 0 11 -7 20 -14 20 -10
0 -10 -4 -1 -16z"/>
<path d="M3069 6479 l-24 -20 28 17 c15 9 27 18 27 20 0 8 -8 4 -31 -17z"/>
<path d="M3155 6469 c-4 -6 -5 -12 -2 -15 2 -3 7 2 10 11 7 17 1 20 -8 4z"/>
<path d="M3460 6455 c7 -8 17 -15 22 -15 5 0 3 7 -6 15 -8 8 -18 15 -22 15 -3
0 -1 -7 6 -15z"/>
<path d="M1495 6420 c-3 -5 -1 -10 4 -10 6 0 11 5 11 10 0 6 -2 10 -4 10 -3 0
-8 -4 -11 -10z"/>
<path d="M1766 6413 c-6 -14 -5 -15 5 -6 7 7 10 15 7 18 -3 3 -9 -2 -12 -12z"/>
<path d="M3330 6423 c0 -6 8 -17 18 -24 16 -13 16 -13 2 6 -8 11 -16 22 -17
24 -2 2 -3 0 -3 -6z"/>
<path d="M3501 6427 c2 -1 15 -11 29 -22 l25 -20 -19 23 c-11 12 -24 22 -29
22 -6 0 -8 -1 -6 -3z"/>
<path d="M1380 6380 c-9 -6 -10 -10 -3 -10 6 0 15 5 18 10 8 12 4 12 -15 0z"/>
<path d="M3569 6377 c15 -19 71 -61 71 -54 0 2 -19 19 -42 37 -24 19 -37 26
-29 17z"/>
<path d="M1218 6369 c-21 -12 -24 -57 -4 -65 11 -4 12 -13 5 -37 -11 -38 -11
-37 -1 -37 4 0 9 12 10 27 3 39 18 50 45 34 18 -11 20 -11 10 0 -15 15 -17 33
-4 25 17 -11 6 29 -13 47 -22 20 -25 20 -48 6z"/>
<path d="M3380 6366 c0 -2 8 -10 18 -17 15 -13 16 -12 3 4 -13 16 -21 21 -21
13z"/>
<path d="M3415 6320 c3 -5 8 -10 11 -10 2 0 4 5 4 10 0 6 -5 10 -11 10 -5 0
-7 -4 -4 -10z"/>
<path d="M3650 6316 c0 -2 8 -10 18 -17 15 -13 16 -12 3 4 -13 16 -21 21 -21
13z"/>
<path d="M3440 6296 c0 -2 8 -10 18 -17 15 -13 16 -12 3 4 -13 16 -21 21 -21
13z"/>
<path d="M3699 6276 c15 -18 101 -80 101 -73 0 2 -26 23 -57 47 -32 24 -52 35
-44 26z"/>
<path d="M3496 6230 c17 -19 40 -45 51 -58 11 -12 19 -17 19 -10 0 7 -23 33
-51 58 -40 35 -44 37 -19 10z"/>
<path d="M1500 6216 c0 -2 8 -10 18 -17 15 -13 16 -12 3 4 -13 16 -21 21 -21
13z"/>
<path d="M3816 6187 c3 -10 9 -15 12 -12 3 3 0 11 -7 18 -10 9 -11 8 -5 -6z"/>
<path d="M1555 6180 c3 -5 8 -10 11 -10 2 0 4 5 4 10 0 6 -5 10 -11 10 -5 0
-7 -4 -4 -10z"/>
<path d="M1590 6158 c0 -4 7 -8 15 -8 8 0 15 4 15 8 0 5 -7 9 -15 9 -8 0 -15
-4 -15 -9z"/>
<path d="M3853 6156 c15 -12 16 -18 7 -35 -6 -12 -13 -21 -16 -21 -3 0 -2 5 1
10 4 6 -5 10 -22 9 -19 -1 -22 -3 -9 -6 15 -4 16 -7 5 -14 -10 -7 -6 -8 13 -5
17 3 32 -2 44 -15 22 -25 58 -24 83 2 39 42 -19 112 -69 82 -11 -7 -23 -8 -36
-1 -18 9 -18 9 -1 -6z"/>
<path d="M4505 6148 c-8 -13 -11 -24 -6 -26 5 -2 7 -17 5 -35 -2 -21 -1 -26 4
-14 4 10 18 23 31 30 30 15 35 44 11 57 -25 14 -27 13 -45 -12z"/>
<path d="M1637 6139 c7 -7 15 -10 18 -7 3 3 -2 9 -12 12 -14 6 -15 5 -6 -5z"/>
<path d="M3583 6125 c0 -8 4 -12 8 -9 4 2 15 -6 23 -18 9 -12 16 -17 16 -11 0
7 -5 15 -10 18 -6 4 -7 12 -4 18 4 7 4 9 -1 5 -4 -4 -13 -3 -20 2 -8 7 -12 5
-12 -5z"/>
<path d="M3731 6129 c-1 -12 7 -16 28 -15 16 1 27 5 24 9 -3 5 -14 7 -24 4
-10 -3 -20 0 -23 7 -2 6 -5 4 -5 -5z"/>
<path d="M1455 6120 c-3 -6 1 -7 9 -4 18 7 21 14 7 14 -6 0 -13 -4 -16 -10z"/>
<path d="M1386 6112 c-3 -4 4 -9 15 -9 23 -2 25 3 4 10 -8 4 -16 3 -19 -1z"/>
<path d="M4015 6110 c-3 -6 1 -7 9 -4 18 7 21 14 7 14 -6 0 -13 -4 -16 -10z"/>
<path d="M4078 6113 c7 -3 16 -2 19 1 4 3 -2 6 -13 5 -11 0 -14 -3 -6 -6z"/>
<path d="M3654 6069 c-3 -6 -1 -16 6 -22 10 -9 11 -9 5 2 -4 8 -2 17 6 22 9 6
10 9 2 9 -6 0 -15 -5 -19 -11z"/>
<path d="M4446 6065 c-11 -8 -15 -15 -9 -15 6 0 16 7 23 15 16 19 11 19 -14 0z"/>
<path d="M1230 6060 c0 -5 7 -7 15 -4 8 4 15 8 15 10 0 2 -7 4 -15 4 -8 0 -15
-4 -15 -10z"/>
<path d="M4144 6062 c-27 -4 -38 -41 -19 -62 8 -9 13 -19 10 -22 -3 -2 2 -5
10 -5 8 0 15 4 15 9 0 5 4 7 9 4 10 -7 21 16 21 44 0 23 -20 37 -46 32z"/>
<path d="M3886 6035 c-9 -26 -7 -32 5 -12 6 10 9 21 6 23 -2 3 -7 -2 -11 -11z"/>
<path d="M1130 6031 c0 -6 5 -13 12 -17 6 -4 8 -3 4 4 -3 5 0 13 6 15 8 3 6 6
-4 6 -10 1 -18 -3 -18 -8z"/>
<path d="M4399 6023 c-13 -16 -12 -17 4 -4 9 7 17 15 17 17 0 8 -8 3 -21 -13z"/>
<path d="M855 6004 c-14 -21 -15 -31 -5 -54 13 -31 55 -56 66 -39 3 6 12 8 18
6 13 -5 17 6 18 57 1 55 -66 76 -97 30z"/>
<path d="M1466 6001 c-3 -5 1 -11 9 -15 8 -3 15 -1 15 4 0 13 -18 22 -24 11z"/>
<path d="M4359 5993 c-13 -16 -12 -17 4 -4 9 7 17 15 17 17 0 8 -8 3 -21 -13z"/>
<path d="M965 5980 c3 -5 11 -10 16 -10 6 0 7 5 4 10 -3 6 -11 10 -16 10 -6 0
-7 -4 -4 -10z"/>
<path d="M1087 5979 c7 -7 15 -10 18 -7 3 3 -2 9 -12 12 -14 6 -15 5 -6 -5z"/>
<path d="M1170 5980 c0 -4 7 -7 15 -6 23 3 26 12 5 13 -11 1 -20 -2 -20 -7z"/>
<path d="M4000 5980 c-9 -6 -10 -10 -3 -10 6 0 15 5 18 10 8 12 4 12 -15 0z"/>
<path d="M1008 5973 c7 -3 16 -2 19 1 4 3 -2 6 -13 5 -11 0 -14 -3 -6 -6z"/>
<path d="M1128 5973 c7 -3 16 -2 19 1 4 3 -2 6 -13 5 -11 0 -14 -3 -6 -6z"/>
<path d="M3935 5960 c-3 -5 -1 -10 4 -10 6 0 11 5 11 10 0 6 -2 10 -4 10 -3 0
-8 -4 -11 -10z"/>
<path d="M3898 5943 c7 -3 16 -2 19 1 4 3 -2 6 -13 5 -11 0 -14 -3 -6 -6z"/>
<path d="M4190 5946 c0 -2 8 -10 18 -17 15 -13 16 -12 3 4 -13 16 -21 21 -21
13z"/>
<path d="M4289 5933 c-13 -16 -12 -17 4 -4 16 13 21 21 13 21 -2 0 -10 -8 -17
-17z"/>
<path d="M4456 5913 c-6 -14 -5 -15 5 -6 7 7 10 15 7 18 -3 3 -9 -2 -12 -12z"/>
<path d="M4226 5885 c19 -29 21 -30 21 -11 0 7 -9 19 -19 25 -18 11 -18 11 -2
-14z"/>
<path d="M1084 5878 l-19 -23 23 19 c21 18 27 26 19 26 -2 0 -12 -10 -23 -22z"/>
<path d="M4185 5849 c-4 -6 -5 -12 -2 -15 2 -3 7 2 10 11 7 17 1 20 -8 4z"/>
<path d="M4441 5844 c0 -11 3 -14 6 -6 3 7 2 16 -1 19 -3 4 -6 -2 -5 -13z"/>
<path d="M4250 5841 c0 -6 4 -13 10 -16 6 -3 7 1 4 9 -7 18 -14 21 -14 7z"/>
<path d="M4425 5789 c-4 -6 -5 -12 -2 -15 2 -3 7 2 10 11 7 17 1 20 -8 4z"/>
<path d="M5985 2793 c-148 -78 -100 -306 65 -307 96 -1 170 69 170 160 0 121
-131 203 -235 147z"/>
<path d="M6605 2353 c-21 -38 -70 -129 -108 -203 -38 -74 -82 -157 -97 -185
-15 -27 -55 -104 -90 -170 -34 -66 -66 -125 -71 -130 -4 -6 -12 -22 -17 -35
l-10 -25 82 1 c44 1 91 2 102 3 18 1 32 23 73 107 28 58 51 109 51 114 0 14
22 17 127 17 l101 1 62 -115 c35 -63 68 -120 75 -126 7 -8 47 -12 111 -12 93
0 99 2 96 20 -2 11 -7 22 -10 25 -4 3 -18 25 -30 50 -31 60 -87 161 -161 294
-34 60 -61 111 -61 113 0 4 -137 253 -151 273 -5 8 -12 23 -15 33 -4 9 -9 17
-13 17 -4 0 -24 -30 -46 -67z m55 -349 c0 -6 7 -17 15 -24 30 -25 14 -43 -38
-43 -26 0 -50 3 -53 6 -3 3 7 29 22 58 25 49 27 52 40 34 8 -10 14 -24 14 -31z"/>
<path d="M5141 2392 c-18 -3 -22 -8 -18 -28 2 -13 0 -24 -6 -24 -6 0 -6 -5 0
-12 5 -7 8 -171 8 -370 -1 -197 1 -359 4 -359 3 -1 45 -2 94 -3 l87 -2 1 31
c0 16 0 135 0 263 -1 127 2 232 7 232 4 0 47 -60 96 -133 49 -72 129 -191 177
-262 l88 -131 88 2 c48 1 91 2 94 3 11 2 7 791 -5 792 -49 5 -163 3 -171 -2
-6 -5 -10 -103 -9 -263 1 -141 -2 -256 -5 -256 -3 0 -47 62 -98 138 -99 147
-253 375 -257 379 -4 5 -150 8 -175 5z"/>
<path d="M5947 2392 c-16 -3 -17 -32 -17 -401 l0 -397 115 1 c63 0 117 4 120
7 7 7 8 778 1 785 -5 5 -195 9 -219 5z"/>
<path d="M7270 2389 c-69 -7 -84 -14 -107 -47 -16 -25 -17 -58 -18 -363 0
-368 -1 -360 60 -384 21 -8 121 -11 330 -11 l300 1 3 75 3 75 -218 0 c-120 -1
-223 0 -228 2 -12 4 -14 487 -3 499 4 3 107 6 228 6 l221 0 -3 76 -3 76 -255
0 c-140 1 -280 -2 -310 -5z"/>
</g>
</svg>
